<svg width="276" height="119" viewBox="0 0 276 119" fill="none" xmlns="http://www.w3.org/2000/svg">
<mask id="path-1-inside-1_69_1290" fill="white">
<path d="M98.1692 113.048L106.293 95.1428H108.174L116.429 113.048H114.182L111.883 107.943L112.85 108.476H101.591L102.636 107.943L100.39 113.048H98.1692ZM107.208 97.5555L102.976 107.206L102.349 106.749H112.066L111.596 107.206L107.26 97.5555H107.208ZM125.616 113.276C124.432 113.276 123.413 112.988 122.56 112.413C121.706 111.82 121.132 111.016 120.836 110H121.123V113.048H119.033V94.3555H121.149V103.27H120.836C121.132 102.288 121.706 101.509 122.56 100.933C123.413 100.358 124.432 100.07 125.616 100.07C126.8 100.07 127.819 100.341 128.672 100.882C129.543 101.407 130.213 102.161 130.684 103.143C131.171 104.125 131.415 105.302 131.415 106.673C131.415 108.044 131.171 109.221 130.684 110.203C130.196 111.185 129.517 111.947 128.646 112.489C127.793 113.014 126.783 113.276 125.616 113.276ZM125.172 111.6C126.408 111.6 127.401 111.185 128.15 110.355C128.899 109.526 129.273 108.298 129.273 106.673C129.273 105.048 128.899 103.82 128.15 102.99C127.401 102.144 126.408 101.721 125.172 101.721C123.935 101.721 122.943 102.144 122.194 102.99C121.462 103.82 121.097 105.048 121.097 106.673C121.097 108.281 121.462 109.509 122.194 110.355C122.943 111.185 123.935 111.6 125.172 111.6ZM139.747 113.276C138.58 113.276 137.561 113.014 136.691 112.489C135.82 111.947 135.141 111.185 134.653 110.203C134.183 109.221 133.948 108.044 133.948 106.673C133.948 105.285 134.183 104.099 134.653 103.117C135.141 102.135 135.82 101.382 136.691 100.857C137.561 100.332 138.58 100.07 139.747 100.07C140.931 100.07 141.95 100.366 142.803 100.959C143.674 101.534 144.249 102.322 144.527 103.321H144.214L144.501 100.298H146.539C146.487 100.789 146.434 101.289 146.382 101.797C146.347 102.288 146.33 102.77 146.33 103.244V113.048H144.214V110.051H144.501C144.222 111.05 143.648 111.837 142.777 112.413C141.907 112.988 140.896 113.276 139.747 113.276ZM140.165 111.6C141.419 111.6 142.411 111.185 143.143 110.355C143.874 109.509 144.24 108.281 144.24 106.673C144.24 105.048 143.874 103.82 143.143 102.99C142.411 102.144 141.419 101.721 140.165 101.721C138.929 101.721 137.936 102.144 137.187 102.99C136.456 103.82 136.09 105.048 136.09 106.673C136.09 108.281 136.456 109.509 137.187 110.355C137.936 111.185 138.929 111.6 140.165 111.6ZM150.482 113.048V103.244C150.482 102.77 150.456 102.288 150.404 101.797C150.369 101.289 150.325 100.789 150.273 100.298H152.311L152.572 103.092H152.258C152.642 102.11 153.251 101.365 154.087 100.857C154.94 100.332 155.924 100.07 157.039 100.07C158.589 100.07 159.756 100.476 160.539 101.289C161.34 102.085 161.741 103.346 161.741 105.073V113.048H159.625V105.2C159.625 103.998 159.372 103.126 158.867 102.584C158.38 102.025 157.613 101.746 156.569 101.746C155.349 101.746 154.383 102.11 153.669 102.838C152.955 103.566 152.598 104.54 152.598 105.759V113.048H150.482ZM171.622 118.711C170.491 118.711 169.446 118.576 168.488 118.305C167.53 118.034 166.668 117.619 165.902 117.06L166.529 115.511C167.069 115.884 167.6 116.18 168.122 116.4C168.645 116.62 169.185 116.781 169.742 116.882C170.299 117.001 170.891 117.06 171.518 117.06C172.807 117.06 173.782 116.73 174.444 116.07C175.105 115.409 175.436 114.47 175.436 113.251V109.517H175.698C175.419 110.516 174.844 111.312 173.973 111.905C173.103 112.48 172.084 112.768 170.917 112.768C169.716 112.768 168.671 112.514 167.782 112.006C166.912 111.481 166.233 110.745 165.745 109.797C165.275 108.832 165.04 107.697 165.04 106.394C165.04 105.107 165.275 103.989 165.745 103.041C166.233 102.093 166.912 101.365 167.782 100.857C168.671 100.332 169.716 100.07 170.917 100.07C172.101 100.07 173.12 100.358 173.973 100.933C174.844 101.509 175.419 102.305 175.698 103.321L175.436 103.067L175.671 100.298H177.735C177.665 100.789 177.613 101.289 177.578 101.797C177.544 102.288 177.526 102.77 177.526 103.244V112.971C177.526 114.868 177.021 116.298 176.011 117.263C175.018 118.228 173.556 118.711 171.622 118.711ZM171.309 111.092C172.58 111.092 173.582 110.686 174.313 109.873C175.045 109.043 175.41 107.884 175.41 106.394C175.41 104.904 175.045 103.752 174.313 102.94C173.582 102.127 172.58 101.721 171.309 101.721C170.055 101.721 169.054 102.127 168.305 102.94C167.556 103.752 167.182 104.904 167.182 106.394C167.182 107.884 167.556 109.043 168.305 109.873C169.054 110.686 170.055 111.092 171.309 111.092Z"/>
</mask>
<path d="M98.1692 113.048L106.293 95.1428H108.174L116.429 113.048H114.182L111.883 107.943L112.85 108.476H101.591L102.636 107.943L100.39 113.048H98.1692ZM107.208 97.5555L102.976 107.206L102.349 106.749H112.066L111.596 107.206L107.26 97.5555H107.208ZM125.616 113.276C124.432 113.276 123.413 112.988 122.56 112.413C121.706 111.82 121.132 111.016 120.836 110H121.123V113.048H119.033V94.3555H121.149V103.27H120.836C121.132 102.288 121.706 101.509 122.56 100.933C123.413 100.358 124.432 100.07 125.616 100.07C126.8 100.07 127.819 100.341 128.672 100.882C129.543 101.407 130.213 102.161 130.684 103.143C131.171 104.125 131.415 105.302 131.415 106.673C131.415 108.044 131.171 109.221 130.684 110.203C130.196 111.185 129.517 111.947 128.646 112.489C127.793 113.014 126.783 113.276 125.616 113.276ZM125.172 111.6C126.408 111.6 127.401 111.185 128.15 110.355C128.899 109.526 129.273 108.298 129.273 106.673C129.273 105.048 128.899 103.82 128.15 102.99C127.401 102.144 126.408 101.721 125.172 101.721C123.935 101.721 122.943 102.144 122.194 102.99C121.462 103.82 121.097 105.048 121.097 106.673C121.097 108.281 121.462 109.509 122.194 110.355C122.943 111.185 123.935 111.6 125.172 111.6ZM139.747 113.276C138.58 113.276 137.561 113.014 136.691 112.489C135.82 111.947 135.141 111.185 134.653 110.203C134.183 109.221 133.948 108.044 133.948 106.673C133.948 105.285 134.183 104.099 134.653 103.117C135.141 102.135 135.82 101.382 136.691 100.857C137.561 100.332 138.58 100.07 139.747 100.07C140.931 100.07 141.95 100.366 142.803 100.959C143.674 101.534 144.249 102.322 144.527 103.321H144.214L144.501 100.298H146.539C146.487 100.789 146.434 101.289 146.382 101.797C146.347 102.288 146.33 102.77 146.33 103.244V113.048H144.214V110.051H144.501C144.222 111.05 143.648 111.837 142.777 112.413C141.907 112.988 140.896 113.276 139.747 113.276ZM140.165 111.6C141.419 111.6 142.411 111.185 143.143 110.355C143.874 109.509 144.24 108.281 144.24 106.673C144.24 105.048 143.874 103.82 143.143 102.99C142.411 102.144 141.419 101.721 140.165 101.721C138.929 101.721 137.936 102.144 137.187 102.99C136.456 103.82 136.09 105.048 136.09 106.673C136.09 108.281 136.456 109.509 137.187 110.355C137.936 111.185 138.929 111.6 140.165 111.6ZM150.482 113.048V103.244C150.482 102.77 150.456 102.288 150.404 101.797C150.369 101.289 150.325 100.789 150.273 100.298H152.311L152.572 103.092H152.258C152.642 102.11 153.251 101.365 154.087 100.857C154.94 100.332 155.924 100.07 157.039 100.07C158.589 100.07 159.756 100.476 160.539 101.289C161.34 102.085 161.741 103.346 161.741 105.073V113.048H159.625V105.2C159.625 103.998 159.372 103.126 158.867 102.584C158.38 102.025 157.613 101.746 156.569 101.746C155.349 101.746 154.383 102.11 153.669 102.838C152.955 103.566 152.598 104.54 152.598 105.759V113.048H150.482ZM171.622 118.711C170.491 118.711 169.446 118.576 168.488 118.305C167.53 118.034 166.668 117.619 165.902 117.06L166.529 115.511C167.069 115.884 167.6 116.18 168.122 116.4C168.645 116.62 169.185 116.781 169.742 116.882C170.299 117.001 170.891 117.06 171.518 117.06C172.807 117.06 173.782 116.73 174.444 116.07C175.105 115.409 175.436 114.47 175.436 113.251V109.517H175.698C175.419 110.516 174.844 111.312 173.973 111.905C173.103 112.48 172.084 112.768 170.917 112.768C169.716 112.768 168.671 112.514 167.782 112.006C166.912 111.481 166.233 110.745 165.745 109.797C165.275 108.832 165.04 107.697 165.04 106.394C165.04 105.107 165.275 103.989 165.745 103.041C166.233 102.093 166.912 101.365 167.782 100.857C168.671 100.332 169.716 100.07 170.917 100.07C172.101 100.07 173.12 100.358 173.973 100.933C174.844 101.509 175.419 102.305 175.698 103.321L175.436 103.067L175.671 100.298H177.735C177.665 100.789 177.613 101.289 177.578 101.797C177.544 102.288 177.526 102.77 177.526 103.244V112.971C177.526 114.868 177.021 116.298 176.011 117.263C175.018 118.228 173.556 118.711 171.622 118.711ZM171.309 111.092C172.58 111.092 173.582 110.686 174.313 109.873C175.045 109.043 175.41 107.884 175.41 106.394C175.41 104.904 175.045 103.752 174.313 102.94C173.582 102.127 172.58 101.721 171.309 101.721C170.055 101.721 169.054 102.127 168.305 102.94C167.556 103.752 167.182 104.904 167.182 106.394C167.182 107.884 167.556 109.043 168.305 109.873C169.054 110.686 170.055 111.092 171.309 111.092Z" fill="#F0CF86" stroke="#F0CF86" stroke-width="2" mask="url(#path-1-inside-1_69_1290)"/>
<path d="M172.585 30.1872V69.2474M172.585 69.2474H179.768M172.585 69.2474H145.492M172.585 69.2474H101.363M179.768 69.2474V81H95V69.2474M179.768 69.2474H95M95 69.2474H101.363M101.363 69.2474V31.7848L95 36.6237L137.897 4L161.091 21.5546M101.363 69.2474H127.635M181 36.6237L161.091 21.5546M127.635 69.2474V38.4474H145.492V69.2474M127.635 69.2474H145.492M161.091 5.82368V21.5546" stroke="#F0CF86" stroke-width="5"/>
<path d="M195 81L276 81" stroke="#F0CF86" stroke-width="15"/>
<path d="M0 81L81 81" stroke="#F0CF86" stroke-width="15"/>
</svg>
