<svg width="308" height="144" viewBox="0 0 308 144" fill="none" xmlns="http://www.w3.org/2000/svg">
<path d="M307.109 96.5001C307.109 167.469 246.326 136.5 151.609 136.5C56.8924 136.5 0 167.469 0 96.5C0 25.5314 57.7832 2.5 152.5 2.5C247.217 2.5 307.109 25.5315 307.109 96.5001Z" fill="#FCFBFF"/>
<g clip-path="url(#clip0_162_2012)">
<path d="M88.7162 133.71H88.1578C88.1578 126.722 85.3928 120.02 80.4709 115.078C75.549 110.137 68.8734 107.36 61.9128 107.36C54.9522 107.36 48.2767 110.137 43.3548 115.078C38.4329 120.02 35.6678 126.722 35.6678 133.71H35.1094C35.1094 126.573 37.9333 119.728 42.9599 114.682C47.9865 109.635 54.8041 106.8 61.9128 106.8C69.0215 106.8 75.8391 109.635 80.8657 114.682C85.8923 119.728 88.7162 126.573 88.7162 133.71V133.71Z" fill="#3F3D56"/>
<path d="M283.041 133.71H282.483C282.483 126.722 279.718 120.02 274.796 115.078C269.874 110.137 263.199 107.36 256.238 107.36C249.277 107.36 242.602 110.137 237.68 115.078C232.758 120.02 229.993 126.722 229.993 133.71H229.435C229.435 126.573 232.258 119.728 237.285 114.682C242.312 109.635 249.129 106.8 256.238 106.8C263.347 106.8 270.164 109.635 275.191 114.682C280.218 119.728 283.041 126.573 283.041 133.71V133.71Z" fill="#3F3D56"/>
<path d="M217.429 69.518H216.87C216.87 42.9326 195.327 21.3038 168.847 21.3038C142.367 21.3038 120.825 42.9326 120.825 69.518H120.266C120.266 42.6235 142.06 20.7432 168.847 20.7432C195.635 20.7432 217.429 42.6235 217.429 69.518Z" fill="#3F3D56"/>
<path d="M75.7336 22.1449C81.8245 22.1449 86.7621 17.1876 86.7621 11.0725C86.7621 4.95731 81.8245 0 75.7336 0C69.6427 0 64.7051 4.95731 64.7051 11.0725C64.7051 17.1876 69.6427 22.1449 75.7336 22.1449Z" fill="#F0CF86"/>
<path d="M78.0762 87.2861L97.0231 64.6318H134.274L157.039 86.8934L156.579 87.1902H156.743V133.494H78.1021V87.1902L78.0762 87.2861Z" fill="#3F3D56"/>
<path d="M89.4755 77.4365H93.7705V62.5101H89.4755V77.4365Z" fill="#3F3D56"/>
<path d="M96.7277 64.335L120.083 91.8263V133.494H78.1021V86.5965L96.7277 64.335Z" fill="#F7D7D5"/>
<path d="M114.686 97.2812H106.112V106.083H114.686V97.2812Z" fill="#3F3D56"/>
<path d="M114.686 109.258H106.112V118.059H114.686V109.258Z" fill="#3F3D56"/>
<path d="M114.686 97.2812H106.112V106.083H114.686V97.2812Z" fill="white"/>
<path d="M114.686 109.258H106.112V118.059H114.686V109.258Z" fill="white"/>
<path d="M102.829 97.2812H94.2549V106.083H102.829V97.2812Z" fill="#3F3D56"/>
<path d="M102.829 109.258H94.2549V118.059H102.829V109.258Z" fill="#3F3D56"/>
<path d="M102.829 97.2812H94.2549V106.083H102.829V97.2812Z" fill="white"/>
<path d="M102.829 109.258H94.2549V118.059H102.829V109.258Z" fill="white"/>
<path d="M90.9716 97.2812H82.3979V106.083H90.9716V97.2812Z" fill="#3F3D56"/>
<path d="M90.9716 109.258H82.3979V118.059H90.9716V109.258Z" fill="#3F3D56"/>
<path d="M90.9716 97.2812H82.3979V106.083H90.9716V97.2812Z" fill="white"/>
<path d="M90.9716 109.258H82.3979V118.059H90.9716V109.258Z" fill="white"/>
<path d="M174.431 11.2129H170.522V21.0239H174.431V11.2129Z" fill="#FCFBFF"/>
<path d="M174.152 20.1826H140.927V133.71H174.152V20.1826Z" fill="#F7D7D5"/>
<path d="M187.554 20.1826H174.152V133.71H187.554V20.1826Z" fill="#3F3D56"/>
<path d="M151.956 29.9941H146.93V35.0398H151.956V29.9941Z" fill="white"/>
<path d="M160.052 29.9941H155.027V35.0398H160.052V29.9941Z" fill="white"/>
<path d="M168.149 29.9941H163.124V35.0398H168.149V29.9941Z" fill="white"/>
<path d="M152.095 41.4863H147.07V46.532H152.095V41.4863Z" fill="white"/>
<path d="M160.192 41.4863H155.167V46.532H160.192V41.4863Z" fill="white"/>
<path d="M168.289 41.4863H163.263V46.532H168.289V41.4863Z" fill="white"/>
<path d="M152.235 52.9795H147.209V58.0252H152.235V52.9795Z" fill="white"/>
<path d="M160.332 52.9795H155.306V58.0252H160.332V52.9795Z" fill="white"/>
<path d="M168.428 52.9795H163.403V58.0252H168.428V52.9795Z" fill="white"/>
<path d="M152.374 64.4727H147.349V69.5183H152.374V64.4727Z" fill="white"/>
<path d="M160.471 64.4727H155.446V69.5183H160.471V64.4727Z" fill="white"/>
<path d="M168.568 64.4727H163.542V69.5183H168.568V64.4727Z" fill="white"/>
<path d="M152.514 75.9658H147.488V81.0115H152.514V75.9658Z" fill="white"/>
<path d="M160.611 75.9658H155.585V81.0115H160.611V75.9658Z" fill="white"/>
<path d="M168.708 75.9658H163.682V81.0115H168.708V75.9658Z" fill="white"/>
<path d="M152.654 87.458H147.628V92.5037H152.654V87.458Z" fill="white"/>
<path d="M160.751 87.458H155.725V92.5037H160.751V87.458Z" fill="white"/>
<path d="M168.847 87.458H163.822V92.5037H168.847V87.458Z" fill="white"/>
<path d="M152.793 98.9512H147.768V103.997H152.793V98.9512Z" fill="white"/>
<path d="M160.89 98.9512H155.864V103.997H160.89V98.9512Z" fill="white"/>
<path d="M168.987 98.9512H163.961V103.997H168.987V98.9512Z" fill="white"/>
<path d="M152.933 110.444H147.907V115.49H152.933V110.444Z" fill="white"/>
<path d="M161.03 110.444H156.004V115.49H161.03V110.444Z" fill="white"/>
<path d="M161.03 123.899H156.004V133.43H161.03V123.899Z" fill="white"/>
<path d="M169.127 110.444H164.101V115.49H169.127V110.444Z" fill="white"/>
<path d="M176.386 11.2129H174.152V20.7436H176.386V11.2129Z" fill="#3F3D56"/>
<path d="M216.312 61.1084H212.403V66.9232H216.312V61.1084Z" fill="#FCFBFF"/>
<path d="M216.033 66.4248H182.808V133.71H216.033V66.4248Z" fill="#F7D7D5"/>
<path d="M229.434 66.4248H216.033V133.71H229.434V66.4248Z" fill="#3F3D56"/>
<path d="M194.394 75.9658H189.369V81.0115H194.394V75.9658Z" fill="white"/>
<path d="M202.491 75.9658H197.466V81.0115H202.491V75.9658Z" fill="white"/>
<path d="M210.588 75.9658H205.562V81.0115H210.588V75.9658Z" fill="white"/>
<path d="M194.534 87.458H189.508V92.5037H194.534V87.458Z" fill="white"/>
<path d="M202.631 87.458H197.605V92.5037H202.631V87.458Z" fill="white"/>
<path d="M210.728 87.458H205.702V92.5037H210.728V87.458Z" fill="white"/>
<path d="M194.674 98.9512H189.648V103.997H194.674V98.9512Z" fill="white"/>
<path d="M202.77 98.9512H197.745V103.997H202.77V98.9512Z" fill="white"/>
<path d="M210.867 98.9512H205.842V103.997H210.867V98.9512Z" fill="white"/>
<path d="M194.813 110.444H189.788V115.49H194.813V110.444Z" fill="white"/>
<path d="M202.91 110.444H197.884V115.49H202.91V110.444Z" fill="white"/>
<path d="M202.91 123.899H197.884V133.43H202.91V123.899Z" fill="white"/>
<path d="M211.007 110.444H205.981V115.49H211.007V110.444Z" fill="white"/>
<path d="M218.266 61.1084H216.033V66.757H218.266V61.1084Z" fill="#3F3D56"/>
<path d="M283.11 133.372H35.1777V134H283.11V133.372Z" fill="#3F3D56"/>
<path d="M239.67 120.558C243.685 120.558 246.941 117.29 246.941 113.259C246.941 109.227 243.685 105.959 239.67 105.959C235.655 105.959 232.399 109.227 232.399 113.259C232.399 117.29 235.655 120.558 239.67 120.558Z" fill="#FCFBFF"/>
<path opacity="0.2" d="M245.078 108.383C245.756 109.976 245.848 111.758 245.338 113.413C244.827 115.068 243.747 116.486 242.291 117.415C240.835 118.343 239.097 118.722 237.388 118.483C235.679 118.243 234.111 117.402 232.963 116.108C233.378 117.082 233.998 117.953 234.781 118.661C235.563 119.37 236.49 119.899 237.497 120.212C238.504 120.526 239.567 120.615 240.611 120.475C241.656 120.335 242.658 119.969 243.548 119.401C244.438 118.834 245.194 118.079 245.764 117.189C246.335 116.299 246.705 115.296 246.851 114.247C246.997 113.199 246.913 112.132 246.607 111.119C246.301 110.107 245.779 109.173 245.078 108.383V108.383Z" fill="black"/>
<path d="M239.69 113.259H239.71L240.069 133.954H239.311L239.69 113.259Z" fill="#3F3D56"/>
<path d="M241.014 124.531L240.846 124.212L239.644 124.847L239.812 125.167L241.014 124.531Z" fill="#3F3D56"/>
<path d="M261.045 113.583C267.151 113.583 272.101 108.614 272.101 102.483C272.101 96.3526 267.151 91.3828 261.045 91.3828C254.939 91.3828 249.989 96.3526 249.989 102.483C249.989 108.614 254.939 113.583 261.045 113.583Z" fill="#FCFBFF"/>
<path opacity="0.2" d="M269.27 95.0693C270.301 97.4913 270.441 100.203 269.664 102.719C268.888 105.235 267.246 107.392 265.031 108.804C262.816 110.216 260.174 110.792 257.575 110.428C254.977 110.064 252.592 108.784 250.847 106.818C251.477 108.297 252.42 109.622 253.61 110.699C254.801 111.777 256.21 112.582 257.741 113.058C259.272 113.534 260.888 113.671 262.477 113.458C264.066 113.245 265.589 112.688 266.942 111.825C268.295 110.962 269.445 109.814 270.313 108.461C271.18 107.108 271.744 105.581 271.965 103.988C272.187 102.394 272.06 100.771 271.595 99.2307C271.129 97.6907 270.336 96.2709 269.27 95.0693V95.0693Z" fill="black"/>
<path d="M261.076 102.483H261.106L261.653 133.955H260.499L261.076 102.483Z" fill="#3F3D56"/>
<path d="M263.089 119.625L262.834 119.14L261.006 120.106L261.261 120.591L263.089 119.625Z" fill="#3F3D56"/>
<path d="M42.5528 120.278C46.5683 120.278 49.8234 117.01 49.8234 112.978C49.8234 108.947 46.5683 105.679 42.5528 105.679C38.5374 105.679 35.2822 108.947 35.2822 112.978C35.2822 117.01 38.5374 120.278 42.5528 120.278Z" fill="#FCFBFF"/>
<path opacity="0.2" d="M47.9611 108.103C48.6393 109.695 48.7313 111.478 48.2207 113.133C47.7101 114.787 46.6301 116.206 45.1738 117.134C43.7174 118.063 41.9796 118.442 40.2709 118.202C38.5622 117.963 36.9938 117.122 35.8462 115.828C36.2605 116.801 36.8805 117.672 37.6634 118.381C38.4463 119.09 39.3732 119.619 40.38 119.932C41.3868 120.245 42.4494 120.335 43.4942 120.195C44.539 120.055 45.541 119.689 46.4307 119.121C47.3205 118.554 48.0767 117.799 48.6471 116.909C49.2174 116.019 49.5882 115.015 49.7338 113.967C49.8794 112.919 49.7962 111.852 49.4901 110.839C49.1841 109.826 48.6623 108.893 47.9612 108.103H47.9611Z" fill="black"/>
<path d="M42.5728 112.979H42.5929L42.9522 133.674H42.1934L42.5728 112.979Z" fill="#3F3D56"/>
<path d="M43.8965 124.251L43.729 123.932L42.5271 124.567L42.6946 124.886L43.8965 124.251Z" fill="#3F3D56"/>
<path d="M204.422 10.4659L206.992 8.40195C204.995 8.18078 204.175 9.27409 203.839 10.1394C202.279 9.48912 200.581 10.3414 200.581 10.3414L205.724 12.2158C205.464 11.5201 205.013 10.913 204.422 10.4659V10.4659Z" fill="#3F3D56"/>
<path d="M75.4301 20.8379L78.0003 18.774C76.0036 18.5529 75.1832 19.6462 74.8474 20.5115C73.2875 19.8612 71.5894 20.7135 71.5894 20.7135L76.732 22.5879C76.4725 21.8921 76.0209 21.2851 75.4301 20.8379V20.8379Z" fill="#3F3D56"/>
<path d="M243.51 31.4893L246.08 29.4254C244.083 29.2042 243.263 30.2975 242.927 31.1629C241.367 30.5126 239.669 31.3648 239.669 31.3648L244.812 33.2392C244.552 32.5435 244.1 31.9365 243.51 31.4893V31.4893Z" fill="#3F3D56"/>
<path d="M96.6493 15.2315L99.2196 13.1676C97.2228 12.9464 96.4024 14.0397 96.0667 14.9051C94.5068 14.2547 92.8086 15.107 92.8086 15.107L97.9512 16.9814C97.6918 16.2857 97.2401 15.6787 96.6493 15.2315V15.2315Z" fill="#3F3D56"/>
<path d="M101.396 37.6563L103.966 35.5924C101.969 35.3712 101.149 36.4645 100.813 37.3299C99.2533 36.6795 97.5552 37.5318 97.5552 37.5318L102.698 39.4062C102.438 38.7105 101.987 38.1035 101.396 37.6563V37.6563Z" fill="#3F3D56"/>
<path d="M201.35 49.4297L203.921 47.3658C201.924 47.1446 201.104 48.238 200.768 49.1033C199.208 48.453 197.51 49.3053 197.51 49.3053L202.652 51.1796C202.393 50.4839 201.941 49.8769 201.35 49.4297Z" fill="#3F3D56"/>
<path d="M64.7046 127.824H47.394V128.385H50.0937V133.711H50.6521V128.385H61.1674V133.711H61.7258V128.385H64.7046V127.824Z" fill="#3F3D56"/>
<path d="M82.2948 130.066C81.6116 130.066 80.9404 130.247 80.3489 130.591C79.7482 130.045 79.0028 129.687 78.2031 129.558C77.4033 129.43 76.5837 129.538 75.8437 129.868C75.1037 130.199 74.4752 130.737 74.0343 131.42C73.5935 132.102 73.3594 132.897 73.3604 133.711H86.1896C86.1196 132.721 85.679 131.795 84.9563 131.119C84.2337 130.443 83.2827 130.067 82.2948 130.066V130.066Z" fill="#3F3D56"/>
<path d="M148.466 130.066C147.782 130.066 147.111 130.247 146.52 130.591C145.919 130.045 145.174 129.687 144.374 129.558C143.574 129.43 142.755 129.538 142.015 129.868C141.275 130.199 140.646 130.737 140.205 131.42C139.764 132.102 139.53 132.897 139.531 133.711H152.36C152.291 132.721 151.85 131.795 151.127 131.119C150.405 130.443 149.454 130.067 148.466 130.066V130.066Z" fill="#3F3D56"/>
<path d="M191.742 130.066C191.059 130.066 190.388 130.247 189.796 130.591C189.196 130.045 188.45 129.687 187.65 129.558C186.851 129.43 186.031 129.538 185.291 129.868C184.551 130.199 183.922 130.737 183.482 131.42C183.041 132.102 182.807 132.897 182.808 133.711H195.637C195.567 132.721 195.126 131.795 194.404 131.119C193.681 130.443 192.73 130.067 191.742 130.066V130.066Z" fill="#3F3D56"/>
<path d="M248.699 130.066C248.016 130.066 247.345 130.247 246.753 130.591C246.153 130.045 245.407 129.687 244.607 129.558C243.808 129.43 242.988 129.538 242.248 129.868C241.508 130.199 240.879 130.737 240.439 131.42C239.998 132.102 239.764 132.897 239.765 133.711H252.594C252.524 132.721 252.083 131.795 251.361 131.119C250.638 130.443 249.687 130.067 248.699 130.066V130.066Z" fill="#3F3D56"/>
<path d="M276.061 130.066C275.378 130.066 274.706 130.247 274.115 130.591C273.514 130.045 272.769 129.687 271.969 129.558C271.169 129.43 270.35 129.538 269.61 129.868C268.87 130.199 268.241 130.737 267.8 131.42C267.36 132.102 267.125 132.897 267.126 133.711H279.956C279.886 132.721 279.445 131.795 278.722 131.119C278 130.443 277.049 130.067 276.061 130.066V130.066Z" fill="#3F3D56"/>
<path d="M71.1264 114.089H66.6592V118.574H68.73V133.686H69.2884V118.574H71.1264V114.089Z" fill="#3F3D56"/>
<path d="M64.7388 126.146H47.4282V126.707H64.7388V126.146Z" fill="#3F3D56"/>
<path d="M64.7388 124.745H47.4282V125.306H64.7388V124.745Z" fill="#3F3D56"/>
<path d="M64.7388 123.344H47.4282V123.904H64.7388V123.344Z" fill="#3F3D56"/>
</g>
<defs>
<clipPath id="clip0_162_2012">
<rect width="248" height="134" fill="white" transform="translate(35.1094)"/>
</clipPath>
</defs>
</svg>
