<svg width="242" height="171" viewBox="0 0 242 171" fill="none" xmlns="http://www.w3.org/2000/svg">
<path d="M241.5 127C241.5 174.773 182.17 154.5 117 154.5C51.8304 154.5 0 174.773 0 127C0 79.2274 51.8304 7 117 7C182.17 7 241.5 79.2274 241.5 127Z" fill="#FCFBFF"/>
<g clip-path="url(#clip0_162_2015)">
<path d="M145.882 169.756C145.884 169.05 135.663 168.46 123.054 168.44C110.445 168.42 100.222 168.977 100.221 169.683C100.22 170.39 110.441 170.979 123.05 170.999C135.659 171.02 145.881 170.463 145.882 169.756Z" fill="#E6E6E6"/>
<path d="M120.168 123.926C106.666 123.927 93.5816 119.259 83.1442 110.718C72.7068 102.178 65.5623 90.2929 62.9282 77.089C60.294 63.8852 62.333 50.1792 68.698 38.3063C75.0629 26.4334 85.3598 17.1282 97.8343 11.9763C110.309 6.82445 124.189 6.14456 137.11 10.0525C150.031 13.9605 161.193 22.2145 168.694 33.4081C176.196 44.6018 179.572 58.0426 178.249 71.4403C176.925 84.838 170.984 97.3636 161.436 106.883C156.029 112.303 149.598 116.601 142.515 119.526C135.431 122.452 127.836 123.947 120.168 123.926ZM120.168 8.01128C88.2446 8.01128 62.2726 33.9068 62.2726 65.7367C62.2726 97.5666 88.2446 123.462 120.168 123.462C152.092 123.462 178.064 97.5666 178.064 65.7367C178.064 33.9068 152.092 8.01128 120.168 8.01128Z" fill="#E6E6E6"/>
<path d="M87.5922 67.6152H83.1626V82.9033H87.5922V67.6152Z" fill="#3F3D56"/>
<path d="M90.5176 80.0271L79.7442 67.248L58.1185 67.4451L45 80.1852L45.2652 80.3551H45.1704V106.854H90.4885V80.3551L90.5176 80.0271Z" fill="#3F3D56"/>
<path d="M79.7553 67.2754L66.2961 83.0083V106.855H90.4885V80.0155L79.7553 67.2754Z" fill="#F0CF86"/>
<path d="M80.9478 93.667H76.0071V98.0211H80.9478V93.667Z" fill="#3F3D56"/>
<path d="M80.9478 86.1309H76.0071V90.416H80.9478V86.1309Z" fill="#3F3D56"/>
<path d="M80.9478 93.667H76.0071V98.0211H80.9478V93.667Z" fill="white"/>
<path d="M80.9478 86.1309H76.0071V90.416H80.9478V86.1309Z" fill="white"/>
<path d="M58.991 92.5117H54.0503V96.8659H58.991V92.5117Z" fill="#3F3D56"/>
<path d="M58.991 84.9756H54.0503V89.2607H58.991V84.9756Z" fill="#3F3D56"/>
<path d="M58.991 92.5117H54.0503V96.8659H58.991V92.5117Z" fill="white"/>
<path d="M58.991 84.9756H54.0503V89.2607H58.991V84.9756Z" fill="white"/>
<path d="M157.837 0.367188H153.408V15.6553H157.837V0.367188Z" fill="#3F3D56"/>
<path d="M150.512 13.1071V54.926H195.83V13.1071H195.735L196 12.9372L182.882 0.197073L161.256 0L150.482 12.7791L150.512 13.1071Z" fill="#3F3D56"/>
<path d="M150.511 12.7674V54.9262H174.704V15.7604L161.245 0.0273438L150.511 12.7674Z" fill="#FF2958"/>
<path d="M164.993 26.4189H160.052V30.7731H164.993V26.4189Z" fill="#3F3D56"/>
<path d="M164.993 18.8828H160.052V23.1679H164.993V18.8828Z" fill="#3F3D56"/>
<path d="M164.993 26.4189H160.052V30.7731H164.993V26.4189Z" fill="white"/>
<path d="M164.993 18.8828H160.052V23.1679H164.993V18.8828Z" fill="white"/>
<path d="M186.95 25.2637H182.009V29.6178H186.95V25.2637Z" fill="#3F3D56"/>
<path d="M186.95 17.7275H182.009V22.0126H186.95V17.7275Z" fill="#3F3D56"/>
<path d="M186.95 25.2637H182.009V29.6178H186.95V25.2637Z" fill="white"/>
<path d="M186.95 17.7275H182.009V22.0126H186.95V17.7275Z" fill="white"/>
<path d="M164.993 41.7383H160.052V46.0924H164.993V41.7383Z" fill="white"/>
<path d="M164.993 34.2021H160.052V38.4872H164.993V34.2021Z" fill="white"/>
<path d="M186.95 40.583H182.009V44.9372H186.95V40.583Z" fill="white"/>
<path d="M186.95 33.0469H182.009V37.332H186.95V33.0469Z" fill="white"/>
<path d="M122.856 48.8772C126.789 48.8772 129.977 45.6983 129.977 41.777C129.977 37.8556 126.789 34.6768 122.856 34.6768C118.923 34.6768 115.735 37.8556 115.735 41.777C115.735 45.6983 118.923 48.8772 122.856 48.8772Z" fill="#A0616A"/>
<path d="M115.542 54.6344L127.668 54.4425C126.625 51.5772 126.173 48.8943 126.898 46.5747L117.659 45.6152C118.908 48.6216 118.202 51.628 115.542 54.6344Z" fill="#A0616A"/>
<path d="M104.957 102.225L106.97 107.579C107.143 108.038 107.209 108.53 107.163 109.019C107.117 109.507 106.961 109.979 106.706 110.399C106.45 110.818 106.103 111.174 105.69 111.44C105.276 111.706 104.808 111.876 104.319 111.935C103.852 111.992 103.378 111.947 102.93 111.803C102.482 111.659 102.07 111.42 101.724 111.102C101.378 110.784 101.104 110.395 100.924 109.962C100.743 109.529 100.659 109.061 100.677 108.592L100.915 102.417L102.647 70.7539L109.768 72.8648L104.957 102.225Z" fill="#A0616A"/>
<path d="M112.463 161.713L118.237 161.137L123.433 110.86L130.747 162.097L136.136 161.905L137.483 105.679H111.693L112.463 161.713Z" fill="#675DA5"/>
<path d="M131.324 39.0903C131.324 39.0903 129.4 43.3121 128.053 43.504C126.705 43.6959 124.396 45.8067 124.781 46.7662C125.166 47.7257 124.973 50.6042 121.124 50.2204C117.275 49.8366 117.467 49.4528 117.467 49.4528C117.467 49.4528 111.308 37.747 117.659 34.6767C124.011 31.6063 129.592 33.9091 131.324 39.0903Z" fill="#2F2E41"/>
<path d="M136.43 159.159L136.199 164.002C136.199 164.002 139.725 169.485 135.33 169.485C135.286 169.485 135.373 169.485 135.33 169.485C132.151 169.475 129.278 170.902 129.654 167.754L130.184 163.31L131.11 158.467L136.43 159.159Z" fill="#2F2E41"/>
<path d="M112.511 159.159L112.742 164.002C112.742 164.002 109.217 169.485 113.612 169.485C113.656 169.485 113.568 169.485 113.612 169.485C116.79 169.475 119.663 170.902 119.288 167.754L118.757 163.31L117.832 158.467L112.511 159.159Z" fill="#2F2E41"/>
<path d="M109.576 107.981L138.253 106.638C132.905 89.526 132.865 75.5241 139.6 62.6309C139.6 61.282 139.204 59.9627 138.46 58.836C137.717 57.7092 136.658 56.8243 135.416 56.2907L127.09 52.7148L116.505 53.2905L109.52 57.1209C108.152 57.871 107.024 58.9898 106.264 60.3494C105.504 61.7089 105.143 63.2543 105.223 64.8087C111.338 79.3636 111.687 93.7158 109.576 107.981Z" fill="#C4C4C4"/>
<path d="M114.772 74.5922L98.7979 71.9056L101.43 65.3905C102.355 63.0996 103.765 61.0348 105.564 59.3369C107.363 57.639 109.508 56.3481 111.853 55.5522L113.425 55.0186L114.772 74.5922Z" fill="#C4C4C4"/>
<path d="M164.881 59.945L169.799 57.9022C170.296 57.6955 170.743 57.383 171.107 56.9867C171.471 56.5903 171.744 56.1195 171.906 55.6072C172.069 55.0948 172.118 54.5532 172.049 54.0202C171.981 53.4871 171.796 52.9754 171.509 52.5208C171.199 52.0314 170.779 51.6213 170.282 51.3235C169.784 51.0256 169.224 50.8483 168.645 50.8059C168.067 50.7634 167.486 50.8569 166.951 51.079C166.415 51.301 165.939 51.6453 165.561 52.0842L161.912 56.3222L147.61 66.5554L137.887 62.5313L136.729 70.5719L148.876 73.7263L164.881 59.945Z" fill="#A0616A"/>
<path d="M138.962 73.6861L146.877 66.2582L144.782 63.7048C142.909 59.0691 138.604 57.1628 133.859 55.5522L132.287 55.0186L131.046 67.6509L138.962 73.6861Z" fill="#C4C4C4"/>
</g>
<defs>
<clipPath id="clip0_162_2015">
<rect width="151" height="171" fill="white" transform="translate(45)"/>
</clipPath>
</defs>
</svg>
