<svg width="350" height="288" viewBox="0 0 350 288" fill="none" xmlns="http://www.w3.org/2000/svg">
<path d="M0 55C0 50.5817 3.58172 47 8 47H317C321.418 47 325 50.5817 325 55V175C325 179.418 321.418 183 317 183H8.00001C3.58173 183 0 179.418 0 175V55Z" fill="#FCFBFF"/>
<path d="M296 126C296 153.571 278.431 177.004 253.961 185.545C244.112 188.964 233.574 189.863 223.295 188.163C222.319 188.003 221.351 187.818 220.389 187.61C219.086 187.331 217.798 187.01 216.526 186.647C190.255 179.194 171 154.864 171 126C171 91.2059 198.982 63 233.5 63C268.018 63 296 91.2059 296 126Z" fill="#E6E6E6"/>
<path d="M175.83 149.398C175.629 149.506 175.479 149.689 175.413 149.907C175.347 150.125 175.37 150.361 175.477 150.562L218.317 230.955C218.424 231.156 218.607 231.307 218.824 231.373C219.042 231.439 219.277 231.416 219.478 231.309L280.036 198.915C280.237 198.807 280.387 198.625 280.453 198.406C280.519 198.188 280.496 197.953 280.389 197.752L237.549 117.358C237.442 117.157 237.259 117.007 237.042 116.94C236.824 116.874 236.589 116.897 236.388 117.004L175.83 149.398Z" fill="#3F3D56"/>
<path d="M181.459 151.747L220.662 225.314L274.407 196.565L235.204 122.997L181.459 151.747ZM178.053 153.568L178.061 153.565L178.052 153.569L178.053 153.568Z" fill="white"/>
<path d="M195.01 159.835C194.175 160.282 193.997 161.586 194.613 162.741C195.229 163.897 196.409 164.474 197.244 164.028L236.607 142.971C237.442 142.525 237.62 141.221 237.004 140.065C236.388 138.91 235.208 138.332 234.373 138.779L195.01 159.835Z" fill="#FF2958"/>
<path d="M199.86 168.937C199.025 169.383 198.847 170.687 199.463 171.843C200.079 172.998 201.259 173.576 202.094 173.129L241.457 152.073C242.292 151.626 242.469 150.323 241.854 149.167C241.238 148.011 240.058 147.434 239.223 147.881L199.86 168.937Z" fill="#FF2958"/>
<path d="M204.71 178.037C203.875 178.484 203.697 179.788 204.313 180.943C204.928 182.099 206.109 182.676 206.944 182.23L246.307 161.174C247.142 160.727 247.319 159.423 246.703 158.268C246.088 157.112 244.907 156.535 244.072 156.981L204.71 178.037Z" fill="#FF2958"/>
<path d="M209.559 187.139C208.724 187.585 208.547 188.889 209.162 190.045C209.778 191.2 210.958 191.778 211.793 191.331L251.156 170.275C251.991 169.829 252.169 168.525 251.553 167.369C250.937 166.214 249.757 165.636 248.922 166.083L209.559 187.139Z" fill="#FF2958"/>
<path d="M214.409 196.24C213.574 196.687 213.396 197.991 214.012 199.146C214.628 200.302 215.808 200.879 216.643 200.433L256.006 179.377C256.841 178.93 257.019 177.626 256.403 176.471C255.787 175.315 254.607 174.738 253.772 175.184L214.409 196.24Z" fill="#FF2958"/>
<path d="M222.053 114.665L257.72 116.847L267.709 87.0016L236.425 80.3789L222.053 114.665Z" fill="#2F2E41"/>
<path d="M247.776 107.118C255.655 107.118 262.041 100.719 262.041 92.8255C262.041 84.9321 255.655 78.5332 247.776 78.5332C239.898 78.5332 233.511 84.9321 233.511 92.8255C233.511 100.719 239.898 107.118 247.776 107.118Z" fill="#FFB8B8"/>
<path d="M284.407 220.953L284.5 222.065C266.543 228.26 247.332 229.89 228.591 226.808L223.294 225.806L228.335 214.604L231.64 207.262L230.45 181.86L230.324 179.231L230.168 175.878L232.321 175.865L247.626 175.772L262.211 175.68L264.435 175.667C278.382 192.855 289.89 206.824 284.407 220.953Z" fill="#2F2E41"/>
<path d="M264.225 175.456L230.168 179.248L228.907 155.657C224.91 145.444 227.548 136.328 235.843 128.147L237.53 121.459C237.972 119.704 238.887 118.104 240.174 116.833C241.461 115.562 243.071 114.669 244.83 114.251C250.404 111.047 256.719 109.52 263.805 109.739C266.634 110.846 269.034 112.836 270.648 115.414C272.263 117.992 273.007 121.022 272.771 124.057C271.305 142.596 268.675 159.951 264.225 175.456Z" fill="#F0CF86"/>
<path d="M236.985 75.9391C236.985 75.9391 229.609 78.636 229.419 88.4408C229.409 90.0907 229.629 91.734 230.073 93.3229C230.551 95.1249 230.934 99.0347 227.718 104.247C225.617 107.63 223.717 111.134 222.028 114.742L230.333 115.545L231.707 101.751C232.373 95.063 234.018 88.5099 236.589 82.3023L236.642 82.1727C236.642 82.1727 240.453 88.8077 247.694 88.6034L245.035 86.0851C245.035 86.0851 254.105 89.5073 259.037 90.1944C259.6 90.2729 260.131 90.5038 260.573 90.8622C261.014 91.2206 261.35 91.6929 261.543 92.2283C261.737 92.7637 261.781 93.3418 261.671 93.9004C261.561 94.459 261.301 94.9769 260.918 95.3983C260.889 95.4301 260.86 95.4619 260.83 95.4939C257.814 98.691 251.81 106.122 255.592 111.72C259.373 117.319 256.313 118.961 256.313 118.961L261.915 115.691L264.458 114.063L264.516 116.136L277.921 114.202C277.921 114.202 281.527 113.581 273.521 104.99C273.521 104.99 271.376 101.627 272.189 98.6506C272.863 96.3872 272.989 93.9958 272.558 91.6738C270.547 82.0074 263.184 62.8843 236.985 75.9391Z" fill="#2F2E41"/>
<path d="M240.259 135.437L239.822 138.149L235.213 166.61L232.321 175.865L231.303 179.122L230.45 181.86L220.077 215.055L217.231 221.755C215.67 222.333 214.328 223.386 213.393 224.767C212.458 226.147 211.977 227.786 212.017 229.453C212.058 231.121 212.617 232.734 213.618 234.068C214.618 235.401 216.009 236.388 217.597 236.89C219.185 237.392 220.889 237.385 222.473 236.869C224.056 236.352 225.439 235.353 226.427 234.011C227.416 232.669 227.961 231.051 227.987 229.383C228.013 227.715 227.518 226.081 226.571 224.709L246.873 177.39L247.625 175.773L249.93 170.823L254.281 137.926L254.555 135.858L240.259 135.437Z" fill="#FFB8B8"/>
<path d="M257.077 138.807C250.47 136.428 244.131 136.175 238.157 138.807L240.107 121.874C240.035 119.759 240.795 117.701 242.222 116.142C243.649 114.583 245.63 113.647 247.739 113.536C249.874 113.423 251.966 114.165 253.555 115.598C255.144 117.03 256.099 119.037 256.212 121.176L256.213 121.204L257.077 138.807Z" fill="#F0CF86"/>
</svg>
