<svg width="235" height="188" viewBox="0 0 235 188" fill="none" xmlns="http://www.w3.org/2000/svg">
<rect width="235" height="99.3208" rx="9" fill="#FCFBFF"/>
<path d="M212.28 91.3174H15.5989V96.1485H212.28V91.3174Z" fill="#E6E6E6"/>
<path d="M21.5985 89.1334C22.0803 88.6434 22.381 87.9748 22.381 87.2324V75.692C22.381 74.9418 22.0758 74.263 21.5875 73.7708C21.3331 73.5162 21.0246 73.3126 20.6855 73.1734C20.3701 73.0478 20.0276 72.9766 19.6681 72.9766C18.1693 72.9766 16.9553 74.1917 16.9553 75.692V87.2324C16.9553 87.9123 17.2063 88.532 17.6185 89.0082C16.4197 89.6292 15.5989 90.8795 15.5989 92.3238H23.3983C23.3983 90.97 22.676 89.7881 21.5985 89.1334Z" fill="#3F3D56"/>
<path d="M210.334 88.7053C210.902 88.2076 211.263 87.4784 211.263 86.6631V75.1226C211.263 73.6224 210.049 72.4072 208.55 72.4072C208.19 72.4072 207.848 72.4785 207.532 72.6041C207.193 72.7433 206.885 72.9469 206.63 73.2015C206.142 73.6936 205.837 74.3725 205.837 75.1226V86.6631C205.837 87.4219 206.152 88.1026 206.653 88.5952C205.372 89.1863 204.48 90.4797 204.48 91.9843H212.28C212.28 90.5694 211.493 89.3386 210.334 88.7053Z" fill="#3F3D56"/>
<path d="M20.4243 95.8467H15.5989V99.4514H20.4243V95.8467Z" fill="#E6E6E6"/>
<path d="M23.1203 99.4521H18.0099L17.7861 98.7732L16.918 96.1495L16.8943 96.0782L17.5522 95.8474L21.4485 94.4795L22.008 96.1495L22.8897 98.7732L23.1203 99.4521Z" fill="#E6E6E6"/>
<path d="M210.985 96.0782L210.961 96.1495L210.093 98.7732L209.869 99.4521H204.759L204.989 98.7732L205.871 96.1495L206.43 94.4795L210.327 95.8474L210.985 96.0782Z" fill="#E6E6E6"/>
<path d="M212.28 95.8467H207.455V99.4514H212.28V95.8467Z" fill="#E6E6E6"/>
<path d="M115.296 0H25.0938V34.9608H115.296V0Z" fill="#3F3D56"/>
<path d="M115.296 0H25.0938V34.9608H115.296V0Z" fill="#3F3D56"/>
<path d="M26.4502 0V33.6031H94.7439C105.345 33.6031 113.939 25.0009 113.939 14.3895V0H26.4502Z" fill="white"/>
<path d="M227.306 0H7.6943C3.45209 0 0 3.45535 0 7.70156V91.7501C0 95.9963 3.45209 99.4516 7.6943 99.4516H227.306C231.548 99.4516 235 95.9963 235 91.7501V7.70156C235 3.45535 231.548 0 227.306 0ZM234.322 91.7501C234.322 95.6297 231.182 98.7728 227.306 98.7728H7.6943C3.81833 98.7728 0.678211 95.6297 0.678211 91.7501V7.70156C0.678211 3.82193 3.81833 0.678851 7.6943 0.678851H181.53C210.686 0.678851 234.322 24.3368 234.322 53.5206V91.7501Z" fill="#3F3D56"/>
<path d="M122.542 71.0176H109.951C109.582 71.0176 109.283 71.3197 109.283 71.693V91.6003H123.217V71.693C123.217 71.3197 122.915 71.0176 122.542 71.0176ZM117.778 80.8439C117.778 81.18 117.666 81.4855 117.476 81.7366C117.205 82.0964 116.774 82.3306 116.289 82.3306C115.808 82.3306 115.377 82.0964 115.106 81.7366C114.916 81.4855 114.804 81.18 114.804 80.8439V78.5325C114.811 77.7212 115.476 77.0593 116.289 77.0593C117.103 77.0593 117.771 77.7212 117.778 78.5325V80.8439Z" fill="#2F2E41"/>
<path d="M109.24 90.9658V92.8836C109.24 93.0906 109.406 93.2603 109.613 93.2603H122.885C123.089 93.2603 123.258 93.0906 123.258 92.8836V90.9658H109.24Z" fill="#3F3D56"/>
<path d="M143.394 39.9502H89.5714C88.6117 39.9502 87.8284 40.7343 87.8284 41.6948V78.0473C87.8284 79.0113 88.6117 79.7953 89.5714 79.7953H143.394C144.354 79.7953 145.137 79.0113 145.137 78.0473V41.6948C145.137 40.7343 144.354 39.9502 143.394 39.9502V39.9502Z" fill="#3F3D56"/>
<path d="M142.94 41.21H90.0224C89.5074 41.21 89.0898 41.6279 89.0898 42.1434V67.1697C89.0898 73.4196 94.1986 78.5332 100.443 78.5332H142.943C143.456 78.5332 143.876 78.1131 143.876 77.5998V42.1468C143.876 41.6315 143.455 41.21 142.94 41.21Z" fill="white"/>
<path d="M133.2 93.2296L132.797 91.3186L132.712 90.9079C132.658 90.6398 132.421 90.4463 132.146 90.4463H101.637C101.365 90.4463 101.128 90.6398 101.07 90.9079L100.985 91.3186L100.582 93.2296C100.548 93.4027 100.589 93.5792 100.701 93.715C100.809 93.8507 100.975 93.9288 101.148 93.9288H132.634C132.811 93.9288 132.973 93.8507 133.085 93.715C133.194 93.5792 133.238 93.4027 133.2 93.2296H133.2Z" fill="#3F3D56"/>
<path d="M102.706 90.8652H101.987C101.918 90.8652 101.862 90.9213 101.862 90.9905V91.3223C101.862 91.3915 101.918 91.4476 101.987 91.4476H102.706C102.775 91.4476 102.831 91.3915 102.831 91.3223V90.9905C102.831 90.9213 102.775 90.8652 102.706 90.8652Z" fill="#E6E6E6"/>
<path d="M131.775 91.8359H131.056C130.986 91.8359 130.93 91.892 130.93 91.9612V92.293C130.93 92.3622 130.986 92.4183 131.056 92.4183H131.775C131.844 92.4183 131.9 92.3622 131.9 92.293V91.9612C131.9 91.892 131.844 91.8359 131.775 91.8359Z" fill="#E6E6E6"/>
<path d="M118.781 93H111.273C111.204 93 111.148 93.0561 111.148 93.1253V93.4571C111.148 93.5263 111.204 93.5824 111.273 93.5824H118.781C118.85 93.5824 118.906 93.5263 118.906 93.4571V93.1253C118.906 93.0561 118.85 93 118.781 93Z" fill="#E6E6E6"/>
<path d="M31.7593 66.1522C27.6896 52.6441 27.4347 39.1169 32.2333 25.5644C32.2552 23.854 33.6562 22.4841 35.3651 22.5021L65.989 22.8604C67.6978 22.8824 69.0665 24.2847 69.0484 25.9952L68.5744 66.5829C68.5525 68.2934 67.1515 69.6633 65.4427 69.6452L34.8188 69.2869C33.11 69.265 31.7413 67.8627 31.7593 66.1522L31.7593 66.1522Z" fill="#F2F2F2"/>
<path opacity="0.2" d="M38.1133 67.76C36.4045 67.7381 35.0359 66.3358 35.0539 64.6253C30.9841 51.1171 30.7292 37.5899 35.5278 24.0375C35.5374 23.4982 35.6892 22.971 35.9677 22.5092L35.3651 22.5021C33.6563 22.4841 32.2553 23.854 32.2333 25.5644C27.4347 39.1169 27.6896 52.644 31.7594 66.1522C31.7413 67.8627 33.1099 69.265 34.8188 69.2869L65.4426 69.6453C66.5499 69.6545 67.5772 69.0691 68.1345 68.1113L38.1133 67.76Z" fill="black"/>
<path d="M60.6705 45.5378L40.1482 45.3547C39.4681 45.3478 38.9224 44.7905 38.9293 44.1097C38.9361 43.4302 39.4912 42.8845 40.1701 42.8897L60.6924 43.0728C61.3724 43.081 61.9171 43.6395 61.9088 44.3202C61.9007 44.9978 61.3475 45.5417 60.6705 45.5378L60.6705 45.5378Z" fill="white"/>
<path d="M44.7233 38.6353L40.2084 38.595C39.5284 38.5911 38.9802 38.036 38.9842 37.3553C38.9881 36.6746 39.5426 36.126 40.2226 36.1299L40.2304 36.13L44.7453 36.1703C45.4253 36.1785 45.9699 36.737 45.9617 37.4176C45.9536 38.0953 45.4004 38.6392 44.7233 38.6353V38.6353Z" fill="white"/>
<path d="M60.574 56.3747L40.0517 56.1916C39.3717 56.1834 38.8271 55.6249 38.8353 54.9442C38.8435 54.2666 39.3967 53.7227 40.0737 53.7266L60.596 53.9097C61.2761 53.9137 61.8242 54.4687 61.8203 55.1494C61.8164 55.8301 61.2619 56.3787 60.5818 56.3748L60.574 56.3747V56.3747Z" fill="white"/>
<path d="M60.6224 50.9559L40.1001 50.7727C39.42 50.7674 38.873 50.2114 38.8782 49.5307C38.8835 48.85 39.439 48.3024 40.1191 48.3077L40.122 48.3077L60.6443 48.4908C61.3243 48.4991 61.8689 49.0575 61.8607 49.7382C61.8526 50.4158 61.2994 50.9598 60.6223 50.9558L60.6224 50.9559H60.6224Z" fill="white"/>
<path d="M39.517 28.8099C40.9808 28.8099 42.1675 27.6221 42.1675 26.1569C42.1675 24.6917 40.9808 23.5039 39.517 23.5039C38.0531 23.5039 36.8665 24.6917 36.8665 26.1569C36.8665 27.6221 38.0531 28.8099 39.517 28.8099Z" fill="#3F3D56"/>
<path d="M61.8351 29.4887C63.2989 29.4887 64.4856 28.3009 64.4856 26.8356C64.4856 25.3704 63.2989 24.1826 61.8351 24.1826C60.3712 24.1826 59.1846 25.3704 59.1846 26.8356C59.1846 28.3009 60.3712 29.4887 61.8351 29.4887Z" fill="#3F3D56"/>
<path d="M92.7189 45.9696C93.3408 45.9696 93.845 45.4537 93.845 44.8173C93.845 44.1809 93.3408 43.665 92.7189 43.665C92.0969 43.665 91.5928 44.1809 91.5928 44.8173C91.5928 45.4537 92.0969 45.9696 92.7189 45.9696Z" fill="#F2F2F2"/>
<path d="M96.609 45.9696C97.2309 45.9696 97.7351 45.4537 97.7351 44.8173C97.7351 44.1809 97.2309 43.665 96.609 43.665C95.9871 43.665 95.4829 44.1809 95.4829 44.8173C95.4829 45.4537 95.9871 45.9696 96.609 45.9696Z" fill="#F2F2F2"/>
<path d="M100.499 45.9696C101.121 45.9696 101.625 45.4537 101.625 44.8173C101.625 44.1809 101.121 43.665 100.499 43.665C99.8772 43.665 99.373 44.1809 99.373 44.8173C99.373 45.4537 99.8772 45.9696 100.499 45.9696Z" fill="#F2F2F2"/>
<path d="M104.935 45.7276C104.9 45.7276 104.866 45.7142 104.84 45.6875L104.08 44.9101C104.029 44.8583 104.029 44.7755 104.08 44.7237L104.84 43.9463C104.891 43.8937 104.976 43.8928 105.028 43.9442C105.081 43.9957 105.082 44.0801 105.03 44.1327L104.361 44.8169L105.03 45.5011C105.082 45.5537 105.081 45.6381 105.028 45.6896C105.002 45.715 104.969 45.7276 104.935 45.7276V45.7276Z" fill="#F2F2F2"/>
<path d="M106.212 45.7277C106.178 45.7277 106.145 45.7151 106.119 45.6897C106.066 45.6382 106.065 45.5539 106.117 45.5012L106.785 44.817L106.117 44.1328C106.065 44.0802 106.066 43.9958 106.119 43.9443C106.171 43.8927 106.256 43.8937 106.307 43.9464L107.067 44.7238C107.117 44.7756 107.117 44.8584 107.067 44.9102L106.307 45.6876C106.281 45.7143 106.246 45.7277 106.212 45.7277V45.7277Z" fill="#F2F2F2"/>
<path d="M137.173 43.7988H135.76C135.599 43.7988 135.469 43.9294 135.469 44.0907V45.5062C135.469 45.6675 135.599 45.7981 135.76 45.7981H137.173C137.334 45.7981 137.466 45.6675 137.466 45.5062V44.0907C137.466 43.9294 137.334 43.7988 137.173 43.7988Z" fill="#F2F2F2"/>
<path d="M133.711 43.7988H132.298C132.137 43.7988 132.007 43.9294 132.007 44.0907V45.5062C132.007 45.6675 132.137 45.7981 132.298 45.7981H133.711C133.872 45.7981 134.004 45.6675 134.004 45.5062V44.0907C134.004 43.9294 133.872 43.7988 133.711 43.7988Z" fill="#F2F2F2"/>
<path d="M140.436 43.8652H139.023C138.862 43.8652 138.731 43.9959 138.731 44.1571V45.5726C138.731 45.7339 138.862 45.8645 139.023 45.8645H140.436C140.597 45.8645 140.729 45.7339 140.729 45.5726V44.1571C140.729 43.9959 140.597 43.8652 140.436 43.8652Z" fill="#F2F2F2"/>
<path d="M121.804 44.4033H116.369C116.172 44.4033 116.014 44.5633 116.014 44.7592C116.014 44.9551 116.172 45.1151 116.369 45.1151H121.804C121.999 45.1151 122.159 44.9551 122.159 44.7592C122.159 44.5633 121.999 44.4033 121.804 44.4033Z" fill="#F2F2F2"/>
<path d="M102.779 10.9261C102.141 8.80784 102.101 6.68655 102.854 4.5613C102.857 4.29308 103.077 4.07825 103.345 4.08108L108.147 4.13727C108.415 4.14071 108.63 4.36062 108.627 4.62885L108.553 10.9937C108.549 11.2619 108.329 11.4767 108.061 11.4739L103.259 11.4177C102.991 11.4143 102.777 11.1944 102.779 10.9261Z" fill="#F2F2F2"/>
<path opacity="0.2" d="M103.776 11.1783C103.508 11.1748 103.293 10.9549 103.296 10.6867C102.658 8.56839 102.618 6.4471 103.37 4.32186C103.372 4.23728 103.396 4.15461 103.439 4.08219L103.345 4.08108C103.077 4.07825 102.857 4.29307 102.854 4.5613C102.101 6.68655 102.141 8.80783 102.779 10.9261C102.777 11.1944 102.991 11.4143 103.259 11.4177L108.061 11.4739C108.235 11.4753 108.396 11.3836 108.484 11.2334L103.776 11.1783Z" fill="black"/>
<path d="M92.6063 10.9261C91.9681 8.80784 91.9281 6.68655 92.6806 4.5613C92.684 4.29308 92.9037 4.07825 93.1717 4.08108L97.974 4.13727C98.242 4.14071 98.4566 4.36062 98.4538 4.62885L98.3795 10.9937C98.376 11.2619 98.1563 11.4767 97.8883 11.4739L93.086 11.4177C92.8181 11.4143 92.6034 11.1944 92.6063 10.9261Z" fill="#F2F2F2"/>
<path opacity="0.2" d="M93.6027 11.1783C93.3347 11.1748 93.1201 10.9549 93.1229 10.6867C92.4847 8.56839 92.4447 6.4471 93.1972 4.32186C93.1987 4.23728 93.2225 4.15461 93.2662 4.08219L93.1717 4.08108C92.9037 4.07825 92.684 4.29307 92.6806 4.5613C91.9281 6.68655 91.9681 8.80783 92.6063 10.9261C92.6034 11.1944 92.8181 11.4143 93.086 11.4177L97.8884 11.4739C98.062 11.4753 98.2231 11.3836 98.3105 11.2334L93.6027 11.1783Z" fill="black"/>
<path d="M84.4678 10.9261C83.8296 8.80784 83.7897 6.68655 84.5422 4.5613C84.5456 4.29308 84.7653 4.07825 85.0333 4.08108L89.8356 4.13727C90.1036 4.14071 90.3182 4.36062 90.3154 4.62885L90.241 10.9937C90.2376 11.2619 90.0179 11.4767 89.7499 11.4739L84.9476 11.4177C84.6796 11.4143 84.465 11.1944 84.4678 10.9261Z" fill="#F2F2F2"/>
<path opacity="0.2" d="M85.4642 11.1783C85.1963 11.1748 84.9817 10.9549 84.9845 10.6867C84.3463 8.56839 84.3063 6.4471 85.0588 4.32186C85.0603 4.23728 85.0841 4.15461 85.1278 4.08219L85.0333 4.08108C84.7653 4.07825 84.5456 4.29307 84.5422 4.5613C83.7897 6.68655 83.8296 8.80783 84.4678 10.9261C84.465 11.1944 84.6796 11.4143 84.9476 11.4177L89.7499 11.4739C89.9236 11.4753 90.0847 11.3836 90.1721 11.2334L85.4642 11.1783Z" fill="black"/>
<path d="M87.7775 6.47369C88.2926 6.47369 88.7102 6.05569 88.7102 5.54007C88.7102 5.02444 88.2926 4.60645 87.7775 4.60645C87.2623 4.60645 86.8447 5.02444 86.8447 5.54007C86.8447 6.05569 87.2623 6.47369 87.7775 6.47369Z" fill="#3F3D56"/>
<path d="M95.577 6.47369C96.0922 6.47369 96.5098 6.05569 96.5098 5.54007C96.5098 5.02444 96.0922 4.60645 95.577 4.60645C95.0619 4.60645 94.6443 5.02444 94.6443 5.54007C94.6443 6.05569 95.0619 6.47369 95.577 6.47369Z" fill="#3F3D56"/>
<path d="M105.411 6.47369C105.926 6.47369 106.344 6.05569 106.344 5.54007C106.344 5.02444 105.926 4.60645 105.411 4.60645C104.896 4.60645 104.478 5.02444 104.478 5.54007C104.478 6.05569 104.896 6.47369 105.411 6.47369Z" fill="#3F3D56"/>
<path d="M21.7028 75.6916V87.2321C21.7028 87.9819 21.3994 88.6599 20.9091 89.1511C20.5779 89.483 20.0073 89.233 20.0073 88.7639V74.1555C20.0073 73.6907 20.572 73.4355 20.9017 73.7628L20.9093 73.7704C21.3976 74.2626 21.7029 74.9414 21.7029 75.6916L21.7028 75.6916Z" fill="#FF2958"/>
<path d="M206.515 75.1223V86.6627C206.515 87.4126 206.819 88.0905 207.309 88.5818C207.64 88.9137 208.211 88.6637 208.211 88.1945V73.5861C208.211 73.1214 207.646 72.8662 207.316 73.1935L207.309 73.2011C206.82 73.6933 206.515 74.3721 206.515 75.1222V75.1223Z" fill="#FF2958"/>
<path d="M170.57 10.1826H147.172V38.0155H170.57V10.1826Z" fill="#3F3D56"/>
<path d="M148.528 36.6575H169.214V11.54H148.528V36.6575Z" fill="white"/>
<path d="M158.817 13.5771C157.294 13.5771 155.866 13.9912 154.642 14.7108C152.899 15.7359 151.563 17.3821 150.943 19.3474C150.695 20.1349 150.563 20.9698 150.563 21.8388V34.6215H167.179V13.5771H158.817Z" fill="#3F3D56"/>
<path d="M163.171 34.6119H153.615C154.078 33.2995 155.064 32.2341 156.325 31.6726C156.957 31.3885 157.656 31.2295 158.393 31.2295C158.924 31.2295 159.437 31.3107 159.917 31.4663C161.434 31.9432 162.644 33.1169 163.171 34.6119Z" fill="#FF2958"/>
<path d="M151.919 29.1904C151.451 29.1904 150.993 29.2549 150.563 29.3737V34.6212H156.992C157.002 34.5092 157.006 34.3972 157.006 34.2818C157.006 33.328 156.741 32.4319 156.287 31.6716C155.395 30.1849 153.774 29.1904 151.919 29.1904Z" fill="#FF2958"/>
<path d="M167.179 19.3376V14.9405C166.334 14.3046 165.28 13.9258 164.138 13.9258C162.377 13.9258 160.826 14.8255 159.917 16.192C159.437 16.0364 158.924 15.9552 158.393 15.9552C157.656 15.9552 156.957 16.1142 156.325 16.3983C156.315 16.4028 156.306 16.4087 156.296 16.4132C156.293 16.4081 156.29 16.4026 156.287 16.3975C155.877 15.7153 155.314 15.1348 154.642 14.7106C152.899 15.7356 151.563 17.3818 150.943 19.3471H153.618C154.472 21.6557 155.353 23.1264 156.256 23.9086C154.386 24.7831 153.67 27.105 154.649 28.9296C156.576 32.5219 158.077 33.2678 159.362 32.5768C159.174 33.1076 159.069 33.6782 159.069 34.2735C159.069 34.3885 159.072 34.5001 159.082 34.6118H167.179V30.2146C166.334 29.5788 165.28 29.1999 164.138 29.1999C163.215 29.1999 162.35 29.4491 161.605 29.8812L161.621 29.8528C162.666 27.9895 164.613 26.8145 166.747 26.8145H167.179V22.4173C166.334 21.7814 165.28 21.4026 164.138 21.4026C163.062 21.4026 162.066 21.7397 161.245 22.3126L161.278 22.2703C162.7 20.4396 164.862 19.3376 167.179 19.3376L167.179 19.3376Z" fill="#FF2958"/>
<path d="M158.362 15.2744H158.023V34.6217H158.362V15.2744Z" fill="#3F3D56"/>
<path d="M171.987 182.156L169.415 182.134L168.276 171.972L172.073 172.004L171.987 182.156Z" fill="#FFB6B6"/>
<path d="M163.748 186.25C163.742 186.884 164.252 187.405 164.888 187.411L170.002 187.454L170.897 185.637L171.226 187.463L173.156 187.481L172.669 180.969L171.997 180.924L169.259 180.735L168.375 180.676L168.36 182.518L164.252 185.308C163.939 185.52 163.751 185.872 163.748 186.25V186.25Z" fill="#FF2958"/>
<path d="M200.122 182.156L197.55 182.134L196.411 171.972L200.207 172.004L200.122 182.156Z" fill="#FFB6B6"/>
<path d="M191.883 186.25C191.877 186.884 192.387 187.405 193.023 187.411L198.137 187.454L199.032 185.637L199.361 187.463L201.291 187.481L200.804 180.969L200.132 180.924L197.394 180.735L196.51 180.676L196.495 182.518L192.387 185.308C192.074 185.52 191.886 185.872 191.883 186.25V186.25Z" fill="#FF2958"/>
<path d="M157.707 35.7175C158.788 36.7263 158.687 38.5329 157.497 39.4096L160.43 51.151L157.385 52.7617L154.003 38.7907C153.409 37.8713 153.493 36.633 154.28 35.8044C155.203 34.8333 156.737 34.7944 157.707 35.7175H157.707Z" fill="#FFB6B6"/>
<path d="M172.787 101.995H194.243C194.243 101.995 200.793 111.607 199.299 120.579L196.187 147.121L202.785 178.149L196.436 178.772L185.481 147.121L183.987 127.931L181.248 148.616L172.787 177.837L166.682 177.899L170.293 148.367L171.79 120.539C171.79 120.539 172.705 118.613 171.934 117.851C171.164 117.09 172.048 115.738 172.048 115.738C172.048 115.738 173.228 113.869 172.196 112.987C171.164 112.106 172.787 101.995 172.787 101.995Z" fill="#F0CF86"/>
<path d="M201.768 109.862C201.768 109.862 182.347 104.628 183.094 110.61C183.425 113.257 172.592 111.584 169.248 111.19L172.512 97.0273L167.099 110.899C166.113 110.744 165.501 110.625 165.501 110.625L172.637 93.1644C172.637 93.1644 173.384 76.2175 171.852 72.0631C170.321 67.9086 174.131 66.2488 174.131 66.2488C177.893 63.4544 179.69 60.6939 178.092 57.9922L186.331 58.7025L187.078 62.7597L194.084 66.174L190.67 86.3859C190.67 86.3859 190.226 86.8766 190.519 87.2791C190.812 87.6816 190.863 88.0021 190.34 88.3403C189.816 88.6785 190.06 89.9943 190.06 89.9943C190.06 89.9943 190.085 90.8081 190.573 90.8648C191.061 90.9214 190.895 91.4108 190.895 91.4108C190.895 91.4108 190.863 92.3987 191.336 92.1585C191.653 91.9971 198.701 105.56 199.238 105.343C199.776 105.127 199.59 106.727 200.057 106.799C200.523 106.871 200.526 107.636 200.727 107.996C201.369 109.144 201.768 109.862 201.768 109.862Z" fill="#867D7F"/>
<path d="M179.761 73.1224L180.608 65.213L169.56 62.5421L158.466 42.0752L154.98 43.5705V47.0596C154.98 47.0596 151.992 50.0502 162.069 64.2776L164.94 68.2432L180.608 75.608L179.761 73.1224Z" fill="#867D7F"/>
<path d="M170.27 26.0655C169.902 27.4985 170.959 28.9661 172.434 29.0625L176.283 40.5362L179.715 40.251L175.045 26.657C175.05 25.5622 174.312 24.5646 173.204 24.2909C171.904 23.97 170.59 24.7646 170.27 26.0655L170.27 26.0655Z" fill="#FFB6B6"/>
<path d="M193.86 69.0184C196.675 67.1729 197.021 63.1766 194.565 60.8737L182.718 49.7628C182.718 49.7628 183.165 32.3576 178.56 32.3151L177.565 29.2021L172.21 31.7603L172.861 34.3331C172.861 34.3331 173.211 44.9801 176.357 48.1552C176.414 52.6402 178.292 53.829 178.292 53.829L193.86 69.0184Z" fill="#867D7F"/>
<path d="M183.217 57.681C187.116 57.681 190.276 54.5177 190.276 50.6154C190.276 46.7132 187.116 43.5498 183.217 43.5498C179.319 43.5498 176.158 46.7132 176.158 50.6154C176.158 54.5177 179.319 57.681 183.217 57.681Z" fill="#FFB6B6"/>
<path d="M200.369 69.7343C200.318 70.7493 199.833 71.7235 198.935 72.1885C198.65 72.331 198.351 72.4396 198.043 72.5177C198.033 72.4159 198.016 72.3175 197.999 72.219C197.717 70.5491 197.019 68.9572 195.998 67.6129C195.513 66.9748 196.856 70.5932 197.195 72.6297C196.886 72.012 195.316 68.0475 195.215 67.8981C195.215 67.9049 195.221 67.9253 195.235 67.9694C195.744 69.5069 195.974 71.1363 195.937 72.7586C193.97 75.5657 192.258 76.3226 190.681 76.0071C191.156 74.7239 191.105 73.2373 190.464 72.0221C190.287 73.2169 189.667 74.3268 188.778 75.1414C188.032 74.6222 187.307 73.933 186.584 73.2033C187.72 71.8355 188.507 70.1825 188.833 68.4345C189.297 65.9872 188.853 63.377 187.608 61.2217C188.209 65.5967 186.537 70.1961 183.353 73.2373C182.6 73.1219 181.922 72.8231 181.62 72.1511C181.338 71.5198 181.528 70.773 181.884 70.1825C182.234 69.5918 181.009 66.7373 181.42 66.1874C183.136 63.8996 184.767 62.8 182.929 60.6106C182.084 59.6026 180.908 58.8286 180.402 57.6134C179.765 56.0827 180.379 54.3347 181.118 52.8549C181.861 51.3715 184.333 52.064 182.678 51.9281C179.833 51.6974 181.074 49.3859 180.45 48.4219C180.101 47.8821 179.239 47.9705 178.595 47.9637C178.368 47.2 178.049 46.46 177.649 45.7675C177.751 46.5177 177.788 47.278 177.761 48.035C177.245 48.1231 176.408 48.9888 175.964 49.267L175.801 49.3451C175.174 48.9853 175.267 48.3126 175.263 47.5863C175.256 46.8599 173.859 46.1642 174.246 45.5498C175.273 43.9239 174.943 43.008 176.849 42.7603C178.754 42.5125 180.528 41.7896 181.935 43.0997C183.292 40.3843 188.572 42.7807 189.847 43.2931C191.122 43.809 192.149 44.9021 192.583 46.2054C193.594 49.2263 193.082 50.6179 194.821 53.2825C196.31 55.5633 198.416 54.4873 199.403 57.0262C200.023 58.6284 199.284 60.4001 198.626 61.9854C197.968 63.5738 196.608 67.1886 198.304 66.9307C199.748 66.7067 200.45 68.1459 200.369 69.7343V69.7343Z" fill="#2F2E41"/>
<path d="M207.032 182.117C207.733 182.161 208.12 181.29 207.59 180.782L207.537 180.572C207.544 180.555 207.551 180.539 207.558 180.522C208.266 178.831 210.667 178.842 211.37 180.536C211.993 182.039 212.787 183.545 212.983 185.134C213.07 185.835 213.031 186.55 212.875 187.238C214.336 184.044 215.105 180.556 215.105 177.049C215.105 176.167 215.057 175.286 214.958 174.407C214.877 173.688 214.765 172.973 214.621 172.265C213.839 168.437 212.146 164.791 209.704 161.746C208.53 161.104 207.551 160.1 206.959 158.896C206.747 158.462 206.581 157.995 206.502 157.519C206.635 157.537 207.005 155.5 206.905 155.375C207.091 155.093 207.424 154.952 207.628 154.676C208.639 153.304 210.032 153.543 210.76 155.408C212.313 156.193 212.328 157.495 211.375 158.747C210.768 159.544 210.685 160.622 210.153 161.474C210.208 161.545 210.265 161.613 210.319 161.683C211.323 162.972 212.192 164.357 212.924 165.813C212.717 164.195 213.023 162.246 213.543 160.99C214.136 159.558 215.247 158.353 216.226 157.115C217.401 155.629 219.811 156.278 220.018 158.162C220.02 158.18 220.022 158.198 220.024 158.217C219.879 158.299 219.737 158.386 219.597 158.478C218.804 159.003 219.078 160.234 220.018 160.379L220.04 160.383C219.987 160.907 219.897 161.426 219.766 161.937C221.021 166.796 218.311 168.566 214.441 168.645C214.356 168.689 214.273 168.733 214.187 168.775C214.579 169.88 214.893 171.013 215.125 172.162C215.333 173.177 215.477 174.203 215.558 175.233C215.659 176.533 215.65 177.84 215.541 179.138L215.547 179.092C215.826 177.662 216.601 176.327 217.727 175.402C219.404 174.023 221.773 173.515 223.582 172.407C224.453 171.873 225.569 172.563 225.417 173.574L225.41 173.622C225.141 173.732 224.878 173.859 224.624 174.001C224.478 174.083 224.336 174.17 224.197 174.263C223.404 174.788 223.678 176.019 224.618 176.164L224.639 176.167C224.654 176.169 224.668 176.172 224.683 176.174C224.221 177.272 223.577 178.292 222.771 179.171C221.986 183.413 218.615 183.815 215.009 182.58H215.006C214.612 184.298 214.036 185.978 213.296 187.578H207.185C207.163 187.51 207.143 187.44 207.124 187.372C207.689 187.407 208.258 187.374 208.815 187.271C208.361 186.714 207.908 186.153 207.454 185.596C207.444 185.585 207.435 185.574 207.426 185.563C207.196 185.278 206.964 184.996 206.734 184.711L206.734 184.71C206.719 183.835 206.824 182.963 207.032 182.117L207.032 182.117Z" fill="#F2F2F2"/>
<path d="M138.75 187.596C138.75 187.82 138.93 188 139.154 188H225.046C225.27 188 225.45 187.82 225.45 187.596C225.45 187.372 225.27 187.192 225.046 187.192H139.154C138.93 187.192 138.75 187.372 138.75 187.596Z" fill="#CCCCCC"/>
</svg>
