<svg width="347" height="211" viewBox="0 0 347 211" fill="none" xmlns="http://www.w3.org/2000/svg">
<path d="M347 87.2355C287.105 49.9097 264.97 183.497 187.497 211C64.2136 211 33.8537 7.34516 0 111.465C0 36.8307 83.9831 20.4419 174.477 8C229.234 131.765 312.495 27.6452 347 87.2355Z" fill="#FCFBFF"/>
<g clip-path="url(#clip0_490_6086)">
<path d="M155.182 108.937C155.143 108.937 155.119 108.936 155.11 108.936L150.492 108.936V108.259H155.127C155.234 108.262 157.424 108.324 159.441 105.888C162.448 102.257 164.917 93.2697 159.605 71.0703C152.464 41.2201 158.42 14.8492 161.312 4.89678C161.455 4.40439 161.48 3.88577 161.387 3.3819C161.293 2.87802 161.083 2.40269 160.774 1.99347C160.464 1.58425 160.062 1.25235 159.601 1.02399C159.141 0.795628 158.633 0.677069 158.118 0.677678H89.1436C88.6192 0.678378 88.1023 0.802114 87.635 1.03884C87.1677 1.27557 86.763 1.61862 86.4539 2.04015C85.2286 3.71747 83.5471 6.93975 82.4949 12.7662L81.8247 12.6464C82.8997 6.69338 84.6359 3.37631 85.903 1.64175C86.2754 1.13383 86.763 0.720459 87.326 0.435203C87.8891 0.149948 88.5118 0.000843981 89.1436 1.84396e-06H158.118C158.738 -0.000592321 159.35 0.142411 159.906 0.417712C160.461 0.693014 160.945 1.09307 161.318 1.58628C161.691 2.07949 161.944 2.65233 162.057 3.25955C162.169 3.86677 162.139 4.49173 161.967 5.08506C159.089 14.9858 153.164 41.22 160.268 70.9135C165.654 93.425 163.065 102.607 159.944 106.346C157.886 108.812 155.618 108.937 155.182 108.937Z" fill="#E6E6E6"/>
<path d="M142.754 121.304C142.715 121.304 142.691 121.304 142.683 121.303L138.064 121.303V120.626H142.699C142.807 120.629 144.996 120.691 147.014 118.255C150.02 114.625 152.489 105.637 147.178 83.4375C140.036 53.5873 145.992 27.2163 148.885 17.264C149.027 16.7716 149.053 16.253 148.959 15.7491C148.866 15.2452 148.656 14.7699 148.346 14.3607C148.036 13.9514 147.635 13.6195 147.174 13.3912C146.713 13.1628 146.205 13.0443 145.69 13.0449H76.7159C76.1915 13.0456 75.6747 13.1693 75.2073 13.406C74.74 13.6428 74.3353 13.9858 74.0262 14.4073C72.8009 16.0847 71.1194 19.3069 70.0672 25.1333L69.397 25.0136C70.472 19.0606 72.2082 15.7435 73.4754 14.0089C73.8478 13.501 74.3353 13.0876 74.8983 12.8024C75.4614 12.5171 76.0841 12.368 76.7159 12.3672H145.69C146.31 12.3666 146.923 12.5096 147.478 12.7849C148.033 13.0602 148.517 13.4603 148.89 13.9535C149.263 14.4467 149.516 15.0195 149.629 15.6267C149.742 16.234 149.711 16.8589 149.539 17.4522C146.661 27.353 140.736 53.5872 147.84 83.2807C153.226 105.792 150.637 114.975 147.516 118.714C145.458 121.18 143.19 121.304 142.754 121.304Z" fill="#CCCCCC"/>
<path d="M130.326 133.673C130.288 133.673 130.263 133.672 130.255 133.671L62.3438 133.672C61.6899 133.672 61.0459 133.514 60.468 133.209C59.8901 132.905 59.3959 132.464 59.0287 131.926C58.6615 131.388 58.4326 130.768 58.3618 130.121C58.291 129.474 58.3807 128.82 58.6228 128.216C61.0869 122.089 64.4046 107.391 58.94 77.7832C52.4873 42.8218 58.2642 30.1867 61.0474 26.3771C61.4198 25.8692 61.9073 25.4558 62.4704 25.1705C63.0334 24.8853 63.6562 24.7362 64.288 24.7354H133.262C133.883 24.7348 134.495 24.8778 135.05 25.1531C135.605 25.4284 136.089 25.8284 136.462 26.3216C136.836 26.8148 137.088 27.3877 137.201 27.9949C137.314 28.6021 137.283 29.2271 137.111 29.8204C134.234 39.7212 128.308 65.9553 135.412 95.6488C140.798 118.16 138.209 127.343 135.089 131.082C133.03 133.548 130.763 133.673 130.326 133.673ZM64.288 25.413C63.7636 25.4137 63.2467 25.5375 62.7794 25.7742C62.312 26.0109 61.9073 26.354 61.5982 26.7755C58.8666 30.5145 53.2047 42.9575 59.6097 77.6608C64.83 105.945 62.2982 120.901 59.255 128.467C59.0499 128.967 58.9729 129.509 59.031 130.045C59.0891 130.581 59.2804 131.095 59.5877 131.539C59.8924 131.987 60.303 132.354 60.7835 132.608C61.264 132.862 61.7998 132.994 62.3438 132.994H130.271C130.379 132.999 132.568 133.06 134.586 130.623C137.592 126.993 140.061 118.005 134.75 95.8057C127.608 65.9555 133.564 39.5845 136.457 29.6321C136.599 29.1397 136.625 28.6211 136.531 28.1172C136.438 27.6134 136.228 27.138 135.918 26.7288C135.608 26.3196 135.207 25.9877 134.746 25.7593C134.285 25.531 133.777 25.4124 133.262 25.413H64.288Z" fill="#262335"/>
<path d="M121.53 55.231H67.3928C66.6704 55.231 65.9776 54.9454 65.4668 54.437C64.9559 53.9287 64.6689 53.2392 64.6689 52.5203C64.6689 51.8014 64.9559 51.1119 65.4668 50.6035C65.9776 50.0952 66.6704 49.8096 67.3928 49.8096H121.53C122.253 49.8096 122.945 50.0952 123.456 50.6035C123.967 51.1119 124.254 51.8014 124.254 52.5203C124.254 53.2392 123.967 53.9287 123.456 54.437C122.945 54.9454 122.253 55.231 121.53 55.231Z" fill="#FF2958"/>
<path d="M121.53 66.7515H67.3928C66.6704 66.7515 65.9776 66.4659 65.4668 65.9575C64.9559 65.4492 64.6689 64.7597 64.6689 64.0408C64.6689 63.3219 64.9559 62.6324 65.4668 62.124C65.9776 61.6157 66.6704 61.3301 67.3928 61.3301H121.53C122.253 61.3301 122.945 61.6157 123.456 62.124C123.967 62.6324 124.254 63.3219 124.254 64.0408C124.254 64.7597 123.967 65.4492 123.456 65.9575C122.945 66.4659 122.253 66.7515 121.53 66.7515Z" fill="#F7D7D5"/>
<path d="M121.53 78.272H67.3928C66.6704 78.272 65.9776 77.9864 65.4668 77.4781C64.9559 76.9697 64.6689 76.2802 64.6689 75.5613C64.6689 74.8424 64.9559 74.1529 65.4668 73.6445C65.9776 73.1362 66.6704 72.8506 67.3928 72.8506H121.53C122.253 72.8506 122.945 73.1362 123.456 73.6445C123.967 74.1529 124.254 74.8424 124.254 75.5613C124.254 76.2802 123.967 76.9697 123.456 77.4781C122.945 77.9864 122.253 78.272 121.53 78.272Z" fill="#F7D7D5"/>
<path d="M125.616 89.7925H71.4788C70.7564 89.7925 70.0635 89.5069 69.5527 88.9986C69.0419 88.4902 68.7549 87.8007 68.7549 87.0818C68.7549 86.3629 69.0419 85.6734 69.5527 85.165C70.0635 84.6567 70.7564 84.3711 71.4788 84.3711H125.616C126.338 84.3711 127.031 84.6567 127.542 85.165C128.053 85.6734 128.34 86.3629 128.34 87.0818C128.34 87.8007 128.053 88.4902 127.542 88.9986C127.031 89.5069 126.338 89.7925 125.616 89.7925Z" fill="#F7D7D5"/>
<path d="M125.616 101.313H71.4788C70.7564 101.313 70.0635 101.027 69.5527 100.519C69.0419 100.011 68.7549 99.3212 68.7549 98.6023C68.7549 97.8834 69.0419 97.1939 69.5527 96.6855C70.0635 96.1772 70.7564 95.8916 71.4788 95.8916H125.616C126.338 95.8916 127.031 96.1772 127.542 96.6855C128.053 97.1939 128.34 97.8834 128.34 98.6023C128.34 99.3212 128.053 100.011 127.542 100.519C127.031 101.027 126.338 101.313 125.616 101.313Z" fill="#F7D7D5"/>
<path d="M92.9293 43.7105H67.3928C66.6704 43.7105 65.9776 43.4249 65.4668 42.9165C64.9559 42.4082 64.6689 41.7187 64.6689 40.9998C64.6689 40.2808 64.9559 39.5914 65.4668 39.083C65.9776 38.5747 66.6704 38.2891 67.3928 38.2891H92.9293C93.6517 38.2891 94.3445 38.5747 94.8554 39.083C95.3662 39.5914 95.6532 40.2808 95.6532 40.9998C95.6532 41.7187 95.3662 42.4082 94.8554 42.9165C94.3445 43.4249 93.6517 43.7105 92.9293 43.7105Z" fill="#FF2958"/>
<path d="M89.632 119.888C90.1816 117.573 92.7638 116.813 94.8749 116.898C96.2087 116.988 97.5318 117.196 98.8282 117.521C100.185 117.823 101.528 118.18 102.865 118.56C105.316 119.255 107.741 120.097 110.233 120.64C112.307 121.093 114.561 121.359 116.629 120.734C118.617 120.133 120.304 118.658 120.845 116.619C121.355 114.697 120.655 112.596 118.784 111.717C117.077 110.917 114.922 111.324 114.076 113.135C113.122 115.177 114.075 117.404 115.585 118.882C116.443 119.684 117.383 120.394 118.39 121.002C119.412 121.695 120.549 122.202 121.748 122.499C123.718 122.918 126.065 122.301 127.08 120.428C127.306 120.004 127.442 119.538 127.479 119.06C127.539 118.409 126.518 118.413 126.458 119.06C126.286 120.925 124.091 121.798 122.45 121.594C121.342 121.411 120.285 121.002 119.343 120.394C118.434 119.866 117.573 119.262 116.77 118.587C115.378 117.388 114.073 115.415 115.008 113.545C115.769 112.022 117.753 112.037 118.96 113.019C120.422 114.209 120.161 116.368 119.197 117.78C118.13 119.345 116.195 120 114.371 120.071C112.389 120.148 110.424 119.695 108.529 119.16C106.176 118.495 103.846 117.75 101.481 117.124C100.138 116.769 98.7851 116.448 97.4183 116.198C96.1258 115.915 94.7984 115.823 93.479 115.927C91.3476 116.172 89.1719 117.407 88.647 119.618C88.4961 120.254 89.4807 120.526 89.632 119.888L89.632 119.888Z" fill="#FF2958"/>
<path d="M193.991 177.361C194.05 184.033 194.541 190.694 195.461 197.303C195.493 197.536 195.529 197.768 195.561 198L258.347 197.651C258.532 197.42 258.713 197.187 258.889 196.951C259.475 196.17 260.024 195.366 260.529 194.535C262.953 190.531 264.063 185.843 262.951 182.608L262.931 182.558C262.691 181.85 262.312 181.196 261.818 180.633C259.282 177.793 254.155 178.266 249.503 180.559C253.676 176.013 256.998 170.278 257.251 165.158C257.498 160.164 254.875 156.597 252.029 153.565C251.935 153.465 251.842 153.367 251.748 153.27C251.703 153.22 251.655 153.172 251.61 153.122C249.389 150.812 246.801 148.534 243.054 148.81C238.944 149.112 234.388 152.538 231.193 156.53C227.999 160.518 225.876 165.05 223.724 169.472C221.569 173.892 219.238 178.424 215.781 182.202C220.464 176.307 224.239 169.601 225.634 163.078C227.029 156.555 225.801 150.291 221.628 147.219C220.361 146.315 218.895 145.726 217.352 145.502C217.172 145.472 216.989 145.448 216.803 145.427C212.94 144.989 208.327 146.319 204.402 149.498C200.08 152.997 197.084 158.186 195.593 163.111C194.102 168.036 193.943 172.778 193.991 177.361Z" fill="#F0CF86"/>
<path d="M235.069 197.78L236.27 197.774C236.651 197.537 237.034 197.302 237.419 197.071C237.657 196.921 237.898 196.777 238.139 196.63C242.122 194.21 246.129 191.888 250.161 189.665C254.19 187.44 258.238 185.318 262.308 183.298C262.415 183.251 262.503 183.168 262.556 183.064C262.609 182.959 262.623 182.84 262.597 182.726C262.592 182.711 262.586 182.696 262.577 182.684C262.52 182.578 262.393 182.534 262.208 182.624C261.709 182.873 261.207 183.122 260.708 183.377C256.628 185.431 252.565 187.588 248.52 189.848C244.478 192.106 240.458 194.464 236.462 196.922C236.378 196.973 236.294 197.027 236.21 197.077C235.829 197.312 235.45 197.546 235.069 197.78Z" fill="white"/>
<path d="M219.589 197.866L220.332 197.862C220.499 197.629 220.664 197.396 220.831 197.163C224.765 191.672 228.699 186.182 232.631 180.692C239.071 171.704 245.509 162.716 251.945 153.728C251.983 153.679 252.011 153.624 252.028 153.565C252.084 153.366 251.937 153.249 251.748 153.27C251.669 153.281 251.593 153.309 251.525 153.352C251.458 153.395 251.4 153.452 251.356 153.518C247.746 158.559 244.136 163.598 240.527 168.634C234.121 177.578 227.715 186.52 221.311 195.461C220.904 196.029 220.496 196.599 220.089 197.167C219.921 197.4 219.754 197.633 219.589 197.866Z" fill="white"/>
<path d="M203.05 193.576C203.088 194.821 203.17 196.047 203.278 197.261C203.299 197.493 203.32 197.725 203.341 197.957L204.12 197.953C204.097 197.721 204.073 197.488 204.052 197.256C203.887 195.503 203.77 193.729 203.755 191.907C203.734 186.857 204.228 181.817 205.231 176.866C206.296 171.534 207.826 166.306 209.803 161.239C211.878 155.894 214.379 150.724 217.283 145.777C217.338 145.697 217.362 145.599 217.352 145.503C217.32 145.282 217.024 145.216 216.803 145.427C216.76 145.469 216.722 145.516 216.692 145.568C216.332 146.183 215.979 146.8 215.633 147.418C212.836 152.392 210.442 157.581 208.474 162.933C206.599 168.017 205.173 173.254 204.211 178.584C203.311 183.529 202.922 188.552 203.05 193.576Z" fill="white"/>
<path d="M127.163 120.129C127.034 120.022 126.939 119.88 126.892 119.719C126.844 119.559 126.845 119.388 126.894 119.228C126.944 119.069 127.04 118.927 127.17 118.821C127.301 118.716 127.459 118.651 127.627 118.635C129.484 118.457 131.358 118.648 133.14 119.197L151.293 124.777C151.528 124.849 151.747 124.966 151.936 125.123C152.125 125.279 152.282 125.471 152.397 125.687C152.511 125.903 152.582 126.14 152.605 126.384C152.628 126.628 152.603 126.873 152.53 127.107C152.457 127.341 152.339 127.558 152.182 127.747C152.025 127.935 151.833 128.091 151.615 128.205C151.398 128.32 151.16 128.39 150.915 128.413C150.67 128.436 150.423 128.41 150.188 128.338L132.035 122.759C130.252 122.213 128.596 121.319 127.163 120.129Z" fill="#262335"/>
<path d="M201.575 143.305C201.082 143.099 200.64 142.789 200.281 142.394C199.922 142 199.654 141.533 199.496 141.024C199.337 140.516 199.293 139.979 199.366 139.452C199.439 138.925 199.627 138.42 199.918 137.973L196.806 121.779L204.737 121.164L205.215 137.004C205.937 137.539 206.437 138.319 206.62 139.196C206.803 140.073 206.656 140.987 206.208 141.763C205.759 142.54 205.04 143.126 204.186 143.41C203.332 143.694 202.403 143.657 201.575 143.305Z" fill="#FFB8B8"/>
<path d="M196.317 134.948L188.24 97.5122C187.908 95.9746 188.204 94.3688 189.062 93.0482C189.92 91.7275 191.27 90.8001 192.815 90.47C194.36 90.1399 195.973 90.4341 197.3 91.288C198.627 92.1418 199.559 93.4852 199.891 95.0228L207.968 132.458C208.053 132.854 207.977 133.266 207.757 133.606C207.536 133.945 207.189 134.184 206.792 134.269L198.137 136.119C197.94 136.161 197.737 136.164 197.539 136.128C197.341 136.092 197.152 136.017 196.983 135.908C196.814 135.8 196.668 135.659 196.554 135.494C196.44 135.329 196.359 135.144 196.317 134.948Z" fill="#C4C4C4"/>
<path d="M183.059 193.837H178.885L176.899 177.814L183.06 177.815L183.059 193.837Z" fill="#FFB8B8"/>
<path d="M175.903 192.65H183.954V197.695H170.834C170.834 197.032 170.966 196.376 171.22 195.764C171.475 195.152 171.848 194.596 172.319 194.128C172.79 193.659 173.349 193.288 173.964 193.034C174.578 192.781 175.238 192.65 175.903 192.65Z" fill="#2F2E41"/>
<path d="M197.019 193.499H192.845L190.859 177.476L197.02 177.476L197.019 193.499Z" fill="#FFB8B8"/>
<path d="M189.863 192.312H197.914V197.356H184.794C184.794 196.693 184.926 196.037 185.18 195.425C185.435 194.813 185.808 194.257 186.279 193.789C186.75 193.321 187.308 192.949 187.923 192.695C188.538 192.442 189.198 192.312 189.863 192.312Z" fill="#2F2E41"/>
<path d="M178.058 190.849C177.901 190.721 177.772 190.563 177.678 190.385C177.583 190.207 177.525 190.012 177.508 189.811L172.655 136.688C172.636 136.482 172.659 136.274 172.724 136.077C172.789 135.881 172.893 135.699 173.03 135.543C173.168 135.388 173.335 135.262 173.523 135.173C173.711 135.084 173.915 135.034 174.123 135.027L198.461 134.118C198.672 134.11 198.882 134.146 199.078 134.223C199.274 134.299 199.452 134.415 199.601 134.564C199.75 134.712 199.867 134.889 199.944 135.084C200.021 135.279 200.057 135.488 200.05 135.698L198.104 188.617C198.09 188.987 197.941 189.34 197.685 189.609C197.428 189.878 197.083 190.045 196.712 190.079L191.804 190.523C191.601 190.542 191.396 190.519 191.201 190.458C191.006 190.396 190.826 190.296 190.671 190.164C190.515 190.032 190.388 189.87 190.296 189.689C190.205 189.507 190.15 189.309 190.137 189.106L187.885 155.488C187.883 155.423 187.869 155.359 187.842 155.3C187.816 155.241 187.777 155.188 187.73 155.144C187.683 155.1 187.627 155.066 187.566 155.043C187.505 155.021 187.44 155.011 187.375 155.013H187.373C187.308 155.011 187.243 155.021 187.182 155.044C187.121 155.067 187.066 155.102 187.018 155.146C186.971 155.191 186.933 155.244 186.907 155.303C186.88 155.363 186.866 155.427 186.865 155.492L184.85 189.337C184.83 189.699 184.68 190.042 184.427 190.304C184.174 190.566 183.836 190.729 183.473 190.763L179.186 191.19C178.984 191.211 178.781 191.191 178.587 191.133C178.394 191.074 178.214 190.978 178.058 190.849H178.058Z" fill="#2F2E41"/>
<path d="M187.42 82.5155C192.038 82.5155 195.783 78.7895 195.783 74.1933C195.783 69.5971 192.038 65.8711 187.42 65.8711C182.801 65.8711 179.057 69.5971 179.057 74.1933C179.057 78.7895 182.801 82.5155 187.42 82.5155Z" fill="#FFB8B8"/>
<path d="M171.316 137.047C171.167 136.879 171.057 136.68 170.995 136.464C170.933 136.249 170.92 136.022 170.957 135.801C172.501 126.462 171.631 112.735 170.629 102.863C170.367 100.245 170.804 97.6038 171.894 95.2065C172.985 92.8092 174.69 90.7401 176.84 89.2075L181.207 85.4823C181.497 85.2375 181.868 85.1071 182.248 85.1156L193.098 85.424C193.489 85.4347 193.862 85.5945 194.138 85.8704L195.814 89.5652L195.832 89.5778C197.83 91.0392 199.432 92.9706 200.497 95.1992C201.561 97.4278 202.054 99.8842 201.931 102.349L200.334 135.195C200.314 135.576 200.151 135.937 199.877 136.205C199.603 136.474 199.238 136.63 198.854 136.645L172.519 137.566C172.502 137.566 172.485 137.566 172.468 137.566C172.25 137.567 172.034 137.521 171.835 137.431C171.636 137.341 171.459 137.211 171.316 137.047Z" fill="#C4C4C4"/>
<path d="M139.727 123.342C139.714 122.81 139.818 122.281 140.032 121.794C140.246 121.306 140.565 120.871 140.967 120.52C141.368 120.168 141.842 119.908 142.355 119.759C142.869 119.609 143.409 119.574 143.937 119.654L157.511 110.201L161.321 117.15L146.994 124.068C146.799 124.942 146.289 125.716 145.559 126.241C144.83 126.766 143.932 127.006 143.036 126.917C142.14 126.827 141.309 126.414 140.699 125.755C140.089 125.096 139.743 124.237 139.727 123.342L139.727 123.342Z" fill="#FFB8B8"/>
<path d="M151.149 124.985C150.95 124.955 150.759 124.886 150.587 124.782C150.415 124.678 150.265 124.542 150.146 124.38L144.908 117.278C144.668 116.952 144.568 116.544 144.63 116.144C144.691 115.745 144.909 115.386 145.237 115.146L176.253 92.4903C177.527 91.5597 179.12 91.1709 180.682 91.4094C181.456 91.5275 182.198 91.796 182.867 92.1997C183.537 92.6033 184.119 93.1342 184.582 93.7619C185.045 94.3897 185.38 95.1021 185.566 95.8584C185.752 96.6147 185.787 97.4001 185.668 98.1698C185.55 98.9395 185.28 99.6784 184.874 100.344C184.469 101.01 183.935 101.59 183.305 102.051L152.288 124.707C152.026 124.899 151.71 125.003 151.385 125.003C151.306 125.003 151.227 124.997 151.149 124.985Z" fill="#C4C4C4"/>
<path d="M187.848 81.6016C188.957 80.2484 188.836 78.1872 187.946 76.6823C187.055 75.1775 185.544 74.141 183.99 73.3315C182.435 72.522 180.783 71.8854 179.32 70.9215C177.857 69.9577 177.921 65.8771 177.531 64.1745L178.46 64.4825C178.103 64.0278 177.989 62.6844 177.632 62.2297C178.682 62.3329 179.489 63.325 180.539 63.4282L179.933 61.8098C183.533 61.5889 185.772 64.0787 189.372 63.8578C191.156 63.7483 193.094 63.6791 194.56 64.6958C195.834 65.5793 196.479 67.1084 196.903 68.5955C197.812 71.7884 197.953 75.3651 196.383 78.293C194.813 81.2209 191.195 83.1939 188.034 82.1366L187.848 81.6016Z" fill="#2F2E41"/>
<path d="M141.934 197.882H271.659C271.75 197.882 271.836 197.846 271.9 197.783C271.964 197.719 272 197.633 272 197.543C272 197.453 271.964 197.367 271.9 197.303C271.836 197.24 271.75 197.204 271.659 197.204H141.934C141.844 197.204 141.757 197.24 141.693 197.303C141.63 197.367 141.594 197.453 141.594 197.543C141.594 197.633 141.63 197.719 141.693 197.783C141.757 197.846 141.844 197.882 141.934 197.882Z" fill="#3F3D56"/>
</g>
<defs>
<clipPath id="clip0_490_6086">
<rect width="216" height="198" fill="white" transform="translate(56)"/>
</clipPath>
</defs>
</svg>
