<svg width="307" height="217" viewBox="0 0 307 217" fill="none" xmlns="http://www.w3.org/2000/svg">
<path d="M307 127.523C307 201.152 246.239 169.022 151.555 169.022C56.8723 169.022 0.000122027 201.151 0.000122027 127.523C0.000122027 53.8946 57.7627 30 152.446 30C247.129 30 307 53.8947 307 127.523Z" fill="#FCFBFF"/>
<path d="M264.103 216.712L263.775 216.589C263.703 216.562 256.539 213.824 253.183 207.615C249.827 201.406 251.47 193.931 251.487 193.856L251.565 193.516L251.892 193.638C251.964 193.665 259.128 196.403 262.484 202.612C265.84 208.821 264.197 216.297 264.18 216.371L264.103 216.712ZM253.721 207.326C256.558 212.576 262.219 215.267 263.654 215.881C263.926 214.347 264.782 208.145 261.947 202.901C259.112 197.657 253.449 194.962 252.014 194.346C251.741 195.881 250.886 202.082 253.721 207.326Z" fill="#FF2958"/>
<path d="M255.748 205.437C261.779 209.057 264.102 216.247 264.102 216.247C264.102 216.247 256.646 217.568 250.615 213.948C244.584 210.328 242.261 203.139 242.261 203.139C242.261 203.139 249.717 201.817 255.748 205.437Z" fill="#FF2958"/>
<path d="M158.651 116.297C158.944 115.846 159.328 115.462 159.78 115.169C160.231 114.877 160.74 114.683 161.272 114.6C161.804 114.517 162.347 114.548 162.866 114.689C163.386 114.831 163.869 115.08 164.285 115.421C164.417 115.529 164.54 115.647 164.655 115.772L179.674 113.591L180.51 102.324C180.574 101.46 180.98 100.656 181.638 100.09C182.296 99.5241 183.152 99.2419 184.019 99.3058C184.885 99.3696 185.691 99.7742 186.258 100.431C186.826 101.087 187.108 101.941 187.044 102.806C187.043 102.826 187.041 102.846 187.039 102.866L185.575 118.675L185.568 118.711C185.378 119.318 184.996 119.849 184.479 120.223C183.963 120.597 183.339 120.795 182.701 120.787L165.034 120.483C164.966 120.587 164.892 120.688 164.813 120.785C164.471 121.2 164.045 121.538 163.563 121.778C163.081 122.017 162.554 122.152 162.016 122.174C161.478 122.196 160.942 122.104 160.442 121.905C159.942 121.706 159.49 121.403 159.115 121.018C159.039 120.94 158.967 120.86 158.899 120.777C158.39 120.151 158.092 119.381 158.047 118.577C158.003 117.772 158.214 116.974 158.651 116.297Z" fill="#A0616A"/>
<path d="M188.932 212.361L184.648 212.361L182.61 195.878L188.933 195.878L188.932 212.361Z" fill="#FFB7B7"/>
<path d="M190.025 216.504L176.212 216.503V216.329C176.212 214.907 176.778 213.543 177.787 212.537C178.795 211.531 180.162 210.966 181.588 210.966H181.589L190.025 210.966L190.025 216.504Z" fill="#2F2E41"/>
<path d="M218.866 208.487L214.812 209.867L207.548 194.923L213.533 192.887L218.866 208.487Z" fill="#FFB7B7"/>
<path d="M221.241 212.056L208.167 216.504L208.111 216.339C207.651 214.993 207.745 213.519 208.374 212.242C209.003 210.966 210.114 209.991 211.464 209.531L211.464 209.531L219.449 206.814L221.241 212.056Z" fill="#2F2E41"/>
<path d="M193.65 68.2398C193.65 68.2398 189.386 66.8351 186.645 72.4539C183.904 78.0728 179.64 84.2535 179.64 84.2535L182.077 84.8154C182.077 84.8154 182.686 80.8822 184.208 80.3203L183.599 85.3772C183.599 85.3772 201.873 91.277 210.096 84.8154L209.791 82.8488C209.791 82.8488 211.009 83.1297 211.009 84.8154L211.923 83.9725C211.923 83.9725 211.009 82.2869 208.268 80.0394C206.469 78.5642 205.851 75.7577 205.639 74.003C205.47 72.5174 204.831 71.124 203.815 70.025C201.994 68.0776 198.675 66.0079 193.65 68.2398Z" fill="#2F2E41"/>
<path d="M195.221 87.8712C199.522 87.8712 203.009 84.3931 203.009 80.1026C203.009 75.8121 199.522 72.334 195.221 72.334C190.92 72.334 187.434 75.8121 187.434 80.1026C187.434 84.3931 190.92 87.8712 195.221 87.8712Z" fill="#A0616A"/>
<path d="M184.838 94.2677L183.422 93.7969C183.422 93.7969 180.59 94.9739 180.59 97.0927C180.59 99.2114 180.118 107.686 180.118 107.686L186.49 108.392L184.838 94.2677Z" fill="#867D7F"/>
<path d="M210.18 140.574C209.593 139.917 209.261 139.072 209.246 138.193C209.23 137.313 209.532 136.457 210.096 135.78L206.121 102.572C206.082 101.789 206.356 101.023 206.883 100.441C207.41 99.8595 208.147 99.5101 208.932 99.4697C209.717 99.4294 210.486 99.7014 211.07 100.226C211.654 100.751 212.005 101.485 212.047 102.268C212.048 102.279 212.048 102.289 212.049 102.3L215.605 135.543C215.734 135.672 215.853 135.811 215.96 135.958C216.245 136.352 216.45 136.797 216.563 137.27C216.675 137.742 216.694 138.232 216.616 138.712C216.539 139.191 216.368 139.65 216.113 140.064C215.858 140.477 215.523 140.837 215.129 141.121C215.088 141.151 215.046 141.179 215.004 141.207C214.548 141.508 214.03 141.705 213.488 141.784C212.946 141.862 212.393 141.819 211.87 141.659C211.216 141.462 210.631 141.086 210.18 140.574Z" fill="#A0616A"/>
<path d="M206.54 107.686L212.911 106.98C212.911 106.98 212.439 98.5053 212.439 96.3866C212.439 94.2679 209.607 93.0908 209.607 93.0908L208.191 93.5616L206.54 107.686Z" fill="#867D7F"/>
<path d="M185.781 119.446C185.781 119.446 180.354 129.345 180.354 141.351C180.354 153.357 179.882 208.444 179.882 208.444C179.882 208.444 186.961 211.739 191.209 207.737L194.985 146.765L209.852 206.56C209.852 206.56 216.932 207.973 220.235 205.619L213.864 163.951C213.864 163.951 211.268 124.872 204.188 122.047C197.109 119.222 185.781 119.446 185.781 119.446Z" fill="#F7D7D5"/>
<path d="M186.806 80.1513C189.563 78.161 191.794 75.8686 193.271 73.1416C193.271 73.1416 198.33 78.7494 201.422 79.0298C204.514 79.3102 201.703 72.3004 201.703 72.3004L196.081 70.8984L190.741 71.4592L186.525 74.2631L186.806 80.1513Z" fill="#2F2E41"/>
<path d="M203.009 91.6782C203.009 91.6782 203.233 91.5578 189.794 92.0462L184.169 93.5915L183.422 93.7969C183.422 93.7969 184.13 107.922 186.018 110.511C187.906 113.101 187.434 114.513 186.962 114.749C186.49 114.984 185.31 114.513 186.018 115.69C186.726 116.867 187.67 116.161 186.726 116.867C185.782 117.574 185.31 120.163 185.31 120.163L206.076 122.988C206.076 122.988 206.784 113.807 208.672 109.099C210.56 104.39 211.032 102.507 211.032 102.507L209.616 93.0906L203.009 91.6782Z" fill="#867D7F"/>
<path d="M163.527 51.5236H162.333V18.8884C162.333 13.8789 160.338 9.07455 156.787 5.53229C153.236 1.99003 148.42 8.07513e-06 143.398 0L74.0882 0C69.0665 -1.37276e-05 64.2505 1.98999 60.6996 5.53224C57.1487 9.07448 55.1538 13.8788 55.1538 18.8883V197.928C55.1538 202.937 57.1487 207.741 60.6995 211.284C64.2504 214.826 69.0664 216.816 74.0881 216.816H143.398C145.885 216.816 148.347 216.327 150.644 215.378C152.941 214.429 155.029 213.038 156.787 211.284C158.545 209.53 159.94 207.448 160.891 205.156C161.843 202.864 162.333 200.408 162.333 197.928V74.7539H163.527L163.527 51.5236Z" fill="#3F3D56"/>
<path d="M158.303 19.0212V197.797C158.304 199.648 157.941 201.481 157.232 203.191C156.524 204.902 155.484 206.457 154.174 207.766C152.863 209.076 151.307 210.116 149.593 210.826C147.88 211.535 146.043 211.902 144.188 211.903H74.5193C70.7717 211.906 67.1765 210.423 64.5247 207.782C61.8728 205.14 60.3816 201.556 60.3789 197.817V19.0212C60.3776 17.17 60.7418 15.3368 61.4507 13.626C62.1596 11.9153 63.1994 10.3606 64.5106 9.05075C65.8218 7.74087 67.3788 6.70146 69.0927 5.99186C70.8066 5.28225 72.6438 4.91635 74.4994 4.91504H82.9676C82.5515 5.93259 82.3927 7.0366 82.5052 8.12979C82.6176 9.22299 82.9979 10.2718 83.6124 11.1839C84.2269 12.0959 85.0569 12.8432 86.0292 13.3599C87.0014 13.8765 88.0862 14.1467 89.1878 14.1466H128.896C129.997 14.1467 131.082 13.8765 132.054 13.3599C133.027 12.8432 133.857 12.0959 134.471 11.1839C135.086 10.2718 135.466 9.22299 135.578 8.12979C135.691 7.0366 135.532 5.93259 135.116 4.91504H144.162C147.909 4.91169 151.504 6.39332 154.156 9.03399C156.808 11.6747 158.299 15.258 158.303 18.9959V19.0212L158.303 19.0212Z" fill="white"/>
<path d="M158.303 45.4706V39.3811H149.064V5.78587C147.495 5.20777 145.835 4.9129 144.162 4.91505H142.96V39.3811H110.913V14.1466H104.808V39.3811H77.9498V4.91508H74.5193C73.6221 4.91368 72.7267 4.99831 71.8456 5.16779V39.3811H60.3789V45.4706H71.8456V59.5555L60.3791 66.1594V73.1927L71.8456 66.5888V108.496H60.3789V114.585H71.8456V175.175H60.3789V181.264H71.8456V211.651C72.7267 211.82 73.6221 211.905 74.5194 211.903H77.9498V181.264H104.808V211.903H110.913V181.264H142.96V211.903H144.162C145.835 211.905 147.495 211.611 149.064 211.032V181.264H158.303V175.175H149.064V148.686H158.22V142.597H149.064V114.585H158.303V108.496H149.064V71.3506H158.303V65.2612H149.064V45.4706L158.303 45.4706ZM96.3024 45.4706L96.3023 45.4706L77.95 56.0419L77.9498 56.0419V45.4706H96.3024ZM77.9498 63.0722L77.95 63.0721L104.808 47.602V108.496H77.9498V63.0722ZM77.9498 175.175V114.585H104.808V175.175H77.9498ZM142.96 175.175H110.913V148.686H142.96V175.175ZM142.96 142.597H110.913V114.585H142.96V142.597ZM142.96 108.496H110.913V71.3506H142.96V108.496ZM142.96 65.2611H110.913V45.4706H142.96V65.2611Z" fill="#F0CF86"/>
<path d="M163.409 65.3735C163.409 84.7112 128.31 127.79 128.31 127.79C128.31 127.79 93.2104 84.7112 93.2104 65.3735C93.2104 56.0872 96.9084 47.1812 103.491 40.6148C110.073 34.0483 119.001 30.3594 128.31 30.3594C137.619 30.3594 146.546 34.0483 153.129 40.6148C159.711 47.1812 163.409 56.0872 163.409 65.3735Z" fill="#C4C4C4"/>
<path d="M149.064 63.8515C149.064 67.9463 147.847 71.9492 145.567 75.354C143.286 78.7587 140.045 81.4124 136.252 82.9795C132.46 84.5465 128.287 84.9565 124.261 84.1576C120.235 83.3588 116.537 81.3869 113.634 78.4914C110.732 75.5959 108.755 71.9068 107.954 67.8906C107.154 63.8744 107.565 59.7115 109.135 55.9284C110.706 52.1452 113.366 48.9117 116.78 46.6367C120.193 44.3617 124.205 43.1475 128.31 43.1475C131.034 43.1462 133.732 43.6803 136.249 44.7191C138.767 45.7579 141.054 47.2812 142.982 49.202C144.909 51.1228 146.438 53.4034 147.482 55.9137C148.525 58.424 149.063 61.1148 149.064 63.8324V63.8515Z" fill="white"/>
<path d="M128.238 72.0242C132.508 72.0242 135.97 68.5708 135.97 64.3109C135.97 60.051 132.508 56.5977 128.238 56.5977C123.968 56.5977 120.506 60.051 120.506 64.3109C120.506 68.5708 123.968 72.0242 128.238 72.0242Z" fill="#FF2958"/>
<path d="M139.459 81.9276C136.126 84.042 132.258 85.1647 128.308 85.1642C124.358 85.1636 120.49 84.0399 117.158 81.9246C117.851 79.5077 119.314 77.3818 121.326 75.8685C123.338 74.3552 125.79 73.5368 128.31 73.5371C130.83 73.5375 133.281 74.3565 135.293 75.8704C137.304 77.3843 138.767 79.5106 139.459 81.9276Z" fill="#FF2958"/>
<path d="M128.31 153.061C133.535 153.061 137.771 148.835 137.771 143.622C137.771 138.409 133.535 134.184 128.31 134.184C123.084 134.184 118.848 138.409 118.848 143.622C118.848 148.835 123.084 153.061 128.31 153.061Z" fill="#C4C4C4"/>
<path d="M274.695 217H29.3052C29.2243 217 29.1466 216.968 29.0894 216.91C29.0322 216.853 29 216.776 29 216.695C29 216.614 29.0322 216.537 29.0894 216.48C29.1466 216.423 29.2243 216.391 29.3052 216.391H274.695C274.776 216.391 274.853 216.423 274.911 216.48C274.968 216.537 275 216.614 275 216.695C275 216.776 274.968 216.853 274.911 216.91C274.853 216.968 274.776 217 274.695 217Z" fill="#FCFBFF"/>
</svg>
