<svg width="327" height="188" viewBox="0 0 327 188" fill="none" xmlns="http://www.w3.org/2000/svg">
<path d="M318.429 115.5C328.984 166.585 300.201 174.957 192.429 184.5C84.6573 194.043 37.091 182.976 32.6468 103.823C28.2028 24.6693 76.6156 -17.3234 160.5 8.49973C244.384 34.3228 280.467 40.8382 318.429 115.5Z" fill="#FCFBFF"/>
<g clip-path="url(#clip0_434_6211)">
<path d="M107.447 176.703C97.6021 176.703 87.7718 176.527 77.9563 176.176C63.9312 175.673 49.4284 175.154 35.9487 167.697C26.519 162.481 18.1676 154.112 11.7975 143.495C7.53981 136.299 4.4179 128.492 2.54141 120.349C-0.95897 105.523 -0.839743 90.075 2.88907 75.3043C4.19578 70.24 5.99718 65.3158 8.26741 60.6021C18.0976 40.2983 36.0273 26.6688 57.4591 23.2088C57.6361 23.1859 57.8151 23.1821 57.9929 23.1974C58.0893 23.2026 58.1854 23.2081 58.2833 23.204L58.4094 23.164C58.7327 23.052 59.0647 22.967 59.4021 22.9099C92.4557 18.0019 127.398 27.9325 160.449 51.6275C186.004 69.9508 219.872 79.8176 263.988 81.7918L264.614 81.8245C276.895 82.5282 288.774 87.5781 298.969 96.4293C309.031 105.165 316.587 116.821 320.818 130.136C321.338 131.76 321.815 133.449 322.235 135.159C322.626 136.747 322.598 138.409 322.155 139.984C321.711 141.558 320.866 142.991 319.702 144.144V144.147L319.593 144.259C319.328 144.522 319.05 144.773 318.765 145.008L318.431 145.283C315.612 147.599 313.385 149.429 310.72 150.85C308.942 151.791 307.052 152.503 305.094 152.968C294.344 155.583 283.426 158.006 272.646 160.173C251.708 164.383 230.22 167.857 208.776 170.496C175.159 174.631 141.319 176.704 107.447 176.703ZM57.7423 23.9165C57.6764 23.9159 57.6106 23.9204 57.5455 23.9299C36.314 27.3575 18.5541 40.8532 8.82132 60.9561C6.57349 65.623 4.78992 70.4984 3.49619 75.5125C-0.198637 90.1523 -0.316382 105.463 3.15286 120.157C5.01099 128.223 8.10262 135.955 12.3192 143.082C18.6269 153.595 26.893 161.88 36.2238 167.041C49.5825 174.431 64.0169 174.948 77.9761 175.448C121.636 177.004 165.35 175.106 208.709 169.773C230.138 167.135 251.613 163.664 272.536 159.456C283.31 157.291 294.22 154.869 304.963 152.256C306.873 151.803 308.718 151.108 310.453 150.19C313.064 148.797 315.27 146.985 318.062 144.691L318.396 144.416C318.641 144.214 318.881 143.999 319.111 143.775L319.177 143.706C321.471 141.399 322.364 138.356 321.625 135.356C321.209 133.666 320.737 131.993 320.223 130.387C311.579 103.186 289.22 83.9628 264.584 82.5516L263.961 82.5189C243.809 81.6169 226.175 79.1186 210.053 74.8803C190.807 69.8211 174.005 62.2053 160.114 52.2448C127.188 28.6406 92.392 18.747 59.4828 23.6317C59.1754 23.6846 58.873 23.7628 58.5785 23.8655L58.3512 23.929C58.2221 23.9347 58.0928 23.9332 57.9638 23.9244C57.8878 23.9205 57.8142 23.9165 57.7423 23.9165Z" fill="#FF2958"/>
<path d="M101.914 66.72C101.002 65.8478 100.07 60.9841 98.9064 60.4904C99.7761 62.4077 99.1446 62.9153 99.14 65.0195C99.1509 66.2143 99.011 67.4058 98.7236 68.5657H79.0127V53.2226C79.0127 51.8439 79.2849 50.4788 79.8138 49.2051C80.3427 47.9314 81.118 46.7741 82.0953 45.7993C83.0727 44.8245 84.233 44.0512 85.51 43.5236C86.787 42.9961 88.1556 42.7246 89.5378 42.7246C90.0654 42.7349 90.5895 42.8114 91.0979 42.9524C92.7921 43.4086 94.3363 44.3012 95.5754 45.5406C96.8146 46.78 97.7053 48.3226 98.158 50.0137C99.6607 55.4919 102.051 64.6107 101.914 66.72Z" fill="#2F2E41"/>
<path d="M80.1691 85.5948L80.1788 73.6357L73.1307 74.2639L75.6181 81.8065L74.454 100.765C73.8894 100.891 73.3738 101.179 72.9702 101.592C72.5666 102.006 72.2923 102.528 72.1808 103.094C72.0694 103.661 72.1255 104.247 72.3425 104.782C72.5594 105.317 72.9278 105.778 73.4026 106.108C73.8774 106.437 74.4382 106.622 75.0166 106.64C75.595 106.657 76.166 106.507 76.66 106.206C77.1539 105.905 77.5495 105.468 77.7985 104.947C78.0476 104.426 78.1392 103.844 78.0623 103.272L80.1691 85.5948Z" fill="#FFB6B6"/>
<path d="M94.0398 171.054L96.8871 171.054L98.2418 160.1H94.0391L94.0398 171.054Z" fill="#FFB6B6"/>
<path d="M93.0754 169.654L97.5766 169.386V171.309L101.856 174.257C102.067 174.403 102.227 174.612 102.31 174.854C102.394 175.096 102.398 175.359 102.322 175.603C102.245 175.848 102.092 176.062 101.885 176.214C101.679 176.366 101.428 176.447 101.172 176.447H95.8127L94.889 174.545L94.5283 176.447H92.5078L93.0754 169.654Z" fill="#2F2E41"/>
<path d="M77.5751 171.054L80.4228 171.054L81.7771 160.1H77.5747L77.5751 171.054Z" fill="#FFB6B6"/>
<path d="M76.611 169.654L81.1122 169.386V171.309L85.3917 174.257C85.6031 174.403 85.7623 174.612 85.846 174.854C85.9298 175.096 85.9337 175.359 85.8573 175.603C85.7809 175.848 85.628 176.062 85.4211 176.214C85.2142 176.366 84.964 176.447 84.7072 176.447H79.3483L78.4246 174.545L78.064 176.447H76.0435L76.611 169.654Z" fill="#2F2E41"/>
<path d="M91.504 60.7207L85.6053 60.8361L81.4415 65.2198L78.1033 65.7082C76.5933 65.9291 75.205 66.6602 74.1705 67.7795C73.1361 68.8987 72.5181 70.3381 72.4199 71.8572L72.9982 75.0256H76.468L78.4753 86.781C77.6948 88.7647 77.6418 90.3305 79.2439 90.9456L84.2173 100.29L98.9063 93.7143C99.6512 92.4369 99.8899 91.1539 99.1285 89.9062L100.179 71.9108H103.709C103.709 68.5451 102.568 65.7077 99.2145 65.3332C97.8828 65.1894 96.5446 65.1131 95.2051 65.1045L91.504 60.7207Z" fill="#E6E6E6"/>
<path d="M98.906 93.714C98.906 93.714 84.5641 96.252 79.2437 90.9453C79.2437 90.9453 78.7035 91.8599 77.8896 93.3768C77.6555 93.813 77.2035 94.1085 76.9305 94.6369C76.6823 95.1171 76.0441 95.7075 75.7738 96.2521C75.5564 96.6903 75.9052 97.2629 75.679 97.7362C72.9543 103.436 69.771 111.477 70.4534 116.786C70.8935 120.21 71.8025 128.178 72.7599 136.735C72.8347 137.403 72.2288 138.262 72.304 138.936C72.3749 139.571 73.1268 140.022 73.1977 140.659C73.2448 141.082 72.7197 141.513 72.7667 141.935C72.8182 142.399 73.4417 142.853 73.493 143.315C74.8044 155.13 76.0052 166.161 76.0052 166.161H82.7135L83.9792 140.967L82.9448 131.784L85.3737 113.21L88.7279 130.861L89.1594 140.794L92.7041 166.623H98.906V141.619L99.3687 140.32L98.906 138.654L99.3687 136.859L98.906 134.905V93.714Z" fill="#E6E6E6"/>
<path d="M93.3143 57.3089C92.4006 58.5196 91.1007 59.3837 89.6288 59.7591C88.1568 60.1345 86.6006 59.9987 85.2164 59.3741C83.8322 58.7495 82.7025 57.6733 82.0134 56.3227C81.3243 54.9722 81.1169 53.4279 81.4254 51.9441C81.7338 50.4603 82.5397 49.1255 83.7103 48.1595C84.8809 47.1935 86.3464 46.654 87.8655 46.6298C89.3846 46.6055 90.8666 47.098 92.0676 48.0261C93.2686 48.9542 94.1169 50.2626 94.4727 51.7358C94.492 51.8157 94.5082 51.8952 94.524 51.9777C94.7119 52.9011 94.7013 53.8538 94.4927 54.7728C94.2842 55.6918 93.8826 56.5562 93.3143 57.3089Z" fill="#FFB6B6"/>
<path d="M91.9201 53.5041C91.7782 52.7941 91.4195 52.1453 90.893 51.6468C90.945 52.3272 90.8503 53.0109 90.6154 53.6518C88.8569 53.8071 87.0904 53.4581 85.5241 52.6458C84.3443 51.8475 82.843 51.9167 81.0942 52.6458C81.0941 51.7974 81.2616 50.9573 81.587 50.1735C81.9125 49.3896 82.3896 48.6774 82.9911 48.0775C83.5925 47.4776 84.3066 47.0017 85.0925 46.6771C85.8784 46.3525 86.7206 46.1854 87.5712 46.1855H88.7279C90.4456 46.1859 92.0928 46.8666 93.3075 48.0781C94.5221 49.2895 95.2046 50.9326 95.2049 52.6458C94.1374 53.0277 93.0382 53.3149 91.9201 53.5041Z" fill="#2F2E41"/>
<path d="M41.3195 135.843C51.5961 135.843 59.927 127.533 59.927 117.283C59.927 107.033 51.5961 98.7236 41.3195 98.7236C31.0428 98.7236 22.7119 107.033 22.7119 117.283C22.7119 127.533 31.0428 135.843 41.3195 135.843Z" fill="#F0CF86"/>
<path d="M159.897 50.6873C170.173 50.6873 178.504 42.378 178.504 32.1278C178.504 21.8777 170.173 13.5684 159.897 13.5684C149.62 13.5684 141.289 21.8777 141.289 32.1278C141.289 42.378 149.62 50.6873 159.897 50.6873Z" fill="#F0CF86"/>
<path d="M307.663 138.754C317.939 138.754 326.27 130.444 326.27 120.194C326.27 109.944 317.939 101.635 307.663 101.635C297.386 101.635 289.055 109.944 289.055 120.194C289.055 130.444 297.386 138.754 307.663 138.754Z" fill="#F0CF86"/>
<path d="M193.463 34.1521V76.2371C193.463 77.1112 193.118 77.9501 192.501 78.5715C191.885 79.1929 191.047 79.5466 190.171 79.5557C190.159 79.5569 190.147 79.5574 190.135 79.5572H185.224C181.294 79.5572 177.526 78.0003 174.748 75.2291C171.969 72.4578 170.408 68.6992 170.408 64.78V34.1521C170.408 33.2716 170.759 32.4271 171.383 31.8045C172.007 31.1818 172.854 30.832 173.737 30.832H175.727C174.805 33.5143 187.317 34.6436 188.003 30.832H190.135C191.017 30.832 191.864 31.1818 192.488 31.8045C193.113 32.4271 193.463 33.2716 193.463 34.1521Z" fill="#262335"/>
<path d="M178.89 27.6851C178.89 27.5698 178.936 27.4592 179.018 27.3776C179.1 27.296 179.211 27.2501 179.326 27.25H182.293C182.408 27.2503 182.519 27.2963 182.6 27.3779C182.682 27.4594 182.728 27.5699 182.728 27.6851C182.728 27.8003 182.682 27.9108 182.6 27.9923C182.519 28.0739 182.408 28.1199 182.293 28.1202H179.326C179.211 28.1201 179.1 28.0742 179.018 27.9926C178.936 27.9111 178.89 27.8005 178.89 27.6851Z" fill="#3F3D56"/>
<path d="M191.154 84.8948H172.394C170.939 84.8931 169.544 84.3158 168.514 83.2893C167.485 82.2628 166.906 80.8711 166.905 79.4194V50.0003C166.802 49.9265 166.718 49.8293 166.66 49.7167C166.602 49.6042 166.572 49.4795 166.572 49.353V46.3943C166.572 46.2678 166.602 46.1431 166.66 46.0306C166.718 45.918 166.802 45.8208 166.905 45.7471V44.953C166.802 44.8793 166.718 44.7821 166.66 44.6695C166.602 44.557 166.572 44.4323 166.572 44.3058V41.3469C166.572 41.2205 166.602 41.0958 166.66 40.9832C166.718 40.8707 166.802 40.7735 166.905 40.6998V39.2646C166.777 39.1964 166.671 39.0951 166.597 38.9714C166.523 38.8477 166.484 38.7063 166.485 38.5623V35.6036C166.484 35.4596 166.523 35.3182 166.597 35.1944C166.671 35.0707 166.777 34.9693 166.905 34.9012V30.9685C166.906 29.5168 167.485 28.1251 168.514 27.0986C169.544 26.0722 170.939 25.4948 172.394 25.4932H191.154C192.609 25.4948 194.004 26.0722 195.034 27.0987C196.063 28.1251 196.642 29.5169 196.643 30.9685V39.5409C196.742 39.6026 196.824 39.6883 196.88 39.79C196.937 39.8918 196.966 40.0061 196.966 40.1225V45.7642C196.966 45.8805 196.937 45.9949 196.88 46.0967C196.824 46.1984 196.742 46.2842 196.643 46.3459V79.4194C196.642 80.871 196.063 82.2628 195.034 83.2893C194.004 84.3157 192.609 84.8931 191.154 84.8948ZM172.394 26.221C171.132 26.2224 169.922 26.723 169.03 27.6131C168.138 28.5031 167.636 29.7098 167.634 30.9685V35.5203L167.283 35.5338C167.265 35.5344 167.248 35.542 167.235 35.555C167.222 35.568 167.215 35.5854 167.215 35.6036V38.5623C167.215 38.5805 167.222 38.5979 167.235 38.6108C167.248 38.6238 167.265 38.6315 167.283 38.6322L167.634 38.6455V41.2108L167.357 41.279C167.341 41.2827 167.328 41.2914 167.318 41.3037C167.308 41.316 167.302 41.3312 167.302 41.3469V44.3058C167.302 44.3216 167.308 44.3368 167.318 44.3491C167.328 44.3614 167.341 44.37 167.357 44.3737L167.634 44.4419V46.2581L167.357 46.3264C167.341 46.3301 167.328 46.3387 167.318 46.351C167.308 46.3633 167.302 46.3785 167.302 46.3942V49.353C167.302 49.3688 167.308 49.384 167.318 49.3963C167.328 49.4086 167.341 49.4173 167.357 49.421L167.634 49.4893V79.4194C167.636 80.6781 168.138 81.8848 169.03 82.7749C169.922 83.6649 171.132 84.1655 172.394 84.1669H191.154C192.416 84.1655 193.625 83.6648 194.518 82.7748C195.41 81.8848 195.912 80.6781 195.913 79.4194V45.7227H196.237V40.164H195.913V30.9685C195.912 29.7098 195.41 28.5031 194.518 27.6131C193.625 26.7231 192.416 26.2224 191.154 26.221L172.394 26.221Z" fill="#3F3D56"/>
<path d="M183.95 28.1202C184.191 28.1202 184.387 27.9254 184.387 27.6851C184.387 27.4448 184.191 27.25 183.95 27.25C183.709 27.25 183.514 27.4448 183.514 27.6851C183.514 27.9254 183.709 28.1202 183.95 28.1202Z" fill="#3F3D56"/>
<path d="M89.0537 111.971H40.241C39.5478 111.97 38.8835 111.694 38.3933 111.205C37.9031 110.716 37.6269 110.054 37.625 109.363V85.6395C37.6268 84.9481 37.9029 84.2855 38.393 83.7966C38.8832 83.3077 39.5474 83.0321 40.2406 83.0303H89.0533C89.7465 83.032 90.4108 83.3075 90.901 83.7963C91.3912 84.2852 91.6674 84.9477 91.6693 85.6391V109.362C91.6675 110.054 91.3914 110.716 90.9013 111.205C90.4111 111.694 89.7469 111.97 89.0537 111.971Z" fill="white"/>
<path d="M89.0537 111.971H40.241C39.5478 111.97 38.8835 111.694 38.3933 111.205C37.9031 110.716 37.6269 110.054 37.625 109.363V85.6395C37.6268 84.9481 37.9029 84.2855 38.393 83.7966C38.8832 83.3077 39.5474 83.0321 40.2406 83.0303H89.0533C89.7465 83.032 90.4108 83.3075 90.901 83.7963C91.3912 84.2852 91.6674 84.9477 91.6693 85.6391V109.362C91.6675 110.054 91.3914 110.716 90.9013 111.205C90.4111 111.694 89.7469 111.97 89.0537 111.971ZM40.241 83.7581C39.7411 83.7596 39.2621 83.9583 38.9087 84.3109C38.5552 84.6635 38.3561 85.1413 38.3547 85.6399V109.362C38.3562 109.861 38.5554 110.339 38.9089 110.691C39.2624 111.044 39.7414 111.242 40.2413 111.244H89.053C89.5529 111.242 90.032 111.043 90.3855 110.691C90.739 110.338 90.9382 109.86 90.9396 109.362V85.6395C90.9381 85.1409 90.7389 84.6632 90.3854 84.3107C90.0319 83.9581 89.5529 83.7595 89.053 83.7581L40.241 83.7581Z" fill="#3F3D56"/>
<path d="M67.2631 108.465C57.6362 108.465 47.598 108.374 43.8526 108.314C43.3598 108.304 42.8905 108.102 42.5449 107.752C42.1993 107.401 42.0048 106.93 42.0029 106.438V86.8008C42.0031 86.6248 42.0732 86.456 42.1978 86.3313C42.3225 86.2067 42.4916 86.1364 42.6681 86.1357H86.6241C86.8005 86.1359 86.9697 86.2058 87.0947 86.3301C87.2196 86.4544 87.2901 86.623 87.2908 86.799V100.123C87.2825 102.297 86.42 104.382 84.8883 105.93C83.3565 107.478 81.2775 108.366 79.0973 108.402C75.6066 108.448 71.4732 108.465 67.2631 108.465Z" fill="#FF2958"/>
<path d="M84.015 98.8981H44.2972C43.9647 98.8972 43.6405 98.7942 43.3686 98.603C43.0968 98.4119 42.8906 98.1419 42.778 97.8298L38.2825 85.2507C38.1959 85.0081 38.1689 84.7483 38.2038 84.4931C38.2387 84.2379 38.3345 83.9948 38.4831 83.7842C38.6317 83.5736 38.8288 83.4017 39.0579 83.2828C39.2869 83.164 39.5413 83.1017 39.7995 83.1012L89.4459 83.0322C89.6819 83.032 89.9151 83.0834 90.129 83.1828C90.343 83.2821 90.5324 83.4271 90.6841 83.6075C90.8357 83.7878 90.9459 83.9992 91.0068 84.2266C91.0677 84.454 91.0778 84.692 91.0365 84.9237L91.0748 84.9399L90.9322 85.2717L90.9308 85.275L85.4963 97.9229C85.3725 98.2125 85.1661 98.4593 84.9027 98.6327C84.6393 98.8061 84.3306 98.8984 84.015 98.8981ZM89.4482 83.7601L39.8009 83.829C39.6594 83.8292 39.5201 83.8633 39.3946 83.9284C39.2691 83.9935 39.1611 84.0877 39.0797 84.2031C38.9983 84.3184 38.9458 84.4516 38.9267 84.5914C38.9076 84.7311 38.9223 84.8735 38.9698 85.0064L43.4651 97.5849C43.5269 97.756 43.6399 97.9039 43.7889 98.0086C43.9379 98.1133 44.1155 98.1697 44.2978 98.1703H84.015C84.1877 98.1704 84.3566 98.1199 84.5008 98.025C84.6449 97.93 84.7578 97.7949 84.8256 97.6365L90.2602 84.9883L90.5275 85.1025L90.2602 84.9883C90.3178 84.8542 90.3412 84.708 90.3282 84.5628C90.3152 84.4176 90.2663 84.2778 90.1858 84.1561C90.1053 84.0343 89.9958 83.9345 89.8671 83.8653C89.7383 83.7962 89.5944 83.76 89.4482 83.7601Z" fill="#3F3D56"/>
<path d="M64.5729 101.637C66.2905 101.637 67.6829 100.248 67.6829 98.5346C67.6829 96.8214 66.2905 95.4326 64.5729 95.4326C62.8553 95.4326 61.4629 96.8214 61.4629 98.5346C61.4629 100.248 62.8553 101.637 64.5729 101.637Z" fill="white"/>
<path d="M182.056 74.7069C183.773 74.7069 185.166 73.3181 185.166 71.6049C185.166 69.8917 183.773 68.5029 182.056 68.5029C180.338 68.5029 178.946 69.8917 178.946 71.6049C178.946 73.3181 180.338 74.7069 182.056 74.7069Z" fill="#FCFBFF"/>
<path d="M299.683 116.599L291.376 108.418C290.971 108.017 290.491 107.699 289.964 107.483C289.436 107.267 288.87 107.157 288.3 107.159H288.271C287.696 107.161 287.127 107.276 286.597 107.499C286.067 107.721 285.587 108.046 285.184 108.455C283.326 110.33 282.27 112.85 282.237 115.486C282.203 118.122 283.196 120.668 285.005 122.589C285.093 122.684 285.184 122.775 285.275 122.866C285.781 123.367 286.338 123.812 286.939 124.194C288.581 125.252 290.497 125.812 292.452 125.806H292.514C293.856 125.801 295.184 125.532 296.421 125.012C297.658 124.492 298.779 123.733 299.72 122.778C300.535 121.953 300.989 120.84 300.982 119.681C300.975 118.523 300.508 117.414 299.683 116.599ZM299.202 122.265C297.659 123.815 295.628 124.787 293.451 125.018C291.274 125.249 289.084 124.724 287.249 123.532C286.724 123.185 286.234 122.789 285.786 122.349C283.996 120.585 282.982 118.185 282.966 115.676C282.95 113.166 283.934 110.753 285.702 108.968C286.038 108.626 286.439 108.355 286.881 108.169C287.323 107.984 287.798 107.888 288.278 107.887H288.3C288.775 107.885 289.246 107.977 289.685 108.157C290.125 108.337 290.524 108.601 290.861 108.935L299.169 117.119C299.857 117.798 300.246 118.721 300.253 119.686C300.259 120.65 299.881 121.578 299.202 122.265Z" fill="#3F3D56"/>
<path d="M272.425 89.7492L264.117 81.5648C263.299 80.7556 262.193 80.3028 261.041 80.3057H261.016C260.44 80.308 259.871 80.424 259.34 80.647C258.81 80.8699 258.329 81.1955 257.925 81.6048C256.39 83.1604 255.394 85.1657 255.084 87.3269C254.774 89.488 255.166 91.6913 256.203 93.6139L256.207 93.6175C256.635 94.4039 257.166 95.1297 257.787 95.7755C257.856 95.8556 257.936 95.9357 258.017 96.0157C259.924 97.9046 262.505 98.9619 265.193 98.9561H265.259C266.601 98.9505 267.929 98.6798 269.166 98.1595C270.403 97.6392 271.524 96.8796 272.465 95.9247C272.869 95.5166 273.188 95.0332 273.405 94.5019C273.621 93.9707 273.731 93.4021 273.727 92.8287C273.724 92.2552 273.607 91.6881 273.383 91.1597C273.16 90.6313 272.834 90.152 272.425 89.7492V89.7492ZM271.943 95.4153C271.07 96.3014 270.029 97.0062 268.881 97.489C267.734 97.9718 266.501 98.2231 265.255 98.2283H265.193C263.323 98.2276 261.494 97.6751 259.937 96.6404C258.38 95.6057 257.165 94.1349 256.443 92.413C255.722 90.6912 255.528 88.7951 255.885 86.9633C256.241 85.1315 257.133 83.4457 258.447 82.118C259.127 81.432 260.053 81.0434 261.02 81.0372C261.987 81.0311 262.917 81.408 263.606 82.0852L271.914 90.2659C272.601 90.9456 272.99 91.8693 272.996 92.8346C273.001 93.7999 272.623 94.728 271.943 95.4153L271.943 95.4153Z" fill="#3F3D56"/>
<path d="M300.214 119.171L291.055 110.148C290.455 109.558 289.644 109.229 288.801 109.234C287.957 109.24 287.151 109.578 286.558 110.176C285.815 110.924 285.228 111.81 284.83 112.784C284.432 113.758 284.23 114.801 284.235 115.853C284.241 116.906 284.455 117.946 284.865 118.916C285.274 119.885 285.871 120.765 286.622 121.504C287.372 122.244 288.261 122.828 289.239 123.225C290.216 123.621 291.262 123.821 292.316 123.814C293.371 123.807 294.414 123.593 295.386 123.183C296.358 122.774 297.239 122.177 297.979 121.428L300.214 119.171Z" fill="#FF2958"/>
<path d="M272.957 92.3202L263.798 83.2976C263.198 82.7072 262.387 82.3786 261.544 82.3839C260.701 82.3891 259.894 82.7277 259.301 83.3254C258.559 84.0731 257.972 84.9594 257.573 85.9336C257.175 86.9078 256.973 87.9508 256.979 89.0029C256.985 90.055 257.198 91.0956 257.608 92.0652C258.017 93.0348 258.614 93.9145 259.365 94.6538C260.115 95.3931 261.005 95.9776 261.982 96.374C262.959 96.7703 264.005 96.9706 265.06 96.9635C266.114 96.9564 267.157 96.742 268.129 96.3325C269.101 95.923 269.982 95.3266 270.722 94.5772L272.957 92.3202Z" fill="#FF2958"/>
<path d="M290.149 124.791L289.931 125.366C288.902 124.976 287.904 124.586 286.939 124.194C269.834 117.232 261.669 109.084 256.207 93.618L256.203 93.6143C255.944 92.8865 255.693 92.1417 255.448 91.3799L256.025 91.1943C256.217 91.927 256.499 92.6333 256.864 93.2977C257.163 94.1457 257.471 94.9717 257.787 95.776C262.92 108.829 270.491 116.29 285.005 122.589C285.735 122.906 286.483 123.22 287.249 123.532C288.139 124.11 289.119 124.535 290.149 124.791Z" fill="#3F3D56"/>
<path d="M263.965 98.2945L263.452 98.8125L282.402 117.48L282.915 116.962L263.965 98.2945Z" fill="#3F3D56"/>
<path d="M103.533 82.8263L103.542 70.8672L96.4942 71.4954L98.9816 79.038L89.9525 92.6898C89.3879 92.8162 88.8723 93.1037 88.4687 93.5172C88.0651 93.9308 87.7908 94.4526 87.6794 95.0189C87.5679 95.5853 87.6241 96.1718 87.841 96.7068C88.058 97.2419 88.4263 97.7024 88.9011 98.0323C89.3759 98.3622 89.9367 98.5471 90.5151 98.5646C91.0935 98.5821 91.6645 98.4313 92.1585 98.1307C92.6524 97.8301 93.048 97.3926 93.2971 96.8717C93.5461 96.3507 93.6377 95.7687 93.5608 95.1966L103.533 82.8263Z" fill="#FFB6B6"/>
</g>
<defs>
<clipPath id="clip0_434_6211">
<rect width="326.27" height="163.135" fill="white" transform="translate(0 13.5684)"/>
</clipPath>
</defs>
</svg>
