<svg width="326" height="204" viewBox="0 0 326 204" fill="none" xmlns="http://www.w3.org/2000/svg">
<path d="M326 161.294C326 225.506 245.91 198.257 157.938 198.257C69.9657 198.257 0 225.506 0 161.294C0 97.082 69.9657 0 157.938 0C245.91 0 326 97.082 326 161.294Z" fill="#FCFBFF"/>
<g clip-path="url(#clip0_490_6084)">
<path d="M245.38 132.858C243.029 129.797 238.956 124.496 231.95 122.901C218.751 119.897 207.409 132.845 206.338 134.103C195.658 146.652 194.004 168.357 204.776 178.911C210.298 184.32 217.801 185.543 221.018 186.068C224.798 186.684 233.591 188.117 241.008 182.956C244.99 180.185 246.9 176.678 248.191 174.243C254.247 162.821 255.033 145.422 245.38 132.858ZM228.985 180.44C221.247 181.236 213.914 174.002 210.902 167.228C209.221 163.374 208.632 159.135 209.198 154.971C209.765 150.807 211.466 146.877 214.117 143.608C215.234 142.259 221.176 135.083 229.387 136.002C237.463 136.905 242.272 145.026 243.854 150.414C247.436 162.614 239.911 179.315 228.985 180.44Z" fill="#FF2958"/>
<path d="M180.187 182.013H176.117L174.182 166.376H180.187L180.187 182.013Z" fill="#FFB6B6"/>
<path d="M180.078 180.688L175.733 178.928L175.608 178.877L173.21 180.688C171.855 180.689 170.556 181.225 169.599 182.179C168.641 183.133 168.103 184.427 168.103 185.776V185.942H181.223V180.688H180.078Z" fill="#2F2E41"/>
<path d="M231.141 150.83L230.223 154.78L214.495 153.132L215.849 147.303L231.141 150.83Z" fill="#FFB6B6"/>
<path d="M230.08 149.522L229.844 150.532L229.82 150.635L227.126 154.453L227.044 154.567L228.272 157.303C228.121 157.954 228.1 158.628 228.21 159.287C228.321 159.946 228.56 160.577 228.916 161.144C229.271 161.71 229.735 162.202 230.281 162.59C230.827 162.978 231.444 163.255 232.097 163.405L232.257 163.442L235.218 150.709L230.08 149.522Z" fill="#2F2E41"/>
<path d="M177.426 97.9658L199.865 98.7482L200.021 98.5219C200.021 98.5219 201.935 102.971 201.935 106.785C201.935 108.053 201.05 116.346 201.5 117.915C201.556 118.11 201.171 118.588 201.297 119.497C201.379 120.086 201.831 119.633 201.935 120.45C202.01 121.037 201.214 121.361 201.297 122.039C201.388 122.78 202.483 125.182 202.581 126.006C203.631 134.786 201.923 137.068 201.923 137.068C201.923 137.068 221.114 145.079 222.301 145.322C224.293 145.73 225.638 149.339 224.534 150.089C224.008 150.446 222.259 157.103 222.259 157.103C221.885 157.17 220.718 156.586 221.462 155.206C221.599 154.952 220.782 155.599 220.646 155.295C220.502 154.971 218.457 156.39 218.292 156.031C216.807 152.808 198.231 148.341 196.07 146.047C192.879 142.658 190.857 138.341 190.301 133.727L188.451 116.794L186.753 124.469L185.347 125.853L185.733 129.078L185.666 132.209L182.158 145.238C182.158 145.238 181.631 169.572 182.477 170.345C182.934 170.763 184.877 175.918 181.201 176.383L174.521 175.87C174.521 175.87 173.621 173.98 174.071 173.308C174.521 172.635 174.494 172.819 173.945 171.718C173.396 170.618 173.621 168.753 173.621 168.753C172.746 159.99 172.401 151.183 172.588 142.378C172.922 127.917 174.952 111.305 174.952 110.966C174.968 110.62 174.905 110.275 174.765 109.958V109.045L175.627 105.811L177.426 97.9658Z" fill="#262335"/>
<path d="M201.876 103.195C196.21 104.171 192.411 103.799 190.073 100.334C187.022 96.4649 181.475 101.034 176.795 102.733L176.24 102.135L175.296 101.121L176.164 100.143L175.296 98.2549L176.02 95.9254L176.945 95.757L176.696 93.7516L176.307 92.579L177.449 91.33L178.419 88.2124L177.72 81.6879C176.764 72.7448 178.617 63.7264 183.022 55.8762L185.673 53.5054L186.773 52.5202L188.25 49.7744L189.81 49.9556L194.034 50.4418L194.177 50.785L195.214 53.2766L198.98 57.307C199.513 57.8771 199.918 58.5536 200.168 59.2915C200.417 60.0295 200.507 60.812 200.43 61.587L200.321 62.6739L200.241 63.4557L199.865 67.2185L198.331 82.5905L198.216 83.4072L196.981 92.2453C198.988 94.1775 199.11 93.7559 199.962 97.1564C200.057 97.5346 201.167 98.3767 201.238 98.7454C201.336 99.2666 201.876 103.195 201.876 103.195Z" fill="#3F3D56"/>
<path d="M190.372 48.1545C194.423 48.1545 197.708 44.8825 197.708 40.8463C197.708 36.8101 194.423 33.5381 190.372 33.5381C186.32 33.5381 183.036 36.8101 183.036 40.8463C183.036 44.8825 186.32 48.1545 190.372 48.1545Z" fill="#FFB6B6"/>
<path d="M198.047 35.3447C197.563 34.8233 196.94 34.4489 196.251 34.2648C195.562 34.0807 194.835 34.0944 194.154 34.3043C193.855 33.4528 193.328 32.6993 192.629 32.1258C191.93 31.5523 191.087 31.1808 190.191 31.0517C189.295 30.9226 188.38 31.0409 187.547 31.3937C186.714 31.7465 185.994 32.3203 185.465 33.0526C185.224 32.9445 184.958 32.9003 184.694 32.9245C184.43 32.9486 184.177 33.0403 183.96 33.1904C183.527 33.4969 183.178 33.9065 182.946 34.3818C182.346 35.517 182.067 36.7928 182.137 38.0737C182.207 39.3545 182.625 40.5924 183.346 41.6555C183.059 41.078 183.866 42.0726 184.652 41.812C185.328 41.6356 188.104 39.8624 188.797 39.9521C189.489 40.0417 189.714 39.4852 190.392 39.3165C191.055 39.105 192.75 41.8383 193.089 43.6469C193.154 43.9897 193.31 44.4155 193.66 44.4233C194.091 44.433 194.22 43.8181 194.583 43.5872C194.754 43.5004 194.953 43.4832 195.137 43.5393C195.32 43.5954 195.475 43.7204 195.568 43.888C195.653 44.0602 195.696 44.2501 195.692 44.4419C195.688 44.6337 195.639 44.8219 195.548 44.9908C195.362 45.3266 195.123 45.6302 194.84 45.8901L195.028 45.9931C195.214 46.1254 195.439 46.1893 195.667 46.1739C195.894 46.1585 196.109 46.0648 196.275 45.9088C196.976 46.2236 198.881 44.4477 198.628 43.3733C199.16 42.0563 199.451 40.655 199.487 39.2358C199.517 37.8042 199.002 36.4144 198.047 35.3447Z" fill="#2F2E41"/>
<path d="M141.51 59.9715C141.781 60.2256 142.105 60.4174 142.459 60.5333C142.813 60.6491 143.188 60.6863 143.558 60.6421C143.928 60.5979 144.283 60.4735 144.6 60.2776C144.916 60.0817 145.186 59.819 145.389 59.5081L161.07 63.2466L159.504 58.8256L144.506 55.8747C143.959 55.5688 143.319 55.4733 142.706 55.6065C142.093 55.7396 141.551 56.092 141.181 56.597C140.812 57.102 140.641 57.7244 140.702 58.3464C140.762 58.9683 141.05 59.5465 141.51 59.9715Z" fill="#FFB8B8"/>
<path d="M188.357 57.2512L187.101 56.5985L181.371 56.5088L181.161 56.5067L181.149 56.5077L176.756 56.4407L155.543 56.1096L154.69 56.8517L153.379 56.0758L151.893 55.3252L150.528 56.0313L149.361 56.0131L149.184 56.793L149.182 56.7958L149.177 56.8183L148.387 60.2208L148.385 60.2236L148.395 61.0261L149.767 62.4994L150.495 63.0551L152.006 63.7206L153.052 62.4796L154.278 63.7488L159.306 64.671C167.713 66.9782 175.453 68.0886 181.393 65.9561L182.139 65.9214L188.036 65.6418C188.842 65.6045 189.619 65.3302 190.269 64.8535C190.918 64.3768 191.412 63.7191 191.687 62.9632L191.688 62.9605C191.875 62.4471 191.955 61.9014 191.923 61.3564C191.897 60.8555 191.776 60.364 191.566 59.9081C191.19 59.0784 190.547 58.3974 189.739 57.9726L188.357 57.2512Z" fill="#3F3D56"/>
<path d="M275.82 177.236C276.104 177.246 276.384 177.17 276.622 177.016C276.86 176.863 277.045 176.64 277.152 176.379C277.259 176.117 277.282 175.829 277.219 175.553C277.156 175.278 277.01 175.029 276.8 174.839C276.764 174.701 276.738 174.602 276.701 174.464C276.966 173.776 277.431 173.182 278.036 172.758C278.642 172.334 279.361 172.101 280.101 172.087C280.841 172.073 281.568 172.279 282.189 172.68C282.811 173.08 283.298 173.656 283.588 174.334C285.264 178.14 287.422 182.076 286.408 186.296C293.235 171.518 290.69 153.241 280.273 140.758C277.412 139.223 275.079 136.47 274.447 133.253C275.86 133.715 277.606 132.557 276.533 131.089C276.068 130.529 275.599 129.973 275.135 129.412C280.431 123.684 286.892 132.546 281.075 140.264C283.025 142.653 284.719 145.237 286.129 147.976C285.782 145.057 286.135 142.097 287.16 139.34C288.2 136.77 290.176 134.595 291.913 132.365C294.025 129.648 298.437 130.85 298.758 134.27C296.791 134.934 296.562 137.776 298.822 138.143C298.292 144.515 294.173 150.405 288.45 153.252C290.63 159.167 291.519 165.478 291.059 171.763C292.004 164.414 299.895 162.558 305.394 159.588C305.744 159.36 306.153 159.238 306.57 159.238C306.988 159.237 307.398 159.358 307.748 159.585C308.098 159.812 308.375 160.135 308.543 160.516C308.712 160.897 308.766 161.319 308.699 161.73C307.939 162.046 307.212 162.437 306.53 162.896C306.21 163.115 305.966 163.426 305.831 163.788C305.696 164.151 305.677 164.546 305.776 164.919C305.875 165.292 306.088 165.626 306.385 165.875C306.682 166.123 307.049 166.273 307.436 166.306C304.715 173.202 297.556 177.883 290.158 177.928C289.476 181.012 288.475 184.018 287.169 186.896L276.189 187C276.148 186.879 276.112 186.754 276.075 186.633C277.092 186.687 278.112 186.617 279.112 186.424C276.393 183.277 274.297 181.679 275.82 177.236L275.82 177.236Z" fill="#F0CF86"/>
<path d="M55.0402 146.31C54.7569 146.321 54.4772 146.244 54.2391 146.09C54.001 145.937 53.8159 145.714 53.7091 145.453C53.6022 145.191 53.5786 144.903 53.6415 144.628C53.7045 144.352 53.8509 144.103 54.0609 143.913C54.0971 143.775 54.123 143.676 54.1592 143.539C53.8947 142.85 53.4299 142.256 52.8242 141.832C52.2185 141.409 51.4997 141.175 50.7598 141.161C50.0199 141.147 49.2927 141.353 48.6714 141.754C48.05 142.154 47.5629 142.73 47.2724 143.409C45.5971 147.215 43.4382 151.151 44.4528 155.37C37.626 140.593 40.1704 122.316 50.5875 109.832C53.4487 108.297 55.7821 105.544 56.4134 102.328C55.0003 102.79 53.255 101.632 54.3282 100.163C54.7927 99.6028 55.2615 99.0467 55.726 98.4861C50.4294 92.7581 43.9688 101.62 49.7852 109.339C47.8355 111.727 46.1418 114.312 44.7316 117.051C45.0792 114.131 44.726 111.171 43.7012 108.414C42.6604 105.844 40.6844 103.669 38.9473 101.439C36.8353 98.7221 32.4235 99.9244 32.1032 103.344C34.0699 104.009 34.2991 106.85 32.0386 107.217C32.5688 113.589 36.6877 119.48 42.411 122.326C40.2309 128.242 39.3413 134.552 39.8017 140.837C38.8569 133.488 30.9659 131.632 25.4665 128.662C25.1169 128.434 24.7081 128.312 24.2902 128.312C23.8723 128.311 23.4632 128.432 23.1129 128.659C22.7625 128.886 22.4861 129.21 22.3173 129.59C22.1484 129.971 22.0945 130.393 22.1621 130.804C22.9221 131.12 23.6486 131.511 24.331 131.97C24.6507 132.189 24.8947 132.501 25.0296 132.863C25.1645 133.225 25.1837 133.62 25.0845 133.993C24.9853 134.367 24.7725 134.7 24.4755 134.949C24.1784 135.197 23.8115 135.348 23.4251 135.38C26.1456 142.276 33.3047 146.958 40.7031 147.002C41.3846 150.086 42.3861 153.092 43.6914 155.97L54.6717 156.075C54.7123 155.953 54.7489 155.828 54.7855 155.707C53.7685 155.761 52.7487 155.691 51.7489 155.498C54.4682 152.352 56.5632 150.753 55.0406 146.31L55.0402 146.31Z" fill="#F0CF86"/>
<path d="M52.3679 145.65C72.9984 142.324 85.7402 176.257 99.0462 174.122C123.432 170.208 113.324 48.4592 132.388 47.4238C148.638 46.5412 169.485 100.267 186.701 132.499C195.75 149.441 200.67 161.491 200.67 161.491C200.67 161.491 193.14 197.893 182.433 183.525C167.137 163 155.636 91.1212 147.154 94.4017C134.164 99.4249 148.815 161.226 117.622 180.291C90.3767 196.942 37.1579 173.283 37.126 158.462C37.1137 152.77 44.9431 146.847 52.3679 145.65Z" fill="#FF2958"/>
<path d="M151.505 138.708C147.3 139.667 141.78 142.63 142.079 145.36C142.4 148.286 149.414 150.998 155.039 149.272C159.654 147.857 163.853 143.295 162.894 140.665C161.904 137.949 155.593 137.776 151.505 138.708Z" fill="#FF2958"/>
<path d="M261.882 128.887C263.239 126.598 265.179 123.205 263.756 120.801C261.812 117.518 255.785 113.142 252.035 117.411C249.185 120.656 249.825 121.953 249.863 126.991C249.967 140.743 242.152 170.111 250.32 184.087C251.849 186.703 260.3 186.184 263.648 186.51C267.359 186.87 271.386 183.276 271.157 179.116C270.951 175.39 267.437 174.305 263.925 171.854C251.296 163.041 254.855 140.741 261.882 128.887Z" fill="#FF2958"/>
<path d="M102.271 50.118C102.186 51.1385 102.103 52.1591 102.023 53.1796C101.961 54.3749 101.794 55.5624 101.522 56.7283C101.46 57.0518 101.32 57.3555 101.115 57.6135C100.75 58.0271 101.425 60.447 100.924 60.679C100.416 60.9201 99.8703 61.0731 99.3103 61.1313C99.287 60.9612 99.256 60.7911 99.2211 60.6248C99.2172 60.6055 99.2133 60.5901 99.2094 60.5707C99.0509 59.8162 98.7578 59.0961 98.3441 58.4446C98.4416 59.2166 98.3552 60.0006 98.0919 60.7331C98.0493 60.8529 97.9988 60.9728 97.9445 61.0926C95.7444 60.7679 93.8392 59.2873 92.3376 59.3028C91.4254 56.2553 90.7827 53.1341 90.4169 49.975C90.3199 49.1323 90.2656 48.1968 90.7855 47.528C91.2473 46.9327 92.0349 46.7162 92.7722 46.5577C95.1808 46.0393 97.6422 45.8044 100.106 45.858L95.8414 44.8684C97.039 44.8011 98.2399 44.9145 99.4034 45.2048C100.548 45.5488 101.631 46.3026 102.073 47.412C102.411 48.2586 102.341 49.2096 102.271 50.118Z" fill="#2F2E41"/>
<path d="M78.2541 178.618H74.1492L72.1963 162.844L78.2548 162.844L78.2541 178.618Z" fill="#FFB6B6"/>
<path d="M65.8645 184.652C65.8665 185.11 66.0498 185.549 66.3747 185.873C66.6995 186.197 67.1396 186.381 67.5994 186.384H75.3267L75.5661 185.889L76.6591 183.643L77.0824 185.889L77.1761 186.384H80.0907L80.0491 185.886L79.2719 176.601L78.2552 176.539L73.8624 176.28L72.7833 176.214V178.986C71.9645 179.854 65.5384 183.134 65.8645 184.652Z" fill="#262335"/>
<path d="M126.344 174.166L122.774 176.185L113.262 163.425L118.531 160.447L126.344 174.166Z" fill="#FFB6B6"/>
<path d="M118.557 185.506C118.784 185.905 119.161 186.198 119.604 186.32C120.048 186.443 120.523 186.385 120.923 186.159L121.329 185.931H121.333L127.644 182.36L127.443 179.322L129.254 181.451L130.59 180.694L131.787 180.016L130.729 178.475L126.229 171.91L125.313 172.36L121.361 174.292L120.396 174.765L121.767 177.175C121.485 178.336 117.523 184.344 118.557 185.506Z" fill="#262335"/>
<path d="M98.625 101.188C103.433 101.361 102.695 112.709 104.196 122.579C105.535 131.385 109.452 138.822 108.142 139.138L121.107 163.21C116.037 167.901 110.088 171.012 102.653 171.451C94.5844 164.065 92.3718 147.067 90.5192 129.478L88.4969 144.924L91.1933 169.436L79.265 172.31L71.0145 171.723C64.0216 143.623 77.2515 111.843 82.9472 99.7686L98.625 101.188Z" fill="#262335"/>
<path d="M103.726 95.3172L105.91 88.7894L107.47 86.6135L108.094 80.3965C108.094 63.6108 104.336 66.4059 104.336 66.4059L99.4335 60.5023L93.8563 60.3286L89.4489 60.1914L85.7847 66.2529C84.1703 66.8206 82.7331 67.7994 81.616 69.092C80.499 70.3846 79.741 71.946 79.4174 73.6209L78.4033 78.8703L82.1965 90.3436L82.0292 89.4911C80.2436 92.7751 80.6979 93.2691 82.1764 95.7348L82.2499 96.6252C82.3182 97.4262 82.637 98.1856 83.1613 98.7966C83.6856 99.4076 84.3891 99.8393 85.1727 100.031C100.971 103.953 102.613 110.815 104.643 107.982C105.115 107.324 103.113 99.4677 103.796 99.5357C105.667 99.7222 103.726 95.3172 103.726 95.3172Z" fill="#E6E6E6"/>
<path d="M114.537 119.613C114.215 119.318 113.961 118.957 113.794 118.555C113.626 118.152 113.548 117.719 113.565 117.284C113.582 116.848 113.693 116.422 113.892 116.034C114.091 115.646 114.371 115.306 114.715 115.036L110.801 100.564L114.553 98.501L119.076 115.724C119.487 116.334 119.66 117.073 119.562 117.802C119.463 118.531 119.099 119.198 118.54 119.677C117.98 120.156 117.264 120.415 116.526 120.403C115.788 120.391 115.08 120.11 114.537 119.613H114.537Z" fill="#FFB6B6"/>
<path d="M103.758 65.9844C103.758 65.9844 110.724 68.0978 111.337 71.7876C111.95 75.4775 113.021 78.7326 112.744 80.242C112.467 81.7515 115.923 91.8534 115.249 93.0154C114.576 94.1774 116.388 94.429 115.762 96.3338C115.137 98.2385 114.788 98.6338 115.185 98.9812C115.581 99.3287 117.293 106.882 117.293 106.882L112.074 108.393L102.461 84.6635L103.758 65.9844Z" fill="#E6E6E6"/>
<path d="M76.3149 119.613C76.6366 119.318 76.8901 118.957 77.0579 118.555C77.2257 118.152 77.3038 117.719 77.2869 117.283C77.2699 116.848 77.1582 116.422 76.9596 116.034C76.761 115.646 76.4801 115.306 76.1365 115.036L80.0507 100.564L76.2987 98.501L71.7759 115.724C71.364 116.334 71.1911 117.073 71.2898 117.802C71.3886 118.531 71.7521 119.198 72.3116 119.677C72.8711 120.156 73.5877 120.415 74.3255 120.403C75.0634 120.391 75.7712 120.11 76.3149 119.613L76.3149 119.613Z" fill="#FFB6B6"/>
<path d="M87.093 65.9844C87.093 65.9844 80.1268 68.0978 79.5139 71.7876C78.901 75.4775 77.8303 78.7326 78.107 80.242C78.3838 81.7515 74.9281 91.8534 75.6016 93.0154C76.2751 94.1774 74.4635 94.429 75.089 96.3338C75.7145 98.2385 76.0633 98.6338 75.6665 98.9812C75.2697 99.3287 73.5581 106.882 73.5581 106.882L78.7772 108.393L88.3897 84.6635L87.093 65.9844Z" fill="#E6E6E6"/>
<path d="M92.7971 59.3798C97.5931 59.3798 101.481 55.5064 101.481 50.7284C101.481 45.9505 97.5931 42.0771 92.7971 42.0771C88.0012 42.0771 84.1133 45.9505 84.1133 50.7284C84.1133 55.5064 88.0012 59.3798 92.7971 59.3798Z" fill="#FFB6B6"/>
<path d="M101.608 64.4498C98.3328 61.5487 103.916 53.262 99.555 47.7318L99.0312 47.3412C98.6365 48.0896 97.9953 48.6801 97.2153 49.0134C97.0525 48.2593 96.7793 47.5332 96.4043 46.8583C96.4984 47.6943 96.4232 48.5405 96.1832 49.347C95.9387 49.3777 95.7641 49.3426 95.702 49.2329C95.7796 49.9044 93.7192 50.2379 94.1499 49.1933C94.1531 49.1828 94.157 49.1726 94.1616 49.1626C93.63 50.2291 92.5358 50.7251 91.5851 51.3177C90.6345 51.9058 89.6683 52.889 89.7614 54.1091C89.839 55.0967 90.5957 55.834 91.3562 56.3256C92.1167 56.8216 92.9704 57.2078 93.5213 57.9759C94.4487 59.2663 94.2314 61.158 93.7619 62.7293C93.668 62.9803 93.5145 63.2048 93.3145 63.3836C93.1145 63.5625 92.8739 63.6904 92.6134 63.7564C92.4586 62.9102 92.1663 62.0948 91.7481 61.3424C91.8458 62.2165 91.7599 63.1014 91.4959 63.9407C90.9304 63.9654 90.3657 63.8755 89.8361 63.6763C89.3065 63.4771 88.823 63.1729 88.415 62.782L89.0009 65.3715C88.058 65.1741 87.1074 65.3979 86.149 65.5691C86.1241 65.276 86.084 64.9845 86.0287 64.6956C85.8779 63.8273 85.5814 62.9905 85.1517 62.2202C85.2717 63.2906 85.1155 64.3738 84.6978 65.3672C84.6512 65.4813 84.6008 65.5954 84.5464 65.7051C83.072 65.5998 81.6014 64.7439 81.8807 62.5186C82.0036 61.8046 82.3022 61.132 82.7499 60.5611C83.5104 59.4989 79.6341 58.3622 79.8708 57.0806C80.2239 55.1801 83.7588 53.499 83.4794 51.581C83.231 49.8429 83.2797 45.9195 84.2399 44.5672C85.6271 42.6136 84.0883 38.5722 93.9482 40.8672C97.6162 41.721 98.8877 38.1364 104.417 49.0828C105.365 50.9595 101.918 50.3144 103.944 54.3374C105.969 58.3604 100.168 61.5487 101.608 64.4498Z" fill="#2F2E41"/>
<path d="M22 186.507C21.9989 186.286 22.2864 186.107 22.642 186.106H310.354C310.711 186.106 311 186.286 311 186.507C311 186.728 310.711 186.908 310.354 186.908H22.6458C22.2902 186.908 22.0011 186.73 22 186.509V186.507Z" fill="#CCCCCC"/>
<path d="M169.818 104.037C170.17 103.915 170.49 103.718 170.758 103.46C171.025 103.201 171.232 102.887 171.364 102.54C171.496 102.193 171.551 101.822 171.523 101.452C171.496 101.082 171.387 100.722 171.205 100.398L181.803 88.293L177.146 87.624L167.565 99.4919C167.039 99.8327 166.657 100.354 166.491 100.956C166.325 101.559 166.387 102.201 166.665 102.761C166.942 103.322 167.417 103.761 167.998 103.996C168.579 104.231 169.226 104.246 169.818 104.037V104.037Z" fill="#FFB8B8"/>
<path d="M174.456 97.3018L175.962 95.647L177.415 95.5225L177.514 95.3992L177.893 94.9166L178.039 93.5724L179.154 93.3116L181.642 90.1467L182.021 89.5169L192.462 77.3644L194.592 73.831L194.926 73.1129L195.969 70.8777L195.832 65.2408C196.06 64.754 196.189 64.2268 196.211 63.6899C196.232 63.1531 196.147 62.6173 195.959 62.1136C195.899 61.9505 195.828 61.7912 195.748 61.6369L195.689 61.5273C195.537 61.2574 195.354 61.0056 195.144 60.7768L195.141 60.7715C194.771 60.3682 194.322 60.0454 193.822 59.8231C193.432 59.6457 193.016 59.5309 192.59 59.483C191.606 59.3744 190.616 59.6223 189.801 60.1813L188.52 61.0639L187.357 61.8713L184.695 66.7535L184.52 67.0718L184.514 67.0796L176.316 82.1057L173.845 86.6365L173.468 87.3246L173.433 89.3374L172.245 89.5615L170.842 90.6083L170.701 92.3907L170.041 95.2648L169.94 95.4268L170.555 95.7899L170.614 95.8237L170.726 95.9221L172.292 97.2606L173.241 98.0746L173.272 98.0999L173.519 98.3314L174.456 97.3018Z" fill="#3F3D56"/>
<path d="M84.4513 45.5952C84.4708 45.6026 84.4878 45.6099 84.5073 45.6173C84.5445 45.6337 84.5828 45.6476 84.6219 45.6589C84.8711 45.75 85.1308 45.8095 85.395 45.8358C85.5076 45.848 85.6208 45.8539 85.7341 45.8537C85.8794 45.8542 86.0245 45.8448 86.1685 45.8256C86.3287 45.8061 86.487 45.774 86.6421 45.7296C86.7157 45.71 86.7883 45.6866 86.8595 45.6596C87.3445 45.488 87.783 45.2066 88.1405 44.8375C88.4979 44.4685 88.7645 44.0219 88.9195 43.5329V43.5304C88.936 43.4826 88.9499 43.434 88.9613 43.3847C89.0338 43.1111 89.0706 42.8293 89.0708 42.5463V42.5414C89.0726 41.8513 88.8567 41.1781 88.4534 40.617C88.2103 40.2736 87.9295 40.2162 88.087 39.8236C88.5896 38.5711 86.5333 37.5472 85.3194 38.0979C85.2756 38.0938 85.2317 38.092 85.1877 38.0927C84.3703 38.0907 84.0671 39.2932 83.5798 39.9702L83.5939 39.9748C83.7173 40.0179 83.8241 40.0983 83.8994 40.2047C83.9747 40.3112 84.0147 40.4385 84.0138 40.5688C84.0129 40.699 83.9712 40.8257 83.8945 40.9312C83.8178 41.0367 83.7099 41.1156 83.5859 41.157C83.2615 41.2623 82.9336 41.3553 82.6024 41.4361C81.5102 42.7213 82.7623 46.4812 84.4513 45.5952Z" fill="#2F2E41"/>
<path d="M88.3577 40.2926C88.4022 41.4476 88.1051 42.5901 87.5031 43.5782C86.9012 44.5663 86.021 45.3564 84.972 45.8502C84.546 46.0425 84.1752 45.4132 84.6042 45.2196C85.5414 44.7889 86.329 44.0904 86.867 43.2128C87.405 42.3352 87.6691 41.3181 87.6257 40.2908C87.6013 39.8217 88.3334 39.825 88.3577 40.2926V40.2926Z" fill="#6C63FF"/>
</g>
<defs>
<clipPath id="clip0_490_6084">
<rect width="289" height="156" fill="white" transform="translate(22 31)"/>
</clipPath>
</defs>
</svg>
