<svg width="279" height="209" viewBox="0 0 279 209" fill="none" xmlns="http://www.w3.org/2000/svg">
<g clip-path="url(#clip0_472_6384)">
<path d="M203.725 198.582H198.173L195.531 177.121H203.725V198.582Z" fill="#9E616A"/>
<path d="M206.655 208.222H202.674L201.963 204.455L200.143 208.222H189.585C189.078 208.222 188.586 208.06 188.178 207.759C187.77 207.459 187.469 207.035 187.318 206.551C187.168 206.067 187.176 205.547 187.341 205.067C187.506 204.588 187.819 204.174 188.236 203.885L196.668 198.049V194.24L205.537 194.771L206.655 208.222Z" fill="#2F2E41"/>
<path d="M236.705 191.559L232.25 194.88L217.354 179.238L223.928 174.338L236.705 191.559Z" fill="#9E616A"/>
<path d="M244.796 197.543L241.601 199.924L238.788 197.326L239.57 201.437L231.098 207.752C230.691 208.055 230.199 208.22 229.693 208.222C229.187 208.225 228.693 208.065 228.284 207.767C227.875 207.468 227.572 207.046 227.419 206.563C227.266 206.079 227.271 205.559 227.433 205.079L230.725 195.353L228.457 192.296L235.89 187.418L244.796 197.543Z" fill="#2F2E41"/>
<path d="M210.188 87.8545C210.188 87.8545 220.72 96.9751 215.861 122.976L209.928 148.452L229.277 180.624L223.107 188.147L197.953 153.324L188.838 131.894L186.28 93.7525L210.188 87.8545Z" fill="#AD6363"/>
<path d="M193.862 138.001L193.229 147.835L195.167 189.74L204.29 188.147L206.034 158.312L193.862 138.001Z" fill="#AD6363"/>
<path d="M76.7897 203.628L81.7543 203.627L84.1157 184.436L76.7891 184.436L76.7897 203.628Z" fill="#FFB6B6"/>
<path d="M75.5244 202.003L76.9218 202.003L82.3772 199.779L85.3011 202.003H85.3015C86.9539 202.003 88.5386 202.661 89.707 203.832C90.8754 205.003 91.5319 206.591 91.532 208.247V208.45L75.5247 208.451L75.5244 202.003Z" fill="#2F2E41"/>
<path d="M96.0283 200.492L100.871 201.588L107.392 183.389L100.245 181.771L96.0283 200.492Z" fill="#FFB6B6"/>
<path d="M95.1502 198.628L96.5132 198.936L102.323 197.972L104.687 200.786L104.687 200.786C106.299 201.151 107.7 202.143 108.582 203.543C109.465 204.943 109.756 206.637 109.392 208.253L109.348 208.451L93.7334 204.917L95.1502 198.628Z" fill="#2F2E41"/>
<path d="M70.5029 86.2969C68.1754 93.3327 68.4214 100.97 71.0624 109.167L72.1913 155.317C72.1913 155.317 70.5093 185.581 75.9369 196.231H83.8085L87.7059 152.553L88.1953 123.236L105.071 147.97L94.3224 195.517L104.011 196.385L121.453 144.785L99.9325 94.7245L70.5029 86.2969Z" fill="#BD7761"/>
<path d="M161.279 66.2563C167.3 60.8184 176.256 58.0841 183.768 61.1333C176.062 65.4213 170.118 72.3029 166.987 80.5605C165.791 83.7496 164.792 87.4213 161.851 89.1286C160.021 90.191 157.744 90.2429 155.691 89.7301C153.639 89.2172 151.758 88.1891 149.903 87.1713L149.375 87.1593C151.745 79.3911 155.258 71.6943 161.279 66.2563Z" fill="#F7D7D5"/>
<path d="M183.726 61.2983C177.073 62.16 170.86 65.1009 165.97 69.7033C164.899 70.6754 163.988 71.8105 163.271 73.0668C162.611 74.3133 162.296 75.7141 162.359 77.1236C162.392 78.4391 162.577 79.7809 162.29 81.0814C162.133 81.7449 161.838 82.3676 161.425 82.9089C161.011 83.4501 160.487 83.8975 159.889 84.2218C158.419 85.0688 156.733 85.3358 155.075 85.5395C153.234 85.7656 151.318 85.9713 149.725 87.0062C149.532 87.1315 149.349 86.8239 149.542 86.6987C152.314 84.8983 155.822 85.5534 158.803 84.3518C160.194 83.7911 161.425 82.8068 161.861 81.3187C162.242 80.0175 162.052 78.6336 162.007 77.302C161.926 75.9278 162.181 74.5545 162.751 73.302C163.402 72.0131 164.268 70.8448 165.311 69.847C167.622 67.5631 170.278 65.6577 173.18 64.2005C176.483 62.5192 180.049 61.4165 183.723 60.9402C183.95 60.9108 183.952 61.2691 183.726 61.2983H183.726Z" fill="#FF2958"/>
<path d="M167.457 68.1287C166.798 67.2015 166.489 66.0697 166.586 64.9354C166.682 63.8011 167.178 62.7381 167.985 61.9364C168.148 61.7748 168.407 62.0222 168.243 62.1841C167.491 62.9292 167.029 63.9194 166.941 64.9759C166.853 66.0323 167.145 67.0855 167.764 67.9452C167.898 68.1322 167.59 68.3147 167.457 68.1288V68.1287Z" fill="#FF2958"/>
<path d="M162.256 76.4592C164.542 76.8652 166.897 76.3926 168.851 75.1356C169.045 75.0109 169.227 75.3185 169.034 75.443C166.998 76.7473 164.547 77.2341 162.168 76.8064C161.942 76.7655 162.03 76.4185 162.256 76.4592V76.4592Z" fill="#FF2958"/>
<path d="M176.512 62.9932C176.693 63.4052 176.973 63.7658 177.326 64.0427C177.68 64.3196 178.097 64.5041 178.54 64.5796C178.767 64.6177 178.678 64.9646 178.452 64.9268C177.964 64.8411 177.504 64.6368 177.112 64.3317C176.72 64.0266 176.409 63.6301 176.206 63.1767C176.183 63.1356 176.177 63.0873 176.188 63.0417C176.2 62.9961 176.228 62.9566 176.268 62.9312C176.308 62.9071 176.357 62.9001 176.403 62.9117C176.449 62.9233 176.488 62.9526 176.512 62.9932V62.9932Z" fill="#FF2958"/>
<path d="M192.04 87.3578C191.898 87.3381 191.755 87.3184 191.611 87.3009C189.694 87.0459 187.76 86.9474 185.828 87.0064C185.678 87.0086 185.527 87.0131 185.377 87.0196C180.723 87.2114 176.145 88.2676 171.875 90.1346C170.177 90.879 168.538 91.7519 166.972 92.7457C164.809 94.1182 162.573 95.7788 160.155 96.3386C159.903 96.3999 159.648 96.4454 159.391 96.475L149.402 87.8058C149.389 87.7747 149.374 87.7457 149.361 87.7145L148.946 87.3867C149.023 87.3297 149.105 87.2724 149.182 87.2155C149.227 87.1823 149.274 87.151 149.318 87.1178C149.349 87.0963 149.379 87.0749 149.405 87.0537C149.416 87.0465 149.426 87.0394 149.434 87.0345C149.46 87.0133 149.487 86.9964 149.511 86.9776C149.965 86.6557 150.421 86.3365 150.881 86.0199C150.883 86.0176 150.883 86.0176 150.887 86.0172C154.366 83.5712 158.122 81.5475 162.077 79.9884C162.196 79.9435 162.316 79.8962 162.439 79.8552C164.22 79.1915 166.053 78.6748 167.918 78.3102C168.939 78.1139 169.971 77.9696 171.007 77.8777C173.685 77.6456 176.383 77.8372 179.003 78.4455C184.223 79.6588 188.999 82.5322 191.827 87.0133C191.9 87.128 191.97 87.2408 192.04 87.3578Z" fill="#F7D7D5"/>
<path d="M191.908 87.4657C186.078 84.139 179.351 82.7379 172.681 83.4616C171.243 83.5918 169.834 83.9485 168.506 84.5185C167.23 85.1156 166.138 86.0442 165.341 87.2078C164.577 88.2777 163.919 89.4609 162.909 90.326C162.385 90.7611 161.775 91.0804 161.12 91.2628C160.464 91.4452 159.778 91.4867 159.105 91.3845C157.422 91.1737 155.916 90.3694 154.47 89.5316C152.864 88.6013 151.211 87.6096 149.317 87.4743C149.088 87.4579 149.126 87.102 149.355 87.1184C152.651 87.3537 155.058 89.9937 158.16 90.8331C159.607 91.2248 161.181 91.1816 162.423 90.2564C163.509 89.4473 164.189 88.2278 164.953 87.1377C165.713 85.9913 166.742 85.0488 167.95 84.3927C169.244 83.7567 170.637 83.3462 172.069 83.1787C175.287 82.7501 178.552 82.8312 181.744 83.4191C185.391 84.0698 188.901 85.3411 192.12 87.1779C192.32 87.2916 192.106 87.5788 191.908 87.4658L191.908 87.4657Z" fill="#FF2958"/>
<path d="M174.815 83.1011C174.846 81.9631 175.28 80.8731 176.038 80.0258C176.797 79.1784 177.831 78.629 178.957 78.4755C179.185 78.4452 179.242 78.7986 179.014 78.8289C177.966 78.9699 177.002 79.4819 176.297 80.2723C175.593 81.0628 175.193 82.0798 175.171 83.1396C175.165 83.37 174.81 83.3301 174.815 83.1011Z" fill="#FF2958"/>
<path d="M165.657 86.6136C167.239 88.3174 169.403 89.3611 171.719 89.5367C171.948 89.5539 171.909 89.9098 171.68 89.8926C169.271 89.7054 167.021 88.6147 165.379 86.838C165.223 86.6686 165.502 86.445 165.657 86.6136Z" fill="#FF2958"/>
<path d="M185.13 84.4653C185.026 84.9032 185.033 85.3599 185.149 85.7945C185.265 86.2292 185.488 86.6281 185.796 86.9554C185.954 87.1228 185.675 87.3461 185.517 87.1798C185.179 86.8166 184.934 86.3758 184.804 85.8959C184.675 85.416 184.665 84.9116 184.775 84.4268C184.781 84.3803 184.805 84.3379 184.842 84.3084C184.878 84.279 184.925 84.2645 184.972 84.2681C185.019 84.2734 185.061 84.2972 185.091 84.3341C185.121 84.371 185.135 84.4182 185.13 84.4653V84.4653Z" fill="#FF2958"/>
<path d="M16.5819 203.279C16.1129 205.042 14.8808 206.511 13.3931 207.58C13.1506 207.755 12.9015 207.917 12.6493 208.07C12.5717 208.115 12.4941 208.164 12.4132 208.206C12.3259 208.258 12.2386 208.306 12.1513 208.352H5.15607C5.02994 208.096 4.90705 207.836 4.78416 207.58C1.78622 201.266 -0.319128 194.453 0.0398484 187.513C0.182267 184.821 0.7465 182.169 1.71184 179.653C3.63284 174.638 7.13852 170.298 11.9604 168.113C12.0801 168.058 12.2062 168.003 12.3291 167.951C12.2903 168.091 12.2515 168.227 12.2127 168.366C11.6954 170.234 11.3298 172.141 11.1196 174.068C11.1002 174.217 11.084 174.366 11.0711 174.518C10.6116 179.166 11.0196 183.858 12.2741 188.356C12.2774 188.365 12.2806 188.378 12.2838 188.388C12.5588 189.383 12.8778 190.363 13.2411 191.328C13.5257 192.09 13.8329 192.842 14.1693 193.581C15.5729 196.683 17.455 199.989 16.5819 203.279Z" fill="#F7D7D5"/>
<path d="M12.4163 168.097C12.3484 168.188 12.2804 168.276 12.2125 168.366C10.7921 170.253 9.5859 172.293 8.6163 174.447C8.56456 174.554 8.51604 174.661 8.474 174.771C7.14546 177.78 6.29224 180.978 5.945 184.249C5.94124 184.272 5.93908 184.295 5.93853 184.317C5.85768 185.082 5.80917 185.854 5.78976 186.625C5.71785 188.071 5.87392 189.52 6.25223 190.917C6.59717 192.058 7.20162 193.103 8.018 193.97C8.09886 194.058 8.17971 194.145 8.26703 194.229C8.33171 194.298 8.40285 194.366 8.47077 194.43C9.12404 195.056 9.83876 195.636 10.4532 196.307C10.7349 196.608 10.9892 196.934 11.2132 197.28C11.5707 197.86 11.8017 198.509 11.8909 199.185C11.9801 199.861 11.9255 200.548 11.7307 201.202C11.2908 202.842 10.2851 204.226 9.25664 205.545C8.74243 206.206 8.21204 206.874 7.75281 207.581C7.58466 207.834 7.42942 208.09 7.28714 208.352H6.87965C7.01548 208.09 7.16424 207.834 7.32594 207.581C8.50636 205.717 10.1848 204.116 11.0548 202.064C11.6434 200.68 11.8212 199.111 11.0774 197.753C10.8594 197.358 10.5956 196.99 10.2915 196.657C9.69971 195.986 8.99147 195.413 8.3479 194.806C8.18619 194.654 8.02773 194.499 7.87573 194.336C7.06987 193.516 6.44803 192.532 6.05174 191.452C5.60295 190.079 5.39078 188.64 5.42434 187.196C5.42434 186.275 5.47285 185.348 5.5634 184.428C5.57311 184.311 5.58604 184.191 5.59898 184.071C6.26035 178.278 8.45681 172.768 11.9603 168.114C12.025 168.023 12.0929 167.935 12.1608 167.848C12.2999 167.666 12.5553 167.919 12.4163 168.097Z" fill="#FF2958"/>
<path d="M5.72979 184.458C4.60962 184.269 3.59281 183.688 2.86093 182.817C2.12906 181.947 1.72979 180.844 1.73441 179.705C1.73503 179.659 1.75361 179.614 1.78622 179.581C1.81883 179.548 1.86294 179.529 1.90925 179.528C1.95556 179.527 2.00046 179.544 2.03448 179.576C2.0685 179.607 2.08899 179.651 2.09163 179.697C2.08537 180.757 2.45739 181.785 3.14056 182.594C3.82374 183.403 4.77305 183.941 5.81717 184.111C6.04403 184.148 5.95535 184.495 5.72979 184.458V184.458Z" fill="#FF2958"/>
<path d="M7.92876 194.035C9.83186 192.701 11.1637 190.698 11.6586 188.424C11.7075 188.199 12.0538 188.287 12.005 188.512C11.4855 190.877 10.0953 192.959 8.11189 194.342C7.92274 194.474 7.74065 194.165 7.92877 194.035L7.92876 194.035Z" fill="#FF2958"/>
<path d="M8.50922 174.409C8.92747 174.572 9.37968 174.629 9.82524 174.574C10.2708 174.519 10.6958 174.354 11.062 174.094C11.2494 173.96 11.4313 174.268 11.2451 174.401C10.8392 174.687 10.3696 174.868 9.87746 174.93C9.38531 174.992 8.88555 174.932 8.42183 174.756C8.37673 174.743 8.33824 174.713 8.31419 174.673C8.29014 174.632 8.28233 174.584 8.29234 174.538C8.30414 174.492 8.33355 174.453 8.37416 174.429C8.41476 174.404 8.4633 174.397 8.50922 174.409V174.409Z" fill="#FF2958"/>
<path d="M36.6785 180.631C36.5653 180.719 36.4489 180.807 36.3357 180.897C34.8002 182.075 33.3628 183.376 32.0377 184.787C31.9342 184.894 31.8307 185.004 31.7304 185.114L31.7272 185.118C28.585 188.536 26.1005 192.508 24.3989 196.832L24.3892 196.861C24.386 196.871 24.3827 196.877 24.3795 196.887C23.705 198.618 23.1613 200.397 22.7528 202.209C22.3582 203.979 22.0348 205.875 21.4171 207.58C21.3233 207.843 21.2199 208.102 21.1099 208.352H6.73145C6.77996 208.096 6.8317 207.836 6.88344 207.58C7.61487 203.825 8.75802 200.161 10.2921 196.657C10.3438 196.54 10.3956 196.424 10.4538 196.307C11.2458 194.575 12.177 192.911 13.2383 191.331C13.2383 191.331 13.2384 191.33 13.2385 191.33C13.2387 191.33 13.2389 191.329 13.2392 191.329C13.2395 191.329 13.2399 191.328 13.2403 191.328C13.2407 191.328 13.2411 191.328 13.2415 191.328C13.8243 190.466 14.4503 189.634 15.1173 188.835C16.8469 186.773 18.89 184.996 21.1713 183.571C21.1843 183.562 21.2005 183.555 21.2134 183.545C25.754 180.722 31.1354 179.377 36.2807 180.541H36.2839C36.4165 180.57 36.5459 180.599 36.6785 180.631Z" fill="#F7D7D5"/>
<path d="M36.662 180.803C36.5521 180.833 36.4421 180.865 36.3354 180.897C34.0688 181.547 31.8811 182.446 29.8124 183.578C29.7089 183.633 29.6054 183.692 29.5019 183.75C26.6429 185.349 24.0477 187.382 21.8082 189.776C21.8064 189.777 21.8053 189.78 21.8049 189.782C21.779 189.808 21.7499 189.837 21.7273 189.863C21.2099 190.421 20.7118 191.001 20.2396 191.597C19.316 192.709 18.5718 193.959 18.034 195.302C17.6231 196.421 17.478 197.621 17.6104 198.806C17.6201 198.926 17.6363 199.043 17.6524 199.163C17.6654 199.257 17.6783 199.351 17.6945 199.448C17.9079 200.748 18.2766 202.051 18.1731 203.376C18.1101 204.056 17.9044 204.714 17.5694 205.308C17.2344 205.902 16.7777 206.418 16.2295 206.822C15.8568 207.111 15.4584 207.365 15.0393 207.581C14.4402 207.89 13.816 208.148 13.1733 208.352H11.9023C12.0737 208.303 12.2419 208.255 12.4133 208.206C13.0216 208.034 13.6188 207.825 14.2017 207.581C14.5347 207.441 14.8588 207.281 15.1719 207.101C16.472 206.352 17.5554 205.205 17.7818 203.671C17.9791 202.33 17.5975 200.988 17.3711 199.675C17.3323 199.448 17.2967 199.224 17.2773 199.001C17.1229 197.864 17.2167 196.707 17.5522 195.61C18.0175 194.242 18.7132 192.964 19.609 191.831C20.1632 191.093 20.7547 190.384 21.3813 189.708C21.4589 189.62 21.5397 189.533 21.6238 189.445C23.9104 187.034 26.5507 184.987 29.4534 183.374H29.4566C31.6149 182.17 33.9047 181.219 36.2804 180.541H36.2836C36.3903 180.509 36.5003 180.476 36.607 180.447C36.8302 180.389 36.8819 180.742 36.662 180.803Z" fill="#FF2958"/>
<path d="M21.4956 189.83C20.7145 189.004 20.252 187.926 20.1906 186.789C20.1292 185.652 20.473 184.531 21.1605 183.624C21.3003 183.441 21.5904 183.651 21.4505 183.834C20.8087 184.676 20.4885 185.721 20.5479 186.78C20.6072 187.838 21.042 188.84 21.7739 189.606C21.9328 189.772 21.6536 189.996 21.4956 189.83H21.4956Z" fill="#FF2958"/>
<path d="M17.4983 198.804C19.8187 198.888 22.0854 198.092 23.8464 196.575C24.0207 196.425 24.2445 196.704 24.0703 196.854C22.2348 198.429 19.8743 199.253 17.4598 199.16C17.2297 199.151 17.2694 198.795 17.4983 198.804V198.804Z" fill="#FF2958"/>
<path d="M29.752 183.484C29.9877 183.867 30.3147 184.186 30.7035 184.411C31.0922 184.636 31.5307 184.76 31.9794 184.773C32.2095 184.779 32.1696 185.135 31.941 185.129C31.4452 185.112 30.9612 184.974 30.5311 184.727C30.101 184.479 29.738 184.13 29.4737 183.709C29.4455 183.671 29.4325 183.624 29.4376 183.578C29.4426 183.531 29.4653 183.488 29.5009 183.457C29.5379 183.428 29.585 183.414 29.632 183.419C29.679 183.424 29.7221 183.448 29.752 183.484V183.484Z" fill="#FF2958"/>
<path d="M147.595 56.1177C147.263 56.5553 146.839 56.9146 146.354 57.1704C145.868 57.4261 145.333 57.5721 144.785 57.5979C144.237 57.6238 143.69 57.529 143.183 57.3202C142.676 57.1113 142.22 56.7936 141.849 56.3892L129.624 61.7181L130.815 54.8782L142.241 50.8665C142.96 50.286 143.867 49.99 144.789 50.0347C145.711 50.0793 146.585 50.4615 147.245 51.1088C147.905 51.7561 148.305 52.6235 148.369 53.5467C148.434 54.4699 148.158 55.3847 147.595 56.1177V56.1177Z" fill="#FFB8B8"/>
<path d="M139.437 58.2539L111.043 70.9304L110.982 70.9086L78.6205 59.3501C76.21 58.0875 74.3722 55.949 73.4835 53.3726C72.5948 50.7961 72.7224 47.9766 73.8401 45.4914V45.4914C74.4596 44.1183 75.3623 42.8922 76.4887 41.894C77.6151 40.8957 78.9397 40.1479 80.3752 39.6997C81.8107 39.2515 83.3247 39.1131 84.8175 39.2937C86.3102 39.4742 87.7479 39.9695 89.0359 40.7471L113.119 55.2877L136.472 52.2541L139.437 58.2539Z" fill="#F0CF86"/>
<path d="M279 208.614C279 208.665 278.99 208.715 278.971 208.762C278.952 208.809 278.923 208.851 278.888 208.887C278.852 208.923 278.809 208.952 278.763 208.971C278.716 208.99 278.666 209 278.615 209H0.395586C0.293518 209 0.195634 208.959 0.123461 208.887C0.0512881 208.815 0.0107422 208.717 0.0107422 208.614C0.0107422 208.512 0.0512881 208.414 0.123461 208.342C0.195634 208.269 0.293518 208.229 0.395586 208.229H278.615C278.666 208.228 278.716 208.238 278.763 208.258C278.809 208.277 278.852 208.305 278.888 208.341C278.923 208.377 278.952 208.42 278.971 208.466C278.99 208.513 279 208.564 279 208.614Z" fill="#FF2958"/>
<path d="M101.336 96.2035L72.7129 91.6147C71.9622 91.3737 71.2724 90.9728 70.6909 90.4394C70.1094 89.906 69.65 89.2528 69.3441 88.5247C69.0382 87.7965 68.8932 87.0107 68.9189 86.221C68.9447 85.4314 69.1406 84.6567 69.4933 83.9501L70.7913 81.3478L70.2871 54.0078C70.2263 50.4515 71.101 46.9419 72.8233 43.8321C74.5455 40.7222 77.0546 38.1218 80.0979 36.2924L82.8892 34.6197L84.2998 31.0293L97.3071 31.3473L97.345 36.0561L102.003 43.5011L102.003 43.5319L101.711 84.0537L100.427 88.2355L102.368 93.0995L101.336 96.2035Z" fill="#F0CF86"/>
<path d="M91.9942 26.5648C98.5214 26.5648 103.813 21.2614 103.813 14.7194C103.813 8.17737 98.5214 2.87402 91.9942 2.87402C85.4671 2.87402 80.1758 8.17737 80.1758 14.7194C80.1758 21.2614 85.4671 26.5648 91.9942 26.5648Z" fill="#FFB8B8"/>
<path d="M79.6878 17.3018C79.3353 15.8134 79.4972 13.7189 79.6964 12.2203C80.2186 8.29131 82.3956 4.55611 85.703 2.34363C86.3301 1.86623 87.0753 1.56941 87.8583 1.48516C88.6408 1.45242 89.4889 1.87224 89.7291 2.61932C89.9262 2.12624 90.2221 1.67889 90.5984 1.30487C90.9747 0.930843 91.4235 0.638088 91.9171 0.444674C92.9086 0.0639265 93.975 -0.0800631 95.0317 0.0241187C97.0799 0.193332 99.0442 0.915163 100.716 2.11301C102.388 3.31085 103.705 4.94002 104.528 6.82762C104.843 7.57923 105.725 4.80298 106.125 5.51314C106.493 6.25132 107.134 6.81599 107.912 7.08632C108.695 7.3055 109.014 10.5418 109.322 9.78712C109.561 10.3448 109.656 10.9541 109.597 11.5583C109.538 12.1625 109.327 12.742 108.985 13.2426C108.642 13.7433 108.179 14.149 107.638 14.4219C107.097 14.6947 106.496 14.8259 105.89 14.8032C105.093 14.7733 104.33 14.4793 103.542 14.3527C100.723 13.9001 97.7336 15.9485 97.1311 18.745C96.9154 17.9362 96.5708 17.1678 96.1106 16.4692C95.877 16.1217 95.5639 15.8352 95.1976 15.6334C94.8312 15.4317 94.4221 15.3205 94.0042 15.3092C93.2023 15.3393 92.4974 15.8647 91.9771 16.4771C91.4568 17.0894 91.0661 17.8038 90.5419 18.4128C89.004 20.1997 86.9239 24.3671 84.7321 24.0631C83.0025 23.8233 80.1691 19.334 79.6878 17.3018Z" fill="#F7D7D5"/>
<path d="M163.436 69.5404C163.519 69.0004 163.408 68.4484 163.123 67.9824C162.839 67.5164 162.399 67.1665 161.881 66.9947L130.054 56.3704C129.749 56.2681 129.426 56.2309 129.106 56.2612L121.129 57.0173L116.551 57.4525L108.104 58.2526C107.594 58.3015 107.115 58.5186 106.741 58.87C106.368 59.2214 106.121 59.6871 106.04 60.1941L101.751 87.0449C101.67 87.5687 101.769 88.1045 102.033 88.5639C102.297 89.0233 102.709 89.3789 103.201 89.5719L135.361 102.014C135.512 102.072 135.668 102.115 135.828 102.14C136.061 102.177 136.299 102.179 136.532 102.145L157.312 99.0581C157.803 98.987 158.257 98.7594 158.608 98.4091C158.958 98.0588 159.187 97.6045 159.26 97.1135L163.436 69.5404Z" fill="#FF2958"/>
<path d="M103.93 87.6809L136.089 100.122C136.136 100.141 136.187 100.147 136.237 100.139L157.014 97.0529C157.076 97.0445 157.133 97.0161 157.177 96.9721C157.221 96.9282 157.25 96.871 157.258 96.8093L161.437 69.2359C161.446 69.1685 161.432 69.1 161.397 69.042C161.361 68.9839 161.307 68.94 161.243 68.9177L161.029 68.8451L129.414 58.2958C129.399 58.2907 129.385 58.287 129.369 58.285C129.345 58.2805 129.32 58.2792 129.295 58.2812L109.838 60.1265L108.294 60.2717C108.23 60.2785 108.171 60.3059 108.125 60.3496C108.078 60.3934 108.047 60.4512 108.037 60.5141L103.749 87.3639C103.738 87.4295 103.751 87.4968 103.783 87.5544C103.816 87.6121 103.868 87.6567 103.93 87.6809V87.6809Z" fill="#FCFBFF"/>
<path d="M109.838 60.1265L129.295 58.2812C129.32 58.2792 129.345 58.2805 129.37 58.285C129.385 58.287 129.4 58.2907 129.414 58.2958L161.029 68.8451L152.69 69.7299L149.569 70.0595L140.688 70.9999C140.662 71.0012 140.636 71.0009 140.61 70.9989C140.594 70.9942 140.578 70.9894 140.559 70.9843L109.838 60.1265Z" fill="#2F2E41"/>
<path d="M103.201 89.5738L135.36 102.015C135.511 102.073 135.668 102.115 135.829 102.138C136.062 102.177 136.299 102.18 136.533 102.147L157.311 99.0603C157.801 98.9888 158.255 98.7609 158.606 98.4104C158.958 98.0599 159.187 97.6054 159.26 97.1142L163.435 69.5405C163.497 69.134 163.45 68.7184 163.3 68.3358C163.279 68.2849 163.258 68.2341 163.233 68.1861C163.067 67.8368 162.815 67.5358 162.501 67.3117C162.312 67.1755 162.103 67.0687 161.881 66.9952L161.844 66.9818L130.056 56.3703C129.926 56.3288 129.793 56.2965 129.659 56.2737C129.475 56.2476 129.289 56.244 129.105 56.2629L121.128 57.0164L116.552 57.454L108.103 58.2535C107.758 58.2858 107.424 58.3964 107.127 58.5768C107.104 58.5879 107.082 58.6011 107.062 58.6161C107.047 58.6257 107.033 58.6364 107.02 58.6479C106.76 58.8252 106.54 59.0536 106.372 59.319C106.203 59.5845 106.091 59.8815 106.041 60.192L101.749 87.0447C101.668 87.5689 101.768 88.1051 102.032 88.5649C102.295 89.0247 102.708 89.3805 103.201 89.5738V89.5738ZM106.61 60.2856C106.662 59.9638 106.805 59.6634 107.021 59.4197C107.086 59.3413 107.159 59.2698 107.239 59.2062C107.457 59.0294 107.715 58.9088 107.991 58.8549C108.045 58.8436 108.1 58.8358 108.155 58.8316L122.38 57.4847L129.16 56.838C129.206 56.8327 129.248 56.8334 129.291 56.831C129.393 56.8289 129.496 56.8365 129.597 56.8538C129.69 56.8659 129.782 56.8878 129.87 56.9191L161.696 67.5439C161.721 67.5529 161.743 67.5615 161.768 67.5704C162.057 67.6783 162.312 67.8637 162.503 68.1064C162.654 68.2922 162.765 68.508 162.827 68.7395C162.89 68.971 162.903 69.2132 162.866 69.4501L158.687 97.0268C158.632 97.3945 158.461 97.7349 158.198 97.9976C157.936 98.2604 157.596 98.4315 157.229 98.4859L136.448 101.572C136.151 101.615 135.848 101.58 135.568 101.472L103.408 89.0336C103.039 88.888 102.731 88.6211 102.534 88.2768C102.336 87.9325 102.262 87.5312 102.322 87.1386L106.61 60.2856Z" fill="#3F3D56"/>
<path d="M106.95 58.7947C106.967 58.7458 106.997 58.7025 107.037 58.6695C107.05 58.6589 107.064 58.6494 107.078 58.6409C107.092 58.6357 107.106 58.6272 107.119 58.622C107.184 58.596 107.256 58.5948 107.321 58.6185L107.99 58.8552L140.691 70.4171L148.345 69.6066L152.628 69.1538L161.692 68.192L162.503 68.1068L162.66 68.0893C162.728 68.0831 162.796 68.1009 162.853 68.1396C162.909 68.1783 162.95 68.2354 162.968 68.3012C162.973 68.3163 162.976 68.3319 162.977 68.3476C162.984 68.41 162.97 68.4729 162.938 68.5268C162.906 68.5807 162.857 68.6226 162.799 68.6464C162.773 68.657 162.747 68.6643 162.719 68.668L161.616 68.7839L152.69 69.7296L149.569 70.0592L140.688 70.9996C140.662 71.0009 140.636 71.0005 140.61 70.9986C140.594 70.9938 140.578 70.9891 140.559 70.984L107.239 59.2066L107.126 59.1664C107.1 59.1579 107.076 59.1445 107.055 59.1271C107.004 59.09 106.967 59.0378 106.948 58.978C106.929 58.9183 106.93 58.854 106.95 58.7947Z" fill="#3F3D56"/>
<path d="M135.916 102.223C135.841 102.211 135.774 102.17 135.729 102.108C135.684 102.046 135.665 101.97 135.676 101.894L140.371 70.6684C140.382 70.5924 140.423 70.5241 140.485 70.4785C140.547 70.4329 140.624 70.4137 140.7 70.4251L140.702 70.4255C140.778 70.4376 140.845 70.479 140.89 70.5406C140.935 70.6023 140.954 70.6792 140.942 70.7548L136.248 101.98C136.236 102.056 136.195 102.125 136.134 102.17C136.072 102.216 135.995 102.235 135.919 102.224L135.916 102.223Z" fill="#3F3D56"/>
<path d="M147.817 100.242L144.694 100.573L148.347 69.6061C148.347 69.6061 152.517 68.8494 152.628 69.1528C152.697 69.334 147.846 100.044 147.817 100.242Z" fill="#3F3D56"/>
<path d="M107.127 59.166L107.043 73.2878L131.986 82.8135L140.943 70.7543L107.127 59.166Z" fill="#3F3D56"/>
<path d="M162.504 68.1069C162.295 67.8443 162.015 67.6486 161.696 67.5441L129.872 56.9195C129.782 56.8894 129.691 56.867 129.597 56.8526C129.496 56.8351 129.393 56.8274 129.29 56.8295L129.342 56.5062L129.66 56.275L137.218 50.791L162.456 58.5434L162.5 67.3119L162.504 68.1069Z" fill="#3F3D56"/>
<path d="M108.398 81.8361C108.434 81.8396 108.469 81.8471 108.503 81.8583L118.268 85.0728C118.39 85.113 118.492 85.2002 118.55 85.3153C118.608 85.4304 118.618 85.5639 118.578 85.6864C118.538 85.8089 118.451 85.9105 118.336 85.9687C118.221 86.0269 118.088 86.037 117.966 85.9968L108.201 82.7823C108.088 82.745 107.992 82.6671 107.932 82.5635C107.873 82.46 107.853 82.338 107.877 82.2209C107.902 82.1038 107.968 81.9999 108.064 81.9289C108.16 81.8579 108.279 81.8249 108.398 81.8361H108.398Z" fill="#FF2958"/>
<path d="M147.796 141.077C149.939 141.077 151.677 139.336 151.677 137.188C151.677 135.039 149.939 133.298 147.796 133.298C145.653 133.298 143.915 135.039 143.915 137.188C143.915 139.336 145.653 141.077 147.796 141.077Z" fill="#F7D7D5"/>
<path d="M48.8349 155.339C50.9782 155.339 52.7158 153.597 52.7158 151.449C52.7158 149.301 50.9782 147.56 48.8349 147.56C46.6916 147.56 44.9541 149.301 44.9541 151.449C44.9541 153.597 46.6916 155.339 48.8349 155.339Z" fill="#F7D7D5"/>
<path d="M129.686 26.6563C131.829 26.6563 133.566 24.9148 133.566 22.7666C133.566 20.6184 131.829 18.877 129.686 18.877C127.542 18.877 125.805 20.6184 125.805 22.7666C125.805 24.9148 127.542 26.6563 129.686 26.6563Z" fill="#F7D7D5"/>
<path d="M136.052 87.557C135.549 87.776 135.005 87.8818 134.456 87.867C133.908 87.8521 133.37 87.717 132.879 87.4711C132.389 87.2252 131.958 86.8745 131.618 86.4437C131.277 86.0129 131.035 85.5125 130.908 84.9777L117.645 83.6347L122.02 78.252L133.944 80.3526C134.855 80.1986 135.79 80.3848 136.573 80.8758C137.355 81.3667 137.931 82.1284 138.191 83.0164C138.451 83.9044 138.377 84.8571 137.982 85.694C137.588 86.5308 136.902 87.1937 136.052 87.557V87.557Z" fill="#FFB8B8"/>
<path d="M127.895 85.4218L96.9427 82.5635L96.9002 82.5146L74.3104 56.5716C72.8237 54.2888 72.264 51.5227 72.7457 48.8398C73.2275 46.1568 74.7144 43.7599 76.9018 42.1399V42.1399C78.1122 41.2458 79.4977 40.6187 80.9673 40.3C82.4369 39.9813 83.9571 39.9781 85.428 40.2907C86.8989 40.6034 88.287 41.2246 89.501 42.1137C90.715 43.0028 91.7274 44.1395 92.4716 45.449L106.385 69.9359L128.236 78.7353L127.895 85.4218Z" fill="#F0CF86"/>
<path d="M205.583 35.531C204.815 29.88 203.851 23.8129 199.874 19.7335C198.612 18.4392 197.102 17.4143 195.434 16.7207C193.767 16.0272 191.976 15.6793 190.171 15.698C188.365 15.7167 186.582 16.1017 184.929 16.8297C183.276 17.5577 181.788 18.6137 180.553 19.934C177.658 23.0291 176.38 27.3751 176.263 31.6159C176.146 35.8566 177.088 40.0502 178.133 44.1611C183.666 44.2719 189.157 43.1886 194.234 40.9848C195.504 40.4324 196.753 39.808 198.095 39.4658C199.436 39.1236 200.392 39.9847 201.64 40.5851L202.325 39.2706C202.886 40.3165 204.622 40.0065 205.252 39.0008C205.882 37.9952 205.744 36.7074 205.583 35.531Z" fill="#FF2958"/>
<path d="M183.654 67.0723L161.056 67.5567C160.709 66.9554 160.195 66.4682 159.577 66.1543C158.959 65.8405 158.263 65.7135 157.574 65.7888C156.885 65.8641 156.233 66.1385 155.697 66.5786C155.161 67.0186 154.764 67.6054 154.554 68.2675C154.345 68.9296 154.331 69.6385 154.517 70.3079C154.702 70.9772 155.077 71.5783 155.597 72.0378C156.116 72.4973 156.758 72.7956 157.444 72.8962C158.129 72.9969 158.83 72.8956 159.459 72.6048C162.456 72.7755 185.904 76.1111 187.303 73.9614C188.723 71.7796 196.301 64.0797 196.301 64.0797L190.476 55.7676L183.654 67.0723Z" fill="#9E616A"/>
<path d="M189.161 41.1219C195.025 41.1219 199.779 36.3575 199.779 30.4804C199.779 24.6032 195.025 19.8389 189.161 19.8389C183.297 19.8389 178.544 24.6032 178.544 30.4804C178.544 36.3575 183.297 41.1219 189.161 41.1219Z" fill="#9E616A"/>
<path d="M206.166 50.9557C204.915 48.4598 204.307 45.3766 201.64 44.5675C199.839 44.0211 192.553 44.8399 190.912 45.7622C188.181 47.2964 190.655 50.1712 189.044 52.8615C187.293 55.7861 182.534 61.6553 180.782 64.5799C179.578 66.5905 183.634 72.492 182.983 74.7442C182.332 76.9965 182.301 79.5244 183.41 81.5892C184.402 83.4372 182.966 85.072 183.964 86.917C185.002 88.8358 186.276 96.01 185.31 97.9662L184.663 99.911C191.082 100.289 196.479 92.6036 202.857 91.794C204.442 91.5929 206.087 91.3303 207.392 90.4085C209.315 89.0508 210.075 86.5872 210.551 84.2781C212.837 72.9914 211.294 61.2624 206.166 50.9557V50.9557Z" fill="#F7D7D5"/>
<path d="M215.79 77.3093C214.896 74.8634 213.277 64.1698 213.277 64.1698L203.147 63.8721L208.1 76.1154L194.585 95.0785C194.585 95.0785 194.61 95.1201 194.655 95.1944C193.945 95.0802 193.216 95.1835 192.565 95.491C191.914 95.7985 191.371 96.2958 191.007 96.9179C190.642 97.5399 190.474 98.2577 190.523 98.9773C190.572 99.6969 190.837 100.385 191.283 100.951C191.729 101.517 192.335 101.935 193.022 102.151C193.709 102.366 194.445 102.368 195.133 102.158C195.821 101.947 196.43 101.533 196.88 100.97C197.329 100.407 197.599 99.7206 197.653 99.0014C197.703 99.03 197.761 99.0403 197.817 99.0306C197.874 99.0208 197.925 98.9917 197.963 98.9481C199.467 97.0566 216.684 79.7551 215.79 77.3093Z" fill="#9E616A"/>
<path d="M216.82 70.5553C215.89 66.622 214.953 62.6672 213.385 58.9428C211.818 55.2184 209.574 51.7007 206.417 49.1845C205.408 48.3801 204.28 47.67 203.015 47.4199C201.75 47.1698 200.324 47.4497 199.436 48.3863C198.014 49.885 198.442 52.2906 198.963 54.2914C200.501 60.1909 202.038 66.0903 203.576 71.9898C208.016 71.5181 212.456 71.0464 216.896 70.5746L216.82 70.5553Z" fill="#F7D7D5"/>
<path d="M202.171 31.9569C201.78 29.3826 201.372 26.7867 200.453 24.3628C199.535 21.9388 198.054 19.6685 195.93 18.2953C192.567 16.1213 188.213 16.5406 184.443 17.7911C181.527 18.7582 178.68 20.2282 176.624 22.5914C174.568 24.9546 173.413 28.3266 174.178 31.4166C178.2 30.4642 182.222 29.5118 186.244 28.5594L185.803 28.8712C187.124 29.5312 188.277 30.484 189.175 31.6575C190.074 32.8309 190.693 34.194 190.988 35.6433C191.275 37.1103 191.234 38.6229 190.867 40.0719C190.5 41.5209 189.816 42.87 188.864 44.0216C191.607 43.0463 194.35 42.071 197.093 41.0958C198.786 40.4938 200.598 39.8002 201.602 38.2562C202.766 36.466 202.496 34.0933 202.171 31.9569Z" fill="#FF2958"/>
</g>
<defs>
<clipPath id="clip0_472_6384">
<rect width="279" height="209" fill="white"/>
</clipPath>
</defs>
</svg>
