<svg width="291" height="249" viewBox="0 0 291 249" fill="none" xmlns="http://www.w3.org/2000/svg">
<g clip-path="url(#clip0_446_6103)">
<path d="M21.8512 228.505C23.528 229.092 25.3284 229.24 27.0788 228.932C28.8292 228.625 30.4708 227.873 31.8453 226.749C35.3457 223.819 36.4434 218.994 37.3361 214.525L39.9774 201.306L34.4477 205.102C30.4708 207.833 26.4045 210.651 23.6512 214.606C20.8978 218.561 19.6966 223.96 21.9082 228.239" fill="#F7D7D5"/>
<path d="M22.7051 245.43C22.0091 240.373 21.293 235.252 21.7824 230.141C22.2161 225.602 23.6048 221.17 26.4319 217.534C27.9326 215.609 29.7586 213.959 31.8279 212.658C32.3673 212.319 32.864 213.171 32.3268 213.51C28.7463 215.766 25.9768 219.098 24.4177 223.025C22.6959 227.392 22.4194 232.152 22.716 236.791C22.8952 239.597 23.2762 242.383 23.6588 245.167C23.689 245.293 23.6701 245.426 23.606 245.538C23.5419 245.651 23.4373 245.735 23.3134 245.773C23.187 245.807 23.0523 245.79 22.9385 245.726C22.8247 245.661 22.7409 245.555 22.7054 245.429L22.7051 245.43Z" fill="#FF2958"/>
<path d="M27.7148 237.316C28.4339 238.407 29.4224 239.294 30.5851 239.892C31.7478 240.491 33.0455 240.781 34.3532 240.734C37.7145 240.575 40.5157 238.236 43.037 236.016L50.4962 229.449L45.5597 229.213C42.0095 229.043 38.3677 228.884 34.9862 229.977C31.6048 231.07 28.4863 233.696 27.8681 237.187" fill="#F7D7D5"/>
<path d="M20.7379 248.337C24.0887 242.425 27.975 235.854 34.9198 233.754C36.8506 233.172 38.8752 232.964 40.8846 233.14C41.5179 233.194 41.3598 234.168 40.7277 234.113C37.3595 233.835 33.9978 234.721 31.2085 236.625C28.5244 238.446 26.4344 240.979 24.6657 243.665C23.5822 245.31 22.6117 247.025 21.6412 248.738C21.331 249.286 20.4241 248.89 20.7379 248.337Z" fill="#FF2958"/>
<path d="M288.853 175.353H104.118C103.549 175.352 103.003 175.126 102.6 174.725C102.198 174.323 101.971 173.779 101.971 173.212V2.14106C101.971 1.57344 102.198 1.02928 102.6 0.62792C103.003 0.226556 103.549 0.000742015 104.118 0H288.853C289.422 0.000742015 289.967 0.226556 290.37 0.62792C290.772 1.02928 290.999 1.57344 291 2.14106V173.211C290.999 173.779 290.773 174.323 290.37 174.725C289.968 175.126 289.422 175.352 288.853 175.352V175.353Z" fill="#FCFBFF"/>
<path d="M288.853 175.353H104.118C103.549 175.352 103.003 175.126 102.6 174.725C102.198 174.323 101.971 173.779 101.971 173.212V2.14106C101.971 1.57344 102.198 1.02928 102.6 0.62792C103.003 0.226556 103.549 0.000742015 104.118 0H288.853C289.422 0.000742015 289.967 0.226556 290.37 0.62792C290.772 1.02928 290.999 1.57344 291 2.14106V173.211C290.999 173.779 290.773 174.323 290.37 174.725C289.968 175.126 289.422 175.352 288.853 175.352V175.353ZM104.118 0.854736C103.777 0.855474 103.45 0.990941 103.209 1.23149C102.967 1.47203 102.831 1.79807 102.831 2.13825V173.211C102.831 173.551 102.967 173.878 103.209 174.118C103.45 174.359 103.777 174.494 104.118 174.495H288.853C289.194 174.494 289.521 174.359 289.762 174.118C290.003 173.878 290.139 173.552 290.14 173.211V2.14106C290.139 1.80088 290.003 1.47484 289.762 1.23429C289.521 0.99375 289.194 0.858284 288.853 0.857545L104.118 0.854736Z" fill="#CACACA"/>
<path d="M191.408 44C191.022 44.0007 190.652 44.1541 190.379 44.4266C190.106 44.6991 189.953 45.0685 189.953 45.4536C189.953 45.8386 190.106 46.208 190.379 46.4805C190.652 46.753 191.022 46.9065 191.408 46.9071H271.396C271.782 46.9065 272.152 46.753 272.425 46.4805C272.698 46.208 272.851 45.8386 272.851 45.4536C272.851 45.0685 272.698 44.6991 272.425 44.4266C272.152 44.1541 271.782 44.0007 271.396 44H191.408Z" fill="#FF2958"/>
<path d="M191.408 53.1758C191.022 53.1767 190.652 53.3303 190.38 53.6028C190.107 53.8753 189.954 54.2445 189.954 54.6294C189.954 55.0143 190.107 55.3835 190.38 55.6559C190.652 55.9284 191.022 56.082 191.408 56.0829H232.244C232.63 56.082 232.999 55.9284 233.272 55.6559C233.545 55.3835 233.698 55.0143 233.698 54.6294C233.698 54.2445 233.545 53.8753 233.272 53.6028C232.999 53.3303 232.63 53.1767 232.244 53.1758H191.408Z" fill="#FF2958"/>
<path d="M121.497 100.081C121.111 100.082 120.741 100.236 120.469 100.508C120.196 100.781 120.043 101.15 120.043 101.535C120.043 101.92 120.196 102.289 120.469 102.561C120.741 102.834 121.111 102.987 121.497 102.988H271.474C271.86 102.987 272.23 102.834 272.503 102.561C272.775 102.289 272.928 101.92 272.928 101.535C272.928 101.15 272.775 100.781 272.503 100.508C272.23 100.236 271.86 100.082 271.474 100.081H121.497Z" fill="#FF2958"/>
<path d="M121.497 108.803C121.111 108.804 120.741 108.957 120.469 109.23C120.196 109.502 120.043 109.871 120.043 110.256C120.043 110.641 120.196 111.01 120.469 111.283C120.741 111.555 121.111 111.709 121.497 111.71H232.322C232.708 111.709 233.078 111.555 233.35 111.283C233.623 111.01 233.776 110.641 233.776 110.256C233.776 109.871 233.623 109.502 233.35 109.23C233.078 108.957 232.708 108.804 232.322 108.803H121.497Z" fill="#FF2958"/>
<path d="M121.497 117.328C121.111 117.329 120.741 117.483 120.469 117.755C120.196 118.028 120.043 118.397 120.043 118.782C120.043 119.167 120.196 119.536 120.469 119.808C120.741 120.081 121.111 120.234 121.497 120.235H271.474C271.86 120.234 272.23 120.081 272.503 119.808C272.775 119.536 272.928 119.167 272.928 118.782C272.928 118.397 272.775 118.028 272.503 117.755C272.23 117.483 271.86 117.329 271.474 117.328H121.497Z" fill="#FF2958"/>
<path d="M121.497 126.05C121.111 126.051 120.741 126.204 120.469 126.477C120.196 126.749 120.043 127.118 120.043 127.503C120.043 127.888 120.196 128.257 120.469 128.53C120.741 128.802 121.111 128.956 121.497 128.957H232.322C232.708 128.956 233.078 128.802 233.35 128.53C233.623 128.257 233.776 127.888 233.776 127.503C233.776 127.118 233.623 126.749 233.35 126.477C233.078 126.204 232.708 126.051 232.322 126.05H121.497Z" fill="#FF2958"/>
<path d="M121.497 134.802C121.111 134.803 120.741 134.956 120.469 135.229C120.196 135.501 120.043 135.87 120.043 136.255C120.043 136.64 120.196 137.009 120.469 137.282C120.741 137.554 121.111 137.708 121.497 137.709H271.474C271.86 137.708 272.23 137.554 272.503 137.282C272.775 137.009 272.928 136.64 272.928 136.255C272.928 135.87 272.775 135.501 272.503 135.229C272.23 134.956 271.86 134.803 271.474 134.802H121.497Z" fill="#FF2958"/>
<path d="M121.497 143.524C121.111 143.525 120.741 143.679 120.469 143.951C120.196 144.224 120.043 144.593 120.043 144.978C120.043 145.363 120.196 145.732 120.469 146.005C120.741 146.277 121.111 146.431 121.497 146.432H232.322C232.708 146.431 233.078 146.277 233.35 146.005C233.623 145.732 233.776 145.363 233.776 144.978C233.776 144.593 233.623 144.224 233.35 143.951C233.078 143.679 232.708 143.525 232.322 143.524H121.497Z" fill="#FF2958"/>
<path d="M145.252 71.1514C141.11 71.1515 137.061 69.9267 133.617 67.632C130.172 65.3373 127.488 62.0757 125.903 58.2597C124.318 54.4436 123.903 50.2446 124.711 46.1935C125.519 42.1424 127.514 38.4213 130.443 35.5006C133.372 32.5799 137.103 30.5909 141.166 29.7851C145.229 28.9793 149.44 29.3928 153.267 30.9735C157.093 32.5541 160.364 35.2308 162.666 38.6652C164.967 42.0995 166.195 46.1372 166.195 50.2676C166.189 55.8044 163.98 61.1126 160.054 65.0277C156.128 68.9428 150.805 71.1451 145.252 71.1514V71.1514Z" fill="#F50057"/>
<path d="M81.6775 150.115C81.6413 149.352 81.4379 148.607 81.0817 147.932C80.7254 147.257 80.2251 146.667 79.6157 146.206C79.0064 145.744 78.3029 145.421 77.5549 145.26C76.8069 145.098 76.0326 145.103 75.2864 145.272L68.3638 135.544L61.4092 138.297L71.3787 151.898C71.7472 153.129 72.5558 154.183 73.6513 154.859C74.7468 155.535 76.053 155.788 77.3225 155.568C78.5919 155.348 79.7364 154.671 80.5391 153.666C81.3417 152.661 81.7468 151.398 81.6775 150.115H81.6775Z" fill="#A0616A"/>
<path d="M68.1859 149.394L47.2393 122.297L55.0878 97.7003C55.6629 91.5164 59.5436 89.7896 59.7087 89.7191L59.9606 89.6113L66.7902 107.773L61.7756 121.107L74.0838 141.748L68.1859 149.394Z" fill="#F0CF86"/>
<path d="M140.93 65.8635C140.17 65.9584 139.441 66.2182 138.793 66.6246C138.146 67.031 137.595 67.574 137.181 68.2155C136.766 68.857 136.498 69.5813 136.394 70.3374C136.291 71.0935 136.355 71.8631 136.582 72.5918L127.391 80.2262L130.681 86.9274L143.509 75.9644C144.712 75.5029 145.702 74.6175 146.294 73.4761C146.886 72.3347 147.037 71.0166 146.719 69.7715C146.401 68.5265 145.636 67.4409 144.569 66.7207C143.502 66.0004 142.207 65.6954 140.93 65.8635V65.8635Z" fill="#A0616A"/>
<path d="M141.252 79.332L115.779 102.252L90.5797 96.3506C84.3523 96.2569 82.3258 92.5324 82.2424 92.3737L82.1152 92.1316L99.7456 83.9375L113.465 87.892L133.152 74.0596L141.252 79.332Z" fill="#F0CF86"/>
<path d="M97.1292 242.269L103.973 242.268L107.229 215.944L97.1279 215.945L97.1292 242.269Z" fill="#A0616A"/>
<path d="M117.173 248.604L95.6628 248.605L95.6624 240.318L111.138 240.318C112.738 240.318 114.273 240.951 115.405 242.08C116.537 243.208 117.173 244.739 117.173 246.335L117.173 248.604Z" fill="#B6625D"/>
<path d="M69.7743 242.269L76.6185 242.268L79.8745 215.944L69.7734 215.945L69.7743 242.269Z" fill="#A0616A"/>
<path d="M89.8184 248.604L68.3083 248.605L68.3079 240.318L83.7833 240.318C84.5758 240.318 85.3605 240.473 86.0927 240.776C86.8249 241.078 87.4901 241.521 88.0505 242.08C88.6109 242.639 89.0555 243.302 89.3588 244.032C89.6621 244.762 89.8182 245.545 89.8183 246.335L89.8184 248.604V248.604Z" fill="#B6625D"/>
<path d="M67.3398 146.183L67.898 185.15L68.4567 236.364L80.738 235.25L86.8791 164.553L94.6948 235.25H107.374L108.651 163.997L104.185 148.41L67.3398 146.183Z" fill="#B08E7B"/>
<path d="M91.3787 151.416C78.0154 151.417 65.7147 145.386 65.5487 145.303L65.4107 145.234L64.2893 118.398C63.9641 117.449 57.5607 98.7368 56.4762 92.789C55.3773 86.763 71.3025 81.4745 73.2364 80.856L73.6752 76.0084L91.5213 74.0908L93.7832 80.2936L100.186 82.6875C100.911 82.9591 101.512 83.4867 101.874 84.1705C102.236 84.8542 102.333 85.6465 102.148 86.3972L98.59 100.827L107.281 148.567L105.41 148.647C100.925 150.667 96.0845 151.415 91.3787 151.416Z" fill="#F0CF86"/>
<path d="M89.4596 69.4507C95.6864 66.0565 97.9748 58.2715 94.5709 52.0623C91.167 45.8532 83.3598 43.5713 77.133 46.9655C70.9062 50.3598 68.6178 58.1448 72.0217 64.3539C75.4256 70.563 83.2328 72.8449 89.4596 69.4507Z" fill="#A0616A"/>
<path d="M72.8896 70.6118C75.3383 73.2129 79.886 71.8166 80.2051 68.2632C80.2301 67.9873 80.2283 67.7096 80.1997 67.4341C80.0349 65.8601 79.123 64.4311 79.3414 62.7692C79.3909 62.3555 79.5454 61.9613 79.7904 61.624C81.7418 59.0183 86.3224 62.7894 88.164 60.4306C89.2933 58.9842 87.9659 56.707 88.8324 55.0905C89.9762 52.9569 93.3638 54.0094 95.4882 52.841C97.8519 51.5409 97.7105 47.9247 96.1546 45.7251C94.2571 43.0426 90.9301 41.6112 87.6446 41.4049C84.3591 41.1986 81.0962 42.0843 78.0289 43.2762C74.5438 44.6306 71.0878 46.5023 68.9431 49.558C66.335 53.2741 66.084 58.2701 67.3884 62.6154C68.1819 65.2587 70.8899 68.4878 72.8896 70.6118Z" fill="#F7D7D5"/>
<path d="M163.272 248.934H0.427414C0.314057 248.934 0.205336 248.89 0.12518 248.81C0.0450242 248.73 0 248.621 0 248.508C0 248.395 0.0450242 248.287 0.12518 248.207C0.205336 248.127 0.314057 248.082 0.427414 248.082H163.272C163.386 248.082 163.494 248.127 163.574 248.207C163.655 248.287 163.7 248.395 163.7 248.508C163.7 248.621 163.655 248.73 163.574 248.81C163.494 248.89 163.386 248.934 163.272 248.934Z" fill="#FF2958"/>
<path d="M144.042 58.1561C143.664 58.1565 143.301 58.014 143.024 57.7573L136.118 51.3612C135.828 51.0919 135.657 50.7186 135.643 50.3235C135.628 49.9285 135.772 49.5438 136.041 49.2541C136.311 48.9644 136.685 48.7934 137.082 48.7786C137.478 48.7638 137.864 48.9065 138.154 49.1753L144.004 54.5931L155.577 43.0532C155.716 42.9138 155.88 42.8031 156.062 42.7275C156.244 42.6518 156.439 42.6127 156.636 42.6123C156.833 42.6119 157.028 42.6504 157.21 42.7253C157.392 42.8003 157.557 42.9104 157.696 43.0493C157.836 43.1882 157.946 43.3531 158.021 43.5346C158.096 43.7161 158.135 43.9107 158.135 44.1071C158.134 44.3034 158.095 44.4978 158.019 44.679C157.943 44.8602 157.832 45.0247 157.692 45.163L145.1 57.7193C144.961 57.8579 144.796 57.9679 144.615 58.0429C144.433 58.1178 144.239 58.1563 144.042 58.1561V58.1561Z" fill="white"/>
</g>
<defs>
<clipPath id="clip0_446_6103">
<rect width="291" height="249" fill="white"/>
</clipPath>
</defs>
</svg>
