<svg width="227" height="190" viewBox="0 0 227 190" fill="none" xmlns="http://www.w3.org/2000/svg">
<path d="M30.5 7C32.433 7 34 5.433 34 3.5C34 1.567 32.433 0 30.5 0C28.567 0 27 1.567 27 3.5C27 5.433 28.567 7 30.5 7Z" fill="#3F3D56"/>
<path d="M193.354 1H184.646C184.474 1.0026 184.309 1.05642 184.189 1.1499C184.068 1.24339 184 1.36908 184 1.5C184 1.63092 184.068 1.75661 184.189 1.8501C184.309 1.94358 184.474 1.9974 184.646 2H193.354C193.526 1.9974 193.691 1.94358 193.811 1.8501C193.932 1.75661 194 1.63092 194 1.5C194 1.36908 193.932 1.24339 193.811 1.1499C193.691 1.05642 193.526 1.0026 193.354 1V1Z" fill="#3F3D56"/>
<path d="M193.354 3H184.646C184.474 3.0052 184.309 3.11284 184.189 3.29981C184.068 3.48678 184 3.73817 184 4C184 4.26183 184.068 4.51322 184.189 4.70019C184.309 4.88716 184.474 4.9948 184.646 5H193.354C193.526 4.9948 193.691 4.88716 193.811 4.70019C193.932 4.51322 194 4.26183 194 4C194 3.73817 193.932 3.48678 193.811 3.29981C193.691 3.11284 193.526 3.0052 193.354 3V3Z" fill="#3F3D56"/>
<path d="M193.354 5H184.646C184.474 5.0052 184.309 5.11284 184.189 5.29981C184.068 5.48678 184 5.73817 184 6C184 6.26183 184.068 6.51322 184.189 6.70019C184.309 6.88716 184.474 6.9948 184.646 7H193.354C193.526 6.9948 193.691 6.88716 193.811 6.70019C193.932 6.51322 194 6.26183 194 6C194 5.73817 193.932 5.48678 193.811 5.29981C193.691 5.11284 193.526 5.0052 193.354 5V5Z" fill="#3F3D56"/>
<path d="M190.19 22H7.8095C6.79962 22.0015 5.83153 22.3919 5.11744 23.0858C4.40334 23.7796 4.00151 24.7203 4 25.7015V26.2985C4.00151 27.2797 4.40334 28.2204 5.11744 28.9142C5.83153 29.6081 6.79962 29.9985 7.8095 30H190.19C191.2 29.9985 192.168 29.6081 192.883 28.9142C193.597 28.2204 193.998 27.2797 194 26.2985V25.7015C193.998 24.7203 193.597 23.7796 192.883 23.0858C192.168 22.3919 191.2 22.0015 190.19 22V22Z" fill="#F0F0F0"/>
<path d="M29.5925 27.9998H12.4458C12.0622 27.9992 11.6944 27.841 11.4233 27.5598C11.1523 27.2785 11 26.8974 11 26.5C11 26.1026 11.1523 25.7215 11.4233 25.4402C11.6944 25.159 12.0622 25.0008 12.4458 25.0002H29.5925C31.4598 24.9732 31.4785 28.0271 29.5925 27.9998Z" fill="white"/>
<path d="M81.5925 27.9998H64.4458C64.0622 27.9992 63.6944 27.841 63.4233 27.5598C63.1523 27.2785 63 26.8974 63 26.5C63 26.1026 63.1523 25.7215 63.4233 25.4402C63.6944 25.159 64.0622 25.0008 64.4458 25.0002H81.5925C83.4598 24.9732 83.4785 28.0271 81.5925 27.9998Z" fill="white"/>
<path d="M132.663 27.9998H116.374C116.009 27.9992 115.66 27.841 115.402 27.5598C115.145 27.2785 115 26.8974 115 26.5C115 26.1026 115.145 25.7215 115.402 25.4402C115.66 25.159 116.009 25.0008 116.374 25.0002H132.663C134.437 24.9732 134.455 28.0271 132.663 27.9998Z" fill="white"/>
<path d="M182.522 27.9998H164.52C164.117 27.9998 163.73 27.8418 163.445 27.5605C163.16 27.2793 163 26.8978 163 26.5C163 26.1022 163.16 25.7207 163.445 25.4395C163.73 25.1582 164.117 25.0002 164.52 25.0002H182.522C184.483 24.9732 184.502 28.0271 182.522 27.9998Z" fill="#6C63FF"/>
<path d="M156 22H155V30H156V22Z" fill="white"/>
<path d="M90.4807 144H15.5193C14.8514 143.999 14.211 143.734 13.7387 143.262C13.2664 142.79 13.0008 142.151 13 141.483V130.517C13.0008 129.849 13.2664 129.21 13.7387 128.738C14.211 128.266 14.8514 128.001 15.5193 128H90.4807C91.1486 128.001 91.789 128.266 92.2613 128.738C92.7336 129.21 92.9992 129.849 93 130.517V141.483C92.9992 142.151 92.7336 142.79 92.2613 143.262C91.789 143.734 91.1486 143.999 90.4807 144V144Z" fill="#F0F0F0"/>
<path d="M82.9602 142H17.4995C16.8368 141.999 16.2015 141.747 15.7329 141.297C15.2644 140.848 15.0008 140.239 15 139.604V132.396C15.0008 131.761 15.2644 131.152 15.7329 130.703C16.2015 130.253 16.8368 130.001 17.4995 130H88.5005C89.1632 130.001 89.7985 130.253 90.2671 130.703C90.7356 131.152 90.9992 131.761 91 132.396V134.293C90.9976 136.336 90.1498 138.295 88.6425 139.74C87.1353 141.185 85.0917 141.998 82.9602 142V142Z" fill="#F7D7D5"/>
<path d="M60.3591 135H30.6409C30.4709 135 30.3079 134.947 30.1877 134.854C30.0675 134.76 30 134.633 30 134.5C30 134.367 30.0675 134.24 30.1877 134.146C30.3079 134.053 30.4709 134 30.6409 134H60.3591C60.5291 134 60.6921 134.053 60.8123 134.146C60.9325 134.24 61 134.367 61 134.5C61 134.633 60.9325 134.76 60.8123 134.854C60.6921 134.947 60.5291 135 60.3591 135V135Z" fill="#E6E6E6"/>
<path d="M75.3612 138H30.6417C30.5575 138 30.4741 137.987 30.3962 137.962C30.3184 137.937 30.2476 137.9 30.188 137.854C30.1284 137.808 30.0811 137.752 30.0489 137.692C30.0166 137.631 30 137.566 30 137.5C30 137.434 30.0166 137.369 30.0489 137.308C30.0811 137.248 30.1284 137.192 30.188 137.146C30.2476 137.1 30.3184 137.063 30.3962 137.038C30.4741 137.013 30.5575 137 30.6417 137H75.3612C75.5307 137 75.6932 137.053 75.813 137.147C75.9327 137.241 76 137.368 76 137.5C76 137.632 75.9327 137.759 75.813 137.853C75.6932 137.947 75.5307 138 75.3612 138V138Z" fill="#E6E6E6"/>
<path d="M94.445 116H9.55495C8.87757 115.999 8.22816 115.73 7.74918 115.251C7.2702 114.772 7.00077 114.122 7 113.445V48.5549C7.00078 47.8775 7.27021 47.2281 7.74919 46.7491C8.22817 46.2702 8.87758 46.0008 9.55495 46H94.445C95.1224 46.0008 95.7718 46.2702 96.2508 46.7491C96.7298 47.2281 96.9992 47.8775 97 48.5549V113.445C96.9992 114.122 96.7298 114.772 96.2508 115.251C95.7718 115.73 95.1224 115.999 94.445 116V116Z" fill="white"/>
<path d="M94.1484 116H9.85164C9.09561 115.999 8.3708 115.699 7.83621 115.165C7.30161 114.632 7.00088 113.909 7 113.154V48.8458C7.00088 48.0913 7.30162 47.3679 7.83622 46.8344C8.37081 46.3009 9.09563 46.0008 9.85164 46H94.1484C94.9044 46.0008 95.6292 46.3009 96.1638 46.8344C96.6984 47.3679 96.9991 48.0913 97 48.8458V113.154C96.9991 113.909 96.6984 114.632 96.1638 115.165C95.6292 115.699 94.9044 115.999 94.1484 116ZM9.85164 46.6278C9.2624 46.6285 8.69748 46.8623 8.28082 47.2782C7.86415 47.694 7.62975 48.2577 7.62906 48.8458V113.154C7.62972 113.742 7.86409 114.306 8.28077 114.722C8.69744 115.138 9.26238 115.372 9.85164 115.372H94.1484C94.7376 115.372 95.3026 115.138 95.7193 114.722C96.1359 114.306 96.3703 113.742 96.3709 113.154V48.8458C96.3703 48.2577 96.1359 47.694 95.7192 47.2781C95.3025 46.8623 94.7376 46.6285 94.1484 46.6278L9.85164 46.6278Z" fill="#F0F0F0"/>
<path d="M7 103V113.478C7.00094 114.146 7.25085 114.787 7.69494 115.26C8.13904 115.733 8.74111 115.999 9.36916 116H94.6308C95.2589 115.999 95.861 115.733 96.3051 115.26C96.7492 114.787 96.9991 114.146 97 113.478V103H7Z" fill="#F7D7D5"/>
<path d="M8.39113 46.0467L8.05029 46.5791L96.8537 103.434L97.1945 102.901L8.39113 46.0467Z" fill="#F0F0F0"/>
<path d="M97.1044 46.0471L8.30103 102.902L8.64186 103.434L97.4452 46.5795L97.1044 46.0471Z" fill="#F0F0F0"/>
<path d="M171.999 185L167.934 185L166 170L172 170L171.999 185Z" fill="#A0616A"/>
<path d="M171.864 183.793L167.562 182.052L167.436 182L165.06 183.793C163.756 183.793 162.503 184.294 161.562 185.192C160.62 186.091 160.063 187.317 160.006 188.614C160 188.686 160 188.76 160 188.835V189H173V183.793H171.864Z" fill="#2F2E41"/>
<path d="M163 181.746L159.47 183L153 169.85L158.21 168L163 181.746Z" fill="#A0616A"/>
<path d="M162.329 180.367L157.913 180.152L157.782 180.145L156.218 182.566C155.047 182.987 154.08 183.854 153.519 184.986C152.959 186.118 152.847 187.428 153.208 188.642C153.225 188.71 153.249 188.779 153.272 188.848L153.325 189L165 184.799L163.349 180L162.329 180.367Z" fill="#2F2E41"/>
<path d="M173.6 120.831C177.189 120.693 172.744 149.01 172.744 149.01C172.744 149.01 174.044 173.872 173.768 175.177C173.493 176.481 173.734 180 173.734 180C173.03 178.733 165.777 179.689 165.777 179.689L164.79 154.492L159.752 134.303L152.767 147.836L159.461 168.608C159.461 168.608 162.173 171.092 161.884 172.074C161.596 173.056 154.494 175.27 153.189 175.32C151.884 175.37 152.474 173.729 152.41 172.114C152.347 170.499 146.206 155.529 144.046 150.436C141.887 145.342 143.566 138.16 144.668 132.941C145.771 127.723 151.571 117.929 151.571 117.929C158.771 109.888 170.012 120.969 173.6 120.831Z" fill="#536DFE"/>
<path d="M130.333 97.3381C130.525 97.7184 130.795 98.0504 131.124 98.3108C131.453 98.5712 131.833 98.7536 132.238 98.8452C132.642 98.9367 133.061 98.9352 133.464 98.8408C133.868 98.7463 134.247 98.5612 134.574 98.2984L143 104L142.974 98.5777L134.977 93.9947C134.515 93.4537 133.878 93.1073 133.186 93.0211C132.494 92.9349 131.796 93.1149 131.223 93.527C130.651 93.9391 130.244 94.5547 130.08 95.2571C129.916 95.9595 130.006 96.6999 130.333 97.3381V97.3381Z" fill="#A0616A"/>
<path d="M171.741 125C163.029 125 158.228 123.251 155.678 121.689C152.561 119.78 152.027 117.766 152.006 117.681L152 117.657L152.303 113.827L152.436 113.529C153.048 112.156 153.129 110.604 152.664 109.175L152.654 109.146L152.657 109.115L154.694 82.6175L161.903 80.2492L164 78.1358L173.338 78L174.639 80.6453L182 83.4247L178.383 105.015L176.65 108.012L177.347 111.276L177.343 111.306L175.068 124.92L174.943 124.926C173.821 124.976 172.754 125.001 171.741 125Z" fill="#3F3D56"/>
<path d="M148.589 108L145.073 105.902L144.853 105.582C144.405 104.934 143.813 104.4 143.124 104.024C142.434 103.648 141.667 103.44 140.883 103.416L140.842 103.415L136 100.55L138.007 94.6317L145.597 96.8888L150.889 83.6541C151.18 82.9272 151.665 82.2958 152.291 81.8299C152.917 81.3641 153.659 81.0821 154.434 81.0154C155.21 80.9487 155.988 81.0998 156.684 81.452C157.379 81.8042 157.964 82.3436 158.373 83.0103C158.792 83.7071 159.009 84.5079 159 85.3223V93.982L158.968 94.025L148.589 108Z" fill="#3F3D56"/>
<path d="M172.049 119.71C172.123 119.311 172.288 118.934 172.532 118.603C172.775 118.272 173.092 117.996 173.459 117.795C173.825 117.594 174.234 117.473 174.655 117.439C175.077 117.405 175.501 117.46 175.897 117.601L182.42 110L184 114.882L177.563 121.351C177.273 121.973 176.755 122.472 176.106 122.753C175.457 123.033 174.724 123.077 174.044 122.874C173.364 122.672 172.786 122.238 172.418 121.655C172.05 121.071 171.919 120.379 172.049 119.71V119.71Z" fill="#A0616A"/>
<path d="M182.371 119L178.041 114.689L180.797 108.004L184.791 102.575C180.535 100.512 177.341 95.6259 175.026 91.5808L175 91.5354L175.576 87.0408C175.711 85.9895 176.134 84.9955 176.799 84.1677C177.377 83.4479 178.12 82.8763 178.965 82.5008C179.81 82.1253 180.734 81.9568 181.658 82.0094C182.582 82.062 183.48 82.3341 184.277 82.803C185.074 83.272 185.747 83.924 186.238 84.7047L194 101.883L193.913 102.013L187.67 112.608L185.966 113.708L182.371 119Z" fill="#3F3D56"/>
<path d="M174.939 68.0531C174.65 70.1641 173.539 72.0737 171.849 73.3625C170.159 74.6514 168.029 75.2139 165.927 74.9265C163.824 74.6392 161.921 73.5255 160.636 71.8301C159.351 70.1347 158.788 67.9963 159.072 65.8846L159.087 65.7705C159.419 63.6871 160.553 61.8182 162.245 60.5668C163.936 59.3154 166.05 58.7819 168.13 59.0814C170.21 59.3809 172.089 60.4894 173.362 62.1677C174.636 63.846 175.201 65.9597 174.936 68.0527L174.939 68.0531Z" fill="#A0616A"/>
<path d="M173.684 72.5498C174.101 71.7066 174.53 70.8013 174.413 69.8687C174.296 68.9361 173.376 68.0447 172.473 68.3219C171.934 68.4876 171.526 69.0179 170.961 69.0451C170.185 69.0824 169.74 68.1984 169.498 67.4635L168.514 64.4702C167.569 65.2029 166.472 65.7191 165.304 65.9819C164.135 66.2446 162.922 66.2474 161.752 65.9902C160.838 65.7823 159.915 65.3771 159.379 64.612C158.843 63.847 158.846 62.6603 159.581 62.0818C159.942 61.7981 160.421 61.6903 160.766 61.3876C160.98 61.1999 161.127 60.9486 161.186 60.6711C161.245 60.3936 161.213 60.1046 161.094 59.8468C160.975 59.589 160.776 59.3761 160.526 59.2396C160.276 59.1032 159.988 59.0504 159.706 59.0892L162.184 58.7811L161.446 57.4525C161.726 57.6426 162.044 57.7722 162.378 57.8331C162.712 57.8941 163.055 57.885 163.385 57.8064C164.052 57.687 164.68 57.4139 165.332 57.2318C166.913 56.8301 168.583 56.9529 170.087 57.5814C171.592 58.2099 172.849 59.3097 173.668 60.7139C174.278 60.5113 174.935 60.4978 175.553 60.6753C176.171 60.8527 176.72 61.2127 177.127 61.7075C177.79 62.5451 177.971 63.6629 177.997 64.729C178.045 66.8311 177.584 68.9139 176.653 70.8016C176.386 71.4012 176.003 71.9424 175.525 72.3941C175.284 72.618 174.997 72.7868 174.684 72.8887C174.371 72.9906 174.039 73.0231 173.712 72.9839" fill="#2F2E41"/>
<path d="M45.0186 64.3913C45.1479 66.2287 45.6917 68.0135 46.6094 69.6128C48.5436 72.9944 51.8605 75.4427 55.4329 76.898C59.896 78.7161 64.8713 78.7722 69.6079 78.3667C74.0072 77.9902 78.3618 77.1174 82.7773 76.9375C86.1921 76.8287 89.6103 76.9099 93.0159 77.1806C99.6233 77.6475 106.203 78.5137 112.741 79.5639C114.511 79.8448 116.278 80.1466 118.041 80.4693C118.208 80.484 118.373 80.5145 118.534 80.5604C118.566 80.5734 118.617 80.5632 118.646 80.5816C118.7 80.615 118.431 80.497 118.594 80.6309C118.821 80.8678 119.023 81.1269 119.197 81.4042L121.612 84.4974C122.304 85.3845 122.947 86.4622 123.842 87.1614C124.473 87.6467 125.234 87.9351 126.029 87.9903C126.825 88.0455 127.619 87.865 128.311 87.4715C129.035 87.0165 129.612 86.3641 129.973 85.592C130.529 84.578 131.191 83.6259 131.95 82.752C134.822 79.416 138.815 77.3641 142.154 74.5573C143.771 73.2533 145.152 71.6825 146.235 69.9133C147.159 68.3123 147.733 66.5354 147.921 64.6984C148.321 60.9679 147.171 57.1635 145.237 53.9899C143.133 50.5804 140.111 47.8267 136.514 46.0415C132.473 43.9919 128.001 42.9936 123.518 42.4961C118.759 41.9679 113.945 41.9695 109.162 42.0229C103.795 42.0823 98.4379 42.3173 93.0903 42.7277C87.7353 43.1404 82.4015 43.7269 77.0888 44.4873C71.991 45.2169 66.8309 45.9774 61.8409 47.2684C57.4327 48.4089 53.0369 50.1916 49.7451 53.4216C46.8182 56.2936 44.7825 60.2236 45.0186 64.3913Z" fill="#6C63FF"/>
<path d="M82.019 64.9987C81.6055 64.9792 81.2144 64.8003 80.9242 64.4979C80.7488 64.3075 80.618 64.0788 80.5416 63.829C80.4653 63.5792 80.4454 63.3149 80.4835 63.056L80.5906 62.1916C80.6135 62.0075 80.5923 61.8205 80.5289 61.6466C80.4655 61.4728 80.3618 61.3174 80.2268 61.1938L79.5861 60.6071C79.3972 60.4419 79.2465 60.2355 79.1452 60.0031C79.0439 59.7706 78.9945 59.518 79.0005 59.2635C79.0145 58.8865 79.153 58.5256 79.3934 58.2398C79.6338 57.9541 79.9618 57.7605 80.3236 57.6907L81.2236 57.5156C81.4015 57.481 81.5686 57.4025 81.7103 57.287C81.8521 57.1714 81.9643 57.0223 82.0373 56.8524L82.3727 56.072C82.4926 55.7758 82.6899 55.5193 82.943 55.3306C83.196 55.1419 83.495 55.0284 83.8069 55.0027C84.1126 54.9849 84.417 55.0564 84.6846 55.209C84.9522 55.3616 85.172 55.5888 85.3185 55.8644L85.7588 56.6872C85.846 56.8501 85.9705 56.9888 86.1216 57.0914C86.2728 57.1939 86.446 57.2573 86.6264 57.276L87.4807 57.3644C87.7285 57.3843 87.9689 57.4605 88.1842 57.5877C88.3996 57.7148 88.5846 57.8897 88.7256 58.0994C88.9303 58.4128 89.025 58.7882 88.9944 59.164C88.9637 59.5398 88.8095 59.8938 88.5569 60.1681L87.9294 60.8516C87.8054 60.9867 87.7153 61.1506 87.6669 61.3293C87.6185 61.5079 87.6131 61.696 87.6514 61.8772L87.8322 62.7347C87.8901 62.9822 87.8938 63.2398 87.8428 63.4889C87.7918 63.738 87.6875 63.9723 87.5374 64.1751C87.3105 64.473 86.9914 64.6828 86.6326 64.7698C86.2737 64.8567 85.8967 64.8158 85.5636 64.6536L84.7341 64.2531C84.5704 64.1741 84.3905 64.137 84.2097 64.145C84.029 64.1531 83.8529 64.206 83.6966 64.2993L82.9049 64.7717C82.6368 64.9325 82.3294 65.0112 82.019 64.9987V64.9987Z" fill="white"/>
<path d="M95.0184 64.9987C94.7936 64.9883 94.5733 64.9304 94.3715 64.8286C94.1696 64.7267 93.9905 64.5832 93.8454 64.407C93.7004 64.2307 93.5925 64.0257 93.5286 63.8046C93.4647 63.5836 93.4461 63.3514 93.4741 63.1227L93.591 62.1805C93.6133 61.9998 93.5924 61.8162 93.5301 61.6456C93.4679 61.4749 93.3661 61.3223 93.2335 61.2009L92.5427 60.5685C92.3164 60.3615 92.1512 60.0937 92.0658 59.7955C91.9804 59.4973 91.9781 59.1806 92.0592 58.8812C92.1404 58.5817 92.3017 58.3115 92.5249 58.1011C92.7482 57.8907 93.0244 57.7484 93.3225 57.6905L94.2333 57.5133C94.4079 57.4793 94.5718 57.4024 94.711 57.2892C94.8501 57.1759 94.9603 57.0297 95.032 56.8632L95.4059 55.9935C95.5283 55.7092 95.7259 55.4656 95.9763 55.2903C96.2268 55.115 96.5201 55.015 96.8232 55.0016C97.1262 54.9881 97.4269 55.0617 97.6912 55.2142C97.9555 55.3666 98.173 55.5917 98.3189 55.8641L98.7646 56.6966C98.8501 56.8565 98.9722 56.9926 99.1205 57.0933C99.2688 57.194 99.4389 57.2562 99.6159 57.2745L100.538 57.37C100.84 57.4012 101.127 57.5184 101.367 57.7082C101.607 57.898 101.791 58.1529 101.897 58.444C102.003 58.7351 102.028 59.0509 101.968 59.3555C101.908 59.6602 101.766 59.9416 101.558 60.1679L100.923 60.8595C100.801 60.9921 100.713 61.153 100.665 61.3284C100.618 61.5039 100.613 61.6885 100.65 61.8665L100.846 62.7952C100.91 63.0989 100.89 63.4148 100.788 63.7074C100.686 64 100.506 64.2575 100.269 64.4508C100.032 64.6442 99.7461 64.7656 99.4448 64.8015C99.1435 64.8373 98.8385 64.7861 98.5642 64.6536L97.7257 64.2489C97.5649 64.1709 97.388 64.1342 97.2103 64.142C97.0326 64.1498 96.8594 64.2019 96.7058 64.2938L95.9046 64.7717C95.6364 64.9325 95.3289 65.0113 95.0184 64.9987V64.9987Z" fill="white"/>
<path opacity="0.2" d="M107.018 64.9987C106.794 64.9883 106.573 64.9304 106.371 64.8286C106.17 64.7267 105.99 64.5832 105.845 64.407C105.7 64.2307 105.592 64.0257 105.529 63.8046C105.465 63.5836 105.446 63.3514 105.474 63.1227L105.591 62.1805C105.613 61.9998 105.592 61.8162 105.53 61.6456C105.468 61.4749 105.366 61.3223 105.234 61.2009L104.543 60.5685C104.316 60.3615 104.151 60.0937 104.066 59.7955C103.98 59.4973 103.978 59.1806 104.059 58.8812C104.14 58.5817 104.302 58.3115 104.525 58.1011C104.748 57.8907 105.024 57.7485 105.322 57.6905L106.233 57.5133C106.408 57.4794 106.572 57.4024 106.711 57.2892C106.85 57.1759 106.96 57.0297 107.032 56.8632L107.406 55.9935C107.528 55.7092 107.726 55.4656 107.976 55.2903C108.227 55.115 108.52 55.015 108.823 55.0016C109.126 54.9881 109.427 55.0618 109.691 55.2142C109.956 55.3666 110.173 55.5917 110.319 55.8641L110.765 56.6966C110.85 56.8565 110.972 56.9926 111.121 57.0933C111.269 57.194 111.439 57.2562 111.616 57.2745L112.538 57.37C112.84 57.4012 113.127 57.5184 113.367 57.7082C113.607 57.898 113.791 58.1529 113.897 58.444C114.003 58.7351 114.028 59.0509 113.968 59.3555C113.908 59.6602 113.766 59.9416 113.558 60.1679L112.923 60.8596C112.801 60.9921 112.713 61.153 112.665 61.3284C112.618 61.5039 112.613 61.6886 112.65 61.8665L112.846 62.7952C112.91 63.0989 112.89 63.4149 112.788 63.7074C112.686 64 112.506 64.2575 112.269 64.4509C112.032 64.6442 111.746 64.7656 111.445 64.8015C111.144 64.8373 110.839 64.7861 110.564 64.6536L109.726 64.2489C109.565 64.1709 109.388 64.1342 109.21 64.142C109.033 64.1498 108.859 64.2019 108.706 64.2938L107.905 64.7717C107.636 64.9325 107.329 65.0113 107.018 64.9987V64.9987Z" fill="black"/>
<path d="M69.7165 64.9987C69.5142 64.9883 69.316 64.9304 69.1343 64.8286C68.9526 64.7267 68.7914 64.5832 68.6609 64.407C68.5303 64.2307 68.4332 64.0257 68.3757 63.8046C68.3182 63.5836 68.3015 63.3514 68.3267 63.1227L68.4319 62.1805C68.4519 61.9998 68.4332 61.8162 68.3771 61.6456C68.3211 61.4749 68.2295 61.3223 68.1102 61.2009L67.4884 60.5685C67.2848 60.3615 67.1361 60.0937 67.0592 59.7955C66.9823 59.4973 66.9803 59.1806 67.0533 58.8812C67.1263 58.5817 67.2715 58.3115 67.4724 58.1011C67.6733 57.8907 67.922 57.7485 68.1902 57.6905L69.01 57.5133C69.1671 57.4794 69.3146 57.4024 69.4399 57.2892C69.5651 57.1759 69.6643 57.0297 69.7288 56.8632L70.0653 55.9935C70.1754 55.7092 70.3533 55.4656 70.5787 55.2903C70.8041 55.115 71.0681 55.015 71.3408 55.0016C71.6136 54.9881 71.8842 55.0618 72.1221 55.2142C72.36 55.3666 72.5557 55.5917 72.687 55.8641L73.0881 56.6966C73.1651 56.8565 73.275 56.9926 73.4085 57.0933C73.542 57.194 73.695 57.2562 73.8543 57.2745L74.6841 57.37C74.9558 57.4012 75.2143 57.5184 75.4305 57.7082C75.6467 57.898 75.8119 58.1529 75.9075 58.444C76.003 58.7351 76.0251 59.0509 75.9712 59.3555C75.9173 59.6602 75.7896 59.9416 75.6025 60.1679L75.031 60.8595C74.9213 60.9921 74.8416 61.153 74.7988 61.3284C74.7559 61.5039 74.7513 61.6886 74.7853 61.8665L74.9616 62.7952C75.0193 63.0989 75.0012 63.4149 74.9094 63.7074C74.8176 64 74.6557 64.2575 74.4421 64.4509C74.2284 64.6442 73.9715 64.7656 73.7003 64.8015C73.4292 64.8373 73.1547 64.7861 72.9078 64.6536L72.1531 64.2489C72.0084 64.1709 71.8492 64.1342 71.6893 64.142C71.5293 64.1498 71.3735 64.2019 71.2352 64.2938L70.5141 64.7717C70.2728 64.9325 69.996 65.0113 69.7165 64.9987V64.9987Z" fill="white"/>
<path opacity="0.2" d="M119.717 63.9988C119.514 63.9895 119.316 63.9374 119.134 63.8457C118.953 63.754 118.791 63.6249 118.661 63.4663C118.53 63.3077 118.433 63.1231 118.376 62.9242C118.318 62.7253 118.302 62.5163 118.327 62.3105L118.432 61.4625C118.452 61.2998 118.433 61.1346 118.377 60.981C118.321 60.8274 118.229 60.6901 118.11 60.5808L117.488 60.0116C117.285 59.8253 117.136 59.5843 117.059 59.316C116.982 59.0476 116.98 58.7625 117.053 58.493C117.126 58.2235 117.271 57.9804 117.472 57.791C117.673 57.6016 117.922 57.4736 118.19 57.4214L119.01 57.262C119.167 57.2314 119.315 57.1622 119.44 57.0603C119.565 56.9583 119.664 56.8267 119.729 56.6768L120.065 55.8941C120.175 55.6383 120.353 55.4191 120.579 55.2613C120.804 55.1035 121.068 55.0135 121.341 55.0014C121.614 54.9893 121.884 55.0556 122.122 55.1928C122.36 55.3299 122.556 55.5325 122.687 55.7777L123.088 56.527C123.165 56.6708 123.275 56.7934 123.408 56.884C123.542 56.9746 123.695 57.0306 123.854 57.0471L124.684 57.133C124.956 57.1611 125.214 57.2666 125.431 57.4374C125.647 57.6082 125.812 57.8376 125.907 58.0996C126.003 58.3616 126.025 58.6458 125.971 58.92C125.917 59.1942 125.79 59.4474 125.603 59.6512L125.031 60.2736C124.921 60.3929 124.842 60.5377 124.799 60.6956C124.756 60.8535 124.751 61.0197 124.785 61.1799L124.962 62.0157C125.019 62.289 125.001 62.5734 124.909 62.8367C124.818 63.1 124.656 63.3318 124.442 63.5058C124.228 63.6798 123.971 63.7891 123.7 63.8213C123.429 63.8536 123.155 63.8075 122.908 63.6883L122.153 63.324C122.008 63.2538 121.849 63.2208 121.689 63.2278C121.529 63.2349 121.373 63.2817 121.235 63.3644L120.514 63.7945C120.273 63.9392 119.996 64.0101 119.717 63.9988Z" fill="black"/>
<path d="M198.418 169.282L198.779 161.114C202.54 159.09 206.735 158.021 211 158C205.13 162.831 205.864 172.144 201.884 178.64C200.628 180.657 198.936 182.363 196.936 183.633C194.935 184.902 192.676 185.701 190.327 185.972L185.415 189C184.741 185.217 184.889 181.333 185.85 177.613C186.811 173.894 188.562 170.429 190.981 167.456C192.355 165.802 193.93 164.328 195.67 163.071C196.846 166.193 198.418 169.282 198.418 169.282Z" fill="#F0CF86"/>
<path d="M226.623 190H94.3773C94.2772 190 94.1813 189.947 94.1105 189.854C94.0398 189.76 94 189.633 94 189.5C94 189.367 94.0398 189.24 94.1105 189.146C94.1813 189.053 94.2772 189 94.3773 189H226.623C226.723 189 226.819 189.053 226.89 189.146C226.96 189.24 227 189.367 227 189.5C227 189.633 226.96 189.76 226.89 189.854C226.819 189.947 226.723 190 226.623 190V190Z" fill="#CACACA"/>
</svg>
