<svg width="30" height="30" viewBox="0 0 30 30" fill="none" xmlns="http://www.w3.org/2000/svg">
<path d="M25.0001 9.99964L17.5001 3.42464C16.8126 2.8097 15.9225 2.46973 15.0001 2.46973C14.0777 2.46973 13.1876 2.8097 12.5001 3.42464L5.00012 9.99964C4.60308 10.3547 4.28624 10.7903 4.07071 11.2774C3.85517 11.7646 3.74588 12.292 3.75012 12.8246V23.7496C3.75012 24.7442 4.14521 25.698 4.84847 26.4013C5.55173 27.1046 6.50556 27.4996 7.50012 27.4996H22.5001C23.4947 27.4996 24.4485 27.1046 25.1518 26.4013C25.855 25.698 26.2501 24.7442 26.2501 23.7496V12.8121C26.2526 12.2816 26.1424 11.7566 25.927 11.2717C25.7115 10.7869 25.3956 10.3533 25.0001 9.99964ZM17.5001 24.9996H12.5001V18.7496C12.5001 18.4181 12.6318 18.1002 12.8662 17.8658C13.1007 17.6313 13.4186 17.4996 13.7501 17.4996H16.2501C16.5816 17.4996 16.8996 17.6313 17.134 17.8658C17.3684 18.1002 17.5001 18.4181 17.5001 18.7496V24.9996ZM23.7501 23.7496C23.7501 24.0812 23.6184 24.3991 23.384 24.6335C23.1496 24.8679 22.8316 24.9996 22.5001 24.9996H20.0001V18.7496C20.0001 17.7551 19.605 16.8013 18.9018 16.098C18.1985 15.3947 17.2447 14.9996 16.2501 14.9996H13.7501C12.7556 14.9996 11.8017 15.3947 11.0985 16.098C10.3952 16.8013 10.0001 17.7551 10.0001 18.7496V24.9996H7.50012C7.1686 24.9996 6.85066 24.8679 6.61624 24.6335C6.38181 24.3991 6.25012 24.0812 6.25012 23.7496V12.8121C6.25034 12.6347 6.28836 12.4593 6.36164 12.2976C6.43492 12.136 6.54178 11.9918 6.67512 11.8746L14.1751 5.31214C14.4032 5.11174 14.6965 5.00122 15.0001 5.00122C15.3038 5.00122 15.597 5.11174 15.8251 5.31214L23.3251 11.8746C23.4585 11.9918 23.5653 12.136 23.6386 12.2976C23.7119 12.4593 23.7499 12.6347 23.7501 12.8121V23.7496Z" fill="black"/>
</svg>
