<svg width="245" height="167" viewBox="0 0 245 167" fill="none" xmlns="http://www.w3.org/2000/svg">
<path d="M0 55.8161C42.2889 29.5226 57.9175 123.626 112.617 143C199.662 143 221.098 -0.461288 245 72.8839C245 20.3093 185.704 8.76452 121.811 0C83.149 87.1839 24.3621 13.8387 0 55.8161Z" fill="#FCFBFF"/>
<path d="M55.7912 161.589H60.5165L62.7649 143.382L55.79 143.382L55.7912 161.589Z" fill="#FFB8B8"/>
<path d="M54.5854 160.049L63.8919 160.049H63.8923C64.6711 160.049 65.4424 160.202 66.1619 160.5C66.8815 160.797 67.5353 161.234 68.0861 161.784C68.6368 162.334 69.0737 162.987 69.3717 163.706C69.6698 164.425 69.8232 165.195 69.8232 165.973V166.166L54.5857 166.166L54.5854 160.049Z" fill="#2F2E41"/>
<path d="M36.5182 161.589H41.2436L43.492 143.382L36.5171 143.382L36.5182 161.589Z" fill="#FFB8B8"/>
<path d="M35.3125 160.049L44.6189 160.049H44.6193C45.3982 160.049 46.1694 160.202 46.889 160.5C47.6085 160.797 48.2624 161.234 48.8131 161.784C49.3638 162.334 49.8007 162.987 50.0988 163.706C50.3968 164.425 50.5502 165.195 50.5502 165.973V166.166L35.3128 166.166L35.3125 160.049Z" fill="#2F2E41"/>
<path d="M37.427 153.772C36.9857 153.771 36.5615 153.602 36.2404 153.3C35.9194 152.998 35.7256 152.585 35.6984 152.145L31.5093 83.7139L59.701 86.7524L63.8583 148.093C63.8854 148.511 63.7606 148.924 63.507 149.258C63.2534 149.591 62.8879 149.822 62.4777 149.907L56.8841 151.058C56.6578 151.105 56.4244 151.106 56.1977 151.061C55.971 151.016 55.7556 150.927 55.564 150.798C55.3724 150.669 55.2086 150.502 55.0822 150.309C54.9558 150.116 54.8693 149.9 54.8278 149.672L47.9932 112.247C47.9874 112.201 47.9636 112.158 47.9268 112.129C47.8901 112.099 47.8433 112.085 47.7964 112.09C47.7496 112.09 47.7044 112.108 47.6702 112.14C47.636 112.172 47.6152 112.215 47.612 112.262L43.5315 150.891C43.4961 151.23 43.3614 151.55 43.1443 151.813C42.9273 152.075 42.6375 152.268 42.3113 152.367L37.9346 153.697C37.77 153.747 37.599 153.772 37.427 153.772V153.772Z" fill="#F0CF86"/>
<path d="M37.9614 33.3346C43.19 33.3346 47.4287 29.1006 47.4287 23.8777C47.4287 18.6549 43.19 14.4209 37.9614 14.4209C32.7328 14.4209 28.4941 18.6549 28.4941 23.8777C28.4941 29.1006 32.7328 33.3346 37.9614 33.3346Z" fill="#FFB8B8"/>
<path d="M31.2691 87.9535L24.8739 53.6193C24.2021 50.0662 24.8804 46.3905 26.7765 43.3103C28.6726 40.23 31.6501 37.9665 35.1275 36.9619C37.1164 36.3814 39.2062 36.2307 41.258 36.5198C43.3097 36.8089 45.2763 37.5312 47.0268 38.6385C48.7774 39.7458 50.2718 41.2128 51.4106 42.9419C52.5495 44.671 53.3066 46.6226 53.6317 48.6667L59.7443 87.1128L31.2691 87.9535Z" fill="#867D7F"/>
<path d="M35.348 93.9913C34.8751 93.6794 34.4764 93.2677 34.1801 92.7852C33.8837 92.3028 33.6968 91.7613 33.6326 91.1989C33.5684 90.6365 33.6284 90.0669 33.8085 89.5302C33.9885 88.9935 34.2841 88.5028 34.6746 88.0925L28.3545 75.8672L35.4719 76.6259L40.3824 88.119C41.0289 88.8198 41.3955 89.7332 41.4128 90.6861C41.4301 91.6389 41.0969 92.565 40.4764 93.2888C39.8558 94.0126 38.991 94.4839 38.0458 94.6134C37.1006 94.7429 36.1407 94.5215 35.348 93.9913L35.348 93.9913Z" fill="#FFB8B8"/>
<path d="M33.5897 85.9461C33.3472 85.9231 33.1121 85.8494 32.9 85.7297C32.6878 85.61 32.5032 85.4471 32.3581 85.2515L24.8216 75.0742C22.2444 71.5948 21.0201 67.2988 21.3765 62.9853L22.5487 48.7728C22.4488 48.0462 22.4932 47.3071 22.6794 46.5976C22.8657 45.8882 23.19 45.2223 23.634 44.6382C24.078 44.054 24.6329 43.563 25.2669 43.1932C25.901 42.8234 26.6018 42.582 27.3293 42.4829C28.0568 42.3837 28.7967 42.4288 29.5068 42.6155C30.2169 42.8022 30.8831 43.1268 31.4675 43.5708C32.0519 44.0149 32.5429 44.5696 32.9126 45.2033C33.2822 45.837 33.5232 46.5373 33.6218 47.2641L32.9362 69.8732L37.7689 81.3157C37.9067 81.6441 37.9403 82.0068 37.865 82.3549C37.7897 82.7029 37.6093 83.0194 37.3481 83.2617L34.93 85.4936C34.6705 85.7329 34.3443 85.8874 33.9947 85.9367C33.8605 85.9558 33.7246 85.9589 33.5897 85.9461V85.9461Z" fill="#867D7F"/>
<path d="M92.4804 18.7249C92.3773 19.2814 92.1532 19.8086 91.824 20.2694C91.4948 20.7301 91.0684 21.1131 90.575 21.3914C90.0816 21.6697 89.5331 21.8366 88.9681 21.8803C88.4032 21.924 87.8355 21.8434 87.3051 21.6442L78.499 32.2242L76.4233 25.3814L85.104 16.3835C85.498 15.5156 86.1971 14.8223 87.0688 14.4349C87.9404 14.0474 88.924 13.9928 89.8333 14.2814C90.7425 14.57 91.5142 15.1818 92.0021 16.0007C92.49 16.8197 92.6602 17.7889 92.4804 18.7249V18.7249Z" fill="#FFB8B8"/>
<path d="M85.7491 23.7807C85.8225 24.0128 85.8461 24.2577 85.8186 24.4995C85.791 24.7414 85.7127 24.9747 85.589 25.1844L79.1451 36.0849C76.9424 39.8121 73.4594 42.6132 69.3439 43.9672L55.7847 48.4303C55.1538 48.806 54.455 49.0537 53.7282 49.1593C53.0013 49.2649 52.2608 49.2264 51.5489 49.0458C50.837 48.8653 50.1677 48.5464 49.5793 48.1073C48.9909 47.6682 48.495 47.1175 48.1198 46.4867C47.7447 45.856 47.4977 45.1576 47.393 44.4314C47.2883 43.7052 47.328 42.9656 47.5097 42.2547C47.6914 41.5438 48.0117 40.8758 48.4521 40.2886C48.8926 39.7015 49.4446 39.2069 50.0765 38.8331L71.1867 30.6486L79.851 21.7419C80.1 21.4871 80.4213 21.3148 80.7715 21.2483C81.1217 21.1819 81.4839 21.2244 81.8091 21.3703L84.8094 22.7243C85.1311 22.8697 85.4008 23.1095 85.5826 23.4119C85.6525 23.5278 85.7083 23.6516 85.7491 23.7807V23.7807Z" fill="#867D7F"/>
<path opacity="0.1" d="M30.2827 56.6689L30.6682 68.99L37.7687 81.3154L31.8396 67.5797L30.2827 56.6689Z" fill="black"/>
<path d="M39.0461 25.6545C39.6407 25.7316 40.2432 25.5907 40.7416 25.2577C41.24 24.9247 41.6005 24.4224 41.7561 23.8439C41.9062 23.1782 42.2348 22.5658 42.7068 22.0724C43.1788 21.5791 43.7764 21.2233 44.4353 21.0434C46.172 20.647 48.2946 21.4635 49.5672 20.1492C49.8396 19.8491 50.0367 19.4887 50.1423 19.0976C50.2479 18.7065 50.2589 18.2959 50.1744 17.8997C49.94 16.6224 49.0253 15.6575 48.03 14.8858C45.9353 13.2694 43.4005 12.3231 40.7579 12.1711C39.39 12.1315 38.0212 12.1995 36.664 12.3745C35.2429 12.4641 33.8374 12.7207 32.4765 13.139C30.926 13.7234 29.5481 14.6888 28.47 15.9459C27.392 17.2031 26.6485 18.7114 26.3085 20.3315C25.9974 21.9566 26.0452 23.6299 26.4484 25.2346C26.8517 26.8393 27.6007 28.3368 28.6432 29.6225C29.8913 31.1749 31.5005 32.3987 33.3306 33.1874C33.7666 33.393 34.2662 33.4183 34.7207 33.2578C35.8606 32.8051 35.6743 31.3946 35.1546 30.4538C34.5984 29.447 33.7425 28.4723 34.1898 27.247C34.414 26.6789 34.8445 26.216 35.3952 25.9509C36.5284 25.3736 37.7959 25.5102 39.0142 25.6508L39.0461 25.6545Z" fill="#2F2E41"/>
<path d="M210.563 37.9257H93.383C91.6968 37.9238 90.0802 37.2539 88.8879 36.0629C87.6955 34.8719 87.0249 33.257 87.0229 31.5727V6.54545C87.0249 4.8611 87.6955 3.24627 88.8879 2.05525C90.0802 0.864236 91.6968 0.194285 93.383 0.192383H210.563C212.249 0.194319 213.865 0.864278 215.058 2.05529C216.25 3.2463 216.921 4.86111 216.923 6.54545V31.5727C216.921 33.257 216.25 34.8718 215.058 36.0628C213.865 37.2539 212.249 37.9238 210.563 37.9257Z" fill="#F7D7D5"/>
<path d="M210.563 38.1184H93.3834C91.6461 38.1164 89.9805 37.4262 88.752 36.1991C87.5235 34.972 86.8325 33.3082 86.8306 31.5728V6.54558C86.8325 4.81019 87.5235 3.14643 88.752 1.91932C89.9805 0.692208 91.6461 0.00195361 93.3834 0H210.563C212.3 0.00195361 213.966 0.692208 215.194 1.91932C216.423 3.14643 217.114 4.81019 217.116 6.54558V31.5728C217.114 33.3082 216.423 34.972 215.194 36.1991C213.966 37.4262 212.3 38.1164 210.563 38.1184ZM93.3834 0.770068C91.8505 0.771801 90.3808 1.38085 89.2969 2.46359C88.2129 3.54634 87.6032 5.01435 87.6015 6.54558V31.5728C87.6032 33.104 88.2129 34.5721 89.2969 35.6548C90.3808 36.7376 91.8505 37.3466 93.3834 37.3483H210.563C212.096 37.3466 213.565 36.7376 214.649 35.6548C215.733 34.5721 216.343 33.104 216.345 31.5728V6.54558C216.343 5.01435 215.733 3.54634 214.649 2.46359C213.565 1.38085 212.096 0.771801 210.563 0.770068H93.3834Z" fill="#3F3D56"/>
<path d="M196.301 31.7651H107.645C105.959 31.7632 104.342 31.0932 103.15 29.9022C101.958 28.7112 101.287 27.0964 101.285 25.412V12.3208C101.287 10.6365 101.958 9.02166 103.15 7.83064C104.342 6.63963 105.959 5.96968 107.645 5.96777H196.301C197.987 5.96968 199.604 6.63963 200.796 7.83064C201.988 9.02166 202.659 10.6365 202.661 12.3208V25.412C202.659 27.0964 201.988 28.7112 200.796 29.9022C199.604 31.0932 197.987 31.7632 196.301 31.7651Z" fill="#F2F2F2"/>
<path d="M126.724 24.7089C130.924 24.7089 134.33 21.3073 134.33 17.1113C134.33 12.9152 130.924 9.51367 126.724 9.51367C122.523 9.51367 119.118 12.9152 119.118 17.1113C119.118 21.3073 122.523 24.7089 126.724 24.7089Z" fill="#FF6584"/>
<path d="M190.791 30.9979L180.055 22.0036L169.505 13.1646C169.226 12.9313 168.874 12.8038 168.511 12.8045C168.147 12.8052 167.796 12.9341 167.518 13.1684L157.002 22.048L154.433 24.217L150.56 20.9722L138.789 11.1111C138.511 10.8778 138.159 10.7503 137.795 10.751C137.432 10.7517 137.081 10.8806 136.803 11.1149L125.07 21.0212L113.153 31.0835C113.093 31.1344 113.05 31.2027 113.029 31.2791C113.009 31.3554 113.013 31.4361 113.04 31.5102C113.067 31.5843 113.117 31.6483 113.182 31.6934C113.247 31.7386 113.324 31.7627 113.403 31.7626L137.836 31.7155L145.57 31.7007L145.494 31.7646L168.547 31.7202L190.544 31.6779C190.623 31.6777 190.7 31.6533 190.765 31.6079C190.83 31.5626 190.879 31.4984 190.906 31.4242C190.933 31.3499 190.936 31.2692 190.916 31.193C190.895 31.1167 190.852 31.0486 190.791 30.9979V30.9979Z" fill="#3F3D56"/>
<path d="M91.3936 166.719H17.3855C17.2832 166.719 17.1852 166.679 17.1129 166.607C17.0406 166.534 17 166.436 17 166.334C17 166.232 17.0406 166.134 17.1129 166.062C17.1852 165.99 17.2832 165.949 17.3855 165.949H91.3936C91.4959 165.949 91.5939 165.99 91.6662 166.062C91.7385 166.134 91.7791 166.232 91.7791 166.334C91.7791 166.436 91.7385 166.534 91.6662 166.607C91.5939 166.679 91.4959 166.719 91.3936 166.719Z" fill="#3F3D56"/>
</svg>
