<svg width="291" height="303" viewBox="0 0 291 303" fill="none" xmlns="http://www.w3.org/2000/svg">
<g clip-path="url(#clip0_455_6264)">
<path d="M258.535 230.501L258.529 230.637L265.361 302.88H215.507L209.045 258.511L206.201 301.743L155.005 301.174L160.443 244.415L165.068 218.105V218.1L165.762 214.141H257.175L257.295 215.574L258.535 230.501Z" fill="#2F2E41"/>
<path d="M126.786 272.381C132.066 273.343 137.571 267.397 139.083 259.1C139.745 255.468 139.531 251.987 138.639 249.141L139.449 244.358L153.035 180.017C153.035 180.017 178.053 129.972 178.052 121.284C178.051 112.597 170.815 108.336 170.815 108.336L161.023 108.427L130.315 183.428L124.785 238.85L123.89 246.454C122.051 248.803 120.624 251.984 119.963 255.616C118.451 263.913 121.506 271.419 126.786 272.381Z" fill="#FFB6B6"/>
<path d="M226.395 77.3334L217.294 56.2861L187.714 61.4057L185.723 86.1684L226.395 77.3334Z" fill="#FFB6B6"/>
<path opacity="0.1" d="M226.395 77.3334L217.294 56.2861L187.714 61.4057L185.723 86.1684L226.395 77.3334Z" fill="black"/>
<path d="M290.675 121.134C290.675 121.134 269.628 81.8841 265.646 77.9021C263.873 76.1295 261.087 76.1048 258.539 76.6215L229.24 66.5252L219.309 60.9453L218.655 71.5611L186.051 77.4131C186.232 70.9391 187.145 68.4767 187.145 68.4767L175.2 82.4529L151.877 93.8298L151.89 93.9322C150.178 94.5297 148.555 95.552 147.326 97.2429C142.775 103.5 130.261 179.725 130.261 179.725L156.996 185.414L160.635 162.581L163.254 183.139L165.245 221.536C165.245 221.536 201.651 252.822 219.285 241.445C236.919 230.068 258.535 230.637 258.535 230.637L259.075 212.839C259.459 212.226 259.673 211.865 259.673 211.865L259.104 148.732V131.933C263.438 137.971 268.667 143.163 274.747 145.595C294.657 153.559 290.675 121.134 290.675 121.134V121.134Z" fill="#E6E6E6"/>
<path d="M199.412 65.109C214.441 65.109 226.625 52.9254 226.625 37.8963C226.625 22.8671 214.441 10.6836 199.412 10.6836C184.383 10.6836 172.199 22.8671 172.199 37.8963C172.199 52.9254 184.383 65.109 199.412 65.109Z" fill="#FFB6B6"/>
<path d="M218.934 45.587C218.934 45.587 221.3 37.3048 226.624 37.8964C231.949 38.488 233.132 33.7554 231.949 31.389C230.765 29.0227 228.399 17.1911 228.399 17.1911C228.399 17.1911 229.582 8.90899 222.483 7.72583C215.384 6.54267 213.018 5.35951 211.835 2.99319C210.652 0.626864 192.904 -1.73946 186.989 1.81003C181.073 5.35951 176.34 12.1697 172.199 14.0888C168.058 16.008 164.508 19.5574 166.875 25.4732C169.241 31.389 172.673 42.9591 172.673 42.9591C172.673 42.9591 178.706 40.8543 179.89 44.4038C181.073 47.9533 176.34 43.2206 182.256 33.7554C188.172 24.2901 188.172 14.8248 197.637 18.3743C207.102 21.9238 217.751 20.7406 216.568 27.8396C215.384 34.9385 218.934 45.587 218.934 45.587V45.587Z" fill="#2F2E41"/>
<path d="M217.27 261.319H10.5994C4.75478 261.319 0 256.564 0 250.719V140.936C0 135.092 4.75478 130.337 10.5994 130.337H217.27C223.115 130.337 227.87 135.092 227.87 140.936V250.719C227.87 256.564 223.115 261.319 217.27 261.319Z" fill="white"/>
<path d="M217.27 261.319H10.5994C4.75478 261.319 0 256.564 0 250.719V140.936C0 135.092 4.75478 130.337 10.5994 130.337H217.27C223.115 130.337 227.87 135.092 227.87 140.936V250.719C227.87 256.564 223.115 261.319 217.27 261.319ZM10.5994 132.107C5.73098 132.107 1.77002 136.068 1.77002 140.936V250.719C1.77002 255.588 5.73098 259.549 10.5994 259.549H217.27C222.139 259.549 226.1 255.588 226.1 250.719V140.936C226.1 136.068 222.139 132.107 217.27 132.107H10.5994Z" fill="#3F3D56"/>
<path d="M201.319 143.612C202.785 143.612 203.974 142.423 203.974 140.957C203.974 139.49 202.785 138.302 201.319 138.302C199.853 138.302 198.664 139.49 198.664 140.957C198.664 142.423 199.853 143.612 201.319 143.612Z" fill="#3F3D56"/>
<path d="M208.399 143.612C209.866 143.612 211.054 142.423 211.054 140.957C211.054 139.49 209.866 138.302 208.399 138.302C206.933 138.302 205.744 139.49 205.744 140.957C205.744 142.423 206.933 143.612 208.399 143.612Z" fill="#3F3D56"/>
<path d="M215.479 143.612C216.946 143.612 218.134 142.423 218.134 140.957C218.134 139.49 216.946 138.302 215.479 138.302C214.013 138.302 212.824 139.49 212.824 140.957C212.824 142.423 214.013 143.612 215.479 143.612Z" fill="#3F3D56"/>
<path d="M14.9802 138.229C14.248 138.229 13.6523 139.633 13.6523 141.358C13.6523 142.199 13.7902 142.977 14.0405 143.552C14.2929 144.161 14.6236 144.487 14.9802 144.487H213.696C214.428 144.487 215.024 143.083 215.024 141.358C215.024 140.517 214.886 139.739 214.635 139.164C214.383 138.555 214.052 138.229 213.696 138.229H14.9802Z" fill="#E6E6E6"/>
<path d="M188.929 183.438V186.978H15.0454C14.5587 186.978 14.1162 186.783 13.7976 186.455C13.4701 186.137 13.2754 185.694 13.2754 185.208C13.2754 184.234 14.0719 183.438 15.0454 183.438H188.929Z" fill="#FF2958"/>
<path d="M211.497 176.8H193.797C191.845 176.8 190.257 175.212 190.257 173.26C190.257 171.307 191.845 169.72 193.797 169.72H211.497C213.449 169.72 215.037 171.307 215.037 173.26C215.037 175.212 213.449 176.8 211.497 176.8Z" fill="#E6E6E6"/>
<path d="M95.5604 158.215H16.3731C14.4211 158.215 12.833 156.627 12.833 154.675C12.833 152.722 14.4211 151.135 16.3731 151.135H95.5604C97.5123 151.135 99.1004 152.722 99.1004 154.675C99.1004 156.627 97.5123 158.215 95.5604 158.215Z" fill="#E6E6E6"/>
<path d="M15.0453 223.706C14.3133 223.706 13.7178 224.302 13.7178 225.034C13.7178 225.391 13.8556 225.721 14.1058 225.964C14.3582 226.223 14.6888 226.361 15.0453 226.361H213.709C214.441 226.361 215.037 225.766 215.037 225.034C215.037 224.677 214.899 224.346 214.649 224.103C214.396 223.844 214.066 223.706 213.709 223.706H15.0453Z" fill="#E6E6E6"/>
<path d="M120.783 223.264V226.804H15.0454C14.5587 226.804 14.1162 226.609 13.7976 226.282C13.4701 225.963 13.2754 225.52 13.2754 225.034C13.2754 224.06 14.0719 223.264 15.0454 223.264H120.783Z" fill="#FF2958"/>
<path d="M211.448 216.73H193.57C191.598 216.73 189.994 212.904 189.994 208.198C189.994 203.492 191.598 199.665 193.57 199.665H211.448C213.419 199.665 215.023 203.492 215.023 208.198C215.023 212.904 213.419 216.73 211.448 216.73Z" fill="#E6E6E6"/>
<path d="M242.483 67.2041C257.792 67.2041 270.201 55.0559 270.201 40.0703C270.201 25.0847 257.792 12.9365 242.483 12.9365C227.175 12.9365 214.766 25.0847 214.766 40.0703C214.766 55.0559 227.175 67.2041 242.483 67.2041Z" fill="#FF2958"/>
<path d="M251.891 26.3838C248.201 33.1031 244.511 39.8224 240.821 46.5417C238.469 42.3863 236.13 38.2236 233.772 34.0714C232.958 32.6374 230.743 33.9272 231.56 35.3648C234.293 40.1781 236.997 45.0074 239.73 49.8206C240.198 50.6436 241.48 50.6627 241.943 49.8206C245.997 42.4395 250.05 35.0583 254.104 27.6771C254.898 26.2308 252.686 24.9363 251.891 26.3838Z" fill="white"/>
<path d="M280.747 111.592L253.131 98.3812C253.131 98.3812 252.022 89.5393 246.843 86.3855C245.963 84.285 244.95 81.9774 244.03 80.149C241.755 75.6274 245.168 67.0947 242.323 67.0947C239.479 67.0947 235.275 76.0685 235.497 78.4716C235.668 80.3164 237.193 83.537 237.508 86.3563C234.039 87.6644 231.242 89.9064 229.402 91.6916C227.81 93.2364 227.218 95.5412 227.841 97.6705C229.644 103.841 234.15 116.584 240.617 116.584C249.15 116.584 251.425 114.878 251.425 114.878C251.425 114.878 269.059 137.063 282.143 138.769C295.226 140.476 280.747 111.592 280.747 111.592V111.592Z" fill="#FFB6B6"/>
</g>
<defs>
<clipPath id="clip0_455_6264">
<rect width="291" height="302.881" fill="white"/>
</clipPath>
</defs>
</svg>
