<svg width="311" height="447" viewBox="0 0 311 447" fill="none" xmlns="http://www.w3.org/2000/svg">
<path d="M-34.0979 447.001H309.617C309.857 447.001 310.086 446.906 310.255 446.736C310.424 446.567 310.52 446.338 310.52 446.098C310.52 445.859 310.424 445.63 310.255 445.461C310.086 445.291 309.857 445.196 309.617 445.196H-34.0979C-34.3371 445.196 -34.5666 445.291 -34.7358 445.461C-34.905 445.63 -35 445.859 -35 446.098C-35 446.338 -34.905 446.567 -34.7358 446.736C-34.5666 446.906 -34.3371 447.001 -34.0979 447.001Z" fill="#F0CF86"/>
<path d="M94.4417 233.853C94.3644 232.222 93.9305 230.628 93.1705 229.183C92.4104 227.738 91.3428 226.477 90.0428 225.489C88.7427 224.501 87.2418 223.81 85.6459 223.465C84.05 223.12 82.3978 223.129 80.8057 223.492L66.0359 202.677L51.1977 208.567L72.4684 237.669C73.2547 240.303 74.9799 242.557 77.3172 244.004C79.6545 245.452 82.4414 245.991 85.1499 245.521C87.8584 245.051 90.3003 243.603 92.0128 241.453C93.7254 239.302 94.5896 236.598 94.4417 233.853L94.4417 233.853Z" fill="#A0616A"/>
<path d="M78.2393 215.953L51.9789 171.787L62.6779 143.256L48.1063 104.397L47.5689 104.628C47.2166 104.779 38.9369 108.474 37.7098 121.705L20.9644 174.333L65.6556 232.311L78.2393 215.953Z" fill="#F0CF86"/>
<path d="M220.861 53.5838C219.241 53.787 217.685 54.3429 216.303 55.2124C214.921 56.0819 213.746 57.2438 212.862 58.6163C211.978 59.9889 211.405 61.5387 211.184 63.1565C210.964 64.7743 211.1 66.4209 211.585 67.9801L191.974 84.3151L198.994 98.6535L226.364 75.1964C228.93 74.2088 231.044 72.3144 232.306 69.8722C233.568 67.4301 233.891 64.6098 233.212 61.9458C232.534 59.2817 230.902 56.9591 228.626 55.4179C226.349 53.8768 223.587 53.2242 220.861 53.5838Z" fill="#A0616A"/>
<path d="M204.267 71.123L162.263 100.72L132.991 92.2585L95.3749 109.791L95.6463 110.309C95.824 110.648 100.148 118.618 113.435 118.818L167.2 131.444L221.549 82.4043L204.267 71.123Z" fill="#F0CF86"/>
<path d="M127.408 431.029H142.01L148.958 374.705L127.405 374.706L127.408 431.029Z" fill="#A0616A"/>
<path d="M156.742 426.856H124.279V444.588H170.172V440.286C170.172 436.725 168.757 433.309 166.239 430.79C163.72 428.271 160.304 426.856 156.742 426.856Z" fill="#2F2E41"/>
<path d="M69.0441 431.029H83.647L90.5935 374.705L69.0423 374.706L69.0441 431.029Z" fill="#A0616A"/>
<path d="M98.3788 426.856H65.9153V444.588H111.809V440.286C111.809 436.725 110.394 433.309 107.875 430.79C105.357 428.271 101.941 426.856 98.3788 426.856Z" fill="#2F2E41"/>
<path d="M63.8515 225.44L65.0423 308.817L66.2331 418.397L92.4376 416.015L105.539 264.747L122.215 416.015H149.267L151.991 263.556L142.463 230.205L63.8515 225.44Z" fill="#FCFBFF"/>
<path d="M145.075 230.714L149.067 230.541L130.524 128.394L138.116 97.52C138.511 95.9136 138.303 94.2184 137.531 92.7554C136.759 91.2925 135.477 90.1635 133.929 89.5823L120.269 84.4602L115.443 71.1885L77.3667 75.2914L76.4304 85.6636C72.3043 86.9869 38.3268 98.3026 40.6712 111.196C42.9851 123.922 56.6473 163.961 57.3412 165.99L59.7338 223.41L60.0281 223.558C60.3823 223.735 86.6269 236.639 115.138 236.637C125.179 236.636 135.506 235.035 145.075 230.714Z" fill="#F0CF86"/>
<path d="M73.8415 50.3547C66.579 37.0693 71.4616 20.4119 84.747 13.1495C98.0324 5.88701 114.69 10.7696 121.952 24.055C129.215 37.3404 124.332 53.9977 111.047 61.2602C97.7613 68.5227 81.1039 63.6401 73.8415 50.3547Z" fill="#A0616A"/>
<path d="M75.6912 63.7452C80.9158 69.3105 90.6187 66.3229 91.2994 58.7198C91.3528 58.1296 91.3489 57.5355 91.2879 56.9459C90.9364 53.5781 88.9907 50.5205 89.4568 46.9646C89.5623 46.0796 89.892 45.2362 90.4147 44.5143C94.5781 38.9391 104.351 47.0079 108.281 41.9609C110.69 38.8662 107.858 33.9937 109.707 30.5349C112.147 25.9698 119.375 28.2218 123.907 25.7217C128.95 22.94 128.649 15.2025 125.329 10.4961C121.28 4.75654 114.182 1.6939 107.172 1.25251C100.162 0.811123 93.2008 2.70605 86.6564 5.25647C79.2206 8.15426 71.8471 12.159 67.2712 18.6973C61.7065 26.6485 61.1709 37.3382 63.954 46.6357C65.6469 52.2914 71.4247 59.2004 75.6912 63.7452Z" fill="#2F2E41"/>
</svg>
