<svg width="46" height="47" viewBox="0 0 46 47" fill="none" xmlns="http://www.w3.org/2000/svg">
<path d="M22.9997 4.52441C12.4197 4.52441 3.83301 13.1111 3.83301 23.6911C3.83301 34.2711 12.4197 42.8577 22.9997 42.8577C33.5797 42.8577 42.1663 34.2711 42.1663 23.6911C42.1663 13.1111 33.5797 4.52441 22.9997 4.52441ZM22.9997 10.2744C26.1813 10.2744 28.7497 12.8427 28.7497 16.0244C28.7497 19.2061 26.1813 21.7744 22.9997 21.7744C19.818 21.7744 17.2497 19.2061 17.2497 16.0244C17.2497 12.8427 19.818 10.2744 22.9997 10.2744ZM22.9997 37.4911C18.208 37.4911 13.9722 35.0377 11.4997 31.3194C11.5572 27.5052 19.1663 25.4161 22.9997 25.4161C26.8138 25.4161 34.4422 27.5052 34.4997 31.3194C32.0272 35.0377 27.7913 37.4911 22.9997 37.4911Z" fill="#FCFBFF"/>
</svg>
