<svg width="283" height="209" viewBox="0 0 283 209" fill="none" xmlns="http://www.w3.org/2000/svg">
<path d="M236.882 138.075C384.642 228.428 134.751 206.711 81.5303 206.711C-62.1411 197.803 27.7996 141.89 27.7996 83.907C27.7996 25.9238 149.788 0 203.009 0C256.229 0 236.882 80.0918 236.882 138.075Z" fill="#F7D7D5"/>
<path d="M225.333 88.7763C225.265 88.7763 225.199 88.7553 225.143 88.716L132.957 23.9722C132.676 23.7761 132.343 23.6713 132.001 23.6718C131.66 23.6724 131.327 23.7784 131.047 23.9755L39.5248 88.7154C39.4525 88.7666 39.3629 88.7867 39.2758 88.7713C39.1887 88.7559 39.1112 88.7062 39.0605 88.6332C39.0097 88.5602 38.9897 88.4698 39.005 88.382C39.0203 88.2942 39.0696 88.2161 39.142 88.1649L130.664 23.4249C131.056 23.1491 131.522 23.0008 132 23C132.478 22.9992 132.945 23.146 133.338 23.4205L225.524 88.1642C225.582 88.2051 225.626 88.2637 225.649 88.3315C225.672 88.3992 225.673 88.4726 225.651 88.5409C225.63 88.6092 225.588 88.6688 225.531 88.7112C225.473 88.7535 225.404 88.7763 225.333 88.7763L225.333 88.7763Z" fill="#3F3D56"/>
<path d="M44.7546 91.0717L132.092 25.7969L220.092 95.7163L136.592 145.635L91.2586 135.214L44.7546 91.0717Z" fill="#262335"/>
<path d="M95.0852 176.467H51.9384C51.6735 176.467 51.4111 176.415 51.1662 176.313C50.9214 176.211 50.6988 176.061 50.5114 175.873C50.3239 175.684 50.1752 175.46 50.0737 175.213C49.9723 174.966 49.92 174.701 49.92 174.434C49.92 174.167 49.9723 173.902 50.0737 173.656C50.1752 173.409 50.3239 173.185 50.5114 172.996C50.6988 172.807 50.9214 172.657 51.1662 172.555C51.4111 172.453 51.6735 172.401 51.9384 172.401H95.0852C95.3501 172.401 95.6125 172.453 95.8574 172.555C96.1023 172.657 96.3248 172.807 96.5122 172.996C96.6997 173.185 96.8484 173.409 96.9499 173.656C97.0514 173.902 97.1036 174.167 97.1036 174.434C97.1036 174.701 97.0514 174.966 96.9499 175.213C96.8484 175.46 96.6997 175.684 96.5122 175.873C96.3248 176.061 96.1023 176.211 95.8574 176.313C95.6125 176.415 95.3501 176.467 95.0852 176.467Z" fill="#F50057"/>
<path d="M67.4185 167.727H51.9384C51.6735 167.727 51.4111 167.675 51.1662 167.573C50.9214 167.471 50.6988 167.321 50.5114 167.132C50.3239 166.944 50.1752 166.719 50.0737 166.473C49.9723 166.226 49.92 165.961 49.92 165.694C49.92 165.427 49.9723 165.162 50.0737 164.915C50.1752 164.669 50.3239 164.444 50.5114 164.256C50.6988 164.067 50.9214 163.917 51.1662 163.815C51.4111 163.713 51.6735 163.661 51.9384 163.661H67.4185C67.6835 163.661 67.9459 163.713 68.1907 163.815C68.4356 163.917 68.6581 164.067 68.8456 164.256C69.033 164.444 69.1818 164.669 69.2832 164.915C69.3847 165.162 69.4369 165.427 69.4369 165.694C69.4369 165.961 69.3847 166.226 69.2832 166.473C69.1818 166.719 69.033 166.944 68.8456 167.132C68.6581 167.321 68.4356 167.471 68.1907 167.573C67.9459 167.675 67.6835 167.727 67.4185 167.727Z" fill="#F50057"/>
<path d="M133.32 127.429C132.992 127.429 132.667 127.365 132.364 127.24L78.5001 104.701V34.1519C78.5008 33.528 78.7469 32.93 79.1843 32.4888C79.6218 32.0477 80.2148 31.7996 80.8335 31.7988H184.167C184.785 31.7996 185.378 32.0477 185.816 32.4888C186.253 32.93 186.499 33.528 186.5 34.1519V104.75L186.399 104.794L134.305 127.229C133.993 127.361 133.658 127.429 133.32 127.429Z" fill="#FCFBFF"/>
<path d="M133.32 127.597C132.97 127.597 132.624 127.529 132.3 127.395L78.3334 104.814V34.152C78.3341 33.4836 78.5978 32.8428 79.0664 32.3701C79.5351 31.8975 80.1706 31.6316 80.8334 31.6309H184.167C184.829 31.6316 185.465 31.8975 185.934 32.3701C186.402 32.8428 186.666 33.4836 186.667 34.152V104.862L134.371 127.383C134.038 127.524 133.681 127.597 133.32 127.597ZM79 104.365L132.554 126.774C133.054 126.978 133.613 126.975 134.11 126.765L186 104.418V34.152C185.999 33.6618 185.806 33.1919 185.462 32.8453C185.119 32.4987 184.653 32.3037 184.167 32.3032H80.8334C80.3473 32.3037 79.8814 32.4987 79.5377 32.8453C79.194 33.1919 79.0006 33.6618 79.0001 34.152L79 104.365Z" fill="#3F3D56"/>
<path d="M224.667 88.1035H224.6L186.333 104.582L133.977 127.127C133.772 127.214 133.553 127.259 133.331 127.26C133.109 127.262 132.889 127.219 132.683 127.134L78.6667 104.535L39.46 88.1304L39.4001 88.1035H39.3333C38.7147 88.1042 38.1216 88.3523 37.6842 88.7935C37.2467 89.2346 37.0007 89.8327 37 90.4566V192.646C37.0007 193.27 37.2467 193.868 37.6842 194.31C38.1216 194.751 38.7147 194.999 39.3333 195H224.667C225.285 194.999 225.878 194.751 226.316 194.31C226.753 193.868 226.999 193.27 227 192.646V90.4566C226.999 89.8327 226.753 89.2346 226.316 88.7935C225.878 88.3523 225.285 88.1042 224.667 88.1035ZM226.333 192.646C226.333 193.092 226.158 193.52 225.845 193.835C225.532 194.15 225.109 194.327 224.667 194.327H39.3333C38.8914 194.327 38.4675 194.15 38.155 193.835C37.8425 193.52 37.6668 193.092 37.6667 192.646V90.4566C37.6673 90.0219 37.8345 89.6043 38.1333 89.2911C38.4321 88.9779 38.8394 88.7933 39.27 88.7758L78.6667 105.261L132.427 127.756C133.009 127.995 133.661 127.991 134.24 127.746L186.333 105.311L224.733 88.7758C225.163 88.7945 225.57 88.9797 225.867 89.2927C226.165 89.6058 226.332 90.0226 226.333 90.4566V192.646Z" fill="#3F3D56"/>
<path d="M132.782 107.423C130.793 107.427 128.857 106.779 127.266 105.576L127.168 105.501L106.397 89.4643C105.436 88.721 104.628 87.794 104.022 86.7361C103.415 85.6782 103.021 84.5102 102.862 83.2987C102.703 82.0872 102.782 80.856 103.095 79.6754C103.408 78.4947 103.948 77.3878 104.685 76.4177C105.422 75.4477 106.341 74.6335 107.39 74.0218C108.439 73.41 109.598 73.0126 110.799 72.8522C112 72.6918 113.221 72.7716 114.392 73.0871C115.563 73.4026 116.66 73.9475 117.622 74.6907L131.076 85.0938L162.868 43.2811C163.606 42.3113 164.525 41.4975 165.574 40.8861C166.624 40.2747 167.782 39.8777 168.983 39.7177C170.185 39.5578 171.406 39.6381 172.576 39.954C173.747 40.2699 174.844 40.8152 175.806 41.5588L175.608 41.8295L175.811 41.5628C177.751 43.0662 179.02 45.2843 179.34 47.7303C179.66 50.1762 179.005 52.6504 177.519 54.61L140.123 103.792C139.258 104.925 138.146 105.842 136.873 106.472C135.6 107.102 134.2 107.427 132.782 107.423Z" fill="#F50057"/>
</svg>
