<svg width="211" height="208" viewBox="0 0 211 208" fill="none" xmlns="http://www.w3.org/2000/svg">
<g clip-path="url(#clip0_472_6098)">
<path d="M133.951 46.721H77.0959C75.8003 46.7226 74.5582 47.2406 73.642 48.1614C72.7259 49.0821 72.2105 50.3305 72.2089 51.6326V178.631L71.5573 178.831L57.6098 183.123C56.9488 183.326 56.2348 183.257 55.6246 182.931C55.0144 182.605 54.5578 182.049 54.3551 181.385L12.8676 45.1853C12.6657 44.521 12.7346 43.8032 13.059 43.1899C13.3834 42.5765 13.9368 42.1176 14.5977 41.9142L36.0908 35.2999L98.4 16.1314L119.893 9.5171C120.22 9.41593 120.564 9.38058 120.905 9.41306C121.245 9.44555 121.576 9.54525 121.878 9.70644C122.181 9.86763 122.449 10.0872 122.666 10.3525C122.884 10.6178 123.048 10.9236 123.148 11.2525L133.753 46.0661L133.951 46.721Z" fill="#F2F2F2"/>
<path d="M146.358 46.066L133.577 4.10763C133.364 3.40853 133.017 2.75839 132.554 2.19436C132.091 1.63033 131.522 1.16348 130.88 0.820471C130.238 0.477462 129.534 0.26502 128.81 0.195291C128.086 0.125563 127.356 0.199915 126.66 0.414092L96.4422 9.71016L34.1362 28.8819L3.91828 38.1812C2.51451 38.6144 1.33912 39.5897 0.650095 40.893C-0.0389271 42.1963 -0.185285 43.7212 0.243153 45.1328L43.9265 188.529C44.2745 189.669 44.9768 190.666 45.9302 191.375C46.8837 192.084 48.0381 192.467 49.2241 192.468C49.773 192.469 50.3188 192.386 50.8432 192.223L71.5576 185.851L72.2092 185.648V184.963L71.5576 185.163L50.651 191.597C49.412 191.977 48.0736 191.847 46.9297 191.236C45.7857 190.626 44.9295 189.584 44.5488 188.339L0.868823 44.9396C0.680214 44.323 0.614479 43.6751 0.675379 43.0329C0.736279 42.3907 0.922614 41.7669 1.22373 41.1973C1.52484 40.6276 1.93481 40.1232 2.43015 39.713C2.9255 39.3027 3.49649 38.9947 4.11044 38.8066L34.3284 29.5073L96.6345 10.3389L126.852 1.03951C127.318 0.896681 127.802 0.823855 128.289 0.823399C129.334 0.825757 130.351 1.16432 131.19 1.78949C132.03 2.41466 132.648 3.2936 132.955 4.29755L145.677 46.066L145.879 46.7209H146.557L146.358 46.066Z" fill="#3F3D56"/>
<path d="M39.9694 42.0208C39.3415 42.0204 38.7302 41.8177 38.2253 41.4425C37.7203 41.0673 37.3483 40.5394 37.1638 39.9361L32.9674 26.1601C32.8546 25.79 32.8155 25.4013 32.8522 25.016C32.889 24.6308 33.0009 24.2566 33.1815 23.9148C33.3622 23.573 33.6081 23.2704 33.9051 23.0241C34.2022 22.7778 34.5446 22.5928 34.9128 22.4795L92.2338 4.84231C92.9774 4.61425 93.7806 4.69203 94.4672 5.05857C95.1538 5.42511 95.6677 6.05046 95.896 6.79736L100.092 20.5736C100.319 21.3209 100.242 22.1282 99.8771 22.8182C99.5124 23.5082 98.8903 24.0247 98.1472 24.2543L40.8261 41.8915C40.5485 41.9771 40.2598 42.0207 39.9694 42.0208V42.0208Z" fill="#FF2958"/>
<path d="M61.9525 14.8867C65.5512 14.8867 68.4685 11.9547 68.4685 8.33789C68.4685 4.72107 65.5512 1.78906 61.9525 1.78906C58.3538 1.78906 55.4365 4.72107 55.4365 8.33789C55.4365 11.9547 58.3538 14.8867 61.9525 14.8867Z" fill="#FF2958"/>
<path d="M61.9523 12.4853C64.2311 12.4853 66.0784 10.6286 66.0784 8.33833C66.0784 6.04805 64.2311 4.19141 61.9523 4.19141C59.6735 4.19141 57.8262 6.04805 57.8262 8.33833C57.8262 10.6286 59.6735 12.4853 61.9523 12.4853Z" fill="white"/>
<path d="M196.339 190.795H86.2185C85.4843 190.794 84.7804 190.5 84.2613 189.978C83.7421 189.457 83.4501 188.749 83.4492 188.011V55.3975C83.45 54.6596 83.7421 53.9521 84.2612 53.4304C84.7804 52.9086 85.4843 52.6151 86.2185 52.6143H196.339C197.073 52.6151 197.777 52.9086 198.296 53.4304C198.815 53.9522 199.107 54.6596 199.108 55.3975V188.011C199.107 188.749 198.815 189.457 198.296 189.978C197.777 190.5 197.073 190.794 196.339 190.795V190.795Z" fill="#E6E6E6"/>
<path d="M145.677 46.0654H77.0962C75.6279 46.0675 74.2204 46.6547 73.1821 47.6981C72.1439 48.7416 71.5597 50.1562 71.5576 51.6319V185.163L72.2092 184.963V51.6319C72.2108 50.3298 72.7262 49.0814 73.6423 48.1606C74.5585 47.2399 75.8006 46.7219 77.0962 46.7203H145.879L145.677 46.0654ZM205.461 46.0654H77.0962C75.6279 46.0675 74.2204 46.6547 73.1821 47.6981C72.1439 48.7416 71.5597 50.1562 71.5576 51.6319V201.6C71.5597 203.076 72.1439 204.491 73.1821 205.534C74.2204 206.577 75.6279 207.165 77.0962 207.167H205.461C206.93 207.165 208.337 206.577 209.376 205.534C210.414 204.491 210.998 203.076 211 201.6V51.6319C210.998 50.1562 210.414 48.7416 209.376 47.6981C208.337 46.6547 206.93 46.0675 205.461 46.0654V46.0654ZM210.348 201.6C210.347 202.902 209.832 204.151 208.915 205.071C207.999 205.992 206.757 206.51 205.461 206.512H77.0962C75.8006 206.51 74.5585 205.992 73.6423 205.071C72.7262 204.151 72.2108 202.902 72.2092 201.6V51.6319C72.2108 50.3298 72.7262 49.0814 73.6423 48.1606C74.5585 47.2399 75.8006 46.7219 77.0962 46.7203H205.461C206.757 46.7219 207.999 47.2399 208.915 48.1606C209.832 49.0814 210.347 50.3298 210.348 51.6319V201.6Z" fill="#3F3D56"/>
<path d="M171.252 60.4733H111.305C110.528 60.4724 109.783 60.1616 109.233 59.6091C108.683 59.0567 108.374 58.3076 108.373 57.5263V43.1188C108.374 42.3375 108.683 41.5885 109.233 41.036C109.783 40.4835 110.528 40.1728 111.305 40.1719H171.252C172.03 40.1728 172.775 40.4835 173.325 41.036C173.875 41.5885 174.184 42.3375 174.185 43.1188V57.5263C174.184 58.3076 173.875 59.0567 173.325 59.6091C172.775 60.1616 172.03 60.4724 171.252 60.4733V60.4733Z" fill="#FF2958"/>
<path d="M141.279 41.1543C144.877 41.1543 147.795 38.2223 147.795 34.6055C147.795 30.9887 144.877 28.0566 141.279 28.0566C137.68 28.0566 134.763 30.9887 134.763 34.6055C134.763 38.2223 137.68 41.1543 141.279 41.1543Z" fill="#FF2958"/>
<path d="M141.278 38.5939C143.47 38.5939 145.247 36.808 145.247 34.6051C145.247 32.4021 143.47 30.6162 141.278 30.6162C139.086 30.6162 137.31 32.4021 137.31 34.6051C137.31 36.808 139.086 38.5939 141.278 38.5939Z" fill="white"/>
</g>
<defs>
<clipPath id="clip0_472_6098">
<rect width="211" height="207" fill="white" transform="translate(0 0.166992)"/>
</clipPath>
</defs>
</svg>
