<svg width="259" height="172" viewBox="0 0 259 172" fill="none" xmlns="http://www.w3.org/2000/svg">
<path d="M131.207 48.3426C128.898 44.5227 126.161 40.4442 121.876 39.1968C116.913 37.7524 111.814 40.6219 107.49 43.4534C94.5572 51.9217 82.1028 61.099 70.1836 70.9431L70.1966 71.0914C79.4762 70.4514 88.7557 69.8114 98.0352 69.1714C104.74 68.709 111.674 68.1829 117.599 65.0109C119.848 63.8073 122.039 62.1995 124.587 62.0874C127.752 61.9482 130.512 64.1591 132.681 66.4689C145.511 80.1323 149.223 101.027 163.617 113.031C154.541 90.6453 143.704 69.0146 131.207 48.3426Z" fill="#F2F2F2"/>
<path d="M210.07 164.232C208.651 162.441 208.072 162.021 206.672 160.213C195.277 145.473 184.566 130.236 174.541 114.501C167.731 103.814 161.258 92.922 155.124 81.8248C152.203 76.5491 149.363 71.2319 146.602 65.8734C144.46 61.7185 142.366 57.5388 140.32 53.3342C139.734 52.1333 139.166 50.9268 138.6 49.7177C137.266 46.8741 135.958 44.0168 134.553 41.2119C132.952 38.015 131.003 34.6635 128.063 32.5156C126.725 31.4981 125.125 30.8824 123.45 30.7405C121.057 30.5859 118.849 31.5742 116.773 32.6537C101.585 40.5742 87.3661 50.5045 74.5053 61.8041C61.6115 73.1291 50.0866 85.9236 40.1654 99.9268C39.8619 100.36 39.1441 99.9462 39.4505 99.51C40.6568 97.8038 41.8871 96.1161 43.1412 94.4468C58.7357 73.7044 77.8568 55.8671 99.6306 41.7502C103.294 39.376 107.026 37.1131 110.827 34.9616C112.743 33.8767 114.667 32.8055 116.624 31.8006C118.542 30.815 120.58 29.9288 122.771 29.8957C130.23 29.7798 134.092 38.2276 136.745 43.9119C137.578 45.7008 138.422 47.4842 139.276 49.2621C142.503 56.0121 145.854 62.7004 149.329 69.327C151.474 73.4184 153.666 77.4859 155.905 81.5294C162.872 94.121 170.277 106.458 178.121 118.54C188.511 134.543 198.819 148.681 210.655 163.647C210.981 164.061 210.399 164.652 210.07 164.232Z" fill="#E4E4E4"/>
<path d="M73.7681 57.6332C73.3348 57.15 72.9042 56.6669 72.468 56.1838C69.0285 52.3795 65.3379 48.6194 60.6147 46.4385C58.3627 45.3657 55.9042 44.7958 53.4099 44.7682C50.8317 44.7765 48.3115 45.4529 45.9293 46.3998C44.803 46.8498 43.7015 47.3605 42.6168 47.9044C41.3773 48.5283 40.1599 49.1937 38.9481 49.8645C36.6735 51.1234 34.4283 52.4375 32.2127 53.8068C27.8042 56.5316 23.5338 59.4644 19.4015 62.6052C17.2593 64.234 15.1614 65.9162 13.1076 67.6518C11.1974 69.2641 9.32587 70.9196 7.49295 72.6183C7.10099 72.98 6.51575 72.3947 6.90771 72.0331C7.39078 71.5831 7.87939 71.1358 8.36799 70.6941C9.74821 69.4463 11.1505 68.2224 12.575 67.0224C15.1724 64.8304 17.8372 62.723 20.5692 60.7003C24.8175 57.5531 29.2121 54.6194 33.7529 51.8992C36.0221 50.5409 38.3224 49.2397 40.654 47.9955C41.358 47.62 42.0702 47.2529 42.7906 46.905C44.4254 46.0804 46.1239 45.3888 47.8698 44.8372C50.3429 44.0371 52.9595 43.78 55.5411 44.0836C58.0336 44.4462 60.4351 45.277 62.6188 46.5323C67.2563 49.1246 70.8531 53.1332 74.3534 57.0451C74.7068 57.4427 74.1242 58.0307 73.7681 57.6332Z" fill="#E4E4E4"/>
<path d="M168.789 97.0553L179.901 92.9904L185.419 90.9721C187.216 90.3148 189.008 89.5665 190.866 89.0959C192.48 88.6347 194.194 88.6565 195.796 89.1587C197.225 89.6875 198.533 90.4983 199.642 91.5428C200.775 92.5863 201.829 93.7123 202.796 94.9115C203.997 96.3553 205.181 97.8142 206.369 99.2683C211.276 105.269 216.15 111.296 220.993 117.35C225.835 123.403 230.645 129.481 235.422 135.586C240.211 141.705 244.967 147.85 249.691 154.021C250.269 154.777 250.847 155.533 251.425 156.29C251.744 156.708 252.464 156.296 252.14 155.872C247.382 149.639 242.591 143.432 237.766 137.25C232.93 131.054 228.06 124.884 223.157 118.74C218.254 112.596 213.318 106.479 208.349 100.389C207.111 98.8716 205.871 97.356 204.629 95.842C203.581 94.5649 202.545 93.274 201.396 92.0854C199.286 89.9035 196.651 87.9753 193.496 87.923C191.641 87.8923 189.846 88.4809 188.123 89.1044C186.265 89.7766 184.412 90.4613 182.556 91.14L171.366 95.2333L168.568 96.2566C168.072 96.4382 168.286 97.2389 168.789 97.0553L168.789 97.0553Z" fill="#E4E4E4"/>
<path d="M59.1523 51.2249C53.5051 48.3222 46.2731 48.8907 41.0837 52.5172C50.9821 54.2251 60.7721 56.5102 70.4036 59.361C66.404 57.0169 63.2754 53.3442 59.1523 51.2249Z" fill="#F2F2F2"/>
<path d="M41.0281 52.5078L39.9409 53.3916C40.3087 53.0823 40.6909 52.7923 41.0837 52.5178C41.0651 52.5146 41.0466 52.511 41.0281 52.5078Z" fill="#F2F2F2"/>
<path d="M199.223 97.0961C198.129 95.7644 196.947 94.37 195.311 93.8291L193.783 93.8894C205.411 114.439 221.117 132.396 239.934 146.657C226.364 130.136 212.794 113.616 199.223 97.0961Z" fill="#F2F2F2"/>
<path d="M104.232 86.1104C104.938 88.679 106.531 90.9147 108.728 92.422C109.577 93.0002 110.581 93.555 110.872 94.5405C111.025 95.1687 110.931 95.8317 110.609 96.3925C110.288 96.9462 109.897 97.4564 109.446 97.9107L109.405 98.0649C107.298 96.8159 105.293 95.2361 104.129 93.0806C102.965 90.925 102.802 88.0999 104.232 86.1104" fill="#F2F2F2"/>
<path d="M174.392 147.243C175.099 149.812 176.691 152.048 178.888 153.555C179.737 154.133 180.742 154.688 181.032 155.673C181.185 156.302 181.091 156.964 180.769 157.525C180.448 158.079 180.057 158.589 179.606 159.044L179.565 159.198C177.458 157.949 175.453 156.369 174.289 154.213C173.125 152.058 172.962 149.233 174.392 147.243" fill="#F2F2F2"/>
<path d="M34.3724 143.027C35.0793 145.596 36.6719 147.832 38.8684 149.339C39.7176 149.917 40.7223 150.472 41.0128 151.457C41.1656 152.086 41.0715 152.749 40.7498 153.309C40.4286 153.863 40.0379 154.373 39.5871 154.828L39.5459 154.982C37.4386 153.733 35.4337 152.153 34.2697 149.998C33.1056 147.842 32.9431 145.017 34.3724 143.027" fill="#F2F2F2"/>
<path d="M195.5 30.7171C203.981 30.7171 210.857 23.8408 210.857 15.3585C210.857 6.87625 203.981 0 195.5 0C187.018 0 180.143 6.87625 180.143 15.3585C180.143 23.8408 187.018 30.7171 195.5 30.7171Z" fill="#F50057"/>
<path d="M223.213 3.57467C215.77 2.56856 207.273 6.59178 205.344 13.8509C204.858 12.5602 203.974 11.4575 202.821 10.7021C201.667 9.94669 200.303 9.57766 198.926 9.64834C197.548 9.71902 196.229 10.2258 195.159 11.0953C194.088 11.9649 193.322 13.1523 192.97 14.4859L193.823 15.0963C209.772 18.5457 226.282 18.471 242.2 14.8775C237.023 9.4361 230.656 4.58077 223.213 3.57467Z" fill="#F0F0F0"/>
<path d="M191.295 24.0532C183.852 23.0471 175.355 27.0703 173.426 34.3294C172.94 33.0387 172.056 31.936 170.902 31.1806C169.749 30.4252 168.385 30.0562 167.007 30.1269C165.63 30.1975 164.311 30.7043 163.24 31.5738C162.17 32.4434 161.404 33.6308 161.052 34.9645L161.904 35.5748C177.854 39.0242 194.364 38.9496 210.281 35.356C205.104 29.9146 198.738 25.0593 191.295 24.0532Z" fill="#F0F0F0"/>
<path d="M256.254 27.9248C256.223 27.9249 256.192 27.9201 256.163 27.9107C176.546 2.72925 106.374 6.02217 61.5271 13.2188C55.4239 14.1979 49.3044 15.3286 43.3385 16.58C41.8155 16.8991 40.2353 17.2411 38.6421 17.5972C36.7394 18.021 34.862 18.4575 33.0618 18.8939C32.2843 19.078 31.522 19.2636 30.7749 19.4506C29.6432 19.73 28.4949 20.0211 27.2639 20.3411C25.8885 20.6958 24.4909 21.0678 23.1093 21.4469C23.1043 21.4487 23.0991 21.4501 23.0939 21.4513L23.094 21.4516C21.5334 21.8777 19.9811 22.3162 18.4799 22.7541C17.6674 22.9888 16.8829 23.2202 16.1314 23.4487C16.0475 23.472 15.9731 23.4943 15.8977 23.5173L15.7362 23.5664C15.6427 23.5949 15.5504 23.6228 15.458 23.6493L15.4522 23.6511L15.4523 23.6514L15.2079 23.7273C14.9165 23.8155 14.6322 23.9017 14.3525 23.9875C6.96163 26.2661 2.89861 27.8872 2.85847 27.903C2.82176 27.9178 2.78252 27.9251 2.74298 27.9246C2.70344 27.9242 2.66437 27.916 2.62802 27.9004C2.59166 27.8848 2.55872 27.8623 2.53108 27.834C2.50344 27.8057 2.48164 27.7723 2.46693 27.7356C2.45221 27.6989 2.44488 27.6596 2.44533 27.6201C2.44579 27.5805 2.45402 27.5415 2.46957 27.5051C2.48512 27.4687 2.50768 27.4358 2.53596 27.4081C2.56424 27.3805 2.59769 27.3587 2.63439 27.344C2.67483 27.3281 6.7577 25.6988 14.1755 23.4117C14.4562 23.3255 14.7413 23.2394 15.0336 23.1509L15.2606 23.0803C15.2684 23.0773 15.2762 23.075 15.2841 23.0726C15.376 23.0465 15.4677 23.0185 15.5609 22.9903L15.7227 22.9412C15.8033 22.9168 15.8827 22.8926 15.964 22.8703C16.7103 22.6433 17.4975 22.4112 18.312 22.1757C19.8138 21.7375 21.3676 21.299 22.9293 20.8722C22.9342 20.8705 22.9392 20.8693 22.9441 20.8678V20.8675C24.3305 20.4873 25.7332 20.1138 27.1131 19.7579C28.3459 19.4377 29.4964 19.1459 30.63 18.866C31.3803 18.6792 32.1441 18.4933 32.9213 18.3081C34.7236 17.8711 36.6049 17.434 38.511 17.0094C40.1067 16.6529 41.6895 16.31 43.215 15.9906C49.1902 14.7372 55.3193 13.6047 61.4317 12.6242C106.343 5.41724 176.615 2.11901 256.344 27.3366C256.413 27.3582 256.472 27.4037 256.509 27.4648C256.547 27.5258 256.562 27.5985 256.551 27.6695C256.54 27.7406 256.504 27.8054 256.45 27.8522C256.395 27.899 256.326 27.9248 256.254 27.9248Z" fill="#CCCCCC"/>
<path d="M79.1904 126.434C79.0861 126.129 78.9106 125.854 78.6785 125.63C78.5928 125.551 78.5001 125.479 78.4015 125.416C77.6156 124.892 76.4412 124.775 75.6944 125.416C75.6192 125.482 75.5497 125.553 75.4867 125.63C75.2638 125.904 75.035 126.172 74.8001 126.434C74.4147 126.874 74.0202 127.298 73.6077 127.711C73.4903 127.825 73.3728 127.943 73.2524 128.057C73.1831 128.127 73.1139 128.193 73.0446 128.259C72.7796 128.512 72.5086 128.756 72.2346 128.997C72.0901 129.126 71.9455 129.253 71.798 129.376C71.5782 129.56 71.3584 129.744 71.1355 129.921C71.1145 129.937 71.0934 129.952 71.0723 129.97C71.0663 129.973 71.0633 129.979 71.0572 129.982C71.0542 129.982 71.0512 129.982 71.0482 129.988C71.0401 129.991 71.0328 129.996 71.0271 130.003C70.9609 130.048 70.9157 130.078 70.8826 130.105C70.8946 130.099 70.9067 130.09 70.9187 130.084C70.8645 130.126 70.8073 130.168 70.7531 130.211C70.2262 130.599 69.6872 130.972 69.1361 131.322C67.7728 132.194 66.3408 132.955 64.8542 133.595C64.7549 133.635 64.6525 133.677 64.5501 133.716C60.6581 135.311 56.4361 135.933 52.2495 135.529C51.8219 135.496 51.3943 135.451 50.9667 135.393C50.4729 135.321 49.9821 135.234 49.4943 135.134C47.6372 134.764 45.8201 134.215 44.0681 133.496C41.8767 132.492 39.7923 131.27 37.8471 129.846C37.546 129.632 37.2418 129.419 36.9377 129.211C37.284 128.362 37.6242 127.512 37.9555 126.657C38.1211 126.244 38.2807 125.832 38.4373 125.416C39.6688 122.215 40.8251 118.984 41.9332 115.74C43.0534 112.455 44.1103 109.15 45.104 105.827C45.2064 105.489 45.3057 105.152 45.4021 104.815C45.923 103.059 46.4229 101.299 46.9017 99.5357C46.9468 99.364 46.995 99.1954 47.0372 99.0237C47.1757 98.5178 47.3112 98.0119 47.4437 97.5059C47.7448 96.3646 47.0643 95.0004 45.8658 94.7263C45.2888 94.5784 44.6769 94.6602 44.159 94.9546C43.6411 95.2489 43.2577 95.7328 43.0895 96.3044C42.96 96.7922 42.8306 97.2771 42.6981 97.7649C42.0627 100.123 41.3942 102.473 40.6926 104.815C40.5902 105.152 40.4879 105.489 40.3855 105.827C38.8378 110.928 37.1384 115.978 35.2876 120.977C35.0648 121.583 34.8389 122.186 34.6101 122.787C34.4987 123.082 34.3872 123.378 34.2728 123.673C34.053 124.254 33.8272 124.835 33.6013 125.416C33.4718 125.757 33.3393 126.097 33.2069 126.434C33.1195 126.648 33.0352 126.862 32.9509 127.073C32.0924 126.764 31.2029 126.55 30.2981 126.434L30.1535 126.416C29.4521 126.332 28.7426 126.338 28.0427 126.434C26.9951 126.556 25.9872 126.907 25.0902 127.462C24.1931 128.017 23.4289 128.762 22.8515 129.644C21.4151 131.906 21.4332 135.14 23.4477 137.062C25.5224 139.04 28.663 139.025 31.1051 137.787C32.3992 137.087 33.4904 136.064 34.2728 134.818C34.5726 134.366 34.848 133.899 35.0979 133.418C35.1611 133.46 35.2243 133.502 35.2876 133.547C35.5285 133.716 35.7694 133.888 36.0073 134.056C37.3933 135.06 38.8539 135.958 40.3765 136.739C43.6502 138.367 47.1741 139.433 50.8011 139.892C50.8824 139.902 50.9607 139.914 51.042 139.923C51.4425 139.974 51.846 140.013 52.2495 140.046C58.0376 140.482 63.8328 139.298 68.9856 136.625C69.4222 136.399 69.8548 136.162 70.2834 135.914C70.9488 135.529 71.5993 135.119 72.2346 134.686C72.5809 134.451 72.9181 134.213 73.2524 133.963C74.713 132.887 76.0744 131.683 77.3205 130.364C77.7932 129.867 78.2459 129.354 78.6785 128.825C79.0876 128.393 79.3234 127.824 79.341 127.229C79.3386 126.957 79.2876 126.688 79.1904 126.434ZM29.3285 133.608C29.3917 133.562 29.455 133.514 29.5152 133.466C29.4971 133.511 29.4098 133.562 29.3285 133.608H29.3285ZM30.2951 132.635C30.2258 132.713 30.1626 132.791 30.0933 132.87C29.8826 133.106 29.6563 133.327 29.4158 133.532C29.3827 133.562 29.3466 133.592 29.3104 133.62C29.31 133.62 29.3096 133.62 29.3093 133.62C29.3089 133.62 29.3085 133.62 29.3083 133.62C29.308 133.621 29.3078 133.621 29.3076 133.621C29.3075 133.622 29.3074 133.622 29.3074 133.623C29.2639 133.642 29.2217 133.664 29.1809 133.689C29.0514 133.767 28.919 133.839 28.7835 133.906C28.5182 134.003 28.2452 134.079 27.9674 134.132C27.754 134.147 27.5398 134.149 27.3261 134.138H27.32C27.1725 134.105 27.0268 134.065 26.8834 134.017C26.8111 133.981 26.7419 133.939 26.6726 133.897C26.6455 133.873 26.6214 133.848 26.6064 133.833C26.577 133.807 26.5498 133.777 26.5251 133.746C26.5251 133.746 26.525 133.745 26.5249 133.745C26.5247 133.745 26.5245 133.744 26.5242 133.744C26.524 133.744 26.5236 133.743 26.5232 133.743C26.5229 133.743 26.5225 133.743 26.5221 133.743C26.489 133.683 26.4528 133.623 26.4197 133.562C26.418 133.561 26.4169 133.559 26.4167 133.556C26.3926 133.481 26.3715 133.403 26.3535 133.324C26.3469 133.187 26.3479 133.049 26.3565 132.912C26.3969 132.719 26.4512 132.53 26.5191 132.346C26.58 132.215 26.6494 132.088 26.7268 131.966C26.7329 131.954 26.763 131.906 26.7961 131.852C26.7991 131.849 26.7991 131.849 26.7991 131.846C26.8443 131.795 26.8895 131.74 26.9376 131.692C27.0189 131.602 27.1063 131.524 27.1936 131.442C27.3634 131.331 27.5393 131.23 27.7205 131.138C28.008 131.036 28.303 130.956 28.6028 130.9C29.0449 130.865 29.4893 130.869 29.9307 130.912C30.3488 130.985 30.7614 131.086 31.1653 131.216C30.9205 131.692 30.6417 132.149 30.3312 132.584C30.3192 132.602 30.3071 132.62 30.2951 132.635ZM26.9466 131.644C26.9201 131.687 26.8888 131.726 26.8533 131.761C26.8772 131.717 26.9088 131.677 26.9466 131.644Z" fill="#FCFBFF"/>
<path d="M70.1386 95.6776C70.1116 96.6232 70.0845 97.5688 70.0573 98.5144C70.0001 100.613 69.9409 102.713 69.8797 104.814C69.8164 107.178 69.7502 109.541 69.6809 111.903C69.6478 113.123 69.6137 114.343 69.5786 115.562C69.4852 118.848 69.3929 122.132 69.3015 125.416C69.2925 125.756 69.2805 126.093 69.2714 126.434C69.2263 128.063 69.1811 129.692 69.1359 131.321C69.0847 133.089 69.0345 134.857 68.9854 136.625C68.9492 137.95 68.9121 139.276 68.874 140.603C68.603 150.218 68.332 159.834 68.0609 169.45C68.0495 170.045 67.8079 170.613 67.3868 171.034C66.9657 171.455 66.3979 171.697 65.8026 171.708C65.2051 171.704 64.6335 171.464 64.211 171.042C63.7885 170.619 63.549 170.047 63.5442 169.45C63.6947 164.041 63.8473 158.633 64.0019 153.224C64.1374 148.333 64.2749 143.443 64.4144 138.552C64.4596 136.941 64.5048 135.329 64.5499 133.716C64.6192 131.288 64.6874 128.861 64.7547 126.434C64.7637 126.093 64.7758 125.756 64.7848 125.416C64.7908 125.118 64.7998 124.823 64.8089 124.525C64.9414 119.812 65.0739 115.098 65.2064 110.383C65.2606 108.528 65.3127 106.671 65.3629 104.814C65.4232 102.697 65.4834 100.581 65.5436 98.4662C65.5707 97.5356 65.5948 96.6081 65.6219 95.6776C65.6333 95.0821 65.875 94.5143 66.296 94.0931C66.7171 93.672 67.2849 93.4304 67.8803 93.4189C68.4777 93.4238 69.0494 93.6633 69.4719 94.0858C69.8943 94.5083 70.1338 95.08 70.1386 95.6776Z" fill="#FCFBFF"/>
<path d="M194.027 96.3043C191.659 105.272 188.828 114.112 185.547 122.788C184.641 125.181 183.715 127.569 182.725 129.928L182.953 129.389C182.511 130.513 181.946 131.584 181.27 132.585C181.223 132.649 181.177 132.713 181.129 132.776C181.363 132.477 181.407 132.418 181.262 132.599C181.186 132.689 181.11 132.78 181.031 132.869C180.82 133.105 180.594 133.326 180.354 133.532C180.293 133.584 180.232 133.634 180.17 133.684L180.452 133.464C180.419 133.542 180.189 133.644 180.118 133.688C179.886 133.828 179.644 133.951 179.394 134.055L179.933 133.827C179.523 133.993 179.096 134.11 178.659 134.177L179.259 134.096C178.83 134.156 178.395 134.16 177.965 134.11L178.565 134.191C178.213 134.142 177.869 134.05 177.54 133.915L178.08 134.142C177.904 134.066 177.735 133.976 177.574 133.872C177.492 133.819 177.241 133.629 177.57 133.88C177.911 134.141 177.614 133.902 177.543 133.833C177.485 133.775 177.432 133.712 177.375 133.654C177.109 133.381 177.675 134.123 177.494 133.804C177.398 133.644 177.31 133.48 177.23 133.311L177.457 133.851C177.354 133.594 177.28 133.326 177.238 133.052L177.319 133.652C177.276 133.312 177.276 132.968 177.318 132.627L177.237 133.228C177.293 132.847 177.393 132.475 177.537 132.119L177.309 132.659C177.409 132.419 177.528 132.188 177.664 131.967C177.727 131.852 177.8 131.744 177.883 131.644C177.898 131.649 177.501 132.1 177.712 131.872C177.767 131.812 177.818 131.75 177.874 131.691C177.963 131.596 178.059 131.51 178.153 131.42C178.467 131.121 177.713 131.711 178.076 131.474C178.339 131.301 178.616 131.15 178.903 131.023L178.364 131.25C178.846 131.052 179.352 130.917 179.868 130.847L179.268 130.928C179.915 130.853 180.568 130.861 181.213 130.951L180.613 130.87C181.429 130.994 182.228 131.218 182.989 131.538L182.45 131.311C184.073 132.008 185.51 133.042 186.945 134.057C188.331 135.06 189.791 135.957 191.313 136.739C194.587 138.367 198.111 139.433 201.738 139.893C206.94 140.53 212.219 139.851 217.09 137.917C221.961 135.983 226.268 132.857 229.617 128.825C230.026 128.392 230.261 127.823 230.279 127.228C230.274 126.63 230.037 126.057 229.617 125.631C228.789 124.87 227.224 124.656 226.423 125.631C225.665 126.557 224.85 127.435 223.982 128.259C223.577 128.643 223.162 129.016 222.735 129.376C222.491 129.582 222.244 129.784 221.994 129.982C221.876 130.076 221.507 130.325 222.073 129.923C221.943 130.015 221.819 130.115 221.691 130.21C219.794 131.608 217.739 132.777 215.568 133.693L216.108 133.465C213.778 134.442 211.332 135.113 208.829 135.459L209.43 135.379C206.856 135.717 204.248 135.714 201.675 135.367L202.275 135.448C199.703 135.095 197.187 134.409 194.79 133.409L195.33 133.637C193.017 132.613 190.823 131.342 188.785 129.845C187.724 129.059 186.605 128.355 185.438 127.739C184.079 127.044 182.607 126.597 181.091 126.417C178.249 126.083 175.353 127.19 173.79 129.646C172.352 131.906 172.371 135.14 174.384 137.061C176.458 139.041 179.599 139.024 182.043 137.786C184.397 136.593 185.811 134.116 186.806 131.78C189.043 126.524 191.024 121.146 192.87 115.74C194.696 110.393 196.352 104.991 197.838 99.5346C198.022 98.8588 198.203 98.1824 198.382 97.5052C198.683 96.3643 198.002 94.9997 196.805 94.7269C196.227 94.5783 195.615 94.6597 195.097 94.954C194.579 95.2484 194.195 95.7325 194.027 96.3044L194.027 96.3043Z" fill="#FCFBFF"/>
<path d="M216.56 95.6776L215.747 124.525L214.938 153.223L214.481 169.45C214.486 170.047 214.726 170.619 215.148 171.041C215.571 171.464 216.142 171.704 216.74 171.709C217.335 171.697 217.903 171.455 218.324 171.034C218.745 170.613 218.986 170.045 218.998 169.45L219.811 140.602L220.619 111.904L221.077 95.6776C221.072 95.0801 220.832 94.5086 220.41 94.0861C219.987 93.6636 219.416 93.424 218.818 93.4189C218.223 93.4305 217.655 93.6721 217.234 94.0932C216.813 94.5143 216.571 95.0821 216.56 95.6776Z" fill="#FCFBFF"/>
<path opacity="0.2" d="M138.391 161.396H139.092V129.461H155.451V128.762H139.092V115.287H151.726C151.54 115.052 151.35 114.819 151.154 114.59H139.092V105.69C138.86 105.591 138.626 105.496 138.391 105.406V114.59H124.644V103.187C124.409 103.197 124.177 103.214 123.943 103.233V114.59H112.976V106.082C112.741 106.186 112.509 106.296 112.279 106.411V114.59H103.06V115.287H112.279V128.762H103.06V129.461H112.279V161.396H112.976V129.461C114.416 129.461 115.843 129.745 117.173 130.296C118.504 130.847 119.713 131.655 120.731 132.673C121.75 133.692 122.558 134.901 123.109 136.232C123.66 137.563 123.943 138.989 123.943 140.429V161.396H124.644V129.461H138.391V161.396ZM112.976 128.762V115.287H123.943V128.762H112.976ZM124.644 128.762V115.287H124.919C126.688 115.287 128.44 115.636 130.075 116.313C131.709 116.99 133.194 117.983 134.445 119.234C135.696 120.486 136.689 121.971 137.366 123.606C138.043 125.24 138.391 126.993 138.391 128.762H124.644Z" fill="black"/>
<path d="M134.108 151.82C133.225 155.759 131.11 159.314 128.071 161.969C127.848 162.162 127.625 162.349 127.393 162.532C126.83 162.583 126.271 162.636 125.716 162.689C125.255 162.731 124.8 162.776 124.349 162.818L124.268 162.827L124.21 162.333L123.981 160.334C123.094 158.884 122.543 157.254 122.371 155.562C122.199 153.871 122.41 152.163 122.988 150.565C123.783 148.42 125.222 146.526 126.637 144.647C128.592 142.051 130.492 139.485 130.561 136.32C131.522 137.551 132.322 138.9 132.94 140.335C132.357 140.609 131.833 140.995 131.398 141.47C131.275 141.605 131.151 141.795 131.235 141.958C131.308 142.096 131.488 142.129 131.645 142.147C132.021 142.187 132.401 142.226 132.777 142.265C133.078 142.298 133.379 142.328 133.68 142.361C134.045 143.557 134.292 144.786 134.418 146.029C134.621 147.964 134.516 149.918 134.108 151.82Z" fill="#FCFBFF"/>
<path d="M144.105 143.928C142.329 145.22 141.29 147.078 140.483 149.126C139.656 149.391 138.912 149.866 138.324 150.505C138.2 150.641 138.077 150.83 138.161 150.993C138.233 151.131 138.414 151.165 138.571 151.183C138.947 151.222 139.326 151.261 139.703 151.3C138.896 153.721 138.155 156.227 136.728 158.272C135.779 159.622 134.541 160.744 133.105 161.557C132.714 161.78 132.31 161.98 131.895 162.156C130.365 162.274 128.865 162.399 127.393 162.533C126.83 162.584 126.271 162.636 125.716 162.69C125.255 162.732 124.801 162.777 124.349 162.819C124.346 162.653 124.346 162.488 124.349 162.322C124.444 157.91 126.067 153.667 128.941 150.318C129.076 150.162 129.215 150.008 129.357 149.855C130.812 148.299 132.525 147.006 134.418 146.03C137.402 144.478 140.747 143.753 144.105 143.928Z" fill="#F50057"/>
<path d="M126.237 161.144L125.891 162.168L125.716 162.689C125.255 162.731 124.801 162.776 124.349 162.818L124.268 162.827C123.768 162.878 123.271 162.93 122.774 162.981C122.645 162.83 122.515 162.677 122.389 162.52C119.246 158.714 117.737 153.818 118.192 148.902C118.648 143.987 121.03 139.451 124.819 136.287C124.421 138.368 124.885 140.362 125.647 142.34C125.565 142.373 125.487 142.406 125.412 142.443C124.829 142.717 124.305 143.103 123.87 143.578C123.747 143.713 123.623 143.903 123.708 144.066C123.78 144.204 123.96 144.237 124.117 144.255C124.493 144.295 124.873 144.334 125.249 144.373C125.55 144.406 125.851 144.436 126.153 144.469C126.294 144.484 126.436 144.499 126.577 144.514C126.598 144.56 126.616 144.602 126.637 144.647C127.496 146.508 128.42 148.378 128.941 150.318C129.072 150.804 129.174 151.298 129.248 151.796C129.48 153.48 129.33 155.195 128.808 156.813C128.287 158.432 127.408 159.912 126.237 161.144Z" fill="#F50057"/>
<path d="M156.547 117.466C153.954 112.409 149.938 108.154 145.215 105.027C140.476 101.905 135.039 100.004 129.387 99.4924C128.647 99.425 127.904 99.3856 127.159 99.3741C126.28 99.3609 113.047 103.178 108.615 106.295C104.184 109.374 100.54 113.452 97.9752 118.199C95.4151 122.972 94.1559 128.334 94.324 133.748C94.5434 139.194 96.0613 144.509 98.7512 149.25C101.404 153.975 105.172 157.98 109.725 160.918C114.344 163.865 118.983 171.68 124.436 171.955C129.93 172.233 136.196 164.862 141.207 162.624C146.218 160.367 150.55 156.836 153.771 152.383C156.901 148.019 158.926 142.961 159.673 137.643C160.448 132.197 160.086 126.581 158.227 121.376C157.75 120.038 157.189 118.732 156.547 117.466C156.011 116.41 154.44 116.022 153.457 116.656C152.95 116.968 152.583 117.463 152.432 118.038C152.281 118.614 152.358 119.225 152.646 119.746C152.961 120.366 153.254 120.996 153.524 121.636L153.297 121.097C154.32 123.559 155.017 126.144 155.367 128.788L155.287 128.187C155.66 131.055 155.653 133.959 155.267 136.825L155.347 136.224C154.957 139.09 154.192 141.892 153.073 144.558L153.3 144.019C152.724 145.379 152.053 146.697 151.291 147.963C150.905 148.603 150.496 149.228 150.063 149.837C149.872 150.104 149.676 150.367 149.479 150.629C149.221 150.971 149.83 150.183 149.564 150.518C149.518 150.575 149.473 150.633 149.428 150.69C149.291 150.861 149.152 151.03 149.012 151.198C148.073 152.318 147.048 153.364 145.947 154.325C145.673 154.564 145.394 154.798 145.111 155.027C144.97 155.141 144.83 155.26 144.683 155.366C144.689 155.362 145.159 155.004 144.88 155.212C144.793 155.277 144.706 155.343 144.619 155.408C144.034 155.841 143.435 156.252 142.82 156.64C141.403 157.533 139.917 158.309 138.376 158.963L138.916 158.735C136.258 159.855 133.464 160.619 130.606 161.009L131.206 160.929C128.35 161.315 125.455 161.32 122.598 160.944L123.198 161.025C120.601 160.676 118.061 159.989 115.642 158.982L116.181 159.209C114.78 158.618 113.429 157.914 112.141 157.104C111.504 156.702 110.883 156.276 110.279 155.825C110.193 155.761 110.108 155.695 110.022 155.63C109.746 155.422 110.22 155.784 110.224 155.786C110.063 155.671 109.909 155.548 109.761 155.418C109.47 155.18 109.182 154.937 108.9 154.688C107.769 153.692 106.713 152.614 105.74 151.463C105.497 151.175 105.258 150.883 105.025 150.587C104.924 150.458 104.74 150.198 105.147 150.746C105.093 150.674 105.038 150.603 104.984 150.531C104.854 150.359 104.726 150.186 104.6 150.011C104.157 149.399 103.737 148.772 103.339 148.13C102.438 146.677 101.652 145.156 100.988 143.58L101.216 144.12C100.129 141.534 99.3862 138.817 99.0057 136.038L99.0864 136.638C98.7431 134.077 98.7382 131.481 99.0718 128.918L98.9911 129.519C99.3332 127.037 100.001 124.611 100.977 122.303L100.749 122.843C101.363 121.398 102.088 120.003 102.916 118.67C103.33 118.003 103.77 117.352 104.234 116.717C104.339 116.573 104.446 116.43 104.554 116.287C104.651 116.158 104.92 115.838 104.462 116.404C104.507 116.349 104.55 116.292 104.594 116.235C104.849 115.913 105.11 115.595 105.377 115.282C106.388 114.099 107.483 112.989 108.654 111.963C108.95 111.704 109.251 111.45 109.556 111.202C109.695 111.089 109.834 110.977 109.975 110.867C110.031 110.823 110.088 110.779 110.144 110.735C109.542 111.213 109.977 110.865 110.113 110.763C110.742 110.291 111.388 109.843 112.051 109.419C113.524 108.477 115.074 107.66 116.684 106.977L116.145 107.205C118.481 106.224 128.834 103.908 130.717 104.161L130.117 104.08C132.884 104.466 135.589 105.214 138.162 106.303L137.623 106.075C138.927 106.629 140.194 107.266 141.417 107.981C142.028 108.34 142.627 108.717 143.214 109.115C143.492 109.303 143.767 109.495 144.038 109.691C144.174 109.789 144.309 109.889 144.444 109.989C144.518 110.045 144.593 110.101 144.667 110.157C144.98 110.392 144.236 109.817 144.564 110.077C145.662 110.939 146.705 111.87 147.686 112.863C148.168 113.354 148.633 113.861 149.082 114.383C149.312 114.651 149.538 114.922 149.759 115.198C149.868 115.335 150.242 115.831 149.784 115.224C149.896 115.372 150.009 115.519 150.12 115.669C151.071 116.957 151.916 118.321 152.646 119.746C153.186 120.799 154.75 121.192 155.736 120.556C156.243 120.244 156.61 119.749 156.761 119.173C156.912 118.598 156.835 117.986 156.547 117.466Z" fill="#FCFBFF"/>
<path d="M130.232 154.325C129.999 154.335 129.768 154.274 129.571 154.149C129.374 154.025 129.22 153.842 129.13 153.627C129.04 153.411 129.018 153.174 129.068 152.946C129.117 152.718 129.236 152.51 129.407 152.352C129.436 152.238 129.456 152.156 129.485 152.042C129.475 152.017 129.465 151.992 129.454 151.967C128.406 149.468 121.72 156.434 121.431 158.783C121.304 159.821 121.357 160.873 121.59 161.893C119.424 157.168 118.299 152.032 118.292 146.835C118.291 145.53 118.364 144.227 118.509 142.931C118.629 141.868 118.795 140.813 119.008 139.766C120.169 134.082 122.661 128.755 126.28 124.221C128.35 124.337 130.164 124.022 130.339 120.01C130.37 119.296 130.9 118.678 131.016 117.975C130.819 118.001 130.618 118.017 130.42 118.03C130.359 118.033 130.294 118.037 130.232 118.04L130.209 118.041C129.992 118.051 129.777 117.998 129.589 117.888C129.401 117.778 129.249 117.616 129.152 117.422C129.054 117.228 129.014 117.01 129.037 116.793C129.061 116.577 129.146 116.372 129.283 116.204C129.368 116.099 129.454 115.994 129.539 115.889C129.669 115.727 129.801 115.568 129.931 115.406C129.946 115.391 129.96 115.374 129.973 115.357C130.122 115.173 130.271 114.991 130.42 114.807C130.148 114.384 129.782 114.031 129.351 113.773C127.858 112.899 125.798 113.504 124.719 114.855C123.637 116.206 123.433 118.102 123.809 119.789C124.178 121.226 124.789 122.589 125.616 123.82C125.535 123.923 125.451 124.024 125.37 124.127C123.89 126.031 122.599 128.076 121.518 130.231C121.824 127.84 118.081 119.207 116.634 117.378C114.896 115.181 111.331 116.14 111.025 118.925C111.022 118.952 111.019 118.978 111.016 119.005C111.231 119.127 111.442 119.255 111.647 119.392C111.906 119.564 112.107 119.811 112.222 120.1C112.338 120.389 112.364 120.706 112.297 121.009C112.23 121.313 112.072 121.589 111.845 121.802C111.618 122.015 111.332 122.154 111.025 122.201L110.994 122.206C108.116 126.315 117.34 137.009 119.649 134.608C118.562 137.688 117.881 140.896 117.621 144.152C117.474 146.073 117.483 148.003 117.647 149.922L117.638 149.854C117.125 145.673 108.324 139.458 105.754 139.975C104.273 140.274 102.815 140.206 103.04 141.699C103.043 141.723 103.047 141.747 103.051 141.771C103.449 141.933 103.838 142.121 104.213 142.331C104.428 142.453 104.639 142.581 104.845 142.718C105.103 142.89 105.304 143.137 105.42 143.426C105.536 143.715 105.562 144.032 105.494 144.335C105.427 144.639 105.27 144.915 105.043 145.128C104.816 145.341 104.53 145.48 104.222 145.527L104.191 145.532C104.168 145.536 104.149 145.539 104.126 145.542C102.816 150.049 112.529 157.323 118.434 155.008H118.438C119.023 157.552 119.871 160.027 120.968 162.395H130.006C130.038 162.295 130.067 162.191 130.096 162.091C129.26 162.143 128.42 162.093 127.595 161.942C128.266 161.119 128.937 160.289 129.607 159.466C129.622 159.451 129.636 159.435 129.649 159.418C129.989 158.997 130.333 158.579 130.673 158.158L130.673 158.157C130.691 156.866 130.543 155.578 130.232 154.325L130.232 154.325ZM119.882 133.963L119.887 133.957L119.882 133.97V133.963ZM117.881 152.012L117.803 151.837C117.806 151.71 117.806 151.584 117.803 151.455C117.803 151.419 117.796 151.383 117.796 151.348C117.825 151.571 117.851 151.795 117.884 152.018L117.881 152.012Z" fill="#FCFBFF"/>
<path d="M28.6809 135.517C30.5103 135.517 31.9932 134.034 31.9932 132.204C31.9932 130.375 30.5103 128.892 28.6809 128.892C26.8516 128.892 25.3687 130.375 25.3687 132.204C25.3687 134.034 26.8516 135.517 28.6809 135.517Z" fill="#FCFBFF"/>
<path d="M68.4285 171.655C70.2578 171.655 71.7408 170.171 71.7408 168.342C71.7408 166.512 70.2578 165.029 68.4285 165.029C66.5992 165.029 65.1162 166.512 65.1162 168.342C65.1162 170.171 66.5992 171.655 68.4285 171.655Z" fill="#FCFBFF"/>
<path d="M219.288 171.655C221.117 171.655 222.6 170.171 222.6 168.342C222.6 166.512 221.117 165.029 219.288 165.029C217.459 165.029 215.976 166.512 215.976 168.342C215.976 170.171 217.459 171.655 219.288 171.655Z" fill="#FCFBFF"/>
<path d="M227.418 129.493C229.247 129.493 230.73 128.01 230.73 126.181C230.73 124.351 229.247 122.868 227.418 122.868C225.589 122.868 224.106 124.351 224.106 126.181C224.106 128.01 225.589 129.493 227.418 129.493Z" fill="#FCFBFF"/>
<path d="M217.782 98.7766C219.612 98.7766 221.095 97.2935 221.095 95.464C221.095 93.6345 219.612 92.1514 217.782 92.1514C215.953 92.1514 214.47 93.6345 214.47 95.464C214.47 97.2935 215.953 98.7766 217.782 98.7766Z" fill="#FCFBFF"/>
<path d="M79.5697 126.181C79.5677 127.027 79.2405 127.84 78.6558 128.452C78.0712 129.063 77.2737 129.427 76.4286 129.467C75.5835 129.507 74.7553 129.22 74.1155 128.667C73.4757 128.113 73.0732 127.335 72.9913 126.492C72.9094 125.65 73.1544 124.809 73.6756 124.142C74.1968 123.476 74.9543 123.035 75.7913 122.911C76.6283 122.788 77.4808 122.991 78.1723 123.478C78.8639 123.966 79.3415 124.701 79.5065 125.531C79.5489 125.745 79.5701 125.963 79.5697 126.181Z" fill="#FCFBFF"/>
<path d="M145.815 108.413C147.645 108.413 149.128 106.93 149.128 105.101C149.128 103.271 147.645 101.788 145.815 101.788C143.986 101.788 142.503 103.271 142.503 105.101C142.503 106.93 143.986 108.413 145.815 108.413Z" fill="#FCFBFF"/>
<path d="M112.994 105.101C112.992 105.947 112.665 106.76 112.08 107.372C111.495 107.983 110.698 108.347 109.853 108.387C109.008 108.427 108.179 108.14 107.54 107.587C106.9 107.033 106.497 106.254 106.415 105.412C106.334 104.57 106.579 103.729 107.1 103.062C107.621 102.395 108.378 101.955 109.215 101.831C110.052 101.708 110.905 101.911 111.596 102.398C112.288 102.886 112.766 103.621 112.931 104.45C112.973 104.665 112.994 104.883 112.994 105.101Z" fill="#FCFBFF"/>
<path d="M70.2352 95.4642C70.2332 96.3104 69.906 97.1234 69.3214 97.735C68.7367 98.3466 67.9393 98.71 67.0941 98.75C66.249 98.79 65.4208 98.5036 64.781 97.9499C64.1412 97.3962 63.7387 96.6177 63.6568 95.7755C63.575 94.9333 63.82 94.0919 64.3412 93.4253C64.8624 92.7588 65.6198 92.3181 66.4569 92.1945C67.2939 92.071 68.1463 92.274 68.8379 92.7615C69.5294 93.249 70.0071 93.9838 70.172 94.8137C70.2145 95.0279 70.2356 95.2458 70.2352 95.4642Z" fill="#FCFBFF"/>
<path d="M180.444 136.721C182.273 136.721 183.756 135.238 183.756 133.408C183.756 131.579 182.273 130.096 180.444 130.096C178.615 130.096 177.132 131.579 177.132 133.408C177.132 135.238 178.615 136.721 180.444 136.721Z" fill="#FCFBFF"/>
<path d="M128.351 106.606C131.011 106.606 133.168 104.449 133.168 101.788C133.168 99.127 131.011 96.9697 128.351 96.9697C125.69 96.9697 123.533 99.127 123.533 101.788C123.533 104.449 125.69 106.606 128.351 106.606Z" fill="#FCFBFF"/>
<path d="M258.641 171.908L0.358532 172C0.311449 172 0.264825 171.991 0.221326 171.973C0.177826 171.955 0.138304 171.928 0.105011 171.895C0.0717184 171.862 0.0453058 171.822 0.0272878 171.779C0.00926978 171.735 0 171.689 0 171.642C0 171.594 0.00926978 171.548 0.0272878 171.504C0.0453058 171.461 0.0717184 171.421 0.105011 171.388C0.138304 171.355 0.177826 171.328 0.221326 171.31C0.264825 171.292 0.311449 171.283 0.358532 171.283L258.641 171.19C258.736 171.191 258.827 171.229 258.894 171.296C258.961 171.363 258.999 171.454 258.999 171.549C258.999 171.644 258.961 171.735 258.894 171.802C258.827 171.869 258.736 171.907 258.641 171.908Z" fill="#CACACA"/>
</svg>
