<svg width="230" height="206" viewBox="0 0 230 206" fill="none" xmlns="http://www.w3.org/2000/svg">
<g clip-path="url(#clip0_42_1736)">
<path d="M1.28886 46.2243C0.838489 46.3511 0.456745 46.6516 0.227379 47.0598C-0.00198762 47.468 -0.060251 47.9507 0.0653722 48.4018L29.5661 153.874C29.6928 154.325 29.9929 154.707 30.4007 154.936C30.8085 155.166 31.2906 155.224 31.7412 155.099L140.496 124.613C140.946 124.486 141.328 124.186 141.557 123.777C141.787 123.369 141.845 122.887 141.719 122.436L112.219 16.9636C112.092 16.5127 111.792 16.1306 111.384 15.901C110.976 15.6714 110.494 15.613 110.044 15.7388L1.28886 46.2243Z" fill="#E6E6E6"/>
<path d="M33.1079 150.118L136.744 121.067L108.677 20.7192L5.04028 49.77L33.1079 150.118Z" fill="white"/>
<path d="M18.7425 63.1692C18.051 63.363 17.766 64.5128 18.107 65.7322C18.4481 66.9516 19.2882 67.786 19.9796 67.5922L67.2466 54.3426C67.9381 54.1487 68.2231 52.9989 67.8821 51.7795C67.541 50.5602 66.7009 49.7258 66.0095 49.9196L18.7425 63.1692Z" fill="#E6E6E6"/>
<path d="M22.5489 76.7786C21.8574 76.9724 21.5724 78.1222 21.9134 79.3416C22.2545 80.561 23.0945 81.3954 23.786 81.2016L71.053 67.9519C71.7445 67.7581 72.0295 66.6083 71.6885 65.3889C71.3474 64.1695 70.5073 63.3351 69.8159 63.5289L22.5489 76.7786Z" fill="#E6E6E6"/>
<path d="M26.3116 90.2307C25.6201 90.4245 25.335 91.5743 25.6761 92.7937C26.0172 94.0131 26.8573 94.8475 27.5487 94.6537L74.8157 81.4041C75.5072 81.2103 75.7922 80.0605 75.4512 78.8411C75.1101 77.6217 74.27 76.7873 73.5786 76.9811L26.3116 90.2307Z" fill="#E6E6E6"/>
<path d="M30.118 103.84C29.4265 104.034 29.1414 105.184 29.4825 106.403C29.8236 107.622 30.6636 108.457 31.3551 108.263L78.6221 95.0135C79.3136 94.8196 79.5986 93.6698 79.2576 92.4504C78.9165 91.231 78.0764 90.3967 77.385 90.5905L30.118 103.84Z" fill="#E6E6E6"/>
<path d="M89.9969 43.3525C89.7065 43.4336 89.4348 43.5712 89.1976 43.7574C88.9603 43.9436 88.7621 44.1747 88.6141 44.4377C88.4661 44.7007 88.3714 44.9903 88.3353 45.2899C88.2993 45.5895 88.3225 45.8934 88.4038 46.184C88.4851 46.4746 88.6228 46.7464 88.8091 46.9837C88.9954 47.221 89.2265 47.4192 89.4894 47.567C89.7522 47.7149 90.0416 47.8093 90.341 47.8451C90.6403 47.8809 90.9438 47.8573 91.234 47.7756L100.07 45.2986C100.656 45.1344 101.153 44.7439 101.451 44.213C101.749 43.6821 101.825 43.0544 101.661 42.4679C101.497 41.8813 101.107 41.3841 100.576 41.0855C100.046 40.7869 99.4191 40.7114 98.8332 40.8756L89.9969 43.3525Z" fill="#E6E6E6"/>
<path d="M93.7298 56.6978C93.4394 56.7788 93.1678 56.9164 92.9305 57.1026C92.6932 57.2888 92.495 57.52 92.347 57.7829C92.1991 58.0459 92.1043 58.3355 92.0682 58.6351C92.0322 58.9348 92.0554 59.2386 92.1367 59.5292C92.218 59.8199 92.3557 60.0916 92.542 60.3289C92.7283 60.5662 92.9595 60.7645 93.2223 60.9123C93.4852 61.0601 93.7745 61.1546 94.0739 61.1903C94.3732 61.2261 94.6767 61.2025 94.9669 61.1208L103.803 58.6438C104.389 58.4796 104.886 58.0891 105.184 57.5582C105.482 57.0273 105.558 56.3996 105.394 55.8131C105.23 55.2265 104.84 54.7293 104.309 54.4307C103.779 54.1321 103.152 54.0566 102.566 54.2208L93.7298 56.6978Z" fill="#E6E6E6"/>
<path d="M97.4623 70.0435C97.1722 70.1248 96.901 70.2625 96.664 70.4488C96.4271 70.635 96.2291 70.8662 96.0815 71.1291C95.9338 71.3919 95.8392 71.6813 95.8033 71.9808C95.7673 72.2802 95.7906 72.5838 95.8718 72.8742C95.9531 73.1646 96.0906 73.4362 96.2767 73.6734C96.4628 73.9106 96.6937 74.1087 96.9562 74.2566C97.2188 74.4045 97.5079 74.4991 97.807 74.5351C98.1061 74.5711 98.4094 74.5478 98.6995 74.4665L107.536 71.9895C108.122 71.8253 108.618 71.4348 108.917 70.9039C109.215 70.373 109.29 69.7453 109.126 69.1588C108.962 68.5723 108.572 68.075 108.042 67.7764C107.512 67.4778 106.885 67.4023 106.299 67.5665L97.4623 70.0435Z" fill="#E6E6E6"/>
<path d="M101.195 83.389C100.61 83.5537 100.114 83.9444 99.8162 84.475C99.5184 85.0056 99.4433 85.6329 99.6072 86.219C99.7711 86.8051 100.161 87.302 100.69 87.6007C101.22 87.8994 101.847 87.9754 102.432 87.812L111.269 85.335C111.854 85.1702 112.35 84.7796 112.648 84.249C112.945 83.7183 113.021 83.091 112.857 82.505C112.693 81.9189 112.303 81.4219 111.773 81.1232C111.244 80.8245 110.617 80.7486 110.032 80.912L101.195 83.389Z" fill="#E6E6E6"/>
<path d="M104.761 106.521C104.391 106.624 104.045 106.799 103.743 107.037C103.441 107.274 103.188 107.569 103 107.904C102.811 108.239 102.69 108.608 102.644 108.99C102.598 109.371 102.628 109.758 102.732 110.129C102.835 110.499 103.011 110.845 103.248 111.148C103.485 111.45 103.78 111.703 104.115 111.891C104.45 112.079 104.818 112.2 105.2 112.245C105.581 112.291 105.968 112.261 106.338 112.157L117.597 109.001C118.344 108.791 118.977 108.294 119.357 107.617C119.737 106.941 119.833 106.141 119.624 105.394C119.415 104.646 118.918 104.013 118.242 103.632C117.566 103.252 116.767 103.155 116.021 103.365V103.365L104.761 106.521Z" fill="#FF2958"/>
<path d="M116.349 95.139L33.0312 118.494L33.2386 119.236L116.556 95.8804L116.349 95.139Z" fill="#E6E6E6"/>
<path d="M200.04 194.82L193.358 196.437L183.947 171.404L193.81 169.018L200.04 194.82Z" fill="#A0616A"/>
<path d="M181.83 206L181.785 205.813C181.255 203.609 181.62 201.285 182.8 199.351C183.98 197.416 185.879 196.029 188.079 195.494L201.153 192.33L203.205 200.827L181.83 206Z" fill="#E6E6E6"/>
<path d="M170.459 199.377L163.584 199.377L160.314 172.831L170.46 172.831L170.459 199.377Z" fill="#A0616A"/>
<path d="M172.124 205.96L150.134 205.959V205.767C150.134 203.499 151.033 201.325 152.635 199.722C154.237 198.118 156.409 197.218 158.674 197.218H158.674L172.125 197.218L172.124 205.96Z" fill="#E6E6E6"/>
<path d="M160.308 189.014L153.634 109.376L181.265 104.277L181.374 104.257L189.462 109.462L186.647 138.771L199.608 184.466L188.417 187.414L175.435 145.035L172.465 132.147L170.942 148.893L172.072 190.192L160.308 189.014Z" fill="#675DA5"/>
<path d="M152.778 111.182L152.705 111.089L162.253 39.1173L162.265 39.023L162.333 38.9555C162.473 38.8146 165.819 35.5051 169.26 35.5051C169.757 35.5051 170.23 35.4925 170.684 35.481C173.317 35.4125 175.397 35.3577 177.869 37.8328C180.388 40.354 188.606 49.5606 188.606 62.1699C188.606 74.3747 189.716 112.303 189.727 112.685L189.743 113.22L189.294 112.928C189.183 112.857 178.131 105.811 168.861 112.361C165.964 114.408 163.362 115.125 161.136 115.125C155.957 115.125 152.822 111.238 152.778 111.182Z" fill="#3F3D56"/>
<path d="M174.405 29.5666C181.079 25.9141 183.532 17.5367 179.883 10.8551C176.235 4.17357 167.867 1.718 161.192 5.37048C154.518 9.02296 152.065 17.4004 155.714 24.0819C159.362 30.7635 167.73 33.2191 174.405 29.5666Z" fill="#A0616A"/>
<path d="M146.715 126.649C147.367 126.144 147.9 125.502 148.276 124.768C148.653 124.034 148.865 123.226 148.896 122.401C148.927 121.576 148.777 120.755 148.457 119.995C148.137 119.234 147.654 118.553 147.042 118L154.864 99.5308L144.623 101.418L138.765 118.667C137.905 119.757 137.474 121.125 137.553 122.512C137.633 123.899 138.218 125.209 139.198 126.193C140.178 127.177 141.485 127.767 142.87 127.851C144.255 127.935 145.623 127.508 146.715 126.649H146.715Z" fill="#A0616A"/>
<path d="M139.158 112.283L141.677 106.96C141.521 106.866 141.393 106.733 141.305 106.574C138.952 102.491 153.165 68.5886 154.113 66.3399C153.968 65.1168 152.476 52.1561 153.567 47.7875C154.852 42.6447 157.489 40.248 162.385 39.7732C167.784 39.2656 169.241 46.6061 169.255 46.6806L169.26 65.5516L163.063 87.2743L148.93 116.136L139.158 112.283Z" fill="#F0CF86"/>
<path d="M169.559 22.6632C167.908 22.8783 166.663 21.1872 166.085 19.624C165.508 18.0608 165.068 16.2409 163.632 15.3965C161.671 14.2429 159.162 15.6304 156.919 15.2498C154.387 14.8199 152.74 12.1329 152.611 9.5646C152.482 6.99628 153.503 4.52613 154.505 2.15818L154.855 5.101C154.808 4.1036 155.017 3.11087 155.463 2.21777C155.909 1.32467 156.577 0.561063 157.402 0L156.951 4.31815C157.234 1.89901 159.837 0.0245111 162.218 0.525831L162.147 3.09874C165.072 2.75053 168.023 2.40183 170.957 2.66711C173.891 2.9324 176.845 3.86166 179.068 5.79591C182.395 8.68927 183.609 13.4535 183.201 17.8458C182.794 22.2381 180.983 26.3643 179.095 30.3503C178.62 31.3532 177.963 32.4849 176.862 32.6126C175.872 32.7274 174.967 31.8993 174.659 30.9508C174.352 30.0023 174.502 28.9719 174.686 27.9919C174.964 26.5114 175.315 24.9981 175.053 23.5146C174.792 22.0311 173.726 20.5651 172.232 20.3833C170.738 20.2015 169.209 21.9109 169.928 23.2347L169.559 22.6632Z" fill="#2F2E41"/>
<path d="M229.853 205.991H130.741V205.181H230L229.853 205.991Z" fill="#3F3D56"/>
</g>
<defs>
<clipPath id="clip0_42_1736">
<rect width="230" height="206" fill="white"/>
</clipPath>
</defs>
</svg>
