<svg width="265" height="158" viewBox="0 0 265 158" fill="none" xmlns="http://www.w3.org/2000/svg">
<g filter="url(#filter0_i_162_2013)">
<path d="M213.135 98.2916C219.971 167.523 135.374 164.104 101.62 149.147C89.6569 96.5822 0 115.587 0 77.3512C0 39.1157 201.101 0 249.947 0C298.792 0 213.135 60.0561 213.135 98.2916Z" fill="#FCFBFF"/>
</g>
<g clip-path="url(#clip0_162_2013)">
<path d="M115.913 104.151L97.6756 108.341C97.6756 108.341 93.9568 107.909 97.4834 102.621C97.8001 102.145 98.1761 101.633 98.6178 101.076L108.07 96.3519L107.982 95.7167L105.969 81.2626L105.191 75.6683L111.123 70.0515L112.256 68.9785L127.311 83.1619L127.204 83.3637L120.91 94.9497L115.913 104.151Z" fill="#FFB7B7"/>
<path d="M109.17 99.9376L90.9319 104.128C90.6581 104.096 90.394 104.006 90.1571 103.862C89.9201 103.719 89.7156 103.526 89.5572 103.297C89.3988 103.067 89.29 102.806 89.2381 102.53C89.1861 102.255 89.1922 101.971 89.2558 101.698C89.3441 101.158 89.5102 100.634 89.7488 100.143C90.328 98.9683 91.0414 97.8675 91.8741 96.8633L101.326 92.139L100.167 83.8145L99.5896 79.6631L99.2159 76.9792L98.4475 71.4554L105.512 64.7656L113.206 72.0123L120.568 78.949L119.574 80.7752L118.39 82.958L112.705 93.4285L111.547 95.5614L109.17 99.9376Z" fill="#FFB7B7"/>
<path d="M140.877 97.0114C140.877 97.0114 134.043 96.5481 131.488 91.8395C130.679 90.2817 130.367 88.5057 130.595 86.7589L127.81 81.1513L123.846 73.1615L113.734 71.5353L113.207 72.0121L105.874 78.6468L103.631 80.6769L100.167 83.8144L83.3677 99.0157C82.6988 100.229 81.8393 101.323 80.8234 102.254C79.8897 103.136 78.8623 103.91 77.7602 104.56C74.5548 106.455 69.763 107.927 62.8729 107.154L26.55 117L23 92.1896L53.4656 81.9879L98.1452 52.2227L128.307 60.0839L142.293 80.3104L140.877 97.0114Z" fill="#FFB7B7"/>
<path d="M244.157 31H116.957C116.468 31.0006 115.999 31.1985 115.654 31.5505C115.308 31.9025 115.114 32.3797 115.113 32.8775V109.587C115.114 110.085 115.308 110.562 115.654 110.914C115.999 111.266 116.468 111.464 116.957 111.465H244.157C244.645 111.464 245.114 111.266 245.46 110.914C245.805 110.562 246 110.085 246 109.587V32.8775C246 32.3797 245.805 31.9025 245.46 31.5506C245.114 31.1986 244.645 31.0006 244.157 31Z" fill="#F7D7D5"/>
<path d="M244.157 31H116.957C116.468 31.0006 115.999 31.1985 115.654 31.5505C115.308 31.9025 115.114 32.3797 115.113 32.8775V109.587C115.114 110.085 115.308 110.562 115.654 110.914C115.999 111.266 116.468 111.464 116.957 111.465H244.157C244.645 111.464 245.114 111.266 245.46 110.914C245.805 110.562 246 110.085 246 109.587V32.8775C246 32.3797 245.805 31.9025 245.46 31.5506C245.114 31.1986 244.645 31.0006 244.157 31ZM245.473 109.587C245.473 109.943 245.335 110.284 245.088 110.536C244.841 110.787 244.506 110.928 244.157 110.928H116.957C116.608 110.928 116.273 110.787 116.026 110.536C115.779 110.284 115.64 109.943 115.64 109.587V32.8775C115.64 32.5219 115.779 32.1809 116.026 31.9294C116.273 31.6779 116.608 31.5366 116.957 31.5364H244.157C244.506 31.5366 244.841 31.6779 245.088 31.9294C245.335 32.1809 245.473 32.5219 245.473 32.8775V109.587Z" fill="#3F3D56"/>
<path d="M129.333 41.4606C128.708 41.4606 128.097 41.2719 127.577 40.9182C127.058 40.5645 126.653 40.0619 126.413 39.4737C126.174 38.8856 126.112 38.2385 126.234 37.6141C126.356 36.9898 126.656 36.4163 127.098 35.9661C127.54 35.516 128.104 35.2095 128.717 35.0853C129.33 34.9611 129.965 35.0248 130.542 35.2684C131.12 35.512 131.613 35.9246 131.961 36.4539C132.308 36.9832 132.493 37.6055 132.493 38.242C132.493 39.0957 132.16 39.9143 131.568 40.5179C130.975 41.1215 130.171 41.4606 129.333 41.4606ZM129.333 35.5599C128.812 35.5599 128.303 35.7172 127.87 36.0119C127.437 36.3066 127.099 36.7255 126.9 37.2156C126.701 37.7057 126.649 38.245 126.75 38.7653C126.852 39.2856 127.103 39.7635 127.471 40.1386C127.839 40.5137 128.308 40.7692 128.819 40.8727C129.33 40.9762 129.86 40.923 130.341 40.72C130.822 40.517 131.233 40.1732 131.523 39.7322C131.812 39.2911 131.967 38.7725 131.967 38.242C131.967 37.8898 131.899 37.541 131.766 37.2156C131.634 36.8902 131.44 36.5945 131.195 36.3455C130.951 36.0964 130.66 35.8988 130.341 35.764C130.021 35.6292 129.679 35.5599 129.333 35.5599Z" fill="#6C63FF"/>
<path d="M124.421 38.2424C124.421 37.6284 124.609 37.0298 124.959 36.5298C125.309 36.0299 125.804 35.6536 126.373 35.4533C125.937 35.3 125.471 35.2551 125.014 35.3223C124.557 35.3896 124.123 35.567 123.747 35.8399C123.371 36.1128 123.065 36.4732 122.853 36.8911C122.642 37.309 122.532 37.7723 122.532 38.2424C122.532 38.7125 122.642 39.1758 122.853 39.5937C123.065 40.0116 123.371 40.3719 123.747 40.6448C124.123 40.9177 124.557 41.0952 125.014 41.1624C125.471 41.2297 125.937 41.1848 126.373 41.0314C125.804 40.8311 125.309 40.4548 124.959 39.9549C124.609 39.455 124.421 38.8563 124.421 38.2424Z" fill="#6C63FF"/>
<path d="M142.144 76.27C141.515 76.2692 140.913 76.0147 140.468 75.5621C140.024 75.1096 139.774 74.496 139.773 73.856V66.6142C139.774 65.9745 140.024 65.3612 140.469 64.9091C140.913 64.4571 141.516 64.2031 142.144 64.2031C142.772 64.2031 143.374 64.4571 143.819 64.9091C144.263 65.3612 144.513 65.9745 144.514 66.6142V73.856C144.513 74.496 144.263 75.1096 143.819 75.5621C143.374 76.0147 142.772 76.2692 142.144 76.27Z" fill="#6C63FF"/>
<path d="M148.464 76.27C147.836 76.2692 147.234 76.0147 146.789 75.5621C146.345 75.1096 146.095 74.496 146.094 73.856V66.6142C146.095 65.9745 146.345 65.3612 146.789 64.9091C147.234 64.4571 147.836 64.2031 148.464 64.2031C149.093 64.2031 149.695 64.4571 150.139 64.9091C150.584 65.3612 150.834 65.9745 150.835 66.6142V73.856C150.834 74.496 150.584 75.1096 150.14 75.5621C149.695 76.0147 149.093 76.2692 148.464 76.27Z" fill="#6C63FF"/>
<path d="M154.785 76.27C154.156 76.2692 153.554 76.0147 153.11 75.5621C152.665 75.1096 152.415 74.496 152.415 73.856V66.6142C152.415 65.9745 152.665 65.3612 153.11 64.9091C153.554 64.4571 154.157 64.2031 154.785 64.2031C155.413 64.2031 156.015 64.4571 156.46 64.9091C156.904 65.3612 157.154 65.9745 157.155 66.6142V73.856C157.154 74.496 156.904 75.1096 156.46 75.5621C156.016 76.0147 155.413 76.2692 154.785 76.27Z" fill="#6C63FF"/>
<path d="M164.529 76.27C163.9 76.2692 163.298 76.0147 162.854 75.5621C162.409 75.1096 162.159 74.496 162.159 73.856V66.6142C162.159 65.9745 162.41 65.3612 162.854 64.9091C163.298 64.4571 163.901 64.2031 164.529 64.2031C165.157 64.2031 165.759 64.4571 166.204 64.9091C166.648 65.3612 166.898 65.9745 166.899 66.6142V73.856C166.898 74.496 166.648 75.1096 166.204 75.5621C165.76 76.0147 165.157 76.2692 164.529 76.27Z" fill="#6C63FF"/>
<path d="M170.849 76.27C170.221 76.2692 169.618 76.0147 169.174 75.5621C168.73 75.1096 168.48 74.496 168.479 73.856V66.6142C168.48 65.9745 168.73 65.3612 169.174 64.9091C169.619 64.4571 170.221 64.2031 170.849 64.2031C171.477 64.2031 172.08 64.4571 172.524 64.9091C172.969 65.3612 173.219 65.9745 173.219 66.6142V73.856C173.219 74.496 172.969 75.1096 172.524 75.5621C172.08 76.0147 171.478 76.2692 170.849 76.27Z" fill="#6C63FF"/>
<path d="M177.17 76.27C176.542 76.2692 175.939 76.0147 175.495 75.5621C175.05 75.1096 174.801 74.496 174.8 73.856V66.6142C174.801 65.9745 175.051 65.3612 175.495 64.9091C175.939 64.4571 176.542 64.2031 177.17 64.2031C177.798 64.2031 178.401 64.4571 178.845 64.9091C179.289 65.3612 179.539 65.9745 179.54 66.6142V73.856C179.539 74.496 179.289 75.1096 178.845 75.5621C178.401 76.0147 177.798 76.2692 177.17 76.27Z" fill="#6C63FF"/>
<path d="M186.914 76.27C186.286 76.2692 185.683 76.0147 185.239 75.5621C184.795 75.1096 184.545 74.496 184.544 73.856V66.6142C184.545 65.9745 184.795 65.3612 185.239 64.9091C185.684 64.4571 186.286 64.2031 186.914 64.2031C187.542 64.2031 188.145 64.4571 188.589 64.9091C189.034 65.3612 189.284 65.9745 189.284 66.6142V73.856C189.284 74.496 189.034 75.1096 188.589 75.5621C188.145 76.0147 187.543 76.2692 186.914 76.27Z" fill="#6C63FF"/>
<path d="M193.234 76.27C192.606 76.2692 192.004 76.0147 191.559 75.5621C191.115 75.1096 190.865 74.496 190.864 73.856V66.6142C190.865 65.9745 191.115 65.3612 191.559 64.9091C192.004 64.4571 192.606 64.2031 193.234 64.2031C193.863 64.2031 194.465 64.4571 194.909 64.9091C195.354 65.3612 195.604 65.9745 195.605 66.6142V73.856C195.604 74.496 195.354 75.1096 194.91 75.5621C194.465 76.0147 193.863 76.2692 193.234 76.27Z" fill="#6C63FF"/>
<path d="M199.555 76.27C198.926 76.2692 198.324 76.0147 197.88 75.5621C197.435 75.1096 197.185 74.496 197.185 73.856V66.6142C197.185 65.9745 197.435 65.3612 197.88 64.9091C198.324 64.4571 198.927 64.2031 199.555 64.2031C200.183 64.2031 200.785 64.4571 201.23 64.9091C201.674 65.3612 201.924 65.9745 201.925 66.6142V73.856C201.924 74.496 201.674 75.1096 201.23 75.5621C200.786 76.0147 200.183 76.2692 199.555 76.27Z" fill="#6C63FF"/>
<path d="M209.299 76.27C208.67 76.2692 208.068 76.0147 207.624 75.5621C207.179 75.1096 206.929 74.496 206.929 73.856V66.6142C206.929 65.9745 207.18 65.3612 207.624 64.9091C208.068 64.4571 208.671 64.2031 209.299 64.2031C209.927 64.2031 210.529 64.4571 210.974 64.9091C211.418 65.3612 211.668 65.9745 211.669 66.6142V73.856C211.668 74.496 211.418 75.1096 210.974 75.5621C210.53 76.0147 209.927 76.2692 209.299 76.27Z" fill="#6C63FF"/>
<path d="M215.619 76.27C214.991 76.2692 214.388 76.0147 213.944 75.5621C213.5 75.1096 213.25 74.496 213.249 73.856V66.6142C213.25 65.9745 213.5 65.3612 213.944 64.9091C214.389 64.4571 214.991 64.2031 215.619 64.2031C216.247 64.2031 216.85 64.4571 217.294 64.9091C217.739 65.3612 217.989 65.9745 217.989 66.6142V73.856C217.989 74.496 217.739 75.1096 217.294 75.5621C216.85 76.0147 216.248 76.2692 215.619 76.27Z" fill="#6C63FF"/>
<path d="M221.94 76.27C221.312 76.2692 220.709 76.0147 220.265 75.5621C219.821 75.1096 219.571 74.496 219.57 73.856V66.6142C219.571 65.9745 219.821 65.3612 220.265 64.9091C220.709 64.4571 221.312 64.2031 221.94 64.2031C222.568 64.2031 223.171 64.4571 223.615 64.9091C224.059 65.3612 224.309 65.9745 224.31 66.6142V73.856C224.309 74.496 224.06 75.1096 223.615 75.5621C223.171 76.0147 222.568 76.2692 221.94 76.27Z" fill="#6C63FF"/>
<path d="M158.213 103.136H124.125C123.915 103.136 123.708 103.094 123.515 103.013C123.321 102.931 123.145 102.812 122.997 102.661C122.849 102.511 122.731 102.332 122.651 102.135C122.571 101.938 122.53 101.727 122.53 101.514C122.53 101.3 122.571 101.089 122.651 100.892C122.731 100.695 122.849 100.516 122.997 100.366C123.145 100.215 123.321 100.096 123.515 100.014C123.708 99.933 123.915 99.8913 124.125 99.8916H158.213C158.635 99.8922 159.04 100.063 159.338 100.368C159.636 100.672 159.804 101.084 159.804 101.514C159.804 101.943 159.636 102.356 159.338 102.66C159.04 102.964 158.635 103.135 158.213 103.136Z" fill="#E6E6E6"/>
<path d="M147.284 96.162H135.054C134.631 96.162 134.226 95.9911 133.927 95.6869C133.629 95.3827 133.461 94.9701 133.461 94.54C133.461 94.1098 133.629 93.6972 133.927 93.393C134.226 93.0889 134.631 92.918 135.054 92.918H147.284C147.706 92.918 148.111 93.0889 148.41 93.393C148.709 93.6972 148.876 94.1098 148.876 94.54C148.876 94.9701 148.709 95.3827 148.41 95.6869C148.111 95.9911 147.706 96.162 147.284 96.162Z" fill="#E6E6E6"/>
<path d="M245.378 47.0342H115.545V47.5706H245.378V47.0342Z" fill="#3F3D56"/>
<path opacity="0.15" d="M100.7 101.431L100.423 100.796L111.68 95.7118L114.363 86.1242L110.318 82.7934L110.747 82.2529L115.143 85.8727L112.248 96.2151L100.7 101.431Z" fill="black"/>
<path opacity="0.1" d="M89.7488 100.143L86.7901 101.611L80.8233 102.255C79.8897 103.137 78.8622 103.911 77.7601 104.561L72.5278 104.385L63.6904 104.103L93.5666 78.1572L99.5896 79.6638C99.5896 79.6638 89.4699 100.749 89.7488 100.143Z" fill="black"/>
<path d="M131.488 91.8402C130.703 91.994 129.844 92.1213 128.893 92.2188C123.988 92.7183 113.62 93.3822 112.706 93.4289C106.564 93.7233 102.703 93.7199 102.703 93.7199L89.749 100.143L86.7903 101.611L62.8081 104.198L95.2822 75.9961L99.2161 76.9796L105.874 78.6474L113.21 80.4841L119.574 80.7757L127.81 81.1519L134.468 81.4564C135.621 81.4972 136.712 82.0011 137.501 82.8581C138.291 83.7151 138.716 84.8556 138.683 86.0305C138.578 88.2671 137.055 90.7383 131.488 91.8402Z" fill="#FFB7B7"/>
<path opacity="0.15" d="M134.012 90.1395C133.906 90.1064 131.405 89.3052 130.611 87.063C130.077 85.5556 130.453 83.7916 131.727 81.8203L132.297 82.2023C131.149 83.9789 130.797 85.5337 131.251 86.8232C131.926 88.7374 134.189 89.468 134.212 89.4751L134.012 90.1395Z" fill="black"/>
<path opacity="0.15" d="M101.654 93.8519L90.1938 99.5371L90.4925 100.162L101.953 94.4765L101.654 93.8519Z" fill="black"/>
<path opacity="0.15" d="M97.375 77.7328L113.609 71.2119L113.859 71.8583L99.8306 77.4935L111.753 79.7617L111.628 80.4446L97.375 77.7328Z" fill="black"/>
</g>
<defs>
<filter id="filter0_i_162_2013" x="0" y="0" width="265" height="162" filterUnits="userSpaceOnUse" color-interpolation-filters="sRGB">
<feFlood flood-opacity="0" result="BackgroundImageFix"/>
<feBlend mode="normal" in="SourceGraphic" in2="BackgroundImageFix" result="shape"/>
<feColorMatrix in="SourceAlpha" type="matrix" values="0 0 0 0 0 0 0 0 0 0 0 0 0 0 0 0 0 0 127 0" result="hardAlpha"/>
<feOffset dy="4"/>
<feGaussianBlur stdDeviation="2"/>
<feComposite in2="hardAlpha" operator="arithmetic" k2="-1" k3="1"/>
<feColorMatrix type="matrix" values="0 0 0 0 0.968627 0 0 0 0 0.843137 0 0 0 0 0.835294 0 0 0 1 0"/>
<feBlend mode="normal" in2="shape" result="effect1_innerShadow_162_2013"/>
</filter>
<clipPath id="clip0_162_2013">
<rect width="223" height="86" fill="white" transform="translate(23 31)"/>
</clipPath>
</defs>
</svg>
