<svg width="245" height="160" viewBox="0 0 245 160" fill="none" xmlns="http://www.w3.org/2000/svg">
<path d="M245 55.8161C202.711 29.5226 187.083 123.626 132.383 143C45.3382 143 23.9024 -0.46129 0 72.8839C0 20.3093 59.2964 8.76452 123.189 0C161.851 87.1839 220.638 13.8387 245 55.8161Z" fill="#FCFBFF"/>
<g clip-path="url(#clip0_162_2014)">
<path d="M193.412 159.849V144.706C193.412 144.706 199.27 155.442 193.412 159.849Z" fill="#F0CF86"/>
<path d="M193.774 159.846L182.702 149.605C182.702 149.605 194.513 152.518 193.774 159.846Z" fill="#F0CF86"/>
<path d="M154.721 75.8162L95.9657 110.414C95.7601 110.535 95.5153 110.569 95.285 110.508C95.0548 110.447 94.8579 110.297 94.7376 110.09L56.9539 44.9585C56.834 44.7513 56.8006 44.5047 56.8609 44.2727C56.9213 44.0407 57.0706 43.8424 57.276 43.7211L116.032 9.12323C116.237 9.00245 116.482 8.96879 116.712 9.02963C116.943 9.09046 117.139 9.24083 117.26 9.44774L155.043 74.5789C155.163 74.786 155.197 75.0327 155.136 75.2646C155.076 75.4966 154.927 75.695 154.721 75.8162Z" fill="#F7D7D5"/>
<path d="M154.721 75.8162L95.9657 110.414C95.7601 110.535 95.5153 110.569 95.285 110.508C95.0548 110.447 94.8579 110.297 94.7376 110.09L56.9539 44.9585C56.834 44.7513 56.8006 44.5047 56.8609 44.2727C56.9213 44.0407 57.0706 43.8424 57.276 43.7211L116.032 9.12323C116.237 9.00245 116.482 8.96879 116.712 9.02963C116.943 9.09046 117.139 9.24083 117.26 9.44774L155.043 74.5789C155.163 74.786 155.197 75.0327 155.136 75.2646C155.076 75.4966 154.927 75.695 154.721 75.8162ZM57.4572 44.0335C57.3339 44.1062 57.2444 44.2253 57.2082 44.3645C57.1719 44.5036 57.192 44.6516 57.2639 44.7759L95.0476 109.907C95.1198 110.031 95.238 110.121 95.3761 110.158C95.5143 110.194 95.6611 110.174 95.7845 110.102L154.54 75.5039C154.663 75.4311 154.753 75.3121 154.789 75.1729C154.825 75.0337 154.805 74.8857 154.733 74.7614L116.95 9.6303C116.878 9.50615 116.759 9.41593 116.621 9.37942C116.483 9.34292 116.336 9.36312 116.213 9.43559L57.4572 44.0335Z" fill="#3F3D56"/>
<path d="M95.2255 50.5203L80.6528 59.1013C80.4472 59.2221 80.2024 59.2557 79.9721 59.1949C79.7419 59.1341 79.545 58.9837 79.4247 58.7768L70.9075 44.0949C70.7876 43.8878 70.7542 43.6411 70.8146 43.4092C70.8749 43.1772 71.0242 42.9788 71.2296 42.8576L85.8022 34.2765C86.0078 34.1558 86.2526 34.1221 86.4829 34.1829C86.7131 34.2438 86.91 34.3941 87.0304 34.6011L95.5476 49.2829C95.6674 49.4901 95.7009 49.7367 95.6405 49.9687C95.5801 50.2007 95.4308 50.399 95.2255 50.5203ZM71.4108 43.1699C71.2876 43.2427 71.198 43.3617 71.1618 43.5009C71.1255 43.6401 71.1456 43.7881 71.2175 43.9124L79.7347 58.5942C79.8069 58.7184 79.9251 58.8086 80.0632 58.8451C80.2014 58.8816 80.3482 58.8614 80.4716 58.7889L95.0443 50.2079C95.1675 50.1352 95.257 50.0161 95.2933 49.8769C95.3295 49.7378 95.3095 49.5898 95.2375 49.4655L86.7203 34.7836C86.6481 34.6595 86.53 34.5693 86.3918 34.5328C86.2537 34.4963 86.1068 34.5165 85.9834 34.5889L71.4108 43.1699Z" fill="#F2F2F2"/>
<path d="M92.0816 54.7805L77.509 63.3615C77.3239 63.4702 77.1036 63.5005 76.8964 63.4457C76.6892 63.391 76.512 63.2557 76.4036 63.0694L67.8864 48.3876C67.7786 48.2011 67.7485 47.9792 67.8028 47.7704C67.8572 47.5616 67.9915 47.3831 68.1763 47.274L82.749 38.6929C82.9341 38.5842 83.1544 38.5539 83.3616 38.6087C83.5688 38.6634 83.746 38.7988 83.8543 38.985L92.3715 53.6668C92.4794 53.8533 92.5095 54.0753 92.4551 54.2841C92.4008 54.4928 92.2665 54.6714 92.0816 54.7805Z" fill="#6C63FF"/>
<path d="M127.255 43.7084L81.6772 70.5469C81.4922 70.6558 81.2718 70.6862 81.0645 70.6315C80.8572 70.5767 80.68 70.4412 80.5718 70.2548C80.4637 70.0684 80.4335 69.8463 80.4879 69.6375C80.5422 69.4286 80.6767 69.2501 80.8617 69.1411L126.44 42.3027C126.532 42.2487 126.633 42.2135 126.738 42.1989C126.843 42.1844 126.95 42.1909 127.053 42.218C127.155 42.2452 127.252 42.2924 127.336 42.357C127.421 42.4216 127.492 42.5024 127.545 42.5947C127.599 42.687 127.634 42.789 127.648 42.895C127.663 43.0009 127.656 43.1086 127.629 43.212C127.602 43.3154 127.556 43.4125 127.491 43.4977C127.427 43.5828 127.347 43.6544 127.255 43.7084Z" fill="#CCCCCC"/>
<path d="M119.057 55.0316L84.4858 75.3887C84.3942 75.4426 84.2929 75.4779 84.1878 75.4924C84.0827 75.5069 83.9757 75.5004 83.8731 75.4733C83.6658 75.4185 83.4886 75.283 83.3804 75.0966C83.2723 74.9102 83.2421 74.6882 83.2965 74.4793C83.3508 74.2705 83.4853 74.0919 83.6703 73.983L118.242 53.6259C118.333 53.5719 118.434 53.5367 118.54 53.5222C118.645 53.5077 118.752 53.5142 118.854 53.5413C118.957 53.5684 119.053 53.6156 119.138 53.6802C119.222 53.7449 119.293 53.8257 119.347 53.918C119.4 54.0103 119.435 54.1123 119.45 54.2182C119.464 54.3241 119.458 54.4319 119.431 54.5353C119.404 54.6387 119.357 54.7357 119.293 54.8209C119.229 54.9061 119.149 54.9777 119.057 55.0316V55.0316Z" fill="#CCCCCC"/>
<path d="M116.771 25.9935L96.6171 37.8609C96.4321 37.9698 96.2117 38.0003 96.0044 37.9455C95.7971 37.8907 95.6199 37.7552 95.5118 37.5688C95.4036 37.3824 95.3734 37.1603 95.4278 36.9515C95.4822 36.7427 95.6167 36.5641 95.8017 36.4552L115.955 24.5878C116.14 24.4789 116.361 24.4484 116.568 24.5032C116.671 24.5303 116.767 24.5775 116.852 24.6422C116.936 24.7068 117.007 24.7876 117.061 24.8799C117.114 24.9722 117.149 25.0742 117.164 25.1801C117.178 25.286 117.172 25.3938 117.145 25.4972C117.118 25.6006 117.071 25.6976 117.007 25.7828C116.943 25.868 116.862 25.9396 116.771 25.9935Z" fill="#CCCCCC"/>
<path d="M114.55 33.7972L99.4262 42.7029C99.3346 42.7568 99.2334 42.7921 99.1282 42.8066C99.0231 42.8211 98.9162 42.8146 98.8135 42.7875C98.7109 42.7604 98.6145 42.7132 98.53 42.6485C98.4455 42.5839 98.3744 42.5031 98.3209 42.4108C98.2673 42.3185 98.2323 42.2165 98.2179 42.1106C98.2035 42.0047 98.21 41.8969 98.2369 41.7935C98.2638 41.6901 98.3107 41.5931 98.3748 41.5079C98.439 41.4227 98.5191 41.3511 98.6108 41.2972L113.735 32.3915C113.92 32.2826 114.14 32.2521 114.347 32.3069C114.555 32.3617 114.732 32.4972 114.84 32.6836C114.948 32.87 114.978 33.092 114.924 33.3009C114.87 33.5097 114.735 33.6883 114.55 33.7972Z" fill="#CCCCCC"/>
<path d="M132.873 53.392L87.2949 80.2304C87.1099 80.3394 86.8895 80.3698 86.6822 80.315C86.4749 80.2603 86.2977 80.1248 86.1895 79.9384C86.0814 79.7519 86.0512 79.5299 86.1055 79.321C86.1599 79.1122 86.2944 78.9337 86.4794 78.8247L132.058 51.9862C132.243 51.8773 132.463 51.8469 132.67 51.9016C132.878 51.9564 133.055 52.0919 133.163 52.2783C133.271 52.4647 133.301 52.6868 133.247 52.8956C133.193 53.1045 133.058 53.283 132.873 53.392V53.392Z" fill="#CCCCCC"/>
<path d="M124.675 64.7152L90.1035 85.0722C90.0119 85.1262 89.9106 85.1614 89.8055 85.1759C89.7003 85.1905 89.5934 85.184 89.4908 85.1569C89.3881 85.1297 89.2918 85.0825 89.2072 85.0179C89.1227 84.9533 89.0517 84.8725 88.9981 84.7802C88.9446 84.6879 88.9096 84.5859 88.8952 84.4799C88.8808 84.374 88.8872 84.2663 88.9141 84.1629C88.941 84.0595 88.9879 83.9624 89.0521 83.8772C89.1162 83.7921 89.1964 83.7205 89.288 83.6665L123.859 63.3095C123.951 63.2555 124.052 63.2203 124.157 63.2058C124.262 63.1913 124.369 63.1978 124.472 63.2249C124.575 63.252 124.671 63.2992 124.755 63.3638C124.84 63.4285 124.911 63.5092 124.965 63.6015C125.018 63.6938 125.053 63.7959 125.068 63.9018C125.082 64.0077 125.076 64.1154 125.049 64.2189C125.022 64.3223 124.975 64.4193 124.911 64.5045C124.847 64.5896 124.766 64.6612 124.675 64.7152V64.7152Z" fill="#CCCCCC"/>
<path d="M138.491 63.0755L92.9126 89.914C92.8209 89.968 92.7197 90.0032 92.6146 90.0177C92.5094 90.0323 92.4025 90.0258 92.2998 89.9987C92.1972 89.9715 92.1009 89.9243 92.0163 89.8597C91.9318 89.795 91.8607 89.7143 91.8072 89.622C91.7536 89.5297 91.7187 89.4277 91.7043 89.3217C91.6899 89.2158 91.6963 89.1081 91.7232 89.0047C91.7501 88.9013 91.797 88.8042 91.8612 88.719C91.9253 88.6339 92.0055 88.5623 92.0971 88.5083L137.675 61.6698C137.767 61.6159 137.868 61.5807 137.973 61.5661C138.079 61.5516 138.185 61.5581 138.288 61.5852C138.391 61.6123 138.487 61.6596 138.572 61.7242C138.656 61.7888 138.727 61.8696 138.781 61.9619C138.834 62.0542 138.869 62.1562 138.884 62.2621C138.898 62.3681 138.892 62.4758 138.865 62.5792C138.838 62.6826 138.791 62.7797 138.727 62.8648C138.663 62.95 138.582 63.0216 138.491 63.0755Z" fill="#CCCCCC"/>
<path d="M141.299 67.9173L95.7211 94.7558C95.6295 94.8098 95.5283 94.845 95.4231 94.8595C95.318 94.874 95.2111 94.8675 95.1084 94.8404C95.0058 94.8133 94.9095 94.7661 94.8249 94.7015C94.7404 94.6368 94.6693 94.5561 94.6158 94.4638C94.5622 94.3715 94.5273 94.2694 94.5129 94.1635C94.4984 94.0576 94.5049 93.9499 94.5318 93.8464C94.5587 93.743 94.6056 93.646 94.6697 93.5608C94.7339 93.4757 94.8141 93.4041 94.9057 93.3501L140.484 66.5116C140.576 66.4577 140.677 66.4225 140.782 66.4079C140.887 66.3934 140.994 66.3999 141.097 66.427C141.199 66.4541 141.296 66.5014 141.38 66.566C141.465 66.6306 141.536 66.7114 141.589 66.8037C141.643 66.896 141.678 66.998 141.692 67.1039C141.707 67.2099 141.7 67.3176 141.673 67.421C141.646 67.5244 141.599 67.6215 141.535 67.7066C141.471 67.7918 141.391 67.8634 141.299 67.9173Z" fill="#CCCCCC"/>
<path d="M126.56 86.7662C127.194 86.0149 127.764 85.2118 128.264 84.365C128.714 83.6012 129.154 82.7846 129.253 81.8888C129.304 81.5073 129.264 81.1192 129.138 80.756C129.012 80.3928 128.802 80.0647 128.526 79.7985C128.26 79.5509 127.922 79.3952 127.561 79.3539C127.201 79.3126 126.837 79.388 126.522 79.569C126.203 79.7533 125.94 80.0211 125.76 80.3439C125.58 80.6667 125.49 81.0325 125.499 81.4027C125.525 81.8103 125.642 82.2067 125.841 82.5624C126.04 82.9181 126.317 83.2239 126.649 83.4571C127.997 84.4404 130.101 84.389 131.536 83.6407C133.154 82.7978 133.989 80.5925 132.719 79.083C132.454 78.769 132.015 79.1199 132.081 79.4586C132.165 79.9161 132.419 80.324 132.791 80.599C133.164 80.8741 133.627 80.9955 134.085 80.9384C134.543 80.8813 134.963 80.6501 135.257 80.292C135.552 79.9339 135.7 79.4759 135.671 79.0116L135.1 79.3479C135.8 79.6604 136.57 79.7816 137.331 79.6993C138.093 79.617 138.819 79.3341 139.438 78.879C139.744 78.6551 140.017 78.389 140.25 78.0886C140.529 77.7211 140.999 77.4836 141.379 77.2189L144.12 75.311C144.523 75.0304 144.14 74.3616 143.733 74.6445L141.251 76.3724C140.838 76.6604 140.421 76.9448 140.01 77.2364C139.716 77.4448 139.536 77.7813 139.268 78.0289C138.762 78.4877 138.137 78.7921 137.465 78.9065C136.794 79.0209 136.104 78.9407 135.476 78.6752C135.417 78.6435 135.352 78.6275 135.285 78.6287C135.219 78.6299 135.154 78.6482 135.097 78.682C135.039 78.7157 134.992 78.7638 134.958 78.8215C134.924 78.8792 134.906 78.9446 134.905 79.0115C134.935 79.2886 134.855 79.5665 134.683 79.7847C134.511 80.0029 134.26 80.1437 133.986 80.1765C133.711 80.2093 133.434 80.1314 133.216 79.9597C132.998 79.7881 132.856 79.5367 132.822 79.2601L132.184 79.6358C133.003 80.6096 132.458 82.1032 131.513 82.7566C130.457 83.4874 128.897 83.6142 127.706 83.16C127.414 83.0588 127.146 82.8979 126.919 82.6876C126.691 82.4773 126.509 82.2219 126.384 81.9375C126.268 81.6806 126.235 81.3934 126.289 81.1165C126.344 80.8396 126.483 80.587 126.688 80.3941C126.865 80.2176 127.103 80.1175 127.352 80.1148C127.601 80.1122 127.842 80.2071 128.023 80.3797C128.22 80.5825 128.365 80.8309 128.444 81.1032C128.523 81.3755 128.535 81.6633 128.478 81.9412C128.355 82.7146 127.931 83.4277 127.536 84.0883C127.085 84.841 126.576 85.5562 126.012 86.2271C125.696 86.6039 126.241 87.147 126.56 86.7662L126.56 86.7662Z" fill="#6C63FF"/>
<path d="M133.363 105.121C133.429 105.189 133.49 105.263 133.544 105.341L142.032 105.131L143.022 103.309L145.947 104.455L144.506 107.853C144.389 108.128 144.188 108.357 143.931 108.506C143.674 108.655 143.377 108.717 143.082 108.681L133.493 107.514C133.267 107.802 132.959 108.014 132.61 108.122C132.261 108.23 131.888 108.228 131.54 108.117C131.192 108.006 130.886 107.791 130.663 107.501C130.439 107.21 130.309 106.858 130.289 106.491C130.269 106.123 130.36 105.759 130.551 105.445C130.742 105.132 131.022 104.884 131.356 104.736C131.69 104.587 132.061 104.544 132.419 104.613C132.778 104.682 133.107 104.859 133.363 105.121Z" fill="#FFB7B7"/>
<path d="M161.03 157.051H158.24L156.912 146.206L161.031 146.206L161.03 157.051Z" fill="#FFB7B7"/>
<path d="M161.742 159.776L152.744 159.776V159.661C152.744 158.726 153.113 157.828 153.77 157.166C154.426 156.505 155.317 156.133 156.246 156.133H156.246L161.742 156.133L161.742 159.776Z" fill="#2F2E41"/>
<path d="M135.69 156.989L133.124 155.884L136.132 145.386L139.919 147.016L135.69 156.989Z" fill="#FFB7B7"/>
<path d="M135.282 159.776L127.007 156.215L127.052 156.109C127.416 155.249 128.106 154.569 128.968 154.221C129.83 153.872 130.794 153.883 131.648 154.25L131.648 154.25L136.702 156.426L135.282 159.776Z" fill="#2F2E41"/>
<path d="M147.466 107.47L147.264 110.765L153.163 111.401L159.335 112.066L157.518 107.063L147.466 107.47Z" fill="#FFB7B7"/>
<path d="M147.078 110.807L144.787 94.7124L148.759 93.4009L149.925 91.7891L155.602 92.1275L156.436 94.0085L159.463 95.4495L158.998 104.154L159.337 111.435L147.078 110.807Z" fill="#C4C4C4"/>
<path d="M145.636 106.494L141.596 104.865L141.613 104.793C141.63 104.72 143.35 97.4802 143.578 96.3169C143.816 95.1048 144.685 94.7698 144.722 94.7561L144.749 94.7461L146.348 95.2364L147.05 100.795L145.636 106.494Z" fill="#C4C4C4"/>
<path d="M137.769 155.082L132.391 153.971L140.986 130.075L143.928 121.924C143.928 121.924 145.794 115.389 146.637 112.86L147.146 109.467L159.189 110.81C159.189 110.81 162.552 115.787 161.53 123.898L161.993 154.388L156.615 154.665L152.11 123.916L144.204 140.772C144.204 140.772 141.712 147.966 139.929 149.525L137.769 155.082Z" fill="#675DA5"/>
<path d="M154.359 111.942C154.454 111.939 154.548 111.945 154.642 111.957L160.261 105.545L159.607 103.574L162.43 102.191L163.924 105.567C164.045 105.84 164.074 106.145 164.008 106.436C163.942 106.727 163.784 106.989 163.558 107.182L156.189 113.472C156.245 113.836 156.191 114.208 156.032 114.539C155.873 114.87 155.618 115.144 155.301 115.326C154.983 115.507 154.619 115.587 154.255 115.555C153.892 115.522 153.547 115.379 153.266 115.144C152.985 114.909 152.782 114.594 152.683 114.24C152.585 113.886 152.596 113.51 152.714 113.163C152.833 112.815 153.054 112.512 153.348 112.294C153.641 112.076 153.994 111.953 154.359 111.942Z" fill="#FFB7B7"/>
<path d="M159.812 106.169L157.469 100.615L158.383 96.7459L159.368 95.4923C159.44 95.4612 159.518 95.4456 159.596 95.4463C159.675 95.4471 159.752 95.4642 159.824 95.4966C160.187 95.6439 160.496 96.0953 160.743 96.8383L162.939 103.141L159.812 106.169Z" fill="#C4C4C4"/>
<path d="M147.735 89.7295V85.7347C147.735 84.3151 148.312 82.9535 149.338 81.9497C150.364 80.9458 151.755 80.3818 153.206 80.3818C154.657 80.3818 156.048 80.9458 157.074 81.9497C158.1 82.9535 158.677 84.3151 158.677 85.7347V89.7295C158.676 89.9201 158.599 90.1029 158.461 90.2377C158.323 90.3725 158.137 90.4483 157.942 90.4485H148.47C148.275 90.4483 148.089 90.3725 147.951 90.2377C147.813 90.1029 147.736 89.9201 147.735 89.7295Z" fill="#2F2E41"/>
<path d="M152.078 90.3868C154.333 90.3868 156.161 88.545 156.161 86.273C156.161 84.001 154.333 82.1592 152.078 82.1592C149.823 82.1592 147.995 84.001 147.995 86.273C147.995 88.545 149.823 90.3868 152.078 90.3868Z" fill="#FFB7B7"/>
<path d="M146.335 85.878C146.336 84.7012 146.801 83.573 147.627 82.7409C148.453 81.9088 149.572 81.4408 150.74 81.4395H151.572C152.74 81.4408 153.86 81.9088 154.685 82.7409C155.511 83.573 155.976 84.7012 155.977 85.878V85.9617H154.221L153.621 84.2714L153.502 85.9617H152.594L152.291 85.1089L152.231 85.9617H146.335L146.335 85.878Z" fill="#2F2E41"/>
<path d="M151.676 90.9551C151.593 90.8425 151.544 90.7088 151.534 90.5694C151.523 90.4299 151.552 90.2903 151.617 90.1667C152.498 88.4787 153.732 85.3596 152.094 83.4361L151.977 83.2979H156.729V90.4866L152.412 91.2541C152.368 91.2619 152.324 91.2658 152.28 91.2658C152.162 91.2658 152.046 91.2377 151.941 91.1836C151.836 91.1296 151.745 91.0513 151.676 90.9551Z" fill="#2F2E41"/>
<path d="M96.2363 154.683L98.7583 155.591L103.435 146.222L99.7128 144.882L96.2363 154.683Z" fill="#9F616A"/>
<path d="M94.7192 156.914L95.8873 153.621L100.854 155.409C101.693 155.713 102.378 156.339 102.76 157.15C103.141 157.962 103.187 158.892 102.888 159.738L102.851 159.842L94.7192 156.914Z" fill="#2F2E41"/>
<path d="M112.636 157.195L115.314 157.195L116.589 146.787L112.636 146.787L112.636 157.195Z" fill="#9F616A"/>
<path d="M111.953 156.315L117.228 156.314H117.228C117.669 156.314 118.106 156.402 118.514 156.572C118.922 156.742 119.292 156.992 119.605 157.306C119.917 157.621 120.164 157.994 120.333 158.405C120.502 158.816 120.589 159.256 120.589 159.701V159.811L111.953 159.811L111.953 156.315Z" fill="#2F2E41"/>
<path d="M106.532 90.7026L107.697 88.3838C107.697 88.3838 112.036 89.4791 112.431 92.0128L106.532 90.7026Z" fill="#F1F1F1"/>
<path d="M101.726 117.217L104.894 135.025L96.4829 150.011L101.508 151.992L110.028 137.465L111.12 133.504L111.775 154.193L116.307 154.054L118.384 134.736L115.052 116.776L101.726 117.217Z" fill="#675DA5"/>
<path d="M107.739 121.426C103.086 121.426 100.131 120.53 100.065 120.515L99.958 120.492L102.382 109.171L102.491 98.7272C102.491 94.3016 105.382 91.0388 105.783 90.7377C105.851 90.4691 105.976 90.2185 106.149 90.0036C106.323 89.7886 106.541 89.6145 106.788 89.4932C107.753 89.0524 108.931 89.5813 108.981 89.6041L112.518 90.9402L112.534 90.9896C112.577 91.1162 117.236 106.525 117.236 106.525C117.236 106.525 116.954 119.988 116.855 120.429C116.855 120.429 110.325 121.426 107.739 121.426Z" fill="#C4C4C4"/>
<path d="M111.315 87.6532C113.955 87.6532 116.095 85.4968 116.095 82.8369C116.095 80.1769 113.955 78.0205 111.315 78.0205C108.674 78.0205 106.534 80.1769 106.534 82.8369C106.534 85.4968 108.674 87.6532 111.315 87.6532Z" fill="#9F616A"/>
<path opacity="0.2" d="M105.985 99.5811L114.348 111.338L115.583 105.847L105.985 99.5811Z" fill="black"/>
<path d="M132.206 107.58C131.971 107.768 131.698 107.901 131.406 107.971C131.114 108.04 130.811 108.045 130.517 107.983C130.223 107.922 129.947 107.796 129.706 107.616C129.466 107.435 129.268 107.203 129.126 106.937L121.927 108.098L123.487 104.62L130.084 104.05C130.543 103.84 131.064 103.807 131.546 103.957C132.029 104.107 132.44 104.431 132.701 104.866C132.963 105.301 133.057 105.817 132.966 106.318C132.874 106.818 132.604 107.267 132.206 107.58H132.206Z" fill="#9F616A"/>
<path d="M123.857 104.422L126.444 104.166L127.161 107.801L123.906 107.859L123.857 104.422Z" fill="#F1F1F1"/>
<path d="M125.977 109.068L113.309 107.931L106.913 97.6825L106.893 97.5919C106.712 96.7547 106.839 95.8795 107.251 95.1298C107.663 94.3801 108.332 93.807 109.132 93.5177C109.933 93.2284 110.811 93.2425 111.602 93.5575C112.393 93.8725 113.043 94.4668 113.431 95.2294L117.186 102.609L124.764 103.763L125.977 109.068Z" fill="#C4C4C4"/>
<path d="M107.243 87.0183L111.211 87.1618C111.453 87.1705 112.109 84.5407 112.195 83.9952C112.263 83.64 112.457 83.3219 112.741 83.1002C113.024 82.8786 113.378 82.7685 113.737 82.7907C114.034 82.8189 114.783 82.2599 115.556 81.5979C117.023 80.3411 116.947 77.9806 115.335 76.9186C115.291 76.8896 115.247 76.8631 115.205 76.8391C114.188 76.2657 112.999 76.0732 111.834 76.0585C110.777 76.0452 109.691 76.1791 108.761 76.6828C107.092 77.5858 106.204 79.5592 106.126 81.4656C106.048 83.372 106.655 85.2361 107.343 87.0136" fill="#2F2E41"/>
<path d="M206.71 160H52.2078C52.1527 160 52.0998 159.978 52.0609 159.938C52.0219 159.899 52 159.846 52 159.79C52 159.735 52.0219 159.682 52.0609 159.642C52.0998 159.603 52.1527 159.581 52.2078 159.581H206.792C206.847 159.581 206.9 159.603 206.939 159.642C206.978 159.682 207 159.735 207 159.79C207 159.906 206.824 160 206.71 160Z" fill="#CBCBCB"/>
</g>
<defs>
<clipPath id="clip0_162_2014">
<rect width="155" height="151" fill="white" transform="translate(52 9)"/>
</clipPath>
</defs>
</svg>
