<svg width="126" height="192" viewBox="0 0 126 192" fill="none" xmlns="http://www.w3.org/2000/svg">
<path d="M100 153.011C99.9013 153.119 99.8025 153.231 99.7069 153.342C98.372 154.845 97.1661 156.451 96.1011 158.144C96.0151 158.274 95.9322 158.407 95.8558 158.537C93.3346 162.628 91.6184 167.139 90.7942 171.838C90.6094 172.901 90.4703 173.97 90.3769 175.046C90.31 175.874 90.2697 176.703 90.2559 177.533C90.2049 181.019 90.5234 184.898 88.2076 187.562C87.5886 188.263 86.833 188.838 85.9842 189.255C85.3449 189.576 84.6693 189.824 83.971 189.994H76.7497C76.3866 189.941 76.0235 189.886 75.6603 189.83C75.6508 189.83 75.6412 189.827 75.6316 189.827L75.5584 189.852L75.122 189.994L75.1029 190V189.994C75.1034 189.981 75.1023 189.969 75.0997 189.957C75.1002 189.934 75.0992 189.911 75.0965 189.889V189.886C75.0933 189.824 75.0901 189.765 75.0901 189.703L75.0806 189.54C75.0806 189.54 75.0774 189.536 75.0806 189.536C75.0774 189.444 75.071 189.351 75.0678 189.255C74.7334 181.189 75.5488 172.855 79.4732 165.753C80.819 163.32 82.5519 161.108 84.6081 159.198C84.6201 159.186 84.6329 159.175 84.6464 159.164C88.7269 155.388 94.0019 152.919 99.57 153.002C99.7133 153.002 99.8567 153.005 100 153.011Z" fill="#F0CF86"/>
<path d="M99.8906 153.364C93.5999 156.506 88.4863 161.496 85.2762 167.627C84.561 168.934 84.0622 170.344 83.798 171.803C83.5879 173.232 83.7749 174.69 84.3397 176.025C84.8406 177.281 85.5023 178.508 85.681 179.86C85.7618 180.553 85.6912 181.256 85.4736 181.92C85.2561 182.585 84.8966 183.198 84.4187 183.718C83.2625 185.044 81.6856 185.887 80.114 186.66C78.3691 187.517 76.5428 188.381 75.3313 189.931C75.1845 190.118 74.8936 189.886 75.0402 189.698C77.1479 187.001 80.8602 186.413 83.3882 184.22C84.5679 183.197 85.4378 181.822 85.3396 180.238C85.2538 178.853 84.5725 177.586 84.0541 176.319C83.4835 175.025 83.2474 173.614 83.3663 172.21C83.5533 170.743 83.9955 169.317 84.674 167.994C86.1528 164.992 88.1074 162.234 90.4663 159.823C93.1429 157.056 96.286 154.756 99.7598 153.02C99.9748 152.913 100.104 153.257 99.8906 153.364H99.8906Z" fill="white"/>
<path d="M86.6211 164.967C85.4336 164.333 84.5774 163.395 84.2053 162.32C83.8333 161.245 83.9698 160.103 84.5903 159.099C84.7168 158.896 85.1323 159.037 85.0057 159.241C84.4256 160.175 84.2987 161.239 84.6478 162.239C84.9968 163.24 85.799 164.111 86.9093 164.696C87.1504 164.824 86.8609 165.094 86.6211 164.967V164.967Z" fill="white"/>
<path d="M84.1477 175.633C86.353 175.229 88.3344 173.957 89.6968 172.069C89.8316 171.882 90.0976 172.114 89.963 172.301C88.5418 174.263 86.4773 175.583 84.1816 175.997C83.9627 176.036 83.9301 175.672 84.1477 175.633V175.633Z" fill="white"/>
<path d="M93.2974 157.032C93.6147 157.294 94.0102 157.49 94.4482 157.603C94.8863 157.716 95.3532 157.741 95.8071 157.678C96.0397 157.645 96.0742 157.931 95.8431 157.964C95.3413 158.032 94.8257 158.003 94.3413 157.88C93.857 157.756 93.4187 157.541 93.0647 157.254C93.0285 157.23 93.0057 157.195 93.0009 157.157C92.9962 157.12 93.0099 157.082 93.0392 157.052C93.0702 157.023 93.1147 157.004 93.1631 157.001C93.2114 156.997 93.2597 157.008 93.2974 157.032V157.032Z" fill="white"/>
<path d="M117 175.257C116.855 175.288 116.711 175.319 116.563 175.353H116.56C114.59 175.778 112.658 176.359 110.783 177.092C110.638 177.148 110.493 177.204 110.349 177.263H110.346C105.875 179.067 101.779 181.673 98.2632 184.951C98.2506 184.963 98.238 184.972 98.2254 184.985C98.2179 184.994 98.2094 185.002 98.2003 185.01L98.1846 185.025C96.7896 186.335 95.4961 187.747 94.3152 189.249C94.3152 189.252 94.3121 189.256 94.309 189.259C94.1204 189.502 93.9286 189.745 93.74 189.994H75.0974L75.0786 190V189.994H75C75 189.991 75.0031 189.988 75.0063 189.984C75.0063 189.981 75.0094 189.981 75.0094 189.978C75.0314 189.947 75.0534 189.916 75.0723 189.888V189.885C75.077 189.875 75.0834 189.867 75.0911 189.86C75.11 189.829 75.132 189.804 75.1477 189.776C75.2735 189.601 75.396 189.424 75.5218 189.249C75.7261 188.96 75.9335 188.67 76.1441 188.383C76.1441 188.383 76.1442 188.383 76.1444 188.382C76.1445 188.382 76.1448 188.381 76.145 188.381C76.1453 188.381 76.1457 188.381 76.1461 188.38C76.1464 188.38 76.1469 188.38 76.1473 188.38V188.377C76.1504 188.374 76.1504 188.371 76.1536 188.368L76.1599 188.362C78.753 184.804 81.67 181.428 85.0112 178.599C85.1118 178.512 85.2124 178.425 85.3193 178.344C86.8322 177.075 88.4481 175.932 90.1504 174.927C91.0808 174.382 92.0395 173.881 93.0265 173.425C95.5722 172.263 98.2865 171.504 101.07 171.176H101.076C101.083 171.176 101.089 171.173 101.098 171.173C101.108 171.173 101.114 171.17 101.12 171.17C106.656 170.535 112.329 171.653 116.67 174.998C116.783 175.086 116.89 175.17 117 175.257Z" fill="#F0CF86"/>
<path d="M117.762 177.823C117.646 177.805 117.533 177.784 117.417 177.769H117.414C114.996 177.388 112.542 177.268 110.096 177.411C109.974 177.417 109.849 177.427 109.723 177.433C106.329 177.661 102.992 178.396 99.8301 179.61C99.827 179.61 99.8269 179.61 99.8269 179.613C99.7925 179.625 99.758 179.637 99.7267 179.649C98.9902 179.937 98.2632 180.252 97.5518 180.591C96.1905 181.203 94.9374 182.019 93.8383 183.007C92.9584 183.846 92.2922 184.871 91.8922 186.002C91.8514 186.117 91.8107 186.229 91.7731 186.344C91.7449 186.435 91.7167 186.529 91.6885 186.619C91.3187 187.888 91.0899 189.226 90.4068 190.386C90.2165 190.71 89.9849 191.009 89.7173 191.276C89.4409 191.554 89.1292 191.797 88.7897 192H88C88.4322 191.82 88.8329 191.575 89.1877 191.276C89.4637 191.046 89.7052 190.78 89.9054 190.486C90.6825 189.354 90.9207 187.973 91.2842 186.686C91.3438 186.477 91.4064 186.274 91.4754 186.071C91.8372 184.961 92.4433 183.939 93.2523 183.077C94.2945 182.037 95.5121 181.176 96.853 180.53C97.6991 180.1 98.5682 179.711 99.4603 179.361C99.5763 179.313 99.6922 179.271 99.8082 179.228C105.441 177.11 111.558 176.487 117.524 177.424C117.639 177.439 117.752 177.46 117.868 177.478C118.103 177.517 117.997 177.863 117.762 177.823Z" fill="white"/>
<path d="M98.2546 176.871C97.8786 175.773 97.9202 174.581 98.3718 173.51C98.8234 172.439 99.6557 171.557 100.72 171.022C100.936 170.914 101.119 171.232 100.903 171.34C99.9113 171.836 99.1361 172.658 98.7177 173.656C98.2992 174.655 98.2651 175.765 98.6215 176.785C98.6987 177.007 98.3313 177.092 98.2546 176.871H98.2546Z" fill="white"/>
<path d="M91.2676 184.016C93.28 184.774 95.6094 184.949 97.7913 184.508C98.0074 184.464 98.0892 184.711 97.8733 184.755C95.6017 185.212 93.1781 185.025 91.0862 184.233C90.8869 184.157 91.0693 183.94 91.2676 184.016Z" fill="white"/>
<path d="M109.368 175.106C109.421 175.453 109.589 175.784 109.858 176.07C110.127 176.357 110.487 176.589 110.907 176.747C111.122 176.827 110.926 177.064 110.712 176.984C110.249 176.808 109.851 176.551 109.554 176.235C109.256 175.919 109.067 175.554 109.004 175.171C108.994 175.136 109.003 175.098 109.028 175.067C109.054 175.036 109.095 175.013 109.142 175.004C109.19 174.995 109.241 175.001 109.283 175.02C109.326 175.04 109.356 175.07 109.368 175.106V175.106Z" fill="white"/>
<path d="M98.2487 51.8184C98.3324 41.5008 98.7496 31.0836 99.5004 20.5666C99.5128 20.3578 99.5283 20.1521 99.5438 19.9433C99.9404 14.4683 100.426 8.97347 101 3.45893V3.42776C100.999 2.51883 100.64 1.64728 100.001 1.00457C99.3622 0.361857 98.4956 0.000542395 97.5919 0H6.19284C5.29218 0.00177982 4.42868 0.361354 3.79037 1.00043C3.15205 1.63951 2.79061 2.50634 2.78474 3.41218C1.99158 11.0062 1.36986 18.5629 0.919575 26.0822C0.900985 26.3283 0.888597 26.5714 0.876204 26.8176C0.653128 30.5351 0.475494 34.2433 0.343301 37.9422C0.334006 38.1603 0.324709 38.3785 0.321611 38.5966C-0.524274 61.2915 0.299015 84.0182 2.78474 106.591C2.79126 107.496 3.153 108.362 3.79126 109.001C4.42953 109.639 5.29266 109.998 6.19284 110H97.5919C98.4956 109.999 99.3622 109.638 100.001 108.995C100.64 108.353 100.999 107.481 101 106.572V106.538C100.551 102.527 100.156 98.491 99.8165 94.4286C99.7669 93.8334 99.7184 93.2382 99.6708 92.6431C99.4354 89.717 99.2298 86.7795 99.0543 83.8306C99.0171 83.2354 98.983 82.6402 98.952 82.045C98.6205 76.1431 98.4036 70.1954 98.3014 64.202C98.289 63.6068 98.2797 63.0147 98.2704 62.4164C98.2332 59.4904 98.2219 56.5529 98.2363 53.604C98.2363 53.0088 98.2394 52.4136 98.2487 51.8184Z" fill="#FCFBFF"/>
<path d="M126 23.3966C125.999 22.4959 125.64 21.6323 125.001 20.9954C124.362 20.3586 123.495 20.0005 122.592 20H31.1821C30.2813 20.0018 29.4177 20.3581 28.7793 20.9913C28.141 21.6246 27.7795 22.4836 27.7736 23.3812C24.6874 52.7062 24.1761 81.5124 26.2429 109.238C26.4939 112.669 26.7872 116.082 27.1229 119.477C27.3026 121.296 27.4937 123.109 27.6961 124.918C27.7209 125.153 27.7457 125.387 27.7736 125.622C27.7801 126.519 28.1419 127.377 28.7802 128.01C29.4186 128.643 30.2818 128.998 31.1821 129H122.592C123.495 128.999 124.362 128.641 125.001 128.005C125.64 127.368 125.999 126.504 126 125.603V125.569C122.303 92.9096 122.303 58.5452 126 23.4275V23.3966Z" fill="#FCFBFF"/>
<path d="M126 23.3966C125.999 22.4959 125.64 21.6323 125.001 20.9954C124.362 20.3586 123.495 20.0005 122.592 20H31.1821C30.2813 20.0018 29.4177 20.3581 28.7793 20.9913C28.141 21.6246 27.7795 22.4836 27.7736 23.3812C24.6874 52.7062 24.1761 81.5124 26.2429 109.238C26.4939 112.669 26.7872 116.082 27.1229 119.477C27.3026 121.296 27.4937 123.109 27.6961 124.918C27.7209 125.153 27.7457 125.387 27.7736 125.622C27.7801 126.519 28.1419 127.377 28.7802 128.01C29.4186 128.643 30.2818 128.998 31.1821 129H122.592C123.495 128.999 124.362 128.641 125.001 128.005C125.64 127.368 125.999 126.504 126 125.603V125.569C122.303 92.9096 122.303 58.5452 126 23.4275V23.3966ZM125.38 125.622C125.375 126.356 125.079 127.057 124.556 127.574C124.034 128.091 123.328 128.382 122.592 128.382H31.1821C30.4428 128.381 29.7341 128.088 29.2114 127.567C28.6886 127.046 28.3944 126.34 28.3933 125.603V125.569C28.3716 125.372 28.3499 125.171 28.3282 124.973C28.1144 123.084 27.9151 121.189 27.7302 119.289C27.4049 115.957 27.1167 112.607 26.8657 109.238C24.7989 81.5279 25.3071 52.7401 28.3933 23.4275V23.3966C28.3944 22.6599 28.6886 21.9537 29.2114 21.4327C29.7341 20.9118 30.4428 20.6187 31.1821 20.6176H122.592C123.328 20.6178 124.035 20.9086 124.558 21.4263C125.08 21.9441 125.376 22.6469 125.38 23.3812C121.684 58.5267 121.684 92.9281 125.38 125.622Z" fill="#E4E4E4"/>
<path d="M36.8968 52C36.6588 52.0003 36.4307 52.0532 36.2625 52.1469C36.0944 52.2406 36 52.3676 36 52.5C36 52.6324 36.0944 52.7594 36.2625 52.8531C36.4307 52.9468 36.6588 52.9997 36.8968 53H112.103C112.341 52.9997 112.569 52.9468 112.737 52.8531C112.906 52.7594 113 52.6324 113 52.5C113 52.3676 112.906 52.2406 112.737 52.1469C112.569 52.0532 112.341 52.0003 112.103 52H36.8968Z" fill="#E6E6E6"/>
<path d="M36.9001 57C36.6612 57.0005 36.4323 57.1061 36.2635 57.2936C36.0948 57.481 36 57.7351 36 58C36 58.2649 36.0948 58.519 36.2635 58.7064C36.4323 58.8939 36.6612 58.9995 36.9001 59H88.0999C88.3388 58.9995 88.5677 58.8939 88.7365 58.7064C88.9052 58.519 89 58.2649 89 58C89 57.7351 88.9052 57.481 88.7365 57.2936C88.5677 57.1061 88.3388 57.0005 88.0999 57H36.9001Z" fill="#E6E6E6"/>
<path d="M36.8975 62C36.6593 62.0005 36.431 62.1061 36.2628 62.2935C36.0945 62.481 36 62.7351 36 63C36 63.2649 36.0945 63.519 36.2628 63.7065C36.431 63.8939 36.6593 63.9995 36.8975 64H112.102C112.341 63.9995 112.569 63.8939 112.737 63.7065C112.905 63.519 113 63.2649 113 63C113 62.7351 112.905 62.481 112.737 62.2935C112.569 62.1061 112.341 62.0005 112.102 62H36.8975Z" fill="#E6E6E6"/>
<path d="M36.8994 68C36.6606 68.0003 36.4319 68.0532 36.2633 68.1469C36.0947 68.2406 36 68.3676 36 68.5C36 68.6324 36.0947 68.7594 36.2633 68.8531C36.4319 68.9468 36.6606 68.9997 36.8994 69H88.1006C88.3394 68.9997 88.5681 68.9468 88.7367 68.8531C88.9053 68.7594 89 68.6324 89 68.5C89 68.3676 88.9053 68.2406 88.7367 68.1469C88.5681 68.0532 88.3394 68.0003 88.1006 68H36.8994Z" fill="#E6E6E6"/>
<path d="M36.8968 82C36.6588 82.0007 36.4307 82.1064 36.2625 82.2938C36.0944 82.4813 36 82.7352 36 83C36 83.2648 36.0944 83.5187 36.2625 83.7062C36.4307 83.8936 36.6588 83.9993 36.8968 84H112.103C112.341 83.9993 112.569 83.8936 112.737 83.7062C112.906 83.5187 113 83.2648 113 83C113 82.7352 112.906 82.4813 112.737 82.2938C112.569 82.1064 112.341 82.0007 112.103 82H36.8968Z" fill="#E6E6E6"/>
<path d="M36.9001 87C36.6612 87.0005 36.4323 87.1061 36.2635 87.2936C36.0948 87.481 36 87.7351 36 88C36 88.2649 36.0948 88.519 36.2635 88.7064C36.4323 88.8939 36.6612 88.9995 36.9001 89H88.0999C88.3388 88.9995 88.5677 88.8939 88.7365 88.7064C88.9052 88.519 89 88.2649 89 88C89 87.7351 88.9052 87.481 88.7365 87.2936C88.5677 87.1061 88.3388 87.0005 88.0999 87H36.9001Z" fill="#E6E6E6"/>
<path d="M36.8975 92C36.6593 92.0005 36.431 92.1061 36.2628 92.2935C36.0945 92.481 36 92.7351 36 93C36 93.2649 36.0945 93.519 36.2628 93.7065C36.431 93.8939 36.6593 93.9995 36.8975 94H112.102C112.341 93.9995 112.569 93.8939 112.737 93.7065C112.905 93.519 113 93.2649 113 93C113 92.7351 112.905 92.481 112.737 92.2935C112.569 92.1061 112.341 92.0005 112.102 92H36.8975Z" fill="#E6E6E6"/>
<path d="M36.8994 98C36.6606 98.0003 36.4319 98.0532 36.2633 98.1469C36.0947 98.2406 36 98.3676 36 98.5C36 98.6324 36.0947 98.7594 36.2633 98.8531C36.4319 98.9468 36.6606 98.9997 36.8994 99H88.1006C88.3394 98.9997 88.5681 98.9468 88.7367 98.8531C88.9053 98.7594 89 98.6324 89 98.5C89 98.3676 88.9053 98.2406 88.7367 98.1469C88.5681 98.0532 88.3394 98.0003 88.1006 98H36.8994Z" fill="#E6E6E6"/>
<path d="M52.2879 41H37.7121C37.5233 40.9998 37.3423 40.9199 37.2088 40.7779C37.0753 40.6358 37.0002 40.4432 37 40.2424V37.7576C37.0002 37.5568 37.0753 37.3642 37.2088 37.2221C37.3423 37.0801 37.5233 37.0002 37.7121 37H52.2879C52.4767 37.0002 52.6577 37.0801 52.7912 37.2221C52.9247 37.3642 52.9998 37.5568 53 37.7576V40.2424C52.9998 40.4432 52.9247 40.6358 52.7912 40.7779C52.6577 40.9199 52.4767 40.9998 52.2879 41Z" fill="#F7D7D5"/>
<path d="M101.319 113.697L97.1649 115.103C96.4726 115.338 95.7803 115.572 95.088 115.807C94.4468 116.023 93.7529 116.28 93.0666 116.187C92.5922 116.123 92.0514 115.843 91.9036 115.343C91.7638 114.87 92.0602 114.375 92.4193 114.095C93.4106 113.322 94.664 114.109 95.3663 114.909C96.2255 115.888 96.7116 117.151 97.5174 118.175C98.2347 119.094 99.144 119.836 100.178 120.347C102.234 121.341 104.742 121.236 106.575 119.786C108.765 118.056 108.988 115.056 109 112.44C108.996 112.322 108.947 112.21 108.865 112.128C108.782 112.046 108.671 112 108.556 112C108.441 112 108.33 112.046 108.247 112.128C108.164 112.21 108.115 112.322 108.111 112.44C108.101 114.811 107.969 117.718 105.859 119.202C103.837 120.624 101.18 120.247 99.3188 118.732C98.2816 117.888 97.6435 116.788 96.9625 115.648C96.2977 114.536 95.4723 113.457 94.2213 113.024C93.6849 112.825 93.0975 112.821 92.5586 113.014C92.0197 113.206 91.5623 113.584 91.2637 114.082C91.1273 114.318 91.0414 114.58 91.0117 114.852C90.982 115.124 91.0091 115.399 91.0913 115.659C91.1736 115.92 91.309 116.159 91.4886 116.361C91.6681 116.564 91.8877 116.725 92.1328 116.834C93.5834 117.542 95.2429 116.712 96.6396 116.239L101.555 114.575C102.095 114.392 101.864 113.512 101.319 113.697L101.319 113.697Z" fill="#F0CF86"/>
<path d="M89 182.056L85.7232 183L80 172.394L84.836 171L89 182.056Z" fill="#9F616A"/>
<path d="M90.5822 185.21L90.3733 184.619L89.8244 183.06L89.4503 182L88.4275 182.315L88.2155 182.3L85.406 182.122L85.0318 182.099L84.4767 182.064L83.903 182.026L82.3002 184.202H82.2971C81.698 184.385 81.1436 184.676 80.6661 185.06C80.1887 185.445 79.7976 185.913 79.5157 186.44C79.4814 186.504 79.4502 186.568 79.419 186.632C79.3416 186.789 79.276 186.951 79.2225 187.116C78.9799 187.83 78.9348 188.59 79.0916 189.324C79.1319 189.506 79.1829 189.686 79.2444 189.863L79.2537 189.892L79.2911 190L79.5157 189.93L81.4864 189.324L88.3901 187.2L89.759 186.778L90.1799 186.647H90.183L91 186.396L90.5822 185.21Z" fill="#2F2E41"/>
<path d="M59.9993 185L56.6117 185L55 173L60 173L59.9993 185Z" fill="#9F616A"/>
<path d="M54.5674 130.832L53.1504 133.311C53.1504 133.311 51.5933 133.741 52.1022 138.872C52.4615 142.495 52.5781 158.719 53.4828 169.259C53.8593 173.646 54.3723 177.048 55.0962 178.147L55.5418 178.551L60.1932 179L60.3105 178.959L62.0186 166.762C62.3252 164.573 62.2793 162.348 61.8826 160.173V160.173L61.5739 156.74L65.8567 139.356C65.8567 139.356 70.218 150.498 72.9964 161.11C73.6653 163.664 76.2058 165.289 77.169 167.481C77.4917 168.215 77.8088 168.927 78.1181 169.61C80.1553 174.106 81.1765 177.38 81.9492 177.652H82.5666L86.2712 176.403L87 174.551L81.3318 157.676L77.0872 130.431C68.9996 126.034 61.4132 125.545 54.5674 130.832Z" fill="#2F2E41"/>
<path d="M78.1535 94.1898C77.8646 93.5664 77.5249 92.9669 77.1378 92.3969C76.2528 91.0458 75.0229 89.9446 73.5699 89.2022L72.3114 88.93L70.0563 88.4419L68.8681 87.1371L66.9196 85H60.2119L59.3143 87.1371L58.5605 88.93L58.2379 89.6935L52.4948 92.5064C52.4916 92.5064 52.4916 92.5064 52.4884 92.5095C52.565 93.0728 52.6406 93.6328 52.7152 94.1898C52.878 95.4007 53.0314 96.597 53.1751 97.7787C53.2486 98.3795 53.3188 98.9771 53.3859 99.5716C53.5999 101.436 53.7841 103.269 53.9385 105.069C54.0759 106.678 54.1855 108.263 54.2675 109.825C54.4673 113.374 54.4822 116.93 54.3122 120.479C54.2675 121.315 55.114 122.266 55.0469 123.083C54.9351 124.416 53.8842 125.598 53.6989 126.872C53.584 127.654 53.6351 128.486 53.4338 129.225C53.3779 129.441 53.2942 129.649 53.1847 129.844C53.1847 129.848 53.1815 129.848 53.1815 129.851C50.8817 133.875 52.6864 131.953 52.4724 132.858L52.5746 132.883C52.6225 132.895 52.7694 132.933 53.0058 132.986C54.357 133.302 59.9276 128.18 63.668 128.18C65.9135 128.18 71.8578 131.797 73.8478 132.06C75.4225 132.266 76.828 132.454 77.6648 131.731C77.9077 131.52 78.0932 131.254 78.2047 130.955L78.2142 130.927L78.211 130.899L78.1312 129.851L78.0833 129.225L77.3997 120.245C77.018 119.781 76.7767 119.222 76.7033 118.631C76.6299 118.039 76.7273 117.44 76.9845 116.9L77.125 116.609L76.6076 109.825L76.5117 108.558L76.4766 108.129V108.126L76.2275 104.85L76.828 103.06V103.057L77.997 99.5716L78.5975 97.7787L78.9744 96.6523L79 96.5772C78.7989 95.756 78.5153 94.9563 78.1535 94.1898V94.1898Z" fill="#6C63FF"/>
<path d="M83.5691 126.364L77.0349 110.064L74 104.112L79.8359 101L84.536 108.993L87.6866 125.693C88.1825 126.02 88.5659 126.482 88.7875 127.021C89.0091 127.56 89.0587 128.15 88.9301 128.716C88.8014 129.282 88.5003 129.799 88.0655 130.198C87.6306 130.598 87.0819 130.863 86.4897 130.96C85.8976 131.056 85.2891 130.979 84.7425 130.739C84.1959 130.499 83.736 130.107 83.422 129.613C83.1081 129.119 82.9543 128.546 82.9805 127.967C83.0067 127.388 83.2117 126.829 83.5692 126.364H83.5691Z" fill="#9F616A"/>
<path d="M83.7059 103.727L82.0652 102.729L80.1796 99.4165L79.2067 97.7048L78.593 96.6294L78.3323 96.1694L75.3847 94.2785L73.3943 93L71.7727 94.2785L71 94.8879L71.7568 97.7048L72.2146 99.4165L73.213 103.13L76.1415 107.996L76.8696 109.205L77.2862 109.901L77.2894 109.907L77.3466 110L84.7456 109.71L84.9777 109.701L84.9905 109.205L84.9968 109.026C85 108.937 85 108.847 85 108.757C84.999 107.008 84.5554 105.284 83.7059 103.727V103.727Z" fill="#6C63FF"/>
<path d="M28.6713 119.389L41.5731 107.804L46.0571 103L51 107.049L45.197 114.052L30.7376 122.789C30.6067 123.344 30.3099 123.848 29.8855 124.235C29.4611 124.623 28.9284 124.878 28.3557 124.966C27.7831 125.054 27.1968 124.972 26.6721 124.73C26.1473 124.488 25.7082 124.097 25.411 123.608C25.1139 123.119 24.9723 122.554 25.0045 121.986C25.0367 121.417 25.2411 120.871 25.5916 120.417C25.9421 119.963 26.4226 119.623 26.9713 119.44C27.5201 119.257 28.1121 119.239 28.6713 119.389H28.6713Z" fill="#9F616A"/>
<path d="M54.9471 99.1595L54.9222 97.3797L54.8755 93.8172L54.8567 92.435L54.8038 92.3977C54.5138 92.208 54.1852 92.085 53.8416 92.0375C53.5396 91.9875 53.2313 91.9875 52.9293 92.0375C52.7701 92.0621 52.6129 92.0984 52.4591 92.1462C52.456 92.1462 52.4559 92.1462 52.4528 92.1493C51.5298 92.4798 50.7148 93.0554 50.0956 93.8141L50.0925 93.8172C49.1587 94.9252 48.331 96.1179 47.6201 97.3797C47.2682 97.9761 46.9319 98.5787 46.6174 99.1595C45.4279 101.368 44.5716 103.281 44.5561 103.315L41 107.921L41.0498 108.005L41.8314 109.338L44.6962 114.224L45.1508 115L46.3123 114.382C47.6662 113.661 48.7337 112.502 49.339 111.096L49.7531 109.518L49.9057 109.338L53.8665 104.617L55 103.262L54.9471 99.1595Z" fill="#6C63FF"/>
<path d="M68.8296 78.8751C69.3581 75.6142 67.1464 72.5417 63.8896 72.0125C60.6329 71.4833 57.5643 73.6979 57.0358 76.9588C56.5073 80.2198 58.719 83.2923 61.9758 83.8214C65.2325 84.3506 68.3011 82.1361 68.8296 78.8751Z" fill="#9F616A"/>
<path d="M57.5899 74.1764C57.3303 73.2191 56.8112 72.3987 57.0707 72.3987C57.3303 72.3987 57.4601 71.7149 57.4601 71.7149C57.4601 71.7149 57.7197 71.5782 57.8495 71.7149C57.9793 71.8517 58.109 70.7577 58.109 70.7577C58.109 70.7577 58.2388 70.3475 58.3686 70.6209C58.4984 70.8944 58.4984 70.7577 58.6282 70.3475C58.758 69.9372 59.407 69.6637 59.407 69.6637C59.407 69.6637 61.8729 69.8005 62.2623 69.2535C62.6517 68.7065 67.0645 69.1167 67.973 69.8005C68.8815 70.4842 72.4609 71.7065 70.3372 75.5424C71.5508 77.78 69.739 81.7709 69.2709 82.2444C68.5306 82.9932 68.0181 83.2631 64.5155 83.9975C63.83 84.1412 62.1457 78.0996 62.1457 78.0996C62.1457 78.0996 57.8495 75.1336 57.5899 74.1764Z" fill="#2F2E41"/>
<path d="M59.9527 184.539L59.7645 184.468L56.3827 183.194L55.8637 183L53.6719 184.539H53.6689C52.4305 184.54 51.2434 184.996 50.368 185.806C49.4927 186.616 49.0006 187.714 49 188.86V189H61V184.539H59.9527Z" fill="#2F2E41"/>
<path d="M96 189.498C96.0002 189.564 95.9908 189.629 95.9723 189.689C95.9538 189.75 95.9266 189.805 95.8922 189.852C95.8578 189.899 95.8169 189.936 95.7719 189.961C95.7269 189.987 95.6785 190 95.6297 190H32.3718C32.2732 190 32.1786 189.947 32.1089 189.854C32.0392 189.76 32 189.633 32 189.5C32 189.367 32.0392 189.24 32.1089 189.146C32.1786 189.053 32.2732 189 32.3718 189H95.6297C95.7278 189 95.8219 189.053 95.8913 189.146C95.9607 189.239 95.9998 189.366 96 189.498V189.498Z" fill="#CCCCCC"/>
<path d="M30.3796 0C29.8915 8.58022 26.7024 16.7947 21.2587 23.4931C15.8151 30.1916 8.38949 35.0387 0.0217175 37.3557C0.012411 37.5705 0.00310217 37.7852 0 38C8.54112 35.6763 16.1285 30.758 21.6908 23.9397C27.2531 17.1213 30.5095 8.74733 31 0H30.3796Z" fill="white"/>
</svg>
