<svg width="41" height="31" viewBox="0 0 41 31" fill="none" xmlns="http://www.w3.org/2000/svg">
<path d="M27.9545 12.8786C31.0482 12.8786 33.5268 10.0072 33.5268 6.45006C33.5268 2.89291 31.0482 0.0214844 27.9545 0.0214844C24.8609 0.0214844 22.3636 2.89291 22.3636 6.45006C22.3636 10.0072 24.8609 12.8786 27.9545 12.8786ZM13.0455 12.8786C16.1391 12.8786 18.6177 10.0072 18.6177 6.45006C18.6177 2.89291 16.1391 0.0214844 13.0455 0.0214844C9.95182 0.0214844 7.45455 2.89291 7.45455 6.45006C7.45455 10.0072 9.95182 12.8786 13.0455 12.8786ZM13.0455 17.1643C8.70318 17.1643 0 19.6715 0 24.6643V30.0215H26.0909V24.6643C26.0909 19.6715 17.3877 17.1643 13.0455 17.1643ZM27.9545 17.1643C27.4141 17.1643 26.7991 17.2072 26.1468 17.2715C28.3086 19.0715 29.8182 21.4929 29.8182 24.6643V30.0215H41V24.6643C41 19.6715 32.2968 17.1643 27.9545 17.1643Z" fill="#FCFBFF"/>
</svg>
