<svg width="198" height="223" viewBox="0 0 198 223" fill="none" xmlns="http://www.w3.org/2000/svg">
<g clip-path="url(#clip0_436_6425)">
<path d="M112.248 171.825C159.607 171.825 198 133.361 198 85.9126C198 38.4644 159.607 0 112.248 0C64.8878 0 26.4951 38.4644 26.4951 85.9126C26.4951 133.361 64.8878 171.825 112.248 171.825Z" fill="#FCFBFF"/>
<path d="M168.285 38.4204H11.1986C10.8617 38.4131 10.5945 38.1337 10.6017 37.7962C10.6087 37.4689 10.8719 37.2052 11.1986 37.1982H168.285C168.622 37.2055 168.889 37.4849 168.882 37.8224C168.875 38.1497 168.612 38.4134 168.285 38.4204Z" fill="#FF2958"/>
<path d="M114.751 59.0137H71.3258C68.0641 59.0137 65.4199 61.6627 65.4199 64.9305V64.9306C65.4199 68.1983 68.0641 70.8474 71.3258 70.8474H114.751C118.012 70.8474 120.657 68.1983 120.657 64.9305C120.657 61.6627 118.012 59.0137 114.751 59.0137Z" fill="#F7D7D5"/>
<path d="M43.273 82.6807H142.803C146.065 82.6807 148.709 85.3297 148.709 88.5975C148.709 91.8653 146.065 94.5144 142.803 94.5144H43.273C40.0113 94.5144 37.3672 91.8653 37.3672 88.5975C37.3672 85.3297 40.0113 82.6807 43.273 82.6807Z" fill="#F7D7D5"/>
<path d="M43.273 106.349H142.803C146.065 106.349 148.709 108.998 148.709 112.266C148.709 115.533 146.065 118.182 142.803 118.182H43.273C40.0113 118.182 37.3672 115.533 37.3672 112.266C37.3672 108.998 40.0113 106.349 43.273 106.349Z" fill="#F7D7D5"/>
<path d="M30.9386 222.479L30.7043 222.456C22.7568 221.635 15.5723 217.353 11.0594 210.747C9.82333 208.907 8.82347 206.917 8.08343 204.827L8.0123 204.627L8.22288 204.61C10.737 204.407 13.3199 203.98 14.4672 203.777L7.06864 201.265L7.02289 201.045C6.58425 198.98 7.44359 196.856 9.19321 195.68C10.9476 194.447 13.274 194.408 15.069 195.58C15.8745 196.096 16.717 196.606 17.5318 197.1C20.3316 198.797 23.2268 200.552 25.3975 202.952C28.689 206.665 30.1317 211.669 29.3238 216.568L30.9386 222.479Z" fill="#F7D7D5"/>
<path d="M57.8326 218.793L61.4787 218.793L63.2137 204.701L57.8315 204.702L57.8326 218.793Z" fill="#A0616A"/>
<path d="M57.7038 222.604L68.9172 222.604V222.462C68.9171 220.047 66.9631 218.089 64.5526 218.089H64.5524L62.5041 216.532L58.6825 218.089L57.7036 218.089L57.7038 222.604Z" fill="#2F2E41"/>
<path d="M28.6094 208.674L31.526 210.867L41.3548 200.638L37.0496 197.402L28.6094 208.674Z" fill="#A0616A"/>
<path d="M26.2236 211.646L35.1935 218.388L35.2787 218.274C36.7251 216.342 36.3347 213.601 34.4067 212.152L34.4065 212.152L33.7006 209.675L29.711 208.623L28.9279 208.034L26.2236 211.646H26.2236Z" fill="#2F2E41"/>
<path d="M40.7307 152.665C40.7307 152.665 40.932 158.166 41.1859 162.578C41.2275 163.302 39.5356 164.088 39.5794 164.875C39.6084 165.397 39.9265 165.905 39.956 166.449C39.9872 167.024 39.5481 167.532 39.5794 168.127C39.6099 168.707 40.1108 169.373 40.1411 169.968C40.4662 176.363 41.645 184.02 40.4646 186.161C39.8829 187.215 32.4683 201.829 32.4683 201.829C32.4683 201.829 36.5995 208.038 37.7798 205.968C39.3388 203.235 51.3537 190.447 51.3537 188.005C51.3537 185.566 54.1334 167.287 54.1334 167.287L56.0716 178.104L56.9604 180.248L56.6811 181.506L57.2554 183.204L57.2865 184.885L57.8456 188.005C57.8456 188.005 56.1636 212.318 57.1109 212.995C58.061 213.675 62.6614 214.896 63.2044 213.675C63.7444 212.454 67.2593 188.301 67.2593 188.301C67.2593 188.301 67.8258 177.232 68.4396 166.944C68.475 166.347 68.8941 165.626 68.9265 165.037C68.9649 164.354 68.6993 163.467 68.7347 162.805C68.7731 162.045 69.1095 161.51 69.1419 160.783C69.3928 155.163 67.9848 148.319 67.5362 147.645C66.1818 145.611 64.9631 143.985 64.9631 143.985C64.9631 143.985 46.7202 137.98 41.8454 144.082L40.7307 152.665L40.7307 152.665Z" fill="#BD9A7A"/>
<path d="M58.9255 96.0946L51.6936 94.6455L48.3188 99.2342C42.0215 105.438 41.9266 110.913 43.0508 119.689V132.006L42.2372 140.263C42.2372 140.263 39.3568 146.299 42.3276 147.704C45.2984 149.11 64.8118 148.99 66.6749 148.429C68.538 147.868 66.9231 147.179 66.4338 144.565C65.5148 139.654 66.1296 142.023 66.1928 140.459C67.0996 118.029 64.9875 108.821 64.773 106.4L61.0951 99.7173L58.9255 96.0946Z" fill="#F0CF86"/>
<path d="M97.0419 114.179C96.2882 115.61 94.5194 116.158 93.0913 115.403C92.9391 115.322 92.7942 115.229 92.6584 115.122L77.0405 125.058L77.0856 119.648L92.2571 110.828C93.3378 109.614 95.1961 109.507 96.4077 110.59C97.4215 111.496 97.6837 112.98 97.0419 114.179Z" fill="#A0616A"/>
<path d="M53.2155 102.359L51.4374 102.171C49.7945 102 48.1825 102.705 47.1905 104.028C46.8105 104.53 46.5376 105.104 46.3887 105.716L46.3876 105.721C45.9416 107.563 46.6411 109.493 48.1628 110.619L54.304 115.155C58.6137 120.99 66.7133 124.86 76.2142 128.005L90.9821 118.816L85.7587 112.478L75.6293 117.917L60.5725 106.24L60.5638 106.233L54.8332 102.534L53.2155 102.359L53.2155 102.359Z" fill="#F0CF86"/>
<path d="M56.4817 92.5369C61.1394 92.5369 64.9151 88.7541 64.9151 84.0878C64.9151 79.4215 61.1394 75.6387 56.4817 75.6387C51.8241 75.6387 48.0483 79.4215 48.0483 84.0878C48.0483 88.7541 51.8241 92.5369 56.4817 92.5369Z" fill="#A0616A"/>
<path d="M56.6765 92.5391C56.6085 92.5413 56.5404 92.5428 56.4723 92.5447C56.4432 92.6204 56.4118 92.6955 56.3755 92.7691L56.6765 92.5391V92.5391Z" fill="#2F2E41"/>
<path d="M58.9912 84.3223C59.0044 84.4055 59.0247 84.4875 59.0517 84.5673C59.0405 84.4837 59.0203 84.4015 58.9912 84.3223Z" fill="#2F2E41"/>
<path d="M65.0227 75.9998C64.6756 77.0797 64.3658 75.7099 63.2239 75.9563C61.8502 76.2527 60.2517 76.1509 59.1267 75.3073C57.4506 74.0752 55.2784 73.7435 53.312 74.4194C51.3871 75.1016 48.1623 75.5827 47.6607 77.5656C47.4864 78.2549 47.4172 79.0029 46.9946 79.5741C46.6251 80.0736 46.0419 80.3584 45.5543 80.7428C43.9077 82.0407 45.1662 85.7283 45.9455 87.6768C46.7249 89.6253 48.5125 91.0447 50.478 91.7718C52.3797 92.4752 54.4437 92.5993 56.4723 92.544C56.8252 91.6272 56.6728 90.5683 56.3816 89.6178C56.0664 88.5889 55.5997 87.5959 55.4681 86.5277C55.3364 85.4595 55.6255 84.2462 56.5195 83.6493C57.3412 83.1007 58.6784 83.4349 58.991 84.3219C58.8086 83.213 59.9298 82.1399 61.0859 81.9512C62.3271 81.7486 63.5683 82.1976 64.806 82.421C66.0436 82.6445 65.6043 77.4242 65.0227 75.9998Z" fill="#2F2E41"/>
<path d="M112.189 98.0648C112.975 88.5479 105.912 80.1944 96.4125 79.4068C86.9133 78.6191 78.5754 85.6956 77.7892 95.2125C77.003 104.729 84.0663 113.083 93.5655 113.87C103.065 114.658 111.403 107.582 112.189 98.0648Z" fill="#F50057"/>
<path d="M99.5225 89.4342L94.989 93.9762L90.4555 89.4342C89.7217 88.699 88.5318 88.699 87.798 89.4342C87.0641 90.1695 87.0641 91.3615 87.798 92.0968L92.3315 96.6387L87.798 101.181C87.0648 101.917 87.0659 103.109 87.8004 103.843C88.534 104.577 89.722 104.577 90.4555 103.843L94.989 99.3013L99.5225 103.843C100.257 104.578 101.447 104.577 102.18 103.841C102.912 103.106 102.912 101.916 102.18 101.181L97.6466 96.6387L102.18 92.0968C102.914 91.3615 102.914 90.1695 102.18 89.4342C101.446 88.699 100.256 88.699 99.5225 89.4342Z" fill="white"/>
<path d="M88.1879 82.1058C88.6966 83.6412 87.8666 85.2991 86.3341 85.8088C86.1707 85.8631 86.0028 85.9029 85.8324 85.9276L82.1759 104.097L78.311 100.319L82.4611 83.2444C82.335 81.6227 83.5449 80.2057 85.1635 80.0793C86.5179 79.9735 87.7682 80.8113 88.1879 82.1058Z" fill="#A0616A"/>
<path d="M49.3332 105.607L47.9663 106.762C46.7059 107.831 46.0977 109.485 46.3638 111.118C46.4621 111.74 46.6871 112.335 47.0248 112.866L47.0276 112.871C48.0454 114.468 49.9199 115.299 51.7844 114.978L59.3032 113.679C66.489 114.602 74.8843 111.426 83.7268 106.735L87.3323 89.6965L79.1511 89.085L76.0558 100.173L57.2213 102.974L57.2102 102.976L50.5786 104.558L49.3332 105.607L49.3332 105.607Z" fill="#F0CF86"/>
<path d="M92.1457 222.896L0.400686 223C0.178678 223 -0.000716951 222.819 2.15437e-06 222.596C0.000714508 222.375 0.179687 222.195 0.400686 222.195L92.1457 222.091C92.3677 222.092 92.5471 222.272 92.5464 222.495C92.5457 222.716 92.3667 222.896 92.1457 222.896Z" fill="#FF2958"/>
<path d="M19.1685 30.6792C20.7453 30.6792 22.0235 29.3701 22.0235 27.7552C22.0235 26.1402 20.7453 24.8311 19.1685 24.8311C17.5917 24.8311 16.3135 26.1402 16.3135 27.7552C16.3135 29.3701 17.5917 30.6792 19.1685 30.6792Z" fill="#FF2958"/>
<path d="M29.0313 30.6792C30.6081 30.6792 31.8863 29.3701 31.8863 27.7552C31.8863 26.1402 30.6081 24.8311 29.0313 24.8311C27.4545 24.8311 26.1763 26.1402 26.1763 27.7552C26.1763 29.3701 27.4545 30.6792 29.0313 30.6792Z" fill="#FF2958"/>
<path d="M38.8941 30.6792C40.4709 30.6792 41.7491 29.3701 41.7491 27.7552C41.7491 26.1402 40.4709 24.8311 38.8941 24.8311C37.3173 24.8311 36.0391 26.1402 36.0391 27.7552C36.0391 29.3701 37.3173 30.6792 38.8941 30.6792Z" fill="#FF2958"/>
<path d="M50.1405 30.0664C50.0528 30.0664 49.9653 30.0324 49.8992 29.9646L47.9728 27.9917C47.8444 27.8602 47.8444 27.6502 47.9728 27.5187L49.8992 25.5459C50.0299 25.4125 50.2439 25.4103 50.3766 25.5406C50.5099 25.6713 50.5123 25.8855 50.3819 26.0189L48.6864 27.7552L50.3819 29.4916C50.5123 29.6251 50.5099 29.8393 50.3766 29.9699C50.311 30.0343 50.2258 30.0664 50.1405 30.0664Z" fill="#FF2958"/>
<path d="M53.3777 30.0666C53.2924 30.0666 53.2072 30.0346 53.1416 29.9702C53.0082 29.8395 53.0059 29.6255 53.1363 29.4919L54.8316 27.7554L53.1363 26.0192C53.0059 25.8857 53.0082 25.6715 53.1416 25.5409C53.2746 25.4101 53.4886 25.4125 53.619 25.5462L55.5453 27.5189C55.6737 27.6504 55.6737 27.8605 55.5453 27.9919L53.619 29.9649C53.5529 30.0326 53.4654 30.0666 53.3777 30.0666Z" fill="#FF2958"/>
<path d="M154.157 25.1699H150.575C150.166 25.1699 149.835 25.5014 149.835 25.9107V29.5028C149.835 29.912 150.166 30.2435 150.575 30.2435H154.157C154.565 30.2435 154.9 29.912 154.9 29.5028V25.9107C154.9 25.5014 154.565 25.1699 154.157 25.1699Z" fill="#FF2958"/>
<path d="M145.379 25.1699H141.797C141.388 25.1699 141.058 25.5014 141.058 25.9107V29.5028C141.058 29.912 141.388 30.2435 141.797 30.2435H145.379C145.788 30.2435 146.122 29.912 146.122 29.5028V25.9107C146.122 25.5014 145.788 25.1699 145.379 25.1699Z" fill="#FF2958"/>
<path d="M162.428 25.3389H158.846C158.438 25.3389 158.107 25.6703 158.107 26.0796V29.6717C158.107 30.081 158.438 30.4124 158.846 30.4124H162.428C162.837 30.4124 163.171 30.081 163.171 29.6717V26.0796C163.171 25.6703 162.837 25.3389 162.428 25.3389Z" fill="#FF2958"/>
<path d="M108.437 26.7051H79.8047C79.3051 26.7051 78.9033 27.111 78.9033 27.6082C78.9033 28.1054 79.3051 28.5113 79.8047 28.5113H108.437C108.934 28.5113 109.339 28.1054 109.339 27.6082C109.339 27.111 108.934 26.7051 108.437 26.7051Z" fill="#FF2958"/>
</g>
<defs>
<clipPath id="clip0_436_6425">
<rect width="198" height="223" fill="white"/>
</clipPath>
</defs>
</svg>
