<svg width="30" height="30" viewBox="0 0 30 30" fill="none" xmlns="http://www.w3.org/2000/svg">
<path d="M12.5002 16.25H17.5002C17.8317 16.25 18.1497 16.1183 18.3841 15.8839C18.6185 15.6495 18.7502 15.3315 18.7502 15C18.7502 14.6685 18.6185 14.3505 18.3841 14.1161C18.1497 13.8817 17.8317 13.75 17.5002 13.75H12.5002C12.1687 13.75 11.8507 13.8817 11.6163 14.1161C11.3819 14.3505 11.2502 14.6685 11.2502 15C11.2502 15.3315 11.3819 15.6495 11.6163 15.8839C11.8507 16.1183 12.1687 16.25 12.5002 16.25ZM23.7502 3.75H6.25021C5.37078 3.75682 4.52173 4.07252 3.85147 4.64189C3.18121 5.21127 2.73239 5.99811 2.58346 6.86486C2.43454 7.73162 2.59498 8.62314 3.03675 9.38359C3.47851 10.144 4.1735 10.725 5.00021 11.025V22.5C5.00021 23.4946 5.3953 24.4484 6.09856 25.1517C6.80182 25.8549 7.75565 26.25 8.75021 26.25H21.2502C22.2448 26.25 23.1986 25.8549 23.9019 25.1517C24.6051 24.4484 25.0002 23.4946 25.0002 22.5V11.025C25.8269 10.725 26.5219 10.144 26.9637 9.38359C27.4054 8.62314 27.5659 7.73162 27.417 6.86486C27.268 5.99811 26.8192 5.21127 26.149 4.64189C25.4787 4.07252 24.6296 3.75682 23.7502 3.75ZM22.5002 22.5C22.5002 22.8315 22.3685 23.1495 22.1341 23.3839C21.8997 23.6183 21.5817 23.75 21.2502 23.75H8.75021C8.41869 23.75 8.10075 23.6183 7.86633 23.3839C7.63191 23.1495 7.50021 22.8315 7.50021 22.5V11.25H22.5002V22.5ZM23.7502 8.75H6.25021C5.91869 8.75 5.60075 8.6183 5.36633 8.38388C5.13191 8.14946 5.00021 7.83152 5.00021 7.5C5.00021 7.16848 5.13191 6.85054 5.36633 6.61612C5.60075 6.3817 5.91869 6.25 6.25021 6.25H23.7502C24.0817 6.25 24.3997 6.3817 24.6341 6.61612C24.8685 6.85054 25.0002 7.16848 25.0002 7.5C25.0002 7.83152 24.8685 8.14946 24.6341 8.38388C24.3997 8.6183 24.0817 8.75 23.7502 8.75Z" fill="black"/>
</svg>
