<svg width="366" height="192" viewBox="0 0 366 192" fill="none" xmlns="http://www.w3.org/2000/svg">
<g clip-path="url(#clip0_93_1289)">
<path d="M99.9301 157.034C109.866 157.034 117.921 148.555 117.921 138.095C117.921 127.636 109.866 119.157 99.9301 119.157C89.994 119.157 81.9392 127.636 81.9392 138.095C81.9392 148.555 89.994 157.034 99.9301 157.034Z" fill="#675DA5"/>
<path opacity="0.2" d="M86.6461 125.446C84.968 129.578 84.7403 134.204 86.0038 138.497C87.2674 142.789 89.9397 146.469 93.5434 148.879C97.147 151.288 101.447 152.27 105.675 151.649C109.904 151.028 113.784 148.845 116.624 145.49C115.599 148.014 114.065 150.274 112.128 152.113C110.19 153.951 107.897 155.324 105.405 156.137C102.914 156.95 100.285 157.182 97.6994 156.819C95.1141 156.456 92.6347 155.505 90.4331 154.033C88.2315 152.561 86.3602 150.603 84.9489 148.294C83.5376 145.985 82.6201 143.381 82.2598 140.662C81.8996 137.942 82.1053 135.173 82.8627 132.546C83.6201 129.919 84.911 127.496 86.6461 125.446V125.446Z" fill="black"/>
<path d="M99.9796 138.096H100.029L100.919 191.788H99.0403L99.9796 138.096Z" fill="#F0CF86"/>
<path d="M63.5292 121.717C83.5621 121.717 99.802 104.622 99.802 83.5338C99.802 62.4461 83.5621 45.3511 63.5292 45.3511C43.4962 45.3511 27.2563 62.4461 27.2563 83.5338C27.2563 104.622 43.4962 121.717 63.5292 121.717Z" fill="#675DA5"/>
<path opacity="0.2" d="M36.7465 58.0308C33.3631 66.362 32.9041 75.6881 35.4516 84.3428C37.9991 92.9974 43.3871 100.417 50.6527 105.274C57.9183 110.132 66.5882 112.112 75.113 110.861C83.6378 109.609 91.4621 105.207 97.1878 98.4423C95.1209 103.532 92.0275 108.088 88.1218 111.795C84.2161 115.502 79.5916 118.27 74.5686 119.909C69.5456 121.547 64.2443 122.016 59.0319 121.284C53.8195 120.552 48.8207 118.635 44.3817 115.667C39.9428 112.699 36.17 108.751 33.3246 104.096C30.4791 99.4407 28.6292 94.19 27.9029 88.7075C27.1767 83.225 27.5914 77.6419 29.1184 72.3449C30.6455 67.0479 33.2483 62.1637 36.7465 58.0308V58.0308Z" fill="black"/>
<path d="M63.6288 83.5337H63.7287L65.5224 191.788H61.7356L63.6288 83.5337Z" fill="#F0CF86"/>
<path d="M302.677 135.756H136.418V187.638H302.677V135.756Z" fill="#3E3959"/>
<path d="M229.241 146.479H209.855V187.638H229.241V146.479Z" fill="#675DA5"/>
<path d="M292.984 74.5361H146.111V122.267H292.984V74.5361Z" fill="#3E3959"/>
<path d="M307.874 77.4762H131.221C130.926 77.4762 130.638 77.3833 130.393 77.2096C130.149 77.0358 129.959 76.7891 129.849 76.5011C129.739 76.2132 129.713 75.8971 129.775 75.5935C129.837 75.29 129.983 75.0128 130.196 74.7977L178.476 25.9474V4.66933C178.476 4.25668 178.632 3.86106 178.909 3.56927C179.186 3.27748 179.562 3.11335 179.954 3.11289H189.483C189.875 3.11334 190.251 3.27747 190.528 3.56926C190.805 3.86105 190.961 4.25667 190.962 4.66933V13.3142L194.608 9.62441C200.576 3.58641 208.493 0.149639 216.769 0.00477255C225.045 -0.140094 233.066 3.01767 239.221 8.84348L308.863 74.7622C309.085 74.9727 309.242 75.2493 309.312 75.5555C309.382 75.8616 309.362 76.1829 309.255 76.4769C309.148 76.7709 308.958 77.0238 308.712 77.2022C308.465 77.3806 308.173 77.4761 307.874 77.4762V77.4762Z" fill="#675DA5"/>
<path d="M184.883 86.6421C186.113 86.6421 187.33 86.8971 188.467 87.3924C189.603 87.8878 190.635 88.6139 191.505 89.5293C192.374 90.4446 193.064 91.5313 193.534 92.7273C194.005 93.9232 194.247 95.205 194.247 96.4995V109.816H175.519V96.4995C175.519 95.205 175.761 93.9232 176.231 92.7273C176.702 91.5313 177.392 90.4446 178.261 89.5293C179.131 88.6139 180.163 87.8878 181.299 87.3924C182.435 86.8971 183.653 86.6421 184.883 86.6421V86.6421Z" fill="#F0CF86"/>
<path d="M219.548 86.8149C222.031 86.8149 224.413 87.8535 226.169 89.7021C227.925 91.5508 228.912 94.058 228.912 96.6724V109.989H210.183V96.6724C210.183 94.058 211.17 91.5508 212.926 89.7021C214.682 87.8535 217.064 86.8149 219.548 86.8149V86.8149Z" fill="white"/>
<path d="M254.212 86.9878C256.696 86.9878 259.078 88.0263 260.834 89.875C262.59 91.7236 263.577 94.2309 263.577 96.8452V110.161H244.848V96.8452C244.848 94.2309 245.834 91.7236 247.591 89.875C249.347 88.0263 251.729 86.9878 254.212 86.9878V86.9878Z" fill="white"/>
<path d="M268.012 145.959C270.496 145.959 272.878 146.998 274.634 148.847C276.39 150.695 277.377 153.203 277.377 155.817V169.133H258.648V155.817C258.648 153.203 259.635 150.695 261.391 148.847C263.147 146.998 265.529 145.959 268.012 145.959Z" fill="#F0CF86"/>
<path d="M175.354 145.959C177.838 145.959 180.22 146.998 181.976 148.847C183.732 150.695 184.719 153.203 184.719 155.817V169.133H165.99V155.817C165.99 154.522 166.232 153.241 166.703 152.045C167.173 150.849 167.863 149.762 168.733 148.847C169.602 147.931 170.635 147.205 171.771 146.71C172.907 146.214 174.125 145.959 175.354 145.959V145.959Z" fill="#F0CF86"/>
<path d="M326.967 136.566L295.778 122.04C295.611 121.962 295.43 121.921 295.247 121.921H146.608C146.439 121.921 146.271 121.956 146.113 122.023L112.165 136.55C111.883 136.671 111.649 136.891 111.504 137.173C111.359 137.456 111.312 137.782 111.37 138.097C111.429 138.412 111.589 138.696 111.825 138.9C112.06 139.104 112.355 139.215 112.66 139.215H121.468V186.946H120.482V191.788H318.613V186.946H316.97V139.215H326.435C326.736 139.215 327.029 139.106 327.263 138.906C327.497 138.707 327.658 138.428 327.721 138.118C327.783 137.807 327.742 137.484 327.605 137.201C327.468 136.919 327.242 136.695 326.967 136.566ZM314.341 186.946H124.097V139.215H314.341V186.946Z" fill="#675DA5"/>
<path d="M196.547 107.913H172.561V112.064H196.547V107.913Z" fill="#CACACA"/>
<path d="M231.705 107.913H207.719V112.064H231.705V107.913Z" fill="#CACACA"/>
<path d="M266.862 107.913H242.876V112.064H266.862V107.913Z" fill="#CACACA"/>
<path d="M280.005 167.75H256.019V171.9H280.005V167.75Z" fill="#CACACA"/>
<path d="M187.019 167.75H163.033V171.9H187.019V167.75Z" fill="#CACACA"/>
<path d="M365.597 192H0.40264C0.295853 192 0.19344 191.955 0.11793 191.876C0.0424206 191.796 0 191.689 0 191.576C0 191.464 0.0424206 191.356 0.11793 191.276C0.19344 191.197 0.295853 191.152 0.40264 191.152H365.597C365.704 191.152 365.807 191.197 365.882 191.276C365.958 191.356 366 191.464 366 191.576C366 191.689 365.958 191.796 365.882 191.876C365.807 191.955 365.704 192 365.597 192Z" fill="#3F3D56"/>
<path d="M273.742 73.8249C273.742 74.0962 273.738 74.3716 273.734 74.6429C273.73 74.9692 273.722 75.2914 273.709 75.6177C273.697 75.9017 273.685 76.1814 273.669 76.4611C273.621 77.3979 273.544 78.3303 273.44 79.267C273.416 79.5043 273.387 79.7375 273.355 79.9748C273.331 80.1571 273.307 80.3436 273.279 80.53C273.25 80.7377 273.222 80.9454 273.19 81.1531C273.126 81.5939 273.053 82.0347 272.973 82.4755C272.932 82.6959 272.892 82.9163 272.848 83.1366C272.763 83.5732 272.671 84.014 272.574 84.4506C272.566 84.4845 272.558 84.5226 272.55 84.5566C272.502 84.7727 272.453 84.9846 272.401 85.2008C272.385 85.2643 272.373 85.3237 272.353 85.3873C272.316 85.5483 272.276 85.7094 272.236 85.8704C272.179 86.0951 272.123 86.3154 272.063 86.5401C271.966 86.8877 271.869 87.231 271.769 87.5785C271.756 87.6146 271.745 87.6514 271.737 87.6887C271.543 88.3457 271.338 88.9942 271.112 89.6384C270.996 89.9775 270.871 90.3208 270.746 90.6598C270.621 90.9989 270.492 91.338 270.36 91.6728C270.231 91.9992 270.098 92.3255 269.965 92.6477C269.933 92.7239 269.9 92.8002 269.864 92.8765C269.723 93.2113 269.578 93.5377 269.429 93.8641C269.425 93.8683 269.425 93.8768 269.421 93.881C269.305 94.1438 269.18 94.4066 269.055 94.6651C269.055 94.673 269.052 94.6805 269.047 94.6863C268.926 94.9406 268.801 95.1949 268.672 95.445L268.467 95.8561L268.443 95.9028C268.185 96.4071 267.92 96.9073 267.638 97.4032C267.577 97.5134 267.517 97.6235 267.457 97.7295C267.396 97.8397 267.332 97.9499 267.267 98.0558C267.227 98.1322 267.183 98.2084 267.134 98.2847C267.05 98.4288 266.965 98.5772 266.877 98.7212C266.861 98.7509 266.84 98.7806 266.824 98.8103C266.671 99.0603 266.518 99.3062 266.365 99.5562C266.176 99.8572 265.983 100.154 265.786 100.451L261.413 107.817L261.224 107.652L261.171 107.601H261.167L260.994 107.448L260.519 107.024C260.374 107.173 260.233 107.321 260.088 107.465C260.032 107.524 259.971 107.58 259.915 107.639C259.871 107.681 259.83 107.724 259.786 107.766C252.227 115.537 242.171 120.037 231.609 120.375H231.597C223.602 120.606 215.688 118.64 208.635 114.67C208.478 114.586 208.325 114.501 208.172 114.403C207.254 113.878 206.356 113.323 205.474 112.729C205.47 112.725 205.466 112.725 205.462 112.721C204.439 111.958 203.441 111.144 202.466 110.279C197.239 105.641 193.103 99.7912 190.384 93.1885C187.664 86.5857 186.435 79.4095 186.792 72.2226C186.804 71.9387 186.82 71.6589 186.84 71.3749C186.904 70.3493 187.004 69.3278 187.138 68.3106C187.174 68.0266 187.214 67.7426 187.255 67.4629H273.331C273.5 68.7598 273.617 70.0639 273.681 71.3749C273.722 72.1931 273.742 73.0069 273.742 73.8249Z" fill="#3E3959"/>
<path d="M273.331 67.4629C271.781 56.6148 266.585 46.7122 258.687 39.5552C250.789 32.3982 240.714 28.4619 230.293 28.4619C219.871 28.4619 209.796 32.3982 201.898 39.5552C194 46.7122 188.804 56.6148 187.254 67.4629C187.214 67.7426 187.174 68.0266 187.138 68.3105C187.005 69.3278 186.906 70.3492 186.84 71.3749H273.681C273.617 70.0652 273.5 68.7612 273.331 67.4629Z" fill="#675DA5"/>
<path d="M233.112 114.669H208.174V93.6691C208.634 84.0721 216.426 83.2971 223.748 83.8122C224.978 83.8121 226.195 84.067 227.331 84.5623C228.468 85.0576 229.5 85.7837 230.369 86.699C231.239 87.6143 231.929 88.701 232.399 89.8969C232.87 91.0928 233.112 92.3746 233.112 93.6691V114.669Z" fill="#675DA5"/>
<path d="M208.172 99.7384V99.7426C208.172 99.7469 208.176 99.7469 208.18 99.7469L208.172 99.7384ZM198.142 67.4629C198.126 67.5689 198.106 67.6748 198.089 67.7808C198.106 67.6748 198.126 67.5689 198.146 67.4629H198.142ZM197.643 71.3749C197.63 71.536 197.618 71.6971 197.61 71.8581C197.618 71.6971 197.63 71.536 197.647 71.3749C197.646 71.3452 197.647 71.3155 197.651 71.2859C197.647 71.3156 197.647 71.3453 197.643 71.3749V71.3749ZM208.172 99.7426C208.172 99.7469 208.176 99.7469 208.18 99.7469L208.172 99.7384V99.7426ZM198.142 67.4629C198.126 67.5689 198.106 67.6748 198.089 67.7808C198.106 67.6748 198.126 67.5689 198.146 67.4629H198.142ZM197.61 71.8581C197.618 71.6971 197.63 71.536 197.647 71.3749C197.646 71.3452 197.647 71.3155 197.651 71.2859C197.647 71.3156 197.647 71.3453 197.643 71.3749C197.63 71.536 197.618 71.6971 197.61 71.8581V71.8581ZM322.002 149.828C321.924 149.741 321.84 149.658 321.752 149.582L321.748 149.578L301.81 131.866L301.294 131.408L299.333 129.666L298.842 129.229L296.048 126.746L295.283 126.067L293.7 124.66L292.891 123.94L285.257 117.162L280.88 113.276L280.293 112.755L267.396 101.298C267.593 101.001 267.787 100.705 267.976 100.404C268.129 100.154 268.282 99.9079 268.435 99.6579C268.451 99.6282 268.471 99.5985 268.487 99.5688C268.576 99.4247 268.66 99.2764 268.745 99.1323C268.793 99.056 268.837 98.9797 268.878 98.9034C268.942 98.7975 269.007 98.6873 269.067 98.5771C269.127 98.4711 269.188 98.361 269.248 98.2508C269.53 97.7548 269.796 97.2547 270.053 96.7504L270.078 96.7037L270.283 96.2926C270.412 96.0425 270.537 95.7882 270.657 95.5339C270.662 95.5281 270.665 95.5206 270.665 95.5127C270.79 95.2542 270.915 94.9914 271.032 94.7286C271.036 94.7244 271.036 94.7159 271.04 94.7117C271.189 94.3853 271.334 94.059 271.475 93.7241C271.511 93.6478 271.543 93.5715 271.575 93.4953C271.708 93.1731 271.841 92.8468 271.97 92.5204C272.103 92.1856 272.232 91.8465 272.357 91.5074C272.481 91.1684 272.606 90.8251 272.723 90.486C272.944 89.8375 273.152 89.1876 273.347 88.5363C273.356 88.499 273.367 88.4622 273.379 88.4261C273.48 88.0786 273.576 87.7353 273.673 87.3877C273.734 87.163 273.79 86.9427 273.846 86.718C273.886 86.557 273.927 86.3959 273.963 86.2349C273.983 86.1713 273.995 86.1119 274.011 86.0484C274.064 85.8322 274.112 85.6203 274.16 85.4042C274.168 85.3702 274.176 85.3321 274.184 85.2982C274.281 84.8616 274.374 84.4208 274.458 83.9842C274.503 83.7639 274.543 83.5435 274.583 83.3231C274.66 82.8823 274.736 82.4415 274.8 82.0007C274.833 81.793 274.861 81.5853 274.889 81.3777C274.917 81.1912 274.941 81.0047 274.966 80.8224C274.998 80.5851 275.026 80.3519 275.05 80.1146C275.155 79.1779 275.231 78.2455 275.28 77.3087C275.296 77.029 275.308 76.7493 275.32 76.4653C275.332 76.139 275.34 75.8168 275.344 75.4905C275.348 75.2192 275.352 74.9438 275.352 74.6724C275.352 73.8545 275.332 73.0407 275.292 72.2226C275.227 70.913 275.11 69.609 274.941 68.3106C273.499 57.2122 268.31 47.0309 260.324 39.6277C252.338 32.2246 242.087 28.0941 231.446 27.9912C220.805 27.8884 210.484 31.82 202.37 39.0675C194.256 46.315 188.89 56.3943 187.254 67.4629C187.214 67.7427 187.174 68.0266 187.138 68.3106C187.005 69.3278 186.906 70.3493 186.84 71.375C186.82 71.659 186.804 71.9387 186.791 72.2226C186.435 79.4095 187.664 86.5857 190.384 93.1885C193.103 99.7913 197.239 105.641 202.466 110.279C203.441 111.144 204.439 111.958 205.462 112.721C205.466 112.725 205.47 112.725 205.474 112.729C205.816 112.983 206.158 113.233 206.505 113.479C207.056 113.861 207.612 114.234 208.172 114.59C208.216 114.615 208.26 114.645 208.304 114.67C208.788 114.976 209.275 115.268 209.762 115.552H209.766C211.58 116.602 213.462 117.514 215.399 118.281C221.082 120.532 227.143 121.533 233.208 121.223H233.22C240.298 120.862 247.191 118.715 253.316 114.963C254.205 114.42 255.083 113.84 255.941 113.221C256.154 113.068 256.372 112.911 256.581 112.755C256.839 112.564 257.096 112.365 257.354 112.165C257.358 112.165 257.358 112.161 257.362 112.161C257.381 112.144 257.401 112.129 257.423 112.115C257.596 111.975 257.773 111.835 257.942 111.699C257.986 111.665 258.031 111.631 258.075 111.593C258.087 111.585 258.097 111.575 258.107 111.564C258.208 111.487 258.304 111.402 258.405 111.322C258.506 111.241 258.602 111.157 258.703 111.072C258.72 111.061 258.736 111.048 258.751 111.034C258.864 110.936 258.977 110.843 259.089 110.746C259.206 110.648 259.319 110.546 259.428 110.449C259.54 110.351 259.649 110.254 259.762 110.152C259.859 110.067 259.959 109.978 260.056 109.885C260.088 109.86 260.116 109.83 260.148 109.8C260.161 109.788 260.174 109.776 260.189 109.766C260.322 109.648 260.45 109.525 260.579 109.402C260.612 109.372 260.64 109.343 260.672 109.313C260.869 109.126 261.066 108.94 261.26 108.745C261.304 108.703 261.352 108.656 261.397 108.614C261.441 108.571 261.481 108.529 261.525 108.486C261.582 108.427 261.642 108.372 261.699 108.313C261.844 108.169 261.985 108.02 262.129 107.872L262.604 108.296L262.778 108.448H262.782L262.834 108.499L263.023 108.664L265.834 111.165L265.894 111.22L265.942 111.258L266.26 111.542L266.897 112.11L267.533 112.674L267.626 112.755L270.585 115.382L270.996 115.747L273.85 118.281L288.627 131.408L289.143 131.866L309.367 149.828L314.553 154.435L316.482 156.147C316.891 156.512 317.365 156.788 317.876 156.96C318.386 157.132 318.924 157.196 319.459 157.149C319.993 157.102 320.514 156.944 320.99 156.685C321.466 156.426 321.89 156.07 322.236 155.639C322.525 155.281 322.755 154.874 322.916 154.435C323.208 153.657 323.278 152.806 323.115 151.987C322.953 151.168 322.566 150.418 322.002 149.828V149.828ZM205.369 51.5773C209.409 46.5385 214.72 42.8054 220.689 40.8092C226.659 38.8131 233.043 38.6354 239.104 40.2967C245.165 41.9579 250.657 45.3904 254.943 50.1975C259.23 55.0046 262.137 60.9902 263.329 67.4629C263.382 67.7469 263.43 68.0266 263.474 68.3106C263.639 69.3236 263.76 70.3493 263.833 71.3749C263.853 71.6589 263.873 71.9387 263.885 72.2226C263.921 72.8584 263.937 73.4984 263.937 74.1342C263.94 77.9907 263.333 81.8207 262.141 85.4677V85.4719C260.81 89.561 258.766 93.3528 256.114 96.6529C256.058 96.7207 256.001 96.7927 255.941 96.8606C255.409 97.5217 254.85 98.1575 254.274 98.7636C254.27 98.7679 254.266 98.7763 254.262 98.7806C254.064 98.9882 253.863 99.2002 253.662 99.3951C253.251 99.8147 252.832 100.213 252.406 100.595C251.765 101.184 251.109 101.736 250.437 102.252C250.211 102.426 249.986 102.595 249.756 102.765C249.531 102.934 249.301 103.095 249.072 103.256C248.613 103.578 248.146 103.888 247.675 104.18C247.441 104.329 247.2 104.473 246.962 104.613C246.724 104.757 246.483 104.892 246.241 105.024C246 105.159 245.758 105.291 245.513 105.418C245.025 105.676 244.534 105.918 244.035 106.143C243.785 106.261 243.536 106.372 243.286 106.473C243.129 106.541 242.976 106.609 242.819 106.668C242.757 106.698 242.694 106.724 242.63 106.745C242.545 106.783 242.46 106.817 242.376 106.846C242.348 106.859 242.32 106.871 242.291 106.88C242.118 106.952 241.949 107.016 241.772 107.079C241.518 107.177 241.265 107.266 241.007 107.351C240.749 107.44 240.496 107.524 240.238 107.601C239.98 107.686 239.718 107.762 239.461 107.834C239.199 107.91 238.941 107.982 238.68 108.046C238.402 108.122 238.124 108.19 237.842 108.253C237.597 108.313 237.355 108.364 237.109 108.41C236.88 108.461 236.646 108.504 236.417 108.546C236.095 108.605 235.773 108.66 235.446 108.707C235.269 108.737 235.096 108.762 234.919 108.779C234.843 108.792 234.77 108.8 234.698 108.809C234.472 108.843 234.247 108.868 234.025 108.889C233.965 108.893 233.908 108.902 233.852 108.906C233.606 108.932 233.357 108.953 233.111 108.974C232.584 109.012 232.06 109.038 231.533 109.05C231.267 109.054 230.997 109.059 230.731 109.059C230.466 109.059 230.2 109.054 229.934 109.046C229.934 109.046 229.934 109.05 229.93 109.046C229.926 109.05 229.926 109.05 229.922 109.046C229.922 109.047 229.921 109.047 229.92 109.047C229.92 109.048 229.919 109.048 229.918 109.048C229.917 109.048 229.917 109.048 229.916 109.047C229.915 109.047 229.915 109.047 229.914 109.046C229.901 109.05 229.887 109.05 229.874 109.046C229.685 109.046 229.495 109.038 229.31 109.025C229.173 109.021 229.032 109.016 228.891 109.004C228.702 108.995 228.513 108.982 228.324 108.965C228.263 108.965 228.203 108.957 228.143 108.953C228.114 108.952 228.086 108.949 228.058 108.944C227.865 108.927 227.667 108.91 227.474 108.889C227.378 108.881 227.277 108.872 227.18 108.86C226.886 108.826 226.592 108.787 226.302 108.745C225.972 108.703 225.642 108.652 225.316 108.588C225.163 108.567 225.014 108.537 224.865 108.508C224.668 108.474 224.471 108.436 224.273 108.393C224.068 108.351 223.863 108.309 223.657 108.258C223.492 108.219 223.323 108.181 223.158 108.139C223.077 108.122 222.997 108.101 222.92 108.08C222.497 107.974 222.079 107.859 221.664 107.732C221.402 107.656 221.141 107.575 220.883 107.491C220.529 107.376 220.178 107.253 219.828 107.122C219.691 107.075 219.558 107.024 219.421 106.969C219.284 106.923 219.152 106.867 219.015 106.812C218.89 106.766 218.765 106.715 218.644 106.664C218.443 106.583 218.246 106.499 218.048 106.414C217.642 106.24 217.243 106.058 216.844 105.863C216.619 105.749 216.393 105.638 216.172 105.524C215.298 105.079 214.438 104.584 213.591 104.04C213.382 103.909 213.172 103.769 212.963 103.629C212.701 103.46 212.448 103.282 212.194 103.104C212.053 103.002 211.916 102.905 211.779 102.803C211.526 102.616 211.276 102.426 211.03 102.235C210.901 102.137 210.773 102.036 210.648 101.934C210.201 101.578 209.762 101.205 209.331 100.823C209.126 100.641 208.92 100.455 208.719 100.264C208.635 100.188 208.55 100.107 208.465 100.027C208.369 99.9334 208.272 99.8445 208.18 99.7469L208.172 99.7385C208.031 99.6071 207.89 99.4672 207.753 99.3273C207.539 99.1154 207.33 98.8993 207.129 98.6789C206.919 98.4628 206.718 98.2381 206.521 98.0177C206.319 97.7973 206.126 97.5726 205.937 97.3437C205.744 97.1191 205.554 96.8903 205.369 96.6572C205.188 96.4368 205.011 96.2079 204.842 95.9832C204.431 95.4492 204.039 94.9053 203.666 94.3514C203.493 94.0971 203.328 93.8428 203.167 93.5843C202.994 93.3215 202.828 93.0545 202.671 92.7874C202.506 92.5205 202.349 92.2492 202.196 91.9737C202.192 91.9643 202.187 91.9557 202.18 91.9482C201.878 91.41 201.588 90.8675 201.319 90.3165C201.041 89.757 200.779 89.1919 200.533 88.6211C200.409 88.3371 200.288 88.0489 200.175 87.7607C199.942 87.18 199.724 86.5994 199.523 86.0102C199.422 85.7263 199.33 85.4423 199.237 85.154C199.234 85.135 199.229 85.1165 199.221 85.099C199.036 84.514 198.867 83.925 198.718 83.3316C198.713 83.3231 198.713 83.3147 198.709 83.3062C198.633 83.0137 198.561 82.7212 198.496 82.4246C198.432 82.166 198.375 81.9075 198.323 81.6447C198.263 81.3522 198.202 81.0598 198.15 80.7631C198.122 80.6105 198.093 80.4579 198.069 80.3053C198.045 80.1782 198.025 80.0468 198.005 79.9197C197.985 79.7925 197.965 79.6611 197.944 79.5297C197.904 79.2712 197.868 79.0127 197.836 78.7541C197.795 78.4489 197.763 78.1438 197.731 77.8344C197.695 77.4656 197.663 77.0968 197.634 76.7239C197.614 76.4738 197.602 76.2195 197.59 75.9652C197.578 75.7321 197.566 75.499 197.562 75.2659C197.558 75.2535 197.558 75.2401 197.562 75.2277C197.561 75.2272 197.561 75.2265 197.561 75.2258C197.56 75.2251 197.56 75.2243 197.56 75.2235C197.56 75.2227 197.56 75.2219 197.561 75.2212C197.561 75.2205 197.561 75.2198 197.562 75.2193C197.558 75.215 197.558 75.215 197.562 75.2108C197.561 75.2102 197.561 75.2096 197.561 75.2089C197.56 75.2081 197.56 75.2073 197.56 75.2066C197.56 75.2058 197.56 75.205 197.561 75.2043C197.561 75.2035 197.561 75.2029 197.562 75.2023C197.558 75.1091 197.554 75.0158 197.554 74.9226C197.546 74.6471 197.542 74.3716 197.542 74.0961C197.542 73.846 197.546 73.6002 197.55 73.3501C197.558 73.0026 197.57 72.655 197.586 72.3075C197.586 72.2312 197.594 72.1591 197.598 72.0828C197.602 72.0066 197.606 71.9345 197.61 71.8582C197.618 71.6972 197.63 71.5361 197.647 71.375C197.646 71.3453 197.647 71.3156 197.651 71.286C197.663 71.1038 197.679 70.9215 197.695 70.7393C197.727 70.3748 197.767 70.006 197.812 69.6415C197.836 69.4593 197.856 69.277 197.884 69.0948C197.9 68.9676 197.92 68.8362 197.94 68.7048C197.957 68.5734 197.977 68.4421 198.001 68.3107C198.029 68.1369 198.057 67.9589 198.089 67.7809C198.105 67.6749 198.126 67.5689 198.146 67.463C198.222 67.0391 198.307 66.6153 198.399 66.1915C198.492 65.7634 198.597 65.3395 198.709 64.9157C198.818 64.4876 198.939 64.0595 199.068 63.6315C199.128 63.4153 199.193 63.2034 199.265 62.9915C199.398 62.5634 199.539 62.1395 199.696 61.7199C199.768 61.5123 199.845 61.3003 199.929 61.0926C200.091 60.673 200.26 60.2534 200.433 59.8423C200.521 59.6346 200.61 59.427 200.707 59.2193C200.888 58.8082 201.077 58.397 201.282 57.9944C201.48 57.5832 201.693 57.1806 201.91 56.7822C202.128 56.3838 202.353 55.9854 202.591 55.5912C202.7 55.3962 202.82 55.197 202.945 55.0063C203.187 54.6164 203.44 54.2264 203.698 53.845C204.218 53.0735 204.777 52.3148 205.369 51.5773ZM197.643 71.3749C197.63 71.536 197.618 71.6971 197.61 71.8581C197.618 71.6971 197.63 71.536 197.647 71.3749C197.646 71.3452 197.647 71.3155 197.651 71.2859C197.647 71.3156 197.647 71.3453 197.643 71.3749ZM198.142 67.4629C198.126 67.5689 198.106 67.6748 198.089 67.7808C198.106 67.6748 198.126 67.5689 198.146 67.4629H198.142ZM208.172 99.7384V99.7426C208.172 99.7469 208.176 99.7469 208.18 99.7469L208.172 99.7384Z" fill="#5D5A7C"/>
<path opacity="0.3" d="M209.332 100.823C202.963 95.1656 198.848 87.1939 197.805 78.4909C196.761 69.7879 198.865 60.9901 203.698 53.8442C203.064 54.5171 202.45 55.2219 201.857 55.9584C199.046 59.4658 196.918 63.5217 195.596 67.8947C194.274 72.2676 193.782 76.8719 194.15 81.4447C194.518 86.0175 195.738 90.4692 197.741 94.5456C199.743 98.6221 202.489 102.243 205.821 105.203C212.55 111.18 221.259 114.098 230.032 113.316C238.805 112.533 246.924 108.114 252.602 101.031C253.193 100.294 253.75 99.5382 254.272 98.7651C248.394 104.983 240.509 108.646 232.183 109.027C223.858 109.408 215.701 106.48 209.332 100.823V100.823Z" fill="#201D1D"/>
</g>
<defs>
<clipPath id="clip0_93_1289">
<rect width="366" height="192" fill="white"/>
</clipPath>
</defs>
</svg>
