<svg width="375" height="531" viewBox="0 0 375 531" fill="none" xmlns="http://www.w3.org/2000/svg">
<g clip-path="url(#clip0_434_6429)">
<path d="M457.948 142.988V52.419C457.948 45.5353 456.581 38.7189 453.926 32.3591C451.27 25.9994 447.378 20.2207 442.471 15.3532C437.564 10.4856 431.739 6.62447 425.328 3.99016C418.916 1.35586 412.045 0 405.106 0H211.671C204.732 -1.30062e-06 197.86 1.35586 191.449 3.99016C185.038 6.62447 179.213 10.4856 174.306 15.3532C169.399 20.2207 165.507 25.9994 162.851 32.3591C160.195 38.7189 158.829 45.5353 158.829 52.4191V549.29C158.829 563.192 164.396 576.525 174.306 586.355C184.216 596.186 197.657 601.709 211.671 601.709H405.106C419.12 601.709 432.561 596.186 442.471 586.355C452.381 576.525 457.948 563.192 457.948 549.29V207.457C458.832 207.457 459.68 207.109 460.305 206.489C460.93 205.869 461.281 205.028 461.281 204.151V146.294C461.281 145.418 460.93 144.577 460.305 143.957C459.68 143.337 458.832 142.988 457.948 142.988Z" fill="#3F3D56"/>
<path d="M446.702 52.7785V548.932C446.703 559.237 442.605 569.127 435.298 576.453C427.991 583.779 418.064 587.948 407.676 588.055C407.532 588.07 407.388 588.076 407.244 588.073H212.868C202.404 588.072 192.368 583.948 184.968 576.608C177.569 569.268 173.411 559.312 173.41 548.931V52.7785C173.411 42.3978 177.569 32.4425 184.968 25.1022C192.368 17.7619 202.404 13.6377 212.868 13.6367H236.457C235.297 16.4616 234.855 19.5259 235.17 22.56C235.484 25.5941 236.546 28.505 238.261 31.0365C239.976 33.5681 242.292 35.6428 245.005 37.078C247.718 38.5132 250.745 39.265 253.82 39.2672H364.637C367.709 39.2588 370.732 38.5027 373.441 37.0654C376.15 35.6281 378.462 33.5533 380.174 31.0232C381.886 28.493 382.947 25.5847 383.262 22.5534C383.577 19.5221 383.138 16.4603 381.982 13.6367H407.244C417.709 13.6377 427.744 17.7618 435.144 25.1021C442.544 32.4424 446.701 42.3977 446.702 52.7785Z" fill="white"/>
<path d="M403.907 575.962C403.907 581.102 403.744 586.2 403.418 591.254C403.276 591.271 403.132 591.277 402.989 591.274H208.618C199.824 591.273 191.281 588.36 184.347 582.995C177.412 577.63 172.482 570.122 170.339 561.661C169.963 560.184 169.68 558.686 169.49 557.174C169.269 555.503 169.159 553.819 169.161 552.133V331.024C184.117 331.758 198.974 333.84 213.55 337.244C214.978 337.571 216.396 337.918 217.803 338.274C217.893 338.294 217.983 338.324 218.073 338.344C219.501 338.7 220.918 339.076 222.326 339.463C252.374 347.649 280.581 361.426 305.444 380.06C306.872 381.119 308.289 382.209 309.697 383.308L309.967 383.516C312.323 385.358 314.643 387.247 316.926 389.181C317.435 389.607 317.944 390.043 318.443 390.488C319.671 391.538 320.899 392.608 322.097 393.687C348.611 417.361 369.658 446.435 383.799 478.922C384.268 479.982 384.718 481.051 385.167 482.121C385.347 482.557 385.527 482.993 385.706 483.428C385.876 483.825 386.036 484.221 386.195 484.617C397.933 513.662 403.946 544.67 403.907 575.962Z" fill="#3F3D56"/>
<path d="M159.898 193.656C158.705 193.655 157.562 193.184 156.718 192.348C155.875 191.511 155.401 190.377 155.399 189.194V158.852C155.399 157.668 155.873 156.533 156.717 155.697C157.56 154.86 158.705 154.39 159.898 154.39C161.091 154.39 162.235 154.86 163.078 155.697C163.922 156.533 164.396 157.668 164.396 158.852V189.194C164.394 190.377 163.92 191.511 163.077 192.348C162.234 193.184 161.09 193.655 159.898 193.656Z" fill="#3F3D56"/>
<path d="M158.998 134.756C157.805 134.755 156.662 134.284 155.819 133.448C154.976 132.611 154.501 131.477 154.5 130.294V99.9514C154.5 98.768 154.974 97.633 155.817 96.7962C156.661 95.9594 157.805 95.4893 158.998 95.4893C160.191 95.4893 161.335 95.9594 162.179 96.7962C163.022 97.633 163.496 98.768 163.496 99.9514V130.294C163.495 131.477 163.02 132.611 162.177 133.448C161.334 134.284 160.191 134.755 158.998 134.756Z" fill="#3F3D56"/>
<path d="M278.65 18.7405C278.651 17.5574 279.126 16.4233 279.969 15.5868C280.812 14.7503 281.955 14.2797 283.148 14.2783H313.736C314.327 14.2775 314.913 14.3922 315.459 14.6161C316.006 14.8399 316.502 15.1685 316.921 15.5829C317.339 15.9973 317.671 16.4895 317.898 17.0313C318.124 17.5731 318.241 18.1539 318.241 18.7405C318.241 19.327 318.124 19.9078 317.898 20.4496C317.671 20.9914 317.339 21.4836 316.921 21.898C316.502 22.3124 316.006 22.641 315.459 22.8648C314.913 23.0887 314.327 23.2035 313.736 23.2026H283.148C281.955 23.2012 280.812 22.7306 279.969 21.8941C279.126 21.0576 278.651 19.9235 278.65 18.7405Z" fill="white"/>
<path d="M159.898 245.417C158.705 245.416 157.562 244.945 156.718 244.109C155.875 243.272 155.401 242.138 155.399 240.955V210.613C155.399 209.429 155.873 208.294 156.717 207.457C157.56 206.621 158.705 206.15 159.898 206.15C161.091 206.15 162.235 206.621 163.078 207.457C163.922 208.294 164.396 209.429 164.396 210.613V240.955C164.394 242.138 163.92 243.272 163.077 244.109C162.233 244.945 161.09 245.416 159.898 245.417Z" fill="#3F3D56"/>
<path d="M330.829 23.2035C333.313 23.2035 335.327 21.2058 335.327 18.7414C335.327 16.2771 333.313 14.2793 330.829 14.2793C328.345 14.2793 326.331 16.2771 326.331 18.7414C326.331 21.2058 328.345 23.2035 330.829 23.2035Z" fill="white"/>
<path opacity="0.2" d="M314.22 553.974C314.219 544.71 316.057 535.536 319.631 526.976C323.204 518.416 328.443 510.639 335.047 504.088C341.651 497.536 349.491 492.34 358.12 488.795C366.749 485.25 375.997 483.426 385.337 483.428H385.706C385.527 482.992 385.347 482.556 385.167 482.12C384.718 481.051 384.269 479.981 383.799 478.921H314.22V390.488H318.443C317.944 390.042 317.435 389.606 316.926 389.18C314.639 387.249 312.32 385.361 309.967 383.515L309.697 383.307V385.981H222.326V339.462C220.918 339.076 219.501 338.699 218.073 338.343C217.983 338.323 217.893 338.293 217.803 338.273V385.981H173.414V390.488H217.803V478.921H173.414V483.428H217.803V553.974H173.744C173.933 555.486 174.216 556.984 174.592 558.461H217.803V588.074H222.326V558.461H309.697V588.074H314.22V558.461H390.449V553.974H314.22ZM309.697 553.974H222.326V483.428H309.697V553.974ZM309.697 478.921H222.326V477.158C222.326 454.172 231.532 432.127 247.917 415.873C264.302 399.619 286.525 390.488 309.697 390.488V478.921Z" fill="black"/>
<path d="M-6.7071 218.865L-8.62793 219.405L100.384 600.862L102.305 600.322L-6.7071 218.865Z" fill="#FCFBFF"/>
<path d="M81.497 530.878L-17.3525 551.164L-16.9479 553.104L81.9017 532.818L81.497 530.878Z" fill="#3F3D56"/>
<path d="M64.3586 471.374L-34.4907 491.66L-34.0861 493.6L64.7633 473.314L64.3586 471.374Z" fill="#FCFBFF"/>
<path d="M47.2329 411.868L-50.9272 430.713L-50.548 432.657L47.6122 413.812L47.2329 411.868Z" fill="#FCFBFF"/>
<path d="M30.0927 352.376L-65.9292 371.199L-65.5421 373.142L30.4798 354.319L30.0927 352.376Z" fill="#3F3D56"/>
<path d="M22.8 312.226L3.61157 358.533L66.1311 358.083L59.7732 312.123L22.8 312.226Z" fill="#FFB6B6"/>
<path d="M38.0667 524.802L47.3399 526.144L56.9686 491.301L43.2824 489.321L38.0667 524.802Z" fill="#FFB6B6"/>
<path d="M36.4341 519.932L51.2207 521.185L50.3045 527.415L62.8371 538.98C63.4561 539.551 63.8749 540.303 64.0323 541.127C64.1897 541.951 64.0775 542.804 63.7121 543.56C63.3466 544.316 62.7471 544.937 62.0009 545.331C61.2548 545.725 60.4011 545.872 59.5646 545.751L42.1126 543.226L40.0107 536.628L37.93 542.621L31.3499 541.668L36.4341 519.932Z" fill="#2F2E41"/>
<path d="M7.14184 347.546L0.984489 355.636L-15.4046 426.37L-52.6565 476.279L-40.1341 488.207L7.37996 442.481L30.6975 393.625L42.4947 438.751L39.4995 499.166L59.4677 498.176C64.8796 428.064 73.3453 355.925 63.3738 335.665C56.8012 341.353 49.128 345.65 40.8236 348.295C32.5193 350.94 23.7583 351.876 15.0765 351.047L7.14184 347.546Z" fill="#F0CF86"/>
<path d="M40.1005 237.342L55.8537 254.429C59.311 258.18 61.5026 262.907 62.123 267.951C62.4047 270.242 62.3577 272.561 61.9833 274.838L58.5872 299.519L64.5777 337.155C64.5777 337.155 56.0401 342.32 39.6174 353.001C32.9149 357.36 1.63949 357.29 1.67777 355.972C1.85503 349.869 7.35819 333.422 8.66665 313.385C10.2817 288.653 8.16385 259.135 13.6587 245.047C20.3666 227.847 40.1005 237.342 40.1005 237.342Z" fill="#FCFBFF"/>
<path d="M-29.2025 270.935C-28.8653 270.058 -28.3483 269.261 -27.6844 268.594C-27.0204 267.926 -26.2239 267.402 -25.3453 267.056C-19.2633 264.521 7.0335 243.205 8.00239 243.605L16.3508 239.518C16.6588 239.521 24.8824 239.714 28.9167 244.252C29.7554 245.21 30.3751 246.337 30.7333 247.555C31.0914 248.773 31.1796 250.054 30.9915 251.309C29.8102 262.116 -7.46858 286.391 -11.4194 286.228L-15.6048 316.912L-13.9759 328.635L-29.2213 329.065L-33.9191 311.804C-34.5935 310.545 -35.4449 286.703 -29.2025 270.935Z" fill="#FCFBFF"/>
<path d="M31.917 254.544C33.1508 246.155 28.4007 238.521 21.3075 237.495C14.2143 236.469 7.46395 242.438 6.23022 250.827C4.99648 259.217 9.74653 266.85 16.8398 267.876C23.933 268.903 30.6833 262.934 31.917 254.544Z" fill="#FCFBFF"/>
<path d="M-82.6793 309.396L-83.0657 307.453L9.66483 286.644V288.624L-82.6793 309.396Z" fill="#3F3D56"/>
<path d="M327.839 169.429H292.274C284.602 169.429 278.383 175.598 278.383 183.208V183.208C278.383 190.819 284.602 196.988 292.274 196.988H327.839C335.51 196.988 341.73 190.819 341.73 183.208C341.73 175.598 335.51 169.429 327.839 169.429Z" fill="#F7D7D5"/>
<path d="M393.82 224.547H226.292C218.62 224.547 212.401 230.716 212.401 238.326V238.326C212.401 245.937 218.62 252.106 226.292 252.106H393.82C401.492 252.106 407.711 245.937 407.711 238.326C407.711 230.716 401.492 224.547 393.82 224.547Z" fill="#F7D7D5"/>
<path d="M321.935 265.8H154.406C146.735 265.8 140.515 271.969 140.515 279.579V279.579C140.515 287.19 146.735 293.359 154.406 293.359H321.935C329.607 293.359 335.826 287.19 335.826 279.579C335.826 271.969 329.607 265.8 321.935 265.8Z" fill="#F7D7D5"/>
<path d="M56.7702 220.278C53.7897 224.205 49.5497 227.009 44.7484 228.227C39.9472 229.444 34.871 229.004 30.3559 226.978C25.8407 224.951 22.1559 221.46 19.9082 217.079C17.6605 212.697 16.984 207.687 17.9901 202.874C18.9961 198.06 21.6248 193.73 25.4431 190.596C29.2614 187.463 34.0418 185.712 38.9968 185.634C43.9519 185.555 48.7862 187.153 52.7037 190.164C56.6211 193.174 59.3881 197.419 60.5489 202.198C60.6117 202.458 60.6646 202.715 60.716 202.983C61.3291 205.979 61.2943 209.069 60.6141 212.051C59.9339 215.032 58.6238 217.836 56.7702 220.278Z" fill="#FFB6B6"/>
<path d="M62.4449 203.233C61.8953 200.521 62.1029 201.922 61.542 199.219C61.6579 200.527 61.3698 201.84 60.716 202.983L35.0193 199.264L37.1984 184.446C45.1619 182.576 52.8925 181.122 56.5326 187.244C60.4943 187.817 64.0641 189.928 66.4568 193.113C68.8495 196.297 69.8692 200.294 69.2914 204.224L62.4449 203.233Z" fill="#2F2E41"/>
<path d="M47.2785 243.106C47.299 242.829 47.3113 242.54 47.3121 242.26C47.2628 240.197 46.993 238.145 46.5071 236.138C46.0703 233.963 45.625 231.777 45.1782 229.6C45.5931 233.494 44.7153 237.415 42.6781 240.769C38.8339 236.79 41.3756 231.029 35.7047 230.209C22.0709 228.236 10.9767 213.731 12.967 200.197C14.9559 186.673 22.2919 177.405 35.9257 179.378C49.5694 181.352 59.7236 189.147 58.0015 202.71C40.6298 204.2 50.6515 242.193 47.2785 243.106Z" fill="#2F2E41"/>
<path d="M17.2816 191.723C22.3109 191.723 26.388 187.679 26.388 182.69C26.388 177.701 22.3109 173.656 17.2816 173.656C12.2523 173.656 8.17529 177.701 8.17529 182.69C8.17529 187.679 12.2523 191.723 17.2816 191.723Z" fill="#2F2E41"/>
<path d="M28.0835 175.231C27.2342 173.408 25.9448 171.821 24.3296 170.611C22.7143 169.4 20.823 168.603 18.8232 168.291C20.232 168.923 21.4625 169.889 22.4062 171.104C23.3499 172.318 23.978 173.745 24.235 175.257C24.4921 176.769 24.3702 178.321 23.8802 179.776C23.3902 181.23 22.547 182.543 21.425 183.598L23.2664 182.029C23.7683 182.453 24.3937 182.707 25.0513 182.753C25.709 182.8 26.3644 182.637 26.922 182.288C27.4686 181.922 27.9246 181.439 28.256 180.874C28.5873 180.309 28.7852 179.677 28.8349 179.025C28.9224 177.717 28.6633 176.409 28.0835 175.231Z" fill="#2F2E41"/>
<path d="M144.003 270.775C142.921 270.231 141.731 269.929 140.519 269.891C139.306 269.852 138.099 270.078 136.984 270.552C135.869 271.026 134.872 271.737 134.064 272.635C133.255 273.532 132.655 274.595 132.306 275.747L113.436 277.644L111.801 289.3L138.41 286.25C140.401 286.705 142.491 286.419 144.283 285.447C146.076 284.475 147.447 282.885 148.136 280.977C148.825 279.069 148.785 276.977 148.024 275.097C147.262 273.217 145.832 271.679 144.003 270.775Z" fill="#FFB6B6"/>
<path d="M70.1907 295.861C69.2705 295.646 68.4052 295.244 67.6497 294.68C66.8943 294.116 66.2652 293.403 65.8022 292.585C62.4604 286.943 37.6643 263.925 37.9352 262.919L32.7407 255.255C32.7032 254.951 31.8019 246.841 35.7991 242.271C36.6447 241.318 37.6881 240.559 38.8575 240.045C40.0269 239.531 41.2946 239.274 42.5737 239.292C53.5286 239.015 81.0703 273.409 81.4326 277.315L114.319 276.375L125.814 273.214L128.272 288.146L111.652 295.061C110.484 295.892 86.7756 299.901 70.1907 295.861Z" fill="#FCFBFF"/>
</g>
<defs>
<clipPath id="clip0_434_6429">
<rect width="859" height="603" fill="white" transform="translate(-316)"/>
</clipPath>
</defs>
</svg>
