<svg width="307" height="198" viewBox="0 0 307 198" fill="none" xmlns="http://www.w3.org/2000/svg">
<path d="M307 125.523C307 199.152 246.239 167.022 151.555 167.022C56.8723 167.022 0.000122027 199.151 0.000122027 125.523C0.000122027 51.8946 57.7627 28 152.446 28C247.129 28 307 51.8947 307 125.523Z" fill="#FCFBFF"/>
<g clip-path="url(#clip0_490_6083)">
<path d="M83.4664 139.435L81.1358 157.826L77.7062 136.934C61.2237 130.599 41.9519 129.368 41.9519 129.368C41.9519 129.368 37.6991 169.269 51.7405 185.953C65.7819 202.637 80.5862 200.101 92.8005 189.786C105.015 179.472 110.013 165.285 95.9719 148.601C92.8465 144.887 88.4348 141.876 83.4664 139.435Z" fill="#F0CF86"/>
<path d="M78.8959 160.606L79.588 161.429C87.5843 171.029 92.252 179.847 93.514 187.765C93.5344 187.88 93.5473 187.995 93.5677 188.11L93.0325 188.193L92.517 188.266C91.2475 179.636 85.7406 170.573 78.7682 162.198C78.5461 161.926 78.3206 161.649 78.087 161.38C75.1041 157.861 71.8838 154.472 68.6191 151.295C68.3685 151.047 68.1105 150.798 67.8525 150.55C63.5217 146.379 59.1509 142.59 55.2469 139.388C54.972 139.161 54.693 138.937 54.4174 138.717C47.7873 133.326 42.6233 129.726 41.4719 128.936C41.3332 128.837 41.2546 128.785 41.2368 128.773L41.5304 128.337L41.5311 128.329L41.8287 127.89C41.8465 127.903 42.1109 128.076 42.5879 128.412C44.3796 129.657 49.1928 133.079 55.1609 137.915C55.429 138.134 55.708 138.358 55.9829 138.586C59.1537 141.18 62.6174 144.148 66.107 147.385C66.9849 148.197 67.8403 149.007 68.6733 149.815C68.9353 150.06 69.1933 150.309 69.4439 150.557C72.9735 153.991 76.1242 157.341 78.8959 160.606Z" fill="white"/>
<path d="M55.1608 137.915C54.9194 138.181 54.6739 138.451 54.4174 138.717C53.7219 139.438 52.99 140.124 52.2245 140.771C48.9654 143.53 45.1297 145.522 41 146.6C41.0109 146.96 41.0218 147.32 41.0321 147.687C45.4037 146.586 49.4664 144.499 52.9098 141.585C53.7269 140.894 54.507 140.161 55.2469 139.388C55.4992 139.126 55.7448 138.856 55.9828 138.586C57.9588 136.365 59.5865 133.856 60.8104 131.145C60.4472 131.069 60.0915 130.993 59.7432 130.918C58.5681 133.464 57.0239 135.821 55.1608 137.915Z" fill="white"/>
<path d="M68.6731 149.815C68.4063 150.068 68.1327 150.313 67.8523 150.55C67.7704 150.626 67.681 150.701 67.5956 150.773C64.0603 153.759 59.8566 155.844 55.343 156.851C50.8294 157.857 46.1398 157.756 41.6738 156.554C41.7134 156.932 41.753 157.309 41.8001 157.687C46.3804 158.851 51.1715 158.904 55.7765 157.844C60.3816 156.783 64.668 154.638 68.2809 151.588C68.3947 151.491 68.5085 151.395 68.6189 151.295C68.8999 151.051 69.1735 150.806 69.4437 150.557C73.5957 146.67 76.5422 141.667 77.9308 136.146C77.5986 136.016 77.2664 135.886 76.9301 135.759C75.6018 141.149 72.7322 146.034 68.6731 149.815Z" fill="white"/>
<path d="M78.8959 160.606C78.6319 160.871 78.3611 161.127 78.0869 161.38C77.7924 161.649 77.4944 161.915 77.1896 162.172C72.4343 166.179 66.5115 168.534 60.3079 168.886C54.1043 169.239 47.9537 167.569 42.7769 164.126C42.8715 164.611 42.9627 165.091 43.0655 165.568C48.4022 168.857 54.638 170.378 60.8869 169.915C67.1357 169.451 73.0799 167.027 77.8749 162.987C78.1797 162.729 78.4811 162.468 78.7681 162.197C79.0498 161.946 79.3206 161.689 79.588 161.428C84.9555 156.125 88.1105 148.977 88.4143 141.431C88.0754 141.202 87.7277 140.987 87.3766 140.769C87.2324 148.234 84.1904 155.35 78.8959 160.606Z" fill="white"/>
<path d="M170.71 46.8036V17.1581C170.71 12.6075 168.905 8.24327 165.693 5.02552C162.481 1.80776 158.124 3.14217e-05 153.581 3.40074e-10H90.8793C88.6299 -1.41853e-05 86.4025 0.443779 84.3243 1.30604C82.2461 2.1683 80.3578 3.43215 78.7672 5.02542C77.1766 6.61868 75.9149 8.51017 75.0541 10.5919C74.1932 12.6736 73.7502 14.9048 73.7502 17.158V36.8465H72.6484V43.7838H73.7502V51.1835H72.6484V61.8207H73.7502V66.4455H72.6484V77.0826H73.7502V179.796C73.7501 182.049 74.1932 184.28 75.054 186.362C75.9148 188.444 77.1765 190.335 78.7671 191.929C80.3576 193.522 82.2459 194.786 84.3241 195.648C86.4023 196.51 88.6297 196.954 90.8791 196.954H153.581C155.83 196.954 158.058 196.51 160.136 195.648C162.214 194.786 164.102 193.522 165.693 191.929C167.283 190.335 168.545 188.444 169.406 186.362C170.267 184.281 170.71 182.049 170.71 179.796V67.9059H171.79V46.8036H170.71Z" fill="#3F3D56"/>
<path d="M154.272 4.46388H146.087C146.464 5.38823 146.607 6.39112 146.506 7.3842C146.404 8.37728 146.06 9.33007 145.504 10.1586C144.948 10.9872 144.198 11.6661 143.318 12.1356C142.438 12.605 141.457 12.8506 140.461 12.8507H104.54C103.543 12.8506 102.562 12.605 101.682 12.1356C100.803 11.6661 100.052 10.9872 99.4959 10.1586C98.94 9.33006 98.5961 8.37727 98.4944 7.38419C98.3927 6.39111 98.5364 5.38822 98.9128 4.46387H91.2683C87.8757 4.46387 84.6221 5.81385 82.2232 8.21684C79.8243 10.6198 78.4766 13.879 78.4766 17.2773V179.677C78.4766 181.359 78.8074 183.026 79.4503 184.58C80.0931 186.135 81.0353 187.547 82.2232 188.737C83.411 189.927 84.8211 190.871 86.3731 191.515C87.9251 192.159 89.5885 192.49 91.2683 192.49H154.272C157.665 192.49 160.918 191.14 163.317 188.737C165.716 186.334 167.064 183.075 167.064 179.677V17.2773C167.064 15.5946 166.733 13.9284 166.09 12.3738C165.447 10.8192 164.505 9.40667 163.317 8.21684C162.129 7.027 160.719 6.08317 159.167 5.43923C157.615 4.7953 155.952 4.46387 154.272 4.46388Z" fill="white"/>
<path d="M155.857 60.9809H89.6837C89.2225 60.9804 88.7804 60.7967 88.4544 60.4701C88.1283 60.1434 87.9449 59.7006 87.9443 59.2387V32.3429C87.9449 31.8809 88.1283 31.4381 88.4544 31.1115C88.7804 30.7849 89.2225 30.6011 89.6837 30.6006H155.857C156.318 30.6011 156.76 30.7848 157.086 31.1115C157.412 31.4381 157.596 31.8809 157.596 32.3429V59.2387C157.596 59.7006 157.412 60.1434 157.086 60.4701C156.76 60.7967 156.318 60.9804 155.857 60.9809Z" fill="#F7D7D5"/>
<path d="M149.556 73.708H95.9846C95.4771 73.708 94.9905 73.5061 94.6317 73.1467C94.2729 72.7873 94.0713 72.2998 94.0713 71.7915C94.0713 71.2832 94.2729 70.7958 94.6317 70.4363C94.9905 70.0769 95.4771 69.875 95.9846 69.875H149.556C150.063 69.875 150.55 70.0769 150.909 70.4363C151.268 70.7958 151.469 71.2832 151.469 71.7915C151.469 72.2998 151.268 72.7873 150.909 73.1467C150.55 73.5061 150.063 73.708 149.556 73.708Z" fill="#F7D7D5"/>
<path d="M149.556 83.4647H95.9847C95.4311 83.4647 94.9002 83.2444 94.5088 82.8523C94.1174 82.4602 93.8975 81.9284 93.8975 81.3739C93.8975 80.8194 94.1174 80.2877 94.5088 79.8956C94.9002 79.5035 95.4311 79.2832 95.9847 79.2832H149.556C150.11 79.2832 150.64 79.5035 151.032 79.8956C151.423 80.2877 151.643 80.8194 151.643 81.3739C151.643 81.9284 151.423 82.4602 151.032 82.8523C150.64 83.2444 150.11 83.4647 149.556 83.4647Z" fill="#262335"/>
<path d="M149.556 93.0477H95.9847C95.4311 93.0477 94.9002 92.8274 94.5088 92.4353C94.1174 92.0432 93.8975 91.5114 93.8975 90.9569C93.8975 90.4025 94.1174 89.8707 94.5088 89.4786C94.9002 89.0865 95.4311 88.8662 95.9847 88.8662H149.556C150.11 88.8662 150.64 89.0865 151.032 89.4786C151.423 89.8707 151.643 90.4025 151.643 90.9569C151.643 91.5114 151.423 92.0432 151.032 92.4353C150.64 92.8274 150.11 93.0477 149.556 93.0477Z" fill="#E4E4E4"/>
<path d="M155.857 141.474H89.6837C89.2225 141.474 88.7804 141.29 88.4544 140.963C88.1283 140.637 87.9449 140.194 87.9443 139.732V112.836C87.9449 112.374 88.1283 111.931 88.4544 111.605C88.7804 111.278 89.2225 111.094 89.6837 111.094H155.857C156.318 111.094 156.76 111.278 157.086 111.605C157.412 111.931 157.596 112.374 157.596 112.836V139.732C157.596 140.194 157.412 140.637 157.086 140.963C156.76 141.29 156.318 141.474 155.857 141.474Z" fill="#F7D7D5"/>
<path d="M149.556 154.376H95.9847C95.4311 154.376 94.9002 154.156 94.5088 153.763C94.1174 153.371 93.8975 152.84 93.8975 152.285C93.8975 151.731 94.1174 151.199 94.5088 150.807C94.9002 150.415 95.4311 150.194 95.9847 150.194H149.556C150.11 150.194 150.64 150.415 151.032 150.807C151.423 151.199 151.643 151.731 151.643 152.285C151.643 152.84 151.423 153.371 151.032 153.763C150.64 154.156 150.11 154.376 149.556 154.376Z" fill="#E4E4E4"/>
<path d="M149.556 163.959H95.9847C95.4311 163.959 94.9002 163.739 94.5088 163.346C94.1174 162.954 93.8975 162.423 93.8975 161.868C93.8975 161.314 94.1174 160.782 94.5088 160.39C94.9002 159.998 95.4311 159.777 95.9847 159.777H149.556C150.11 159.777 150.64 159.998 151.032 160.39C151.423 160.782 151.643 161.314 151.643 161.868C151.643 162.423 151.423 162.954 151.032 163.346C150.64 163.739 150.11 163.959 149.556 163.959Z" fill="#E4E4E4"/>
<path d="M149.556 173.541H95.9847C95.4311 173.541 94.9002 173.321 94.5088 172.928C94.1174 172.536 93.8975 172.005 93.8975 171.45C93.8975 170.896 94.1174 170.364 94.5088 169.972C94.9002 169.58 95.4311 169.359 95.9847 169.359H149.556C150.11 169.359 150.64 169.58 151.032 169.972C151.423 170.364 151.643 170.896 151.643 171.45C151.643 172.005 151.423 172.536 151.032 172.928C150.64 173.321 150.11 173.541 149.556 173.541Z" fill="#E4E4E4"/>
<path d="M209.682 50.9917C209.009 46.0473 208.165 40.7386 204.683 37.1693C203.579 36.0368 202.256 35.1401 200.796 34.5332C199.336 33.9263 197.769 33.6219 196.188 33.6383C194.608 33.6547 193.047 33.9916 191.6 34.6286C190.152 35.2655 188.849 36.1895 187.768 37.3447C185.234 40.0528 184.114 43.8555 184.012 47.5661C183.91 51.2766 184.735 54.9459 185.65 58.5429C190.493 58.6398 195.3 57.6919 199.746 55.7636C200.835 55.231 201.965 54.7865 203.125 54.4345C204.3 54.1351 205.137 54.8886 206.229 55.4139L206.829 54.2638C207.32 55.1789 208.84 54.9076 209.391 54.0277C209.943 53.1478 209.822 52.021 209.682 50.9917Z" fill="#2F2E41"/>
<path d="M254.045 187.744L250.488 190.101L239.721 177.478L244.971 174L254.045 187.744Z" fill="#FFB8B8"/>
<path d="M257.233 189.28L245.763 196.878L245.667 196.733C244.884 195.547 244.603 194.098 244.887 192.704C245.17 191.311 245.995 190.088 247.178 189.303L247.179 189.303L254.184 184.662L257.233 189.28Z" fill="#2F2E41"/>
<path d="M208.125 192.737H203.86L201.832 176.259L208.126 176.259L208.125 192.737Z" fill="#FFB8B8"/>
<path d="M209.212 196.878L195.461 196.877V196.703C195.461 195.281 196.025 193.918 197.029 192.912C198.032 191.907 199.394 191.342 200.813 191.342H200.814L209.213 191.342L209.212 196.878Z" fill="#2F2E41"/>
<path d="M177.782 79.4994L161.679 67.9775C161.75 67.3739 161.645 66.7627 161.375 66.2182C161.105 65.6736 160.684 65.2193 160.161 64.9105C159.639 64.6017 159.038 64.4517 158.432 64.4787C157.826 64.5057 157.24 64.7086 156.747 65.0627C156.254 65.4169 155.874 65.9069 155.654 66.4733C155.434 67.0396 155.383 67.6578 155.507 68.2527C155.631 68.8476 155.926 69.3935 156.354 69.824C156.782 70.2545 157.326 70.551 157.92 70.6774C159.932 72.3703 174.634 87.0159 176.739 86.2434C178.875 85.4593 188.216 84.04 188.216 84.04L188.476 75.156L177.782 79.4994Z" fill="#FFB8B8"/>
<path d="M190.433 100.463L190.585 120.735C190.585 120.735 194.07 150.773 195.355 155.847C196.64 160.921 201.857 184.401 201.857 184.401L210.338 183.031L204.876 152.333L206.527 126.889L216.046 152.389L240.218 177.698L246.344 172.747L225.305 141.776L218.879 116.404C218.879 116.404 219.678 103.281 212.478 98.2275L190.433 100.463Z" fill="#F0CF86"/>
<path d="M195.304 55.8838C200.438 55.8838 204.599 51.7151 204.599 46.5728C204.599 41.4304 200.438 37.2617 195.304 37.2617C190.17 37.2617 186.009 41.4304 186.009 46.5728C186.009 51.7151 190.17 55.8838 195.304 55.8838Z" fill="#FFB8B8"/>
<path d="M197.723 103.734L194.268 111.459L204.293 115.958L207.748 108.233L197.723 103.734Z" fill="#2F2E41"/>
<path d="M210.192 64.4885C209.097 62.3047 208.564 59.607 206.229 58.899C204.652 58.4209 198.274 59.1374 196.837 59.9444C194.446 61.2867 196.613 63.8022 195.202 66.1561C193.669 68.715 192.136 71.274 190.603 73.8329C189.549 75.5921 188.483 77.3764 187.913 79.347C187.344 81.3177 187.316 83.5296 188.287 85.3361C189.156 86.9531 190.73 88.1 191.604 89.7143C192.513 91.3932 190.881 98.8896 190.036 100.601L190.442 100.789C196.065 101.12 201.707 100.929 207.295 100.221C208.682 100.045 210.122 99.8152 211.265 99.0087C212.949 97.8208 213.614 95.6651 214.03 93.6448C216.032 83.7692 214.681 73.5067 210.192 64.4885Z" fill="#E4E4E4"/>
<path d="M191.169 85.637C193.687 83.1579 196.218 80.6639 198.291 77.8009C200.365 74.9378 201.977 71.6607 202.427 68.1527C202.619 67.0334 202.543 65.8843 202.204 64.8005C201.817 63.7381 200.962 62.7951 199.859 62.5527C198.095 62.1647 196.491 63.5752 195.232 64.8726C191.52 68.6983 187.808 72.5238 184.095 76.3494C186.46 79.4674 188.825 82.5853 191.189 85.7032L191.169 85.637Z" fill="#E4E4E4"/>
<path d="M218.617 87.5463C217.834 85.4062 216.418 76.0496 216.418 76.0496L207.549 75.7891L211.885 86.5017L205.969 94.7978L200.052 103.094C200.052 103.094 200.074 103.13 200.114 103.195C199.492 103.095 198.854 103.186 198.284 103.455C197.715 103.724 197.239 104.159 196.92 104.703C196.601 105.248 196.453 105.876 196.497 106.505C196.54 107.135 196.772 107.737 197.162 108.232C197.552 108.728 198.083 109.093 198.684 109.282C199.286 109.47 199.93 109.472 200.532 109.288C201.135 109.104 201.668 108.741 202.062 108.249C202.455 107.756 202.691 107.156 202.739 106.526C202.782 106.551 202.833 106.56 202.883 106.552C202.932 106.543 202.977 106.518 203.01 106.48C204.327 104.825 219.4 89.6863 218.617 87.5463Z" fill="#FFB8B8"/>
<path d="M219.519 81.6373C218.705 78.1957 217.885 74.7354 216.512 71.4767C215.14 68.2179 213.175 65.1399 210.412 62.9384C209.555 62.1939 208.534 61.6646 207.433 61.3944C206.325 61.1756 205.077 61.4205 204.299 62.24C203.055 63.5513 203.429 65.6561 203.886 67.4068C205.232 72.5687 206.578 77.7305 207.924 82.8924C211.811 82.4797 215.699 82.0669 219.586 81.6542L219.519 81.6373Z" fill="#E4E4E4"/>
<path d="M206.925 47.297C206.634 45.0445 206.331 42.7732 205.648 40.6523C204.965 38.5314 203.865 36.5449 202.286 35.3434C199.787 33.4412 196.55 33.8081 193.748 34.9023C191.581 35.7485 189.465 37.0347 187.937 39.1024C186.409 41.1701 185.55 44.1206 186.119 46.8242C189.108 45.9909 192.097 45.1576 195.087 44.3242L194.759 44.5971C196.699 45.692 198.172 47.9574 198.613 50.5225C199.055 53.0786 198.489 55.707 197.035 57.8532C199.073 56.9999 201.112 56.1466 203.151 55.2933C204.409 54.7666 205.756 54.1597 206.502 52.8087C207.367 51.2423 207.166 49.1662 206.925 47.297Z" fill="#2F2E41"/>
<path d="M163.038 61.8946L157.058 70.884C156.916 71.0999 156.722 71.2767 156.493 71.3985C156.265 71.5202 156.01 71.5831 155.752 71.5814C155.444 71.5814 155.144 71.4903 154.888 71.3195C154.632 71.1487 154.432 70.9058 154.314 70.6214C154.272 70.5255 154.24 70.4253 154.22 70.3226C154.139 69.9147 154.223 69.4913 154.453 69.1451L160.433 60.1556C160.547 59.9843 160.693 59.8371 160.864 59.7224C161.035 59.6078 161.226 59.528 161.428 59.4876C161.629 59.4471 161.837 59.4469 162.039 59.4868C162.24 59.5267 162.432 59.606 162.603 59.7202C162.774 59.8344 162.921 59.9812 163.036 60.1522C163.15 60.3233 163.23 60.5153 163.27 60.7172C163.311 60.9191 163.311 61.127 163.271 61.329C163.231 61.531 163.152 61.7232 163.038 61.8946Z" fill="#6C63FF"/>
<path d="M157.541 70.1589L156.33 71.9677L154.189 73.8587C154.048 73.9833 153.87 74.0578 153.682 74.0705C153.495 74.0832 153.308 74.0335 153.152 73.9291C152.995 73.8247 152.878 73.6714 152.817 73.4931C152.757 73.3149 152.757 73.1216 152.817 72.9433L153.755 70.1946L154.935 68.4199L157.541 70.1589Z" fill="#3F3D56"/>
<path d="M163.302 57.1802L160.306 59.826C160.207 59.9126 160.13 60.0206 160.081 60.1418C160.031 60.2629 160.01 60.3939 160.018 60.5246C160.027 60.6553 160.066 60.7822 160.131 60.8956C160.197 61.0089 160.288 61.1056 160.397 61.1783L160.964 61.5567L159.324 64.0216C159.299 64.0596 159.281 64.1023 159.272 64.1472C159.263 64.1921 159.263 64.2383 159.272 64.2832C159.281 64.3281 159.299 64.3707 159.325 64.4087C159.35 64.4468 159.383 64.4794 159.421 64.5048C159.459 64.5301 159.501 64.5478 159.546 64.5566C159.591 64.5655 159.637 64.5654 159.682 64.5564C159.727 64.5475 159.769 64.5297 159.807 64.5043C159.845 64.4788 159.878 64.4461 159.903 64.408L161.543 61.9431L162.109 62.3216C162.298 62.4469 162.528 62.4926 162.749 62.4485C162.971 62.4044 163.166 62.2742 163.292 62.0864C163.333 62.0238 163.366 61.9561 163.39 61.885L164.674 58.0959C164.735 57.9176 164.734 57.7243 164.674 57.5461C164.613 57.3678 164.496 57.2146 164.339 57.1102C164.183 57.0058 163.996 56.9561 163.809 56.9687C163.621 56.9814 163.443 57.0557 163.302 57.1802L163.302 57.1802Z" fill="#3F3D56"/>
<path d="M266.586 197.613H41.414C41.3043 197.613 41.1993 197.569 41.1219 197.491C41.0444 197.413 41.001 197.308 41.001 197.198C41.001 197.088 41.0444 196.983 41.1219 196.905C41.1993 196.827 41.3043 196.784 41.414 196.783H266.586C266.695 196.784 266.8 196.827 266.878 196.905C266.955 196.983 266.999 197.088 266.999 197.198C266.999 197.308 266.955 197.413 266.878 197.491C266.8 197.569 266.695 197.613 266.586 197.613Z" fill="#3F3D56"/>
<path d="M125.118 7.50125H115.726C115.541 7.50125 115.365 7.42782 115.234 7.29713C115.104 7.16643 115.03 6.98917 115.03 6.80433C115.03 6.6195 115.104 6.44224 115.234 6.31154C115.365 6.18085 115.541 6.10742 115.726 6.10742H125.118C125.303 6.10742 125.48 6.18085 125.61 6.31154C125.741 6.44224 125.814 6.6195 125.814 6.80433C125.814 6.98917 125.741 7.16643 125.61 7.29713C125.48 7.42782 125.303 7.50125 125.118 7.50125Z" fill="white"/>
<path d="M129.815 7.50125C130.199 7.50125 130.511 7.18923 130.511 6.80433C130.511 6.41944 130.199 6.10742 129.815 6.10742C129.431 6.10742 129.119 6.41944 129.119 6.80433C129.119 7.18923 129.431 7.50125 129.815 7.50125Z" fill="white"/>
</g>
<defs>
<clipPath id="clip0_490_6083">
<rect width="226" height="198" fill="white" transform="translate(41)"/>
</clipPath>
</defs>
</svg>
